<svg width="252" height="269" viewBox="0 0 252 269" fill="none" xmlns="http://www.w3.org/2000/svg">
<path d="M122.506 0.463988C114.945 2.88186 111.26 11.402 114.676 18.4253C115.943 20.9583 118.245 23.4146 120.318 24.374L121.738 25.0265L121.776 28.7492V32.5104H120.088C114.638 32.5104 103.546 35.9261 97.1754 39.6105C87.4272 45.1754 81.9006 50.5485 75.5297 60.7189C75.2611 61.141 73.9946 61.8702 72.6897 62.3692C64.1312 65.6314 59.2187 74.8807 61.2912 83.7078C62.0971 87.1236 63.8625 90.3858 66.1269 92.7269C67.8539 94.4539 68.0075 94.761 68.4296 97.601C69.2356 102.744 71.3848 109.46 73.6875 113.835C74.1865 114.756 74.5319 115.562 74.4935 115.639C74.4167 115.677 73.4189 116.138 72.2291 116.675C61.2144 121.511 52.9629 132.564 49.9694 146.381C49.3553 149.413 49.125 151.946 49.0099 159.353C48.818 168.103 48.8564 168.64 49.5856 169.792C50.4683 171.173 52.157 171.711 54.4213 171.289C57.1462 170.751 57.1846 170.598 57.4149 159.813C57.6835 147.071 58.5279 143.464 62.8647 135.903C64.8604 132.449 69.8113 127.46 73.0351 125.656C77.1033 123.43 76.7195 123.046 76.9881 129.302C77.6789 145.728 81.6704 159.238 89.4229 171.212C96.1008 181.536 107.192 190.939 120.433 197.501C125.614 200.034 126.689 200.034 132.139 197.348C148.181 189.442 159.081 178.926 166.449 164.227C169.021 159.122 170.095 156.359 171.631 150.794C173.741 143.464 175.123 134.061 175.123 127.421C175.123 125.042 175.277 123.852 175.545 123.852C176.236 123.852 180.112 126.117 182.031 127.613C185.754 130.53 188.748 134.406 191.012 139.204C193.929 145.46 194.696 150.103 194.696 161.924C194.696 168.794 194.735 169.139 195.579 170.099C196.308 170.943 196.769 171.097 198.88 171.173C201.106 171.212 201.374 171.135 202.257 170.099L203.216 168.986L203.024 159.199C202.833 148.837 202.602 147.148 200.607 140.969C198.496 134.368 194.197 127.46 189.4 123.008C186.79 120.628 182.338 117.596 179.767 116.445C178.807 116.023 177.963 115.639 177.886 115.601C177.81 115.524 178.27 114.449 178.923 113.144C181.302 108.462 182.837 103.626 183.797 97.8313C184.296 94.761 184.411 94.5307 186.368 92.4199C189.745 88.7355 191.204 84.936 191.242 79.6781C191.242 71.8104 186.368 64.8254 179.038 62.2157C177.349 61.6016 176.927 61.2178 175.507 58.9151C168.906 48.2074 157.852 39.6489 145.187 35.4272C140.505 33.892 135.094 32.7023 131.371 32.4336L130.028 32.3185L129.913 28.826L129.798 25.3335L131.026 24.8346C137.013 22.34 140.237 14.4723 137.857 8.13977C136.859 5.41487 134.058 2.45969 131.218 1.07805C128.876 -0.0733169 125 -0.341969 122.506 0.463988ZM128.07 9.09924C131.064 10.2122 131.026 15.355 127.994 16.7366C125.077 18.1183 121.776 16.0458 121.776 12.8604C121.815 9.63655 124.77 7.83274 128.07 9.09924ZM135.209 41.5678C153.516 44.7149 168.215 57.3415 173.549 74.5353C175.929 82.2111 176.428 89.5031 175.123 97.1021C174.01 103.665 170.556 113.106 169.289 113.106C168.292 113.106 151.635 108.539 146.339 106.812C142.578 105.622 135.209 102.821 130.488 100.863C128.454 99.9805 126.382 99.2897 125.921 99.2897C125.461 99.2897 121.201 100.825 116.442 102.705C111.683 104.586 105.58 106.812 102.894 107.695C98.5571 109.076 83.7812 113.106 82.9752 113.106C82.5147 113.106 80.2503 108.462 79.1757 105.43C76.6811 98.0999 75.8368 88.5436 77.0649 81.2132C78.9071 70.1985 84.1266 60.6805 92.57 53.1199C103.815 43.0646 119.32 38.8813 135.209 41.5678ZM130.527 109.882C139.124 113.605 150.522 117.328 162.074 120.206C164.415 120.782 166.296 121.473 166.603 121.856C167.14 122.547 167.063 125.042 166.257 134.214C165.605 141.545 163.456 150.218 160.731 156.666C154.821 170.636 145.264 180.845 130.949 188.482C128.723 189.672 126.497 190.631 125.998 190.631C124.923 190.631 119.243 187.638 115.022 184.836C109.495 181.19 105.58 177.813 101.666 173.399C99.5933 171.058 98.9792 170.252 95.7938 165.493C91.9175 159.813 88.1564 149.681 86.698 141.008C85.7001 135.251 84.7407 123.584 85.1245 122.317C85.3547 121.549 85.5466 121.473 91.2651 120.053C103.086 117.136 114.177 113.336 123.695 108.923C124.655 108.501 125.653 108.117 125.921 108.117C126.19 108.117 128.262 108.923 130.527 109.882Z" fill="white"/>
<path d="M100.284 60.1048C96.7916 61.2178 94.8343 62.4459 92.2245 65.0941C88.5017 68.8936 86.8514 72.8466 86.8514 77.951C86.8898 87.8528 95.7937 96.2578 106.156 96.2194C109.073 96.181 111.145 95.6437 115.252 93.7248C123.58 89.8485 128.416 89.8485 136.744 93.7248C140.966 95.6821 142.923 96.181 146.147 96.2194C151.059 96.2194 155.78 94.3388 159.503 90.8463C164.031 86.6247 166.142 80.7911 165.183 75.0342C164.07 68.1644 159.464 62.753 152.71 60.2967L150.138 59.3756L126.267 59.414C104.467 59.414 102.203 59.4908 100.284 60.1048ZM109.879 71.0812C110.416 71.3499 111.299 72.0791 111.874 72.6931C114.83 75.8018 114.216 81.4435 110.608 83.823C109.226 84.7441 108.574 84.8976 106.425 84.8976C104.275 84.8976 103.623 84.7441 102.241 83.823C99.5165 82.0192 98.3267 77.7975 99.67 74.6121C100.284 73.0769 102.625 70.9661 104.045 70.659C104.621 70.5439 105.273 70.3904 105.465 70.3136C106.118 70.1217 108.881 70.5823 109.879 71.0812ZM149.025 71.0812C150.33 71.772 151.98 73.5374 152.441 74.8423C153.439 77.4905 152.595 81.5203 150.676 83.2473C149.486 84.3219 147.26 85.0895 145.264 85.0895C138.893 85.0895 135.785 76.6078 140.582 72.2709C141.426 71.5417 142.578 70.8125 143.153 70.659C143.767 70.5439 144.42 70.3904 144.612 70.3136C145.264 70.1217 148.027 70.5823 149.025 71.0812Z" fill="white"/>
<path d="M134.057 140.931C126.996 147.993 121.009 153.788 120.817 153.788C120.625 153.788 117.555 150.909 114.024 147.417C107.614 141.008 107.614 141.008 106.156 141.238C105.043 141.43 104.275 141.929 102.894 143.425C101.32 145.114 101.052 145.613 101.052 146.995C101.052 148.568 101.167 148.722 110.186 157.702C118.514 166.031 119.435 166.837 120.625 166.837C121.815 166.837 123.12 165.647 137.55 151.216C146.185 142.658 153.4 135.136 153.669 134.522C154.283 133.063 153.631 131.605 151.482 129.609C150.138 128.381 149.524 128.074 148.373 128.074C146.991 128.074 146.377 128.65 134.057 140.931Z" fill="white"/>
<path d="M4.87412 213.16C2.7249 214.119 1.88057 214.81 1.11299 216.23C-0.307031 219.032 0.844336 223.215 3.49248 224.674C4.26006 225.134 6.06387 225.787 7.44551 226.132C8.86553 226.477 10.5542 227.091 11.2066 227.514C12.2045 228.128 12.3964 228.473 12.3964 229.74C12.3964 231.659 11.3985 232.464 9.01904 232.464C6.86982 232.464 5.29629 231.62 4.79736 230.162C4.41357 229.049 4.26006 229.01 2.1876 229.01H0L0.230273 230.507C0.498926 232.541 1.4584 233.846 3.53086 235.074C5.02764 235.957 5.71846 236.11 8.40498 236.11C14.1234 236.11 17.1554 233.769 17.117 229.317C17.0786 225.403 15.198 223.561 10.0553 222.294C6.52441 221.411 5.10439 220.49 5.10439 219.07C5.10439 216.537 9.13418 215.347 11.0531 217.305C11.5904 217.804 12.0126 218.495 12.0126 218.84C12.0126 219.301 12.5115 219.416 14.3153 219.416C16.9635 219.416 17.117 219.147 15.8121 216.46C14.6991 214.158 12.5883 212.968 9.13418 212.699C7.06172 212.546 6.06387 212.661 4.87412 213.16Z" fill="white"/>
<path d="M46.6687 212.891C41.2957 214.004 38.1102 218.264 38.1102 224.367C38.1102 227.936 38.9546 230.469 40.8351 232.618C43.253 235.343 44.9417 236.072 48.8563 236.11C51.8115 236.11 52.3104 235.995 54.2294 234.921C56.4553 233.654 58.8348 230.776 58.8348 229.241C58.8348 228.473 58.6813 228.435 56.5705 228.627C54.4596 228.818 54.191 228.934 53.385 230.162C51.6964 232.656 47.8201 233.117 45.4022 231.044C43.4833 229.471 42.946 228.051 42.946 224.597C42.9076 220.989 43.7135 218.993 45.786 217.573C48.319 215.885 52.3104 216.768 53.6537 219.416C54.2294 220.49 54.3829 220.567 56.6089 220.567H58.95L58.6813 219.301C57.837 214.925 51.965 211.778 46.6687 212.891Z" fill="white"/>
<path d="M161.652 212.93C159.042 213.505 156.356 215.731 154.974 218.456C153.899 220.529 153.823 221.028 153.823 224.558C153.823 227.936 153.938 228.703 154.782 230.315C156.893 234.46 159.733 236.11 164.761 236.11C167.677 236.11 168.253 235.995 170.134 234.959C174.893 232.311 177.08 226.209 175.315 220.26C173.665 214.733 167.793 211.586 161.652 212.93ZM166.68 217.305C167.984 217.689 169.75 219.339 170.364 220.836C171.208 222.831 171.055 226.631 170.057 228.627C168.79 231.083 167.486 231.889 164.761 231.889C161.997 231.85 160.731 231.083 159.503 228.627C158.466 226.631 158.313 222.947 159.157 220.912C159.886 219.185 161.575 217.65 163.225 217.19C164.569 216.806 164.876 216.806 166.68 217.305Z" fill="white"/>
<path d="M239.983 212.93C237.45 213.352 236.376 213.851 234.61 215.424C228.777 220.682 229.928 231.659 236.644 234.959C240.597 236.878 245.587 236.571 248.772 234.23C251.113 232.503 251.497 231.543 251.497 227.36V223.637H246.661H241.864L241.979 225.441L242.094 227.245L244.704 227.13L247.275 227.053V228.204C247.275 230.891 243.591 232.963 240.405 232.081C238.832 231.659 236.798 229.778 236.184 228.128C235.416 226.17 235.685 222.064 236.644 220.183C237.911 217.689 239.177 216.921 242.017 216.921C244.589 216.921 246.085 217.65 246.853 219.3C247.198 220.068 247.544 220.183 249.424 220.183H251.612L251.343 218.917C250.499 214.618 245.51 212.009 239.983 212.93Z" fill="white"/>
<path d="M20.8397 224.482V235.919H28.1317H35.4237V234V232.081H30.4344H25.4452V229.202V226.324H29.6669H33.8885V224.405V222.486H29.6669H25.4452V219.799V217.113H30.2426H35.0399V215.079V213.083H27.9398H20.8397V224.482Z" fill="white"/>
<path d="M64.0927 213.198L61.8284 213.313L61.9819 221.834C62.097 229.241 62.1738 230.546 62.8262 231.697C64.5533 234.997 66.5874 236.034 71.1161 236.072C73.7642 236.11 74.7237 235.957 76.1437 235.228C79.9816 233.347 80.2886 232.311 80.327 221.526V213.083L78.0243 213.198L75.7215 213.352V220.989C75.7215 231.121 75.3377 232.081 71.2312 232.081C69.2355 232.081 67.969 231.428 67.2014 230.047C66.8944 229.509 66.6641 226.362 66.5106 221.143L66.3187 213.083L64.0927 213.198Z" fill="white"/>
<path d="M84.9325 224.482V235.919H87.2352H89.538V231.697V227.475H91.3802H93.2223L95.2948 231.697L97.3673 235.919H100.015H102.664L101.589 234.076C99.977 231.275 97.6359 226.938 97.5975 226.708C97.5975 226.593 98.0965 226.209 98.7105 225.825C101.244 224.328 102.165 219.876 100.591 216.729C99.1327 213.889 98.0197 213.505 90.958 213.275L84.9325 213.083V224.482ZM96.1775 218.303C96.7532 219.109 96.8683 219.646 96.6381 220.912C96.2927 222.947 95.0645 223.637 91.7639 223.637H89.3461L89.4612 220.375L89.5763 217.075L92.4931 217.19C95.1413 217.305 95.4867 217.42 96.1775 218.303Z" fill="white"/>
<path d="M131.371 213.16C131.371 213.198 132.676 216.998 134.288 221.603C135.9 226.209 137.627 231.313 138.164 232.925L139.162 235.919H141.733H144.305L146.032 231.198C146.991 228.627 148.757 223.676 149.985 220.183C151.213 216.691 152.287 213.659 152.364 213.467C152.479 213.16 150.369 213.045 147.797 213.237C147.605 213.275 147.49 213.467 147.49 213.736C147.49 213.966 146.262 217.957 144.727 222.639L141.964 231.083L141.119 228.435C140.697 226.938 139.431 222.985 138.394 219.608L136.475 213.467L133.904 213.275C132.522 213.16 131.371 213.122 131.371 213.16Z" fill="white"/>
<path d="M186.56 213.16L177.809 213.275V215.194V217.113H181.072H184.334V226.516V235.919H186.637H188.939V226.516V217.113H192.202H195.464V215.002C195.464 213.851 195.425 212.93 195.387 212.968C195.31 213.045 191.357 213.122 186.56 213.16Z" fill="white"/>
<path d="M209.971 213.198L207.745 213.313V224.597V235.919H210.086H212.389L212.274 228.435C212.197 224.328 212.274 220.989 212.427 221.028C212.581 221.104 214.692 224.059 217.186 227.667C219.642 231.236 221.945 234.575 222.291 235.036C222.79 235.727 223.288 235.88 225.016 235.919H227.126V224.597V213.275H224.939H222.713V220.797V228.358L218.222 221.642C212.043 212.469 212.619 213.045 209.971 213.198Z" fill="white"/>
<path d="M106.041 224.597V235.919H113.295H120.548V234L120.587 232.081H115.636C109.956 232.081 110.109 232.157 110.339 228.396L110.454 226.516L114.791 226.401L119.09 226.285V224.405V222.524L114.791 222.409L110.454 222.294L110.531 219.799L110.57 217.305L115.405 217.19L120.241 217.075V215.194V213.275H113.141H106.041V224.597Z" fill="white"/>
<path d="M198.534 224.597V235.919H200.837H203.14V224.597V213.275H200.837H198.534V224.597Z" fill="white"/>
<path d="M71.4615 244.746C69.1587 245.13 67.5468 245.974 66.7025 247.317C65.129 249.697 65.2825 253.534 67.0095 255.415C68.1609 256.682 69.5425 257.334 73.1118 258.37C76.5275 259.368 77.6405 260.136 77.6405 261.594C77.6405 263.398 76.3356 264.319 73.8026 264.319C71.7301 264.319 70.1566 263.475 69.6577 262.055C69.2739 260.98 69.1587 260.903 67.0863 260.903H64.8987L65.0906 262.246C65.436 264.357 66.7409 266.084 68.7366 267.082C71.3463 268.387 76.374 268.31 78.7535 266.967C81.44 265.509 82.0541 264.357 82.0541 261.057C82.0541 258.6 81.9389 258.102 81.0946 257.219C79.7897 255.837 78.6383 255.262 75.0691 254.302C71.1161 253.227 70.3485 252.729 70.3485 251.117C70.3485 250.349 70.6555 249.581 71.1161 249.159C72.6896 247.739 76.8729 248.699 76.8729 250.503C76.8729 251.193 77.1416 251.27 79.1756 251.27C81.3249 251.27 81.4784 251.193 81.4784 250.387C81.4784 249.927 81.0562 248.852 80.5957 248.008C79.0989 245.36 75.5296 244.093 71.4615 244.746Z" fill="white"/>
<path d="M108.996 244.899C105.273 245.897 103.162 249.313 104.084 252.805C104.851 255.684 106.617 256.95 111.874 258.332C113.256 258.716 114.753 259.33 115.213 259.752C116.135 260.596 116.25 262.285 115.52 263.321C114.945 264.089 112.066 264.588 110.493 264.165C109.341 263.897 107.96 262.515 107.96 261.632C107.96 261.172 107.461 261.018 105.657 260.942C103.47 260.826 103.354 260.865 103.354 261.709C103.393 263.475 104.774 265.777 106.501 266.89C107.998 267.85 108.497 267.927 111.606 267.965C114.523 267.965 115.367 267.811 116.979 267.005C118.053 266.468 119.282 265.47 119.781 264.703C120.548 263.551 120.663 262.976 120.548 260.788C120.433 258.447 120.279 258.063 119.09 256.835C117.862 255.569 116.365 254.916 111.529 253.611C109.533 253.074 108.727 252.306 108.727 250.925C108.727 248.814 111.337 247.701 113.832 248.699C114.753 249.121 115.29 249.62 115.482 250.272C115.712 251.193 115.866 251.27 117.977 251.27H120.241L120.011 250.196C119.282 247.279 117.401 245.398 114.484 244.784C112.066 244.247 111.337 244.285 108.996 244.899Z" fill="white"/>
<path d="M83.3974 246.166C83.8579 246.972 85.5466 249.85 87.1201 252.613C88.732 255.338 90.1521 257.756 90.3439 257.986C90.5358 258.178 90.6894 260.443 90.6894 263.052V267.773H92.9921H95.2948V263.244V258.716L96.7532 256.221C102.241 247.048 103.354 245.13 103.354 244.938C103.354 244.822 102.357 244.746 101.128 244.746H98.9408L96.1008 249.735L93.2607 254.724L92.2245 252.92C91.6488 251.884 90.4207 249.697 89.4612 248.008L87.7342 244.938L85.1244 244.822L82.5146 244.707L83.3974 246.166Z" fill="white"/>
<path d="M122.16 246.857V248.967H125.422H128.684V258.37V267.811L131.102 267.696L133.482 267.581V258.293V248.967H136.667H139.814V246.857V244.746H130.987H122.16V246.857Z" fill="white"/>
<path d="M142.885 256.259V267.773H150.177H157.469V265.662V263.551H152.479H147.49V260.865V258.178H151.904H156.317V256.259V254.34H151.904H147.49V251.654V248.967H152.479H157.469V246.857V244.746H150.177H142.885V256.259Z" fill="white"/>
<path d="M161.307 256.259V267.773H163.648H165.95L165.835 259.138C165.758 254.379 165.835 250.503 166.027 250.503C166.181 250.503 166.296 250.733 166.296 250.963C166.296 251.232 167.486 254.302 168.944 257.795L171.592 264.127H173.396C175.161 264.127 175.2 264.089 175.852 262.4C176.236 261.441 176.888 259.905 177.349 258.946C177.771 257.986 178.769 255.76 179.536 253.957C180.304 252.153 181.033 250.618 181.148 250.503C181.264 250.387 181.264 254.187 181.225 258.946L181.072 267.581L183.298 267.696L185.485 267.811V256.259V244.746H182.53H179.536L178.577 246.972C178.078 248.161 176.85 250.886 175.852 252.997C174.893 255.108 173.972 257.18 173.818 257.564C173.473 258.524 173.166 258.102 172.091 255.3C171.592 254.033 170.402 251.155 169.481 248.852L167.754 244.746H164.53H161.307V256.259Z" fill="white"/>
</svg>
