<svg width="161" height="171" viewBox="0 0 161 171" fill="none" xmlns="http://www.w3.org/2000/svg">
<path d="M78.7784 0.709938C73.9688 2.24802 71.6251 7.66795 73.7979 12.1357C74.6036 13.747 76.0685 15.3095 77.3868 15.9199L78.2901 16.3349L78.3145 18.7031V21.0957H77.2403C73.7735 21.0957 66.7179 23.2685 62.6651 25.6123C56.464 29.1523 52.9483 32.5703 48.8956 39.04C48.7247 39.3086 47.919 39.7724 47.089 40.0898C41.6446 42.165 38.5196 48.0488 39.838 53.664C40.3507 55.8369 41.4737 57.9121 42.9142 59.4014C44.0128 60.5 44.1104 60.6953 44.379 62.5019C44.8917 65.7734 46.2589 70.0459 47.7237 72.8291C48.0411 73.415 48.2608 73.9277 48.2364 73.9765C48.1876 74.001 47.5528 74.2939 46.796 74.6357C39.7892 77.7119 34.5401 84.7431 32.6358 93.5322C32.2452 95.4609 32.0987 97.0722 32.0255 101.784C31.9034 107.351 31.9278 107.692 32.3917 108.425C32.9532 109.304 34.0274 109.645 35.4679 109.377C37.2013 109.035 37.2257 108.937 37.3722 102.077C37.5431 93.9717 38.0802 91.6767 40.839 86.8672C42.1085 84.6699 45.2579 81.4961 47.3087 80.3486C49.8966 78.9326 49.6524 78.6885 49.8233 82.6679C50.2628 93.1172 52.8019 101.711 57.7335 109.328C61.9815 115.895 69.0372 121.877 77.4601 126.052C80.756 127.663 81.4395 127.663 84.9063 125.954C95.1114 120.925 102.045 114.235 106.733 104.885C108.368 101.638 109.052 99.8799 110.028 96.3398C111.371 91.6767 112.25 85.6953 112.25 81.4717C112.25 79.958 112.348 79.2012 112.519 79.2012C112.958 79.2012 115.424 80.6416 116.645 81.5937C119.013 83.4492 120.917 85.915 122.358 88.9668C124.213 92.9463 124.701 95.9004 124.701 103.42C124.701 107.79 124.726 108.01 125.263 108.62C125.727 109.157 126.02 109.255 127.362 109.304C128.778 109.328 128.949 109.279 129.511 108.62L130.121 107.912L129.999 101.687C129.877 95.0947 129.731 94.0205 128.461 90.0898C127.118 85.8906 124.384 81.4961 121.332 78.664C119.672 77.1504 116.84 75.2217 115.204 74.4892C114.594 74.2207 114.057 73.9765 114.008 73.9521C113.959 73.9033 114.252 73.2197 114.667 72.3896C116.181 69.4111 117.157 66.3349 117.768 62.6484C118.085 60.6953 118.158 60.5488 119.403 59.206C121.552 56.8623 122.48 54.4453 122.504 51.1006C122.504 46.0957 119.403 41.6523 114.74 39.9922C113.666 39.6015 113.398 39.3574 112.494 37.8926C108.295 31.081 101.264 25.6367 93.2071 22.9511C90.2286 21.9746 86.7862 21.2178 84.4181 21.0469L83.5636 20.9736L83.4903 18.7519L83.4171 16.5303L84.1983 16.2129C88.0069 14.626 90.0577 9.62107 88.544 5.59275C87.9093 3.85935 86.127 1.97947 84.3204 1.10056C82.8312 0.368141 80.3653 0.197243 78.7784 0.709938ZM82.3185 6.2031C84.2228 6.91111 84.1983 10.1826 82.2696 11.0615C80.4142 11.9404 78.3145 10.622 78.3145 8.59568C78.339 6.5449 80.2188 5.39744 82.3185 6.2031ZM86.8595 26.8574C98.505 28.8594 107.856 36.8916 111.249 47.8291C112.763 52.7119 113.08 57.3506 112.25 62.1845C111.542 66.3594 109.345 72.3652 108.539 72.3652C107.904 72.3652 97.3087 69.4599 93.9395 68.3613C91.547 67.6045 86.8595 65.8222 83.8565 64.5771C82.5626 64.0156 81.2442 63.5762 80.9513 63.5762C80.6583 63.5762 77.9483 64.5527 74.921 65.749C71.8937 66.9453 68.0118 68.3613 66.3028 68.9228C63.544 69.8017 54.1446 72.3652 53.6319 72.3652C53.339 72.3652 51.8985 69.4111 51.2149 67.4824C49.628 62.8193 49.0909 56.7402 49.8722 52.0771C51.044 45.0703 54.3644 39.0156 59.7354 34.206C66.8888 27.8096 76.752 25.1484 86.8595 26.8574ZM83.881 70.3144C89.3497 72.6826 96.6007 75.0508 103.949 76.8818C105.439 77.248 106.635 77.6875 106.83 77.9316C107.172 78.3711 107.123 79.958 106.61 85.7929C106.195 90.456 104.828 95.9736 103.095 100.075C99.3351 108.962 93.256 115.456 84.1495 120.314C82.7335 121.071 81.3175 121.682 81.0001 121.682C80.3165 121.682 76.7032 119.777 74.0177 117.995C70.502 115.676 68.0118 113.527 65.5216 110.72C64.2032 109.23 63.8126 108.718 61.7862 105.69C59.3204 102.077 56.9278 95.6318 56.0001 90.1142C55.3653 86.4521 54.755 79.0303 54.9991 78.2246C55.1456 77.7363 55.2677 77.6875 58.9054 76.7842C66.4249 74.9287 73.4806 72.5117 79.5353 69.7041C80.1456 69.4355 80.7804 69.1914 80.9513 69.1914C81.1222 69.1914 82.4405 69.7041 83.881 70.3144Z" fill="#1B4798"/>
<path d="M64.6426 38.6495C62.4209 39.3575 61.1758 40.1387 59.5156 41.8233C57.1475 44.2403 56.0977 46.7549 56.0977 50.002C56.1221 56.3008 61.7861 61.6475 68.3779 61.6231C70.2334 61.5987 71.5518 61.2569 74.1641 60.0362C79.4619 57.5704 82.5381 57.5704 87.8359 60.0362C90.5215 61.2813 91.7666 61.5987 93.8174 61.6231C96.9424 61.6231 99.9453 60.4268 102.313 58.2051C105.194 55.5196 106.537 51.8086 105.927 48.1465C105.219 43.7764 102.289 40.334 97.9922 38.7715L96.3564 38.1856L81.1709 38.21C67.3037 38.21 65.8633 38.2588 64.6426 38.6495ZM70.7461 45.6319C71.0879 45.8028 71.6494 46.2666 72.0156 46.6573C73.8955 48.6348 73.5049 52.2237 71.21 53.7373C70.3311 54.3233 69.916 54.4209 68.5488 54.4209C67.1816 54.4209 66.7666 54.3233 65.8877 53.7373C64.1543 52.5899 63.3975 49.9043 64.252 47.878C64.6426 46.9014 66.1318 45.5586 67.0352 45.3633C67.4014 45.2901 67.8164 45.1924 67.9385 45.1436C68.3535 45.0215 70.1113 45.3145 70.7461 45.6319ZM95.6484 45.6319C96.4785 46.0713 97.5283 47.1944 97.8213 48.0245C98.4561 49.709 97.9189 52.2725 96.6982 53.3711C95.9414 54.0547 94.5254 54.543 93.2559 54.543C89.2031 54.543 87.2256 49.1475 90.2773 46.3887C90.8144 45.9248 91.5469 45.461 91.9131 45.3633C92.3037 45.2901 92.7187 45.1924 92.8408 45.1436C93.2559 45.0215 95.0137 45.3145 95.6484 45.6319Z" fill="#1B4798"/>
<path d="M86.127 90.0654C81.6348 94.5576 77.8262 98.2441 77.7041 98.2441C77.582 98.2441 75.6289 96.4131 73.3828 94.1914C69.3057 90.1143 69.3057 90.1143 68.3779 90.2607C67.6699 90.3828 67.1816 90.7002 66.3027 91.6523C65.3018 92.7266 65.1309 93.0439 65.1309 93.9229C65.1309 94.9238 65.2041 95.0215 70.9414 100.734C76.2393 106.032 76.8252 106.545 77.582 106.545C78.3389 106.545 79.1689 105.788 88.3486 96.6084C93.8418 91.1641 98.4316 86.3789 98.6025 85.9883C98.9932 85.0605 98.5781 84.1328 97.2109 82.8633C96.3564 82.082 95.9658 81.8867 95.2334 81.8867C94.3545 81.8867 93.9639 82.2529 86.127 90.0654Z" fill="#1B4798"/>
<path d="M3.94922 136.013C2.58203 136.623 2.04492 137.062 1.55664 137.966C0.65332 139.748 1.38574 142.409 3.07031 143.337C3.55859 143.63 4.70605 144.045 5.58496 144.265C6.48828 144.484 7.5625 144.875 7.97754 145.144C8.61231 145.534 8.73438 145.754 8.73438 146.56C8.73438 147.78 8.09961 148.293 6.58594 148.293C5.21875 148.293 4.21777 147.756 3.90039 146.828C3.65625 146.12 3.55859 146.096 2.24023 146.096H0.848633L0.995117 147.048C1.16602 148.342 1.77637 149.172 3.09473 149.953C4.04688 150.515 4.48633 150.612 6.19531 150.612C9.83301 150.612 11.7617 149.123 11.7373 146.291C11.7129 143.801 10.5166 142.629 7.24512 141.823C4.99902 141.262 4.0957 140.676 4.0957 139.772C4.0957 138.161 6.65918 137.404 7.87988 138.649C8.22168 138.967 8.49023 139.406 8.49023 139.626C8.49023 139.919 8.80762 139.992 9.95508 139.992C11.6396 139.992 11.7373 139.821 10.9072 138.112C10.1992 136.647 8.85645 135.891 6.65918 135.72C5.34082 135.622 4.70605 135.695 3.94922 136.013Z" fill="#1B4798"/>
<path d="M30.5361 135.842C27.1182 136.55 25.0918 139.26 25.0918 143.142C25.0918 145.412 25.6289 147.023 26.8252 148.391C28.3633 150.124 29.4375 150.588 31.9277 150.612C33.8076 150.612 34.125 150.539 35.3457 149.855C36.7617 149.05 38.2754 147.219 38.2754 146.242C38.2754 145.754 38.1777 145.729 36.835 145.852C35.4922 145.974 35.3213 146.047 34.8086 146.828C33.7344 148.415 31.2686 148.708 29.7305 147.39C28.5098 146.389 28.168 145.485 28.168 143.288C28.1436 140.993 28.6562 139.724 29.9746 138.82C31.5859 137.746 34.125 138.308 34.9795 139.992C35.3457 140.676 35.4434 140.725 36.8594 140.725H38.3486L38.1777 139.919C37.6406 137.136 33.9053 135.134 30.5361 135.842Z" fill="#1B4798"/>
<path d="M103.681 135.866C102.021 136.232 100.312 137.648 99.4326 139.382C98.749 140.7 98.7002 141.018 98.7002 143.264C98.7002 145.412 98.7734 145.9 99.3105 146.926C100.653 149.563 102.46 150.612 105.658 150.612C107.514 150.612 107.88 150.539 109.076 149.88C112.104 148.195 113.495 144.313 112.372 140.529C111.322 137.014 107.587 135.012 103.681 135.866ZM106.879 138.649C107.709 138.894 108.832 139.943 109.223 140.896C109.76 142.165 109.662 144.582 109.027 145.852C108.222 147.414 107.392 147.927 105.658 147.927C103.9 147.902 103.095 147.414 102.313 145.852C101.654 144.582 101.557 142.238 102.094 140.944C102.558 139.846 103.632 138.869 104.682 138.576C105.536 138.332 105.731 138.332 106.879 138.649Z" fill="#1B4798"/>
<path d="M153.51 135.866C151.898 136.135 151.215 136.452 150.092 137.453C146.381 140.798 147.113 147.78 151.386 149.88C153.9 151.101 157.074 150.905 159.101 149.416C160.59 148.317 160.834 147.707 160.834 145.046V142.678H157.758H154.706L154.779 143.825L154.853 144.973L156.513 144.899L158.148 144.851V145.583C158.148 147.292 155.805 148.61 153.778 148.049C152.777 147.78 151.483 146.584 151.093 145.534C150.605 144.289 150.775 141.677 151.386 140.48C152.191 138.894 152.997 138.405 154.804 138.405C156.439 138.405 157.392 138.869 157.88 139.919C158.1 140.407 158.319 140.48 159.516 140.48H160.907L160.736 139.675C160.199 136.94 157.025 135.28 153.51 135.866Z" fill="#1B4798"/>
<path d="M14.1055 143.215V150.49H18.7441H23.3828V149.27V148.049H20.209H17.0352V146.218V144.387H19.7207H22.4062V143.166V141.945H19.7207H17.0352V140.236V138.527H20.0869H23.1387V137.233V135.964H18.6221H14.1055V143.215Z" fill="#1B4798"/>
<path d="M41.6201 136.037L40.1797 136.11L40.2773 141.53C40.3506 146.242 40.3994 147.072 40.8145 147.805C41.9131 149.904 43.207 150.563 46.0879 150.588C47.7725 150.612 48.3828 150.515 49.2861 150.051C51.7275 148.854 51.9229 148.195 51.9473 141.335V135.964L50.4824 136.037L49.0176 136.135V140.993C49.0176 147.438 48.7734 148.049 46.1611 148.049C44.8916 148.049 44.0859 147.634 43.5977 146.755C43.4023 146.413 43.2559 144.411 43.1582 141.091L43.0361 135.964L41.6201 136.037Z" fill="#1B4798"/>
<path d="M54.877 143.215V150.49H56.3418H57.8066V147.805V145.119H58.9785H60.1504L61.4688 147.805L62.7871 150.49H64.4717H66.1562L65.4727 149.318C64.4473 147.536 62.958 144.777 62.9336 144.631C62.9336 144.558 63.251 144.313 63.6416 144.069C65.2529 143.117 65.8389 140.285 64.8379 138.283C63.9102 136.477 63.2021 136.232 58.71 136.086L54.877 135.964V143.215ZM62.0303 139.284C62.3965 139.797 62.4697 140.139 62.3232 140.944C62.1035 142.238 61.3223 142.678 59.2227 142.678H57.6846L57.7578 140.603L57.8311 138.503L59.6865 138.576C61.3711 138.649 61.5908 138.723 62.0303 139.284Z" fill="#1B4798"/>
<path d="M84.418 136.013C84.418 136.037 85.248 138.454 86.2734 141.384C87.2988 144.313 88.3975 147.561 88.7393 148.586L89.374 150.49H91.0098H92.6455L93.7441 147.487C94.3545 145.852 95.4775 142.702 96.2588 140.48C97.04 138.259 97.7236 136.33 97.7725 136.208C97.8457 136.013 96.5029 135.939 94.8672 136.062C94.7451 136.086 94.6719 136.208 94.6719 136.379C94.6719 136.525 93.8906 139.064 92.9141 142.043L91.1562 147.414L90.6191 145.729C90.3506 144.777 89.5449 142.263 88.8857 140.114L87.665 136.208L86.0293 136.086C85.1504 136.013 84.418 135.988 84.418 136.013Z" fill="#1B4798"/>
<path d="M119.525 136.013L113.959 136.086V137.307V138.527H116.034H118.109V144.509V150.49H119.574H121.039V144.509V138.527H123.114H125.189V137.185C125.189 136.452 125.165 135.866 125.141 135.891C125.092 135.939 122.577 135.988 119.525 136.013Z" fill="#1B4798"/>
<path d="M134.418 136.037L133.002 136.11V143.288V150.49H134.491H135.956L135.883 145.729C135.834 143.117 135.883 140.993 135.98 141.018C136.078 141.066 137.421 142.946 139.008 145.241C140.57 147.512 142.035 149.636 142.255 149.929C142.572 150.368 142.89 150.466 143.988 150.49H145.331V143.288V136.086H143.939H142.523V140.871V145.681L139.667 141.408C135.736 135.573 136.103 135.939 134.418 136.037Z" fill="#1B4798"/>
<path d="M68.3047 143.288V150.49H72.9189H77.5332V149.27L77.5576 148.049H74.4082C70.7949 148.049 70.8926 148.098 71.0391 145.705L71.1123 144.509L73.8711 144.436L76.6055 144.362V143.166V141.97L73.8711 141.896L71.1123 141.823L71.1611 140.236L71.1855 138.649L74.2617 138.576L77.3379 138.503V137.307V136.086H72.8213H68.3047V143.288Z" fill="#1B4798"/>
<path d="M127.143 143.288V150.49H128.607H130.072V143.288V136.086H128.607H127.143V143.288Z" fill="#1B4798"/>
<path d="M46.3076 156.105C44.8428 156.35 43.8174 156.887 43.2803 157.741C42.2793 159.255 42.377 161.696 43.4756 162.893C44.208 163.698 45.0869 164.113 47.3574 164.772C49.5303 165.407 50.2383 165.896 50.2383 166.823C50.2383 167.971 49.4082 168.557 47.7969 168.557C46.4785 168.557 45.4775 168.02 45.1602 167.116C44.916 166.433 44.8428 166.384 43.5244 166.384H42.1328L42.2549 167.238C42.4746 168.581 43.3047 169.68 44.5742 170.314C46.2344 171.145 49.4326 171.096 50.9463 170.241C52.6553 169.314 53.0459 168.581 53.0459 166.481C53.0459 164.919 52.9727 164.602 52.4355 164.04C51.6055 163.161 50.873 162.795 48.6025 162.185C46.0879 161.501 45.5996 161.184 45.5996 160.158C45.5996 159.67 45.7949 159.182 46.0879 158.913C47.0889 158.01 49.75 158.62 49.75 159.768C49.75 160.207 49.9209 160.256 51.2148 160.256C52.582 160.256 52.6797 160.207 52.6797 159.694C52.6797 159.401 52.4111 158.718 52.1182 158.181C51.166 156.496 48.8955 155.69 46.3076 156.105Z" fill="#1B4798"/>
<path d="M70.1846 156.203C67.8164 156.838 66.4736 159.011 67.0596 161.232C67.5479 163.063 68.6709 163.869 72.0156 164.748C72.8945 164.992 73.8467 165.383 74.1396 165.651C74.7256 166.188 74.7988 167.263 74.335 167.922C73.9688 168.41 72.1377 168.728 71.1367 168.459C70.4043 168.288 69.5254 167.409 69.5254 166.848C69.5254 166.555 69.208 166.457 68.0605 166.408C66.6689 166.335 66.5957 166.359 66.5957 166.896C66.6201 168.02 67.499 169.484 68.5977 170.192C69.5498 170.803 69.8672 170.852 71.8447 170.876C73.7002 170.876 74.2373 170.778 75.2627 170.266C75.9463 169.924 76.7275 169.289 77.0449 168.801C77.5332 168.068 77.6064 167.702 77.5332 166.311C77.46 164.821 77.3623 164.577 76.6055 163.796C75.8242 162.99 74.8721 162.575 71.7959 161.745C70.5264 161.403 70.0137 160.915 70.0137 160.036C70.0137 158.693 71.6738 157.985 73.2607 158.62C73.8467 158.889 74.1885 159.206 74.3105 159.621C74.457 160.207 74.5547 160.256 75.8975 160.256H77.3379L77.1914 159.572C76.7275 157.717 75.5312 156.521 73.6758 156.13C72.1377 155.788 71.6738 155.813 70.1846 156.203Z" fill="#1B4798"/>
<path d="M53.9004 157.009C54.1934 157.521 55.2676 159.353 56.2686 161.11C57.2939 162.844 58.1973 164.382 58.3193 164.528C58.4414 164.65 58.5391 166.091 58.5391 167.751V170.754H60.0039H61.4688V167.873V164.992L62.3965 163.405C65.8877 157.57 66.5957 156.35 66.5957 156.228C66.5957 156.154 65.9609 156.105 65.1797 156.105H63.7881L61.9814 159.279L60.1748 162.453L59.5156 161.306C59.1494 160.646 58.3682 159.255 57.7578 158.181L56.6592 156.228L54.999 156.154L53.3389 156.081L53.9004 157.009Z" fill="#1B4798"/>
<path d="M78.5586 157.448V158.791H80.6338H82.709V164.772V170.778L84.2471 170.705L85.7607 170.632V164.724V158.791H87.7871H89.7891V157.448V156.105H84.1738H78.5586V157.448Z" fill="#1B4798"/>
<path d="M91.7422 163.43V170.754H96.3809H101.02V169.411V168.068H97.8457H94.6719V166.359V164.65H97.4795H100.287V163.43V162.209H97.4795H94.6719V160.5V158.791H97.8457H101.02V157.448V156.105H96.3809H91.7422V163.43Z" fill="#1B4798"/>
<path d="M103.461 163.43V170.754H104.95H106.415L106.342 165.261C106.293 162.233 106.342 159.768 106.464 159.768C106.562 159.768 106.635 159.914 106.635 160.061C106.635 160.231 107.392 162.185 108.319 164.406L110.004 168.435H111.151C112.274 168.435 112.299 168.41 112.714 167.336C112.958 166.726 113.373 165.749 113.666 165.139C113.935 164.528 114.569 163.112 115.058 161.965C115.546 160.817 116.01 159.841 116.083 159.768C116.156 159.694 116.156 162.111 116.132 165.139L116.034 170.632L117.45 170.705L118.842 170.778V163.43V156.105H116.962H115.058L114.447 157.521C114.13 158.278 113.349 160.012 112.714 161.354C112.104 162.697 111.518 164.016 111.42 164.26C111.2 164.87 111.005 164.602 110.321 162.819C110.004 162.014 109.247 160.183 108.661 158.718L107.562 156.105H105.512H103.461V163.43Z" fill="#1B4798"/>
</svg>
