<svg width="19" height="18" viewBox="0 0 19 18" fill="none" xmlns="http://www.w3.org/2000/svg">
<path d="M13.5 2C13.5 1.73478 13.6054 1.48043 13.7929 1.29289C13.9804 1.10536 14.2348 1 14.5 1H16.5C16.7652 1 17.0196 1.10536 17.2071 1.29289C17.3946 1.48043 17.5 1.73478 17.5 2V6C17.5 6.26522 17.3946 6.51957 17.2071 6.70711C17.0196 6.89464 16.7652 7 16.5 7H14.5C14.2348 7 13.9804 6.89464 13.7929 6.70711C13.6054 6.51957 13.5 6.26522 13.5 6V2ZM1.5 12C1.5 11.7348 1.60536 11.4804 1.79289 11.2929C1.98043 11.1054 2.23478 11 2.5 11H4.5C4.76522 11 5.01957 11.1054 5.20711 11.2929C5.39464 11.4804 5.5 11.7348 5.5 12V16C5.5 16.2652 5.39464 16.5196 5.20711 16.7071C5.01957 16.8946 4.76522 17 4.5 17H2.5C2.23478 17 1.98043 16.8946 1.79289 16.7071C1.60536 16.5196 1.5 16.2652 1.5 16V12ZM1.5 2C1.5 1.73478 1.60536 1.48043 1.79289 1.29289C1.98043 1.10536 2.23478 1 2.5 1H8.5C8.76522 1 9.01957 1.10536 9.20711 1.29289C9.39464 1.48043 9.5 1.73478 9.5 2V6C9.5 6.26522 9.39464 6.51957 9.20711 6.70711C9.01957 6.89464 8.76522 7 8.5 7H2.5C2.23478 7 1.98043 6.89464 1.79289 6.70711C1.60536 6.51957 1.5 6.26522 1.5 6V2ZM9.5 12C9.5 11.7348 9.60536 11.4804 9.79289 11.2929C9.98043 11.1054 10.2348 11 10.5 11H16.5C16.7652 11 17.0196 11.1054 17.2071 11.2929C17.3946 11.4804 17.5 11.7348 17.5 12V16C17.5 16.2652 17.3946 16.5196 17.2071 16.7071C17.0196 16.8946 16.7652 17 16.5 17H10.5C10.2348 17 9.98043 16.8946 9.79289 16.7071C9.60536 16.5196 9.5 16.2652 9.5 16V12Z" stroke="#1B4798" stroke-width="2" stroke-linecap="round" stroke-linejoin="round"/>
</svg>
