<svg width="22" height="22" viewBox="0 0 22 22" fill="none" xmlns="http://www.w3.org/2000/svg">
<path d="M13.25 12.5C14.4926 12.5 15.5 13.5074 15.5 14.75V15.5C15.5 18.4572 12.7107 21.5 8 21.5C3.28926 21.5 0.5 18.4572 0.5 15.5V14.75C0.5 13.5074 1.50736 12.5 2.75 12.5H13.25ZM13.25 14H2.75C2.33579 14 2 14.3358 2 14.75V15.5C2 17.6565 4.14824 20 8 20C11.8518 20 14 17.6565 14 15.5V14.75C14 14.3358 13.6642 14 13.25 14ZM8 2.75C10.2782 2.75 12.125 4.59683 12.125 6.875C12.125 9.15317 10.2782 11 8 11C5.72183 11 3.875 9.15317 3.875 6.875C3.875 4.59683 5.72183 2.75 8 2.75ZM8 4.25C6.55025 4.25 5.375 5.42525 5.375 6.875C5.375 8.32475 6.55025 9.5 8 9.5C9.44975 9.5 10.625 8.32475 10.625 6.875C10.625 5.42525 9.44975 4.25 8 4.25ZM15.1765 0.632887L15.2803 0.71967L17.75 3.1895L20.2197 0.71967C20.5126 0.426777 20.9874 0.426777 21.2803 0.71967C21.5732 1.01256 21.5732 1.48744 21.2803 1.78033L18.8105 4.25L21.2803 6.71967C21.5407 6.98002 21.5696 7.38416 21.3671 7.67646L21.2803 7.78033C21.02 8.04068 20.6158 8.06961 20.3235 7.86711L20.2197 7.78033L17.75 5.3105L15.2803 7.78033C14.9874 8.07322 14.5126 8.07322 14.2197 7.78033C13.9268 7.48744 13.9268 7.01256 14.2197 6.71967L16.6895 4.25L14.2197 1.78033C13.9593 1.51998 13.9304 1.11584 14.1329 0.823542L14.2197 0.71967C14.4475 0.491864 14.7854 0.441241 15.0621 0.567799L15.1765 0.632887Z" fill="#1B4798"/>
</svg>
