<svg width="20" height="20" viewBox="0 0 20 20" fill="none" xmlns="http://www.w3.org/2000/svg">
<path fill-rule="evenodd" clip-rule="evenodd" d="M10.0002 9.99998C7.78317 9.99998 5.98118 8.20598 5.98118 5.99998C5.98118 3.79398 7.78317 1.99998 10.0002 1.99998C12.2172 1.99998 14.0192 3.79398 14.0192 5.99998C14.0192 8.20598 12.2172 9.99998 10.0002 9.99998ZM13.7762 10.673C14.6024 10.015 15.2396 9.14995 15.6229 8.16576C16.0062 7.18156 16.1219 6.11336 15.9582 5.06993C15.5612 2.44693 13.3692 0.347977 10.7222 0.0419769C7.07017 -0.381023 3.97217 2.44898 3.97217 5.99998C3.97217 7.88998 4.85217 9.57396 6.22417 10.673C2.85217 11.934 0.390171 14.895 0.0041713 18.891C-0.00932474 19.0311 0.00657532 19.1726 0.0508479 19.3063C0.0951206 19.4399 0.166796 19.5628 0.26129 19.6672C0.355784 19.7716 0.471016 19.855 0.599623 19.9123C0.728229 19.9696 0.867381 19.9995 1.00818 20C1.25497 20.002 1.4936 19.9118 1.6773 19.7469C1.86099 19.5821 1.9765 19.3546 2.00117 19.109C2.40417 14.646 5.83717 12 10.0002 12C14.1632 12 17.5962 14.646 17.9992 19.109C18.0238 19.3546 18.1394 19.5821 18.323 19.7469C18.5067 19.9118 18.7454 20.002 18.9922 20C19.5882 20 20.0522 19.482 19.9952 18.891C19.6102 14.895 17.1482 11.934 13.7752 10.673" fill="#1B4798"/>
</svg>
