<svg width="24" height="24" viewBox="0 0 24 24" fill="none" xmlns="http://www.w3.org/2000/svg">
<path d="M23.0699 14.3851C22.781 14.1805 22.4471 14.0485 22.0965 14.0002C21.7458 13.9519 21.3887 13.9888 21.0552 14.1076C21.0515 14.1076 21.0515 14.1113 21.0477 14.1113L15.649 16.1138L11.7434 15.8363L13.7581 14.6738C14.0409 14.5107 14.2881 14.2924 14.4849 14.0319C14.6818 13.7714 14.8243 13.474 14.904 13.1574C14.9837 12.8408 14.9989 12.5113 14.9488 12.1887C14.8987 11.8661 14.7843 11.5568 14.6124 11.2792C14.4405 11.0016 14.2146 10.7614 13.948 10.5728C13.6815 10.3843 13.3798 10.2512 13.0608 10.1815C12.7418 10.1118 12.4121 10.1068 12.0912 10.167C11.7703 10.2272 11.4647 10.3513 11.1927 10.5318L10.986 10.3417L11.5983 9.40728C11.6764 9.28757 11.7189 9.14808 11.7207 9.00511C11.7226 8.86214 11.6836 8.72162 11.6085 8.59996L11.6089 8.59978C11.3712 8.1592 11.2231 7.6759 11.1733 7.17778C11.1596 7.0417 11.109 6.91195 11.0269 6.80254C10.9448 6.69314 10.8344 6.60825 10.7076 6.55705L9.67404 6.13956L9.88983 5.18283L11.0113 5.24527C11.1476 5.25253 11.2832 5.22266 11.4038 5.15884C11.5244 5.09502 11.6254 4.99965 11.6961 4.88291C11.9586 4.4455 12.3073 4.06595 12.7208 3.76724C12.8319 3.68763 12.9192 3.5792 12.9732 3.45364C13.0271 3.32808 13.0458 3.19016 13.0271 3.05477L12.8736 1.94771L13.8108 1.65529L14.3157 2.65248C14.3773 2.77409 14.4709 2.87662 14.5863 2.94905C14.7018 3.02147 14.8349 3.06106 14.9712 3.06356C15.4824 3.07383 15.9863 3.18802 16.4521 3.39918C16.5762 3.4551 16.7132 3.47614 16.8483 3.46004C16.9835 3.44395 17.1118 3.39132 17.2193 3.30781L18.1063 2.62006L18.8258 3.28237L18.214 4.21658C18.1389 4.3311 18.0966 4.46401 18.0917 4.60087C18.0868 4.73774 18.1194 4.87334 18.1861 4.99295C18.4368 5.4407 18.5922 5.93542 18.6427 6.44607C18.6563 6.58174 18.7067 6.71113 18.7883 6.82033C18.87 6.92953 18.9799 7.01442 19.1061 7.06589L20.1382 7.48613L19.9228 8.44084L18.8046 8.37859C18.6686 8.37144 18.5332 8.40123 18.4128 8.4648C18.2924 8.52838 18.1914 8.62336 18.1206 8.73968C17.8589 9.17819 17.5093 9.55789 17.094 9.85497C16.9821 9.93434 16.8942 10.0429 16.8397 10.1688C16.7853 10.2946 16.7664 10.433 16.7851 10.5689L16.9386 11.6789L16.2553 11.8915C16.0839 11.9447 15.9373 12.0575 15.842 12.2096C15.7467 12.3617 15.7091 12.5428 15.736 12.7203C15.763 12.8977 15.8526 13.0596 15.9887 13.1766C16.1247 13.2935 16.2983 13.3578 16.4777 13.3578C16.9894 13.2386 17.4947 13.0932 17.9916 12.9224C18.1613 12.8697 18.3068 12.7585 18.4021 12.6086C18.4975 12.4586 18.5365 12.2797 18.5122 12.1037L18.3309 10.7905C18.6376 10.5266 18.9124 10.2279 19.1497 9.9002L20.4731 9.974C20.6504 9.98454 20.8257 9.93158 20.9675 9.82461C21.1093 9.71764 21.2083 9.56366 21.2469 9.39027L21.7422 7.19647C21.7813 7.02323 21.7576 6.84176 21.6754 6.68434C21.5932 6.52692 21.4579 6.40376 21.2934 6.33678L20.0697 5.83855C19.9942 5.43877 19.872 5.04925 19.7055 4.67802L20.4299 3.57224C20.5272 3.42366 20.5687 3.24533 20.5468 3.06903C20.5249 2.89273 20.4412 2.72993 20.3104 2.60966L18.6559 1.08711C18.5254 0.967006 18.3565 0.897011 18.1793 0.889536C18.0021 0.882061 17.828 0.93759 17.6879 1.04627L16.6386 1.85981C16.2576 1.72576 15.8625 1.63617 15.461 1.59285L14.8627 0.411267C14.7824 0.252953 14.6487 0.128199 14.4851 0.059145C14.3216 -0.00990857 14.1389 -0.0187954 13.9695 0.0340618L11.8196 0.705312C11.6501 0.758244 11.5049 0.869552 11.4098 1.01945C11.3147 1.16934 11.2758 1.34812 11.3 1.52398L11.4818 2.83576C11.1771 3.09987 10.9035 3.39774 10.6662 3.72364L9.33915 3.64985C9.16172 3.639 8.98625 3.69189 8.84437 3.79899C8.70249 3.90609 8.60354 4.06036 8.56535 4.23397L8.07 6.43143C8.03092 6.60502 8.05482 6.78684 8.13744 6.94443C8.22006 7.10201 8.35602 7.22508 8.52102 7.29167L9.7462 7.7866C9.82241 8.18521 9.94347 8.57391 10.1071 8.9453L9.38238 10.0516C9.28503 10.2002 9.24357 10.3785 9.26537 10.5548C9.28718 10.731 9.37084 10.8939 9.50145 11.0142L9.87589 11.359L7.66152 12.7501H6.05202L5.99949 12.2888C5.97814 12.1058 5.89028 11.9371 5.75262 11.8147C5.61495 11.6923 5.4371 11.6248 5.2529 11.625H0.750833C0.552054 11.6256 0.361563 11.7048 0.220972 11.8453C0.0803808 11.9858 0.00111472 12.1763 0.000488281 12.375V23.2501C0.00125918 23.4489 0.0805716 23.6392 0.221132 23.7797C0.361692 23.9202 0.552098 23.9994 0.750833 24.0001C0.799609 24.0001 6.52476 22.8601 6.52476 22.8601C6.70957 22.8234 6.87385 22.7186 6.98504 22.5665C7.09622 22.4144 7.14619 22.2261 7.12503 22.0389L7.04999 21.3751H16.8833C17.0122 21.3748 17.1388 21.3412 17.251 21.2776L22.8486 18.1164C23.1775 17.9381 23.4556 17.6788 23.6564 17.3631C23.8573 17.0474 23.9743 16.6858 23.9965 16.3122C24.0186 15.9387 23.9452 15.5657 23.783 15.2285C23.6209 14.8913 23.3755 14.601 23.0699 14.3851ZM1.50118 22.3351V13.1251H4.5851L5.55306 21.5251L1.50118 22.3351ZM22.1207 16.8038L16.6844 19.8751H6.87367L6.22567 14.2501H7.87914C8.0201 14.2502 8.15813 14.2098 8.27682 14.1338L12.0698 11.7525C12.2851 11.6292 12.5405 11.5962 12.78 11.6608C13.0196 11.7253 13.2238 11.8822 13.3479 12.0971C13.472 12.3119 13.5058 12.5672 13.4421 12.8069C13.3783 13.0467 13.2222 13.2514 13.0078 13.3763L10.1302 15.0338C10.0159 15.1 9.92103 15.1952 9.85517 15.3098C9.78931 15.4243 9.75477 15.5542 9.75501 15.6863V16.5C9.75524 16.69 9.8273 16.8729 9.95671 17.012C10.0861 17.1511 10.2633 17.2361 10.4528 17.25L15.7053 17.625C15.8122 17.6306 15.9193 17.6154 16.0204 17.58L21.5655 15.5175C21.7321 15.4633 21.913 15.4733 22.0728 15.5455C22.2325 15.6177 22.3595 15.7469 22.429 15.9078C22.4984 16.0687 22.5053 16.2497 22.4483 16.4155C22.3913 16.5812 22.2745 16.7197 22.1207 16.8038Z" fill="#1B4798"/>
</svg>
