<svg width="24" height="24" viewBox="0 0 24 24" fill="none" xmlns="http://www.w3.org/2000/svg">
<g clip-path="url(#clip0_309_404)">
<path opacity="0.3" d="M5 19H19V20H5V19Z" fill="#1B4798"/>
<path d="M18 13H17.32L15.32 15H17.23L19 17H5L6.78 15H8.83L6.83 13H6L3 16V20C3 21.1 3.89 22 4.99 22H19C20.1 22 21 21.11 21 20V16L18 13ZM19 20H5V19H19V20Z" fill="#1B4798"/>
<path opacity="0.3" d="M12.0479 12.9051L8.50488 9.36211L13.4549 4.41211L16.9979 7.95511L12.0479 12.9051Z" fill="#1B4798"/>
<path d="M19.1102 7.25029L14.1602 2.30029C13.7802 1.90029 13.1502 1.90029 12.7602 2.29029L6.39016 8.66028C6.00016 9.05028 6.00016 9.68028 6.39016 10.0703L11.3402 15.0203C11.7302 15.4103 12.3602 15.4103 12.7502 15.0203L19.1102 8.66028C19.5002 8.27029 19.5002 7.64029 19.1102 7.25029ZM12.0502 12.9003L8.51016 9.36028L13.4602 4.41029L17.0002 7.95028L12.0502 12.9003Z" fill="#1B4798"/>
</g>
<defs>
<clipPath id="clip0_309_404">
<rect width="24" height="24" fill="white"/>
</clipPath>
</defs>
</svg>
