<svg width="25" height="24" viewBox="0 0 25 24" fill="none" xmlns="http://www.w3.org/2000/svg">
<path d="M16.5 5C16.5 4.73478 16.6054 4.48043 16.7929 4.29289C16.9804 4.10536 17.2348 4 17.5 4H19.5C19.7652 4 20.0196 4.10536 20.2071 4.29289C20.3946 4.48043 20.5 4.73478 20.5 5V9C20.5 9.26522 20.3946 9.51957 20.2071 9.70711C20.0196 9.89464 19.7652 10 19.5 10H17.5C17.2348 10 16.9804 9.89464 16.7929 9.70711C16.6054 9.51957 16.5 9.26522 16.5 9V5ZM4.5 15C4.5 14.7348 4.60536 14.4804 4.79289 14.2929C4.98043 14.1054 5.23478 14 5.5 14H7.5C7.76522 14 8.01957 14.1054 8.20711 14.2929C8.39464 14.4804 8.5 14.7348 8.5 15V19C8.5 19.2652 8.39464 19.5196 8.20711 19.7071C8.01957 19.8946 7.76522 20 7.5 20H5.5C5.23478 20 4.98043 19.8946 4.79289 19.7071C4.60536 19.5196 4.5 19.2652 4.5 19V15ZM4.5 5C4.5 4.73478 4.60536 4.48043 4.79289 4.29289C4.98043 4.10536 5.23478 4 5.5 4H11.5C11.7652 4 12.0196 4.10536 12.2071 4.29289C12.3946 4.48043 12.5 4.73478 12.5 5V9C12.5 9.26522 12.3946 9.51957 12.2071 9.70711C12.0196 9.89464 11.7652 10 11.5 10H5.5C5.23478 10 4.98043 9.89464 4.79289 9.70711C4.60536 9.51957 4.5 9.26522 4.5 9V5ZM12.5 15C12.5 14.7348 12.6054 14.4804 12.7929 14.2929C12.9804 14.1054 13.2348 14 13.5 14H19.5C19.7652 14 20.0196 14.1054 20.2071 14.2929C20.3946 14.4804 20.5 14.7348 20.5 15V19C20.5 19.2652 20.3946 19.5196 20.2071 19.7071C20.0196 19.8946 19.7652 20 19.5 20H13.5C13.2348 20 12.9804 19.8946 12.7929 19.7071C12.6054 19.5196 12.5 19.2652 12.5 19V15Z" stroke="white" stroke-width="2" stroke-linecap="round" stroke-linejoin="round"/>
</svg>
