<svg width="498" height="281" viewBox="0 0 498 281" fill="none" xmlns="http://www.w3.org/2000/svg">
<g clip-path="url(#clip0_221_1145)">
<path d="M74.285 51.1853V280.241H462.958V51.1853H74.285ZM432.663 234.508H223.607V148.719H432.663V234.508ZM432.663 129.689H223.607V112.656H432.663V129.689ZM432.663 93.6261H223.607V76.5927H432.663V93.6261Z" fill="#606ED4"/>
<path d="M74.285 19.2444H462.958V51.1851H74.285V19.2444Z" fill="#0B4870"/>
<path d="M363.851 245.915H432.663V262.948H363.851V245.915Z" fill="#FFBE55"/>
<path d="M184.338 53.9333C185.505 59.3 186.906 67.7 186.776 78.0444C186.62 90.5407 184.39 93.6777 185.272 101.144C186.698 113.381 194.298 118.618 203.973 131.452C209.99 139.437 223.4 157.196 225.293 173.167C228.198 197.744 204.699 226.704 176.79 237.618C139.466 252.189 96.4356 233.367 79.9913 204.278C78.7981 202.178 64.9734 176.9 74.6741 154.163C76.6453 149.574 81.9625 137.156 93.1416 133.474C98.355 131.763 100.767 133.474 103.568 131.193C110.39 125.593 103.128 112.111 104.139 93.8333C105.462 70.3444 120.402 48.5666 134.823 43.8481C139.207 42.3963 144.524 40.6592 150.749 42.1629C155.443 43.3037 157.259 45.4814 162.55 45.6888C167.66 45.8963 168.957 43.9777 172.64 44.4185C175.545 44.7814 179.747 46.6222 184.338 53.9333Z" fill="#0E538C"/>
<path d="M160.501 119.007C160.501 119.007 196.814 124.374 198.733 137.207C199.822 144.544 196.347 186.882 189.655 202.178C182.963 217.474 191.574 271.919 196.814 280.993H104.113C104.113 280.993 129.921 223.67 125.615 203.137C121.31 182.604 107.926 144.389 127.535 131.011C147.143 117.633 160.501 119.007 160.501 119.007Z" fill="#FFBE55"/>
<path d="M142.345 102.881L142.942 121.911C143.149 128.341 148.414 133.474 154.873 133.474C161.513 133.474 166.882 128.03 166.804 121.392L166.493 98.8369L142.345 102.881Z" fill="#FCD2B1"/>
<path d="M133.734 67.0518C133.734 67.0518 122.243 111.593 150.463 111.722C162.421 111.774 169.113 106.459 169.813 99.0703C169.813 99.0703 180.577 95.7259 179.124 85.6925C177.672 75.6592 172.433 83.074 172.666 85.4592C172.899 87.8444 169.553 89.037 169.787 86.4185C170.02 83.7999 171.084 58.7036 153.835 57.7444C153.861 57.7444 142.345 71.8222 133.734 67.0518Z" fill="#FFE3CA"/>
<path d="M188.202 126.5C188.202 126.5 208.2 136.819 230.273 187.115C249.078 229.996 197.696 280.993 197.696 280.993H180.136C180.136 280.993 210.431 221.311 211.857 214.622C213.284 207.933 183.015 167.774 188.202 126.5Z" fill="#FFBE55"/>
<path d="M77.6828 44.6778L80.4062 30.937L92.8822 33.2444L88.9397 48.6444L77.6828 44.6778Z" fill="#FFE3CA"/>
<path d="M75.9191 27.4112C75.4003 18.5186 83.1556 6.5149 85.8791 4.2075C88.6025 1.90009 97.6288 0.422312 97.4731 5.65935C97.3175 10.8964 97.2916 16.7297 95.9947 20.4112C95.2425 22.589 92.9859 27.4371 95.5278 26.1408C98.0697 24.8445 100.404 18.2334 102.635 20.2556C104.476 21.9408 100.689 32.8297 95.5278 36.5631C92.6747 38.6371 92.5191 39.5445 88.6025 39.7519C84.6859 39.9593 76.7491 41.5149 75.9191 27.4112Z" fill="#FFE3CA"/>
<path d="M77.7088 43.1223C77.7088 43.1223 62.0425 90.4631 65.3884 108.611C68.7344 126.759 117.782 166.063 117.782 166.063L130.232 129.196C130.232 129.196 99.5481 118.748 90.47 108.896C81.3919 99.0445 90.2366 44.6001 90.2366 44.6001L77.7088 43.1223Z" fill="#FFBE55"/>
</g>
<defs>
<clipPath id="clip0_221_1145">
<rect width="498" height="280" fill="white" transform="translate(0 0.5)"/>
</clipPath>
</defs>
</svg>
