<svg width="110" height="110" viewBox="0 0 110 110" fill="none" xmlns="http://www.w3.org/2000/svg">
<path d="M54.0225 12.1924C51.9063 12.8691 50.875 15.2539 51.8311 17.2197C52.1856 17.9287 52.8301 18.6162 53.4102 18.8848L53.8076 19.0674L53.8184 20.1094V21.1621H53.3457C51.8203 21.1621 48.7158 22.1182 46.9326 23.1494C44.2041 24.707 42.6572 26.2109 40.874 29.0576C40.7988 29.1758 40.4444 29.3799 40.0791 29.5195C37.6836 30.4326 36.3086 33.0215 36.8887 35.4922C37.1143 36.4482 37.6084 37.3613 38.2422 38.0166C38.7256 38.5 38.7686 38.5859 38.8867 39.3809C39.1123 40.8203 39.7139 42.7002 40.3584 43.9248C40.4981 44.1826 40.5947 44.4082 40.584 44.4297C40.5625 44.4404 40.2832 44.5693 39.9502 44.7197C36.8672 46.0732 34.5576 49.167 33.7197 53.0342C33.5479 53.8828 33.4834 54.5918 33.4512 56.665C33.3975 59.1143 33.4082 59.2647 33.6123 59.5869C33.8594 59.9736 34.332 60.124 34.9658 60.0059C35.7285 59.8555 35.7393 59.8125 35.8037 56.794C35.8789 53.2275 36.1152 52.2178 37.3291 50.1016C37.8877 49.1348 39.2735 47.7383 40.1758 47.2334C41.3145 46.6104 41.207 46.5029 41.2822 48.2539C41.4756 52.8516 42.5928 56.6328 44.7627 59.9844C46.6319 62.874 49.7363 65.5059 53.4424 67.3428C54.8926 68.0518 55.1934 68.0518 56.7188 67.2998C61.209 65.0869 64.2598 62.1436 66.3223 58.0293C67.042 56.6006 67.3428 55.8272 67.7725 54.2695C68.3633 52.2178 68.75 49.5859 68.75 47.7275C68.75 47.0615 68.793 46.7285 68.8682 46.7285C69.0615 46.7285 70.1465 47.3623 70.6836 47.7813C71.7256 48.5977 72.5635 49.6826 73.1973 51.0254C74.0137 52.7764 74.2285 54.0762 74.2285 57.3848C74.2285 59.3076 74.2393 59.4043 74.4756 59.6729C74.6797 59.9092 74.8086 59.9522 75.3994 59.9736C76.0225 59.9844 76.0977 59.9629 76.3447 59.6729L76.6133 59.3613L76.5596 56.6221C76.5059 53.7217 76.4414 53.249 75.8828 51.5195C75.292 49.6719 74.0889 47.7383 72.7461 46.4922C72.0156 45.8262 70.7695 44.9775 70.0498 44.6553C69.7813 44.5371 69.5449 44.4297 69.5235 44.419C69.502 44.3975 69.6309 44.0967 69.8135 43.7315C70.4795 42.4209 70.9092 41.0674 71.1777 39.4453C71.3174 38.5859 71.3496 38.5215 71.8975 37.9307C72.8428 36.8994 73.251 35.8359 73.2617 34.3643C73.2617 32.1621 71.8975 30.207 69.8457 29.4766C69.3731 29.3047 69.2549 29.1973 68.8574 28.5527C67.0098 25.5557 63.916 23.1602 60.3711 21.9785C59.0606 21.5488 57.5459 21.2158 56.5039 21.1406L56.1279 21.1084L56.0957 20.1309L56.0635 19.1533L56.4072 19.0137C58.083 18.3154 58.9854 16.1133 58.3194 14.3408C58.0401 13.5781 57.2559 12.751 56.461 12.3643C55.8057 12.042 54.7207 11.9668 54.0225 12.1924ZM55.5801 14.6094C56.418 14.9209 56.4072 16.3604 55.5586 16.7471C54.7422 17.1338 53.8184 16.5537 53.8184 15.6621C53.8291 14.7598 54.6563 14.2549 55.5801 14.6094ZM57.5781 23.6973C62.7022 24.5781 66.8164 28.1123 68.3096 32.9248C68.9756 35.0732 69.1152 37.1143 68.75 39.2412C68.4385 41.0781 67.4717 43.7207 67.1172 43.7207C66.8379 43.7207 62.1758 42.4424 60.6934 41.959C59.6406 41.626 57.5781 40.8418 56.2569 40.294C55.6875 40.0469 55.1074 39.8535 54.9785 39.8535C54.8496 39.8535 53.6572 40.2832 52.3252 40.8096C50.9932 41.3359 49.2852 41.959 48.5332 42.2061C47.3194 42.5928 43.1836 43.7207 42.958 43.7207C42.8291 43.7207 42.1953 42.4209 41.8945 41.5723C41.1963 39.5205 40.96 36.8457 41.3037 34.794C41.8194 31.7109 43.2803 29.0469 45.6436 26.9307C48.791 24.1162 53.1309 22.9453 57.5781 23.6973ZM56.2676 42.8184C58.6738 43.8604 61.8643 44.9023 65.0977 45.708C65.7529 45.8691 66.2793 46.0625 66.3652 46.1699C66.5156 46.3633 66.4942 47.0615 66.2686 49.6289C66.086 51.6807 65.4844 54.1084 64.7217 55.9131C63.0674 59.8232 60.3926 62.6807 56.3858 64.8184C55.7627 65.1514 55.1397 65.4199 55 65.4199C54.6992 65.4199 53.1094 64.582 51.9277 63.7979C50.3809 62.7773 49.2852 61.832 48.1895 60.5967C47.6094 59.9414 47.4375 59.7158 46.5459 58.3838C45.461 56.7939 44.4082 53.958 44 51.5303C43.7207 49.919 43.4522 46.6533 43.5596 46.2988C43.624 46.084 43.6777 46.0625 45.2783 45.665C48.5869 44.8486 51.6914 43.7852 54.3555 42.5498C54.624 42.4316 54.9033 42.3242 54.9785 42.3242C55.0537 42.3242 55.6338 42.5498 56.2676 42.8184Z" fill="white"/>
<path d="M47.8027 28.8858C46.8252 29.1973 46.2773 29.541 45.5469 30.2823C44.5049 31.3457 44.043 32.4522 44.043 33.8809C44.0537 36.6524 46.5459 39.0049 49.4463 38.9942C50.2627 38.9834 50.8428 38.833 51.9922 38.2959C54.3232 37.211 55.6768 37.211 58.0078 38.2959C59.1895 38.8438 59.7373 38.9834 60.6396 38.9942C62.0146 38.9942 63.3359 38.4678 64.3779 37.4903C65.6455 36.3086 66.2363 34.6758 65.9678 33.0645C65.6562 31.1416 64.3672 29.627 62.4766 28.9395L61.7568 28.6817L55.0752 28.6924C48.9736 28.6924 48.3398 28.7139 47.8027 28.8858ZM50.4883 31.958C50.6387 32.0332 50.8857 32.2373 51.0469 32.4092C51.874 33.2793 51.7021 34.8584 50.6924 35.5244C50.3057 35.7823 50.123 35.8252 49.5215 35.8252C48.9199 35.8252 48.7373 35.7823 48.3506 35.5244C47.5879 35.0196 47.2549 33.8379 47.6309 32.9463C47.8027 32.5166 48.458 31.9258 48.8555 31.8399C49.0166 31.8076 49.1992 31.7647 49.2529 31.7432C49.4355 31.6895 50.209 31.8184 50.4883 31.958ZM61.4453 31.958C61.8105 32.1514 62.2725 32.6455 62.4014 33.0108C62.6807 33.752 62.4443 34.8799 61.9072 35.3633C61.5742 35.6641 60.9512 35.8789 60.3926 35.8789C58.6094 35.8789 57.7393 33.5049 59.082 32.291C59.3184 32.0869 59.6406 31.8828 59.8018 31.8399C59.9736 31.8076 60.1562 31.7647 60.21 31.7432C60.3926 31.6895 61.166 31.8184 61.4453 31.958Z" fill="white"/>
<path d="M57.2559 51.5088C55.2793 53.4854 53.6035 55.1074 53.5498 55.1074C53.4961 55.1074 52.6367 54.3018 51.6484 53.3242C49.8545 51.5303 49.8545 51.5303 49.4463 51.5947C49.1348 51.6484 48.9199 51.7881 48.5332 52.207C48.0928 52.6797 48.0176 52.8193 48.0176 53.2061C48.0176 53.6465 48.0498 53.6895 50.5742 56.2031C52.9053 58.5342 53.1631 58.7598 53.4961 58.7598C53.8291 58.7598 54.1943 58.4268 58.2334 54.3877C60.6504 51.9922 62.6699 49.8867 62.7451 49.7148C62.917 49.3066 62.7344 48.8984 62.1328 48.3398C61.7568 47.9961 61.585 47.9102 61.2627 47.9102C60.876 47.9102 60.7041 48.0713 57.2559 51.5088Z" fill="white"/>
<path d="M21.0977 71.7256C20.4961 71.9941 20.2598 72.1875 20.0449 72.585C19.6475 73.3691 19.9697 74.54 20.7109 74.9482C20.9258 75.0771 21.4307 75.2598 21.8174 75.3564C22.2148 75.4531 22.6875 75.625 22.8701 75.7432C23.1494 75.915 23.2031 76.0117 23.2031 76.3662C23.2031 76.9033 22.9238 77.1289 22.2578 77.1289C21.6562 77.1289 21.2158 76.8926 21.0762 76.4844C20.9688 76.1729 20.9258 76.1621 20.3457 76.1621H19.7334L19.7979 76.5811C19.873 77.1504 20.1416 77.5156 20.7217 77.8594C21.1406 78.1064 21.334 78.1494 22.0859 78.1494C23.6865 78.1494 24.5352 77.4941 24.5244 76.248C24.5137 75.1523 23.9873 74.6367 22.5479 74.2822C21.5596 74.0352 21.1621 73.7773 21.1621 73.3799C21.1621 72.6709 22.29 72.3379 22.8271 72.8857C22.9775 73.0254 23.0957 73.2187 23.0957 73.3154C23.0957 73.4443 23.2354 73.4766 23.7402 73.4766C24.4814 73.4766 24.5244 73.4014 24.1592 72.6494C23.8477 72.0049 23.2568 71.6719 22.29 71.5967C21.71 71.5537 21.4307 71.5859 21.0977 71.7256Z" fill="white"/>
<path d="M32.7959 71.6504C31.292 71.9619 30.4004 73.1543 30.4004 74.8623C30.4004 75.8613 30.6367 76.5703 31.1631 77.1719C31.8398 77.9346 32.3125 78.1387 33.4082 78.1494C34.2354 78.1494 34.375 78.1172 34.9121 77.8164C35.5352 77.4619 36.2012 76.6562 36.2012 76.2266C36.2012 76.0117 36.1582 76.001 35.5674 76.0547C34.9766 76.1084 34.9014 76.1406 34.6758 76.4844C34.2031 77.1826 33.1182 77.3115 32.4414 76.7314C31.9043 76.291 31.7539 75.8936 31.7539 74.9268C31.7432 73.917 31.9688 73.3584 32.5488 72.9609C33.2578 72.4883 34.375 72.7354 34.751 73.4766C34.9121 73.7773 34.9551 73.7988 35.5781 73.7988H36.2334L36.1582 73.4443C35.9219 72.2197 34.2783 71.3389 32.7959 71.6504Z" fill="white"/>
<path d="M64.9795 71.6611C64.249 71.8223 63.4971 72.4453 63.1104 73.208C62.8096 73.7881 62.7881 73.9277 62.7881 74.916C62.7881 75.8613 62.8203 76.0762 63.0566 76.5273C63.6475 77.6875 64.4424 78.1494 65.8496 78.1494C66.666 78.1494 66.8271 78.1172 67.3535 77.8271C68.6855 77.0859 69.2979 75.3779 68.8037 73.7129C68.3418 72.166 66.6982 71.2852 64.9795 71.6611ZM66.3867 72.8857C66.752 72.9932 67.2461 73.4551 67.418 73.874C67.6543 74.4326 67.6113 75.4961 67.332 76.0547C66.9775 76.7422 66.6123 76.9678 65.8496 76.9678C65.0762 76.957 64.7217 76.7422 64.3779 76.0547C64.0879 75.4961 64.0449 74.4648 64.2813 73.8955C64.4854 73.4121 64.958 72.9824 65.4199 72.8535C65.7959 72.7461 65.8818 72.7461 66.3867 72.8857Z" fill="white"/>
<path d="M86.9043 71.6611C86.1953 71.7793 85.8945 71.9189 85.4004 72.3594C83.7676 73.831 84.0898 76.9033 85.9697 77.8271C87.0762 78.3642 88.4727 78.2783 89.3643 77.623C90.0195 77.1396 90.127 76.8711 90.127 75.7002V74.6582H88.7734H87.4307L87.4629 75.1631L87.4951 75.668L88.2256 75.6357L88.9453 75.6142V75.9365C88.9453 76.6885 87.9141 77.2685 87.0225 77.0215C86.582 76.9033 86.0127 76.3769 85.8408 75.915C85.626 75.3672 85.7012 74.2178 85.9697 73.6914C86.3242 72.9932 86.6787 72.7783 87.4736 72.7783C88.1934 72.7783 88.6123 72.9824 88.8271 73.4443C88.9238 73.6592 89.0205 73.6914 89.5469 73.6914H90.1592L90.084 73.3369C89.8477 72.1338 88.4512 71.4033 86.9043 71.6611Z" fill="white"/>
<path d="M25.5664 74.8945V78.0957H27.6074H29.6484V77.5586V77.0215H28.252H26.8555V76.2158V75.4102H28.0371H29.2188V74.873V74.3359H28.0371H26.8555V73.584V72.832H28.1982H29.541V72.2627V71.7041H27.5537H25.5664V74.8945Z" fill="white"/>
<path d="M37.6729 71.7363L37.0391 71.7686L37.082 74.1533C37.1143 76.2266 37.1357 76.5918 37.3184 76.9141C37.8018 77.8379 38.3711 78.1279 39.6387 78.1387C40.3799 78.1494 40.6484 78.1065 41.0459 77.9024C42.1201 77.376 42.2061 77.0859 42.2168 74.0674V71.7041L41.5723 71.7363L40.9277 71.7793V73.917C40.9277 76.7529 40.8203 77.0215 39.6709 77.0215C39.1123 77.0215 38.7578 76.8389 38.543 76.4522C38.457 76.3018 38.3926 75.4209 38.3496 73.96L38.2959 71.7041L37.6729 71.7363Z" fill="white"/>
<path d="M43.5059 74.8945V78.0957H44.1504H44.7949V76.9141V75.7324H45.3105H45.8262L46.4062 76.9141L46.9863 78.0957H47.7275H48.4688L48.168 77.5801C47.7168 76.7959 47.0615 75.582 47.0508 75.5176C47.0508 75.4854 47.1904 75.3779 47.3623 75.2705C48.0713 74.8516 48.3291 73.6055 47.8887 72.7246C47.4805 71.9297 47.1689 71.8223 45.1924 71.7578L43.5059 71.7041V74.8945ZM46.6533 73.165C46.8145 73.3906 46.8467 73.541 46.7822 73.8955C46.6855 74.4648 46.3418 74.6582 45.418 74.6582H44.7412L44.7734 73.7451L44.8057 72.8213L45.6221 72.8535C46.3633 72.8857 46.46 72.918 46.6533 73.165Z" fill="white"/>
<path d="M56.5039 71.7256C56.5039 71.7363 56.8691 72.7998 57.3203 74.0889C57.7715 75.3779 58.2549 76.8066 58.4053 77.2578L58.6846 78.0957H59.4043H60.124L60.6074 76.7744C60.876 76.0547 61.3701 74.6689 61.7139 73.6914C62.0576 72.7139 62.3584 71.8652 62.3799 71.8115C62.4121 71.7256 61.8213 71.6934 61.1016 71.7471C61.0479 71.7578 61.0156 71.8115 61.0156 71.8867C61.0156 71.9512 60.6719 73.0684 60.2422 74.3789L59.4688 76.7422L59.2324 76.001C59.1143 75.582 58.7598 74.4756 58.4697 73.5303L57.9326 71.8115L57.2129 71.7578C56.8262 71.7256 56.5039 71.7148 56.5039 71.7256Z" fill="white"/>
<path d="M71.9512 71.7256L69.502 71.7578V72.2949V72.832H70.415H71.3281V75.4639V78.0957H71.9727H72.6172V75.4639V72.832H73.5303H74.4434V72.2412C74.4434 71.9189 74.4326 71.6611 74.4219 71.6719C74.4004 71.6934 73.2939 71.7148 71.9512 71.7256Z" fill="white"/>
<path d="M78.5039 71.7363L77.8809 71.7686V74.9268V78.0957H78.5361H79.1807L79.1484 76.001C79.127 74.8516 79.1484 73.917 79.1914 73.9277C79.2344 73.9492 79.8252 74.7764 80.5234 75.7861C81.2109 76.7852 81.8555 77.7197 81.9521 77.8486C82.0918 78.042 82.2314 78.085 82.7148 78.0957H83.3057V74.9268V71.7578H82.6934H82.0703V73.8633V75.9795L80.8135 74.0996C79.084 71.5322 79.2451 71.6934 78.5039 71.7363Z" fill="white"/>
<path d="M49.4141 74.9268V78.0957H51.4443H53.4746V77.5586L53.4854 77.0215H52.0996C50.5098 77.0215 50.5527 77.043 50.6172 75.9902L50.6494 75.4639L51.8633 75.4316L53.0664 75.3994V74.873V74.3467L51.8633 74.3145L50.6494 74.2822L50.6709 73.584L50.6816 72.8857L52.0352 72.8535L53.3887 72.8213V72.2949V71.7578H51.4014H49.4141V74.9268Z" fill="white"/>
<path d="M75.3027 74.9268V78.0957H75.9473H76.5918V74.9268V71.7578H75.9473H75.3027V74.9268Z" fill="white"/>
<path d="M39.7354 80.5664C39.0908 80.6738 38.6396 80.9102 38.4033 81.2861C37.9629 81.9521 38.0059 83.0264 38.4893 83.5527C38.8115 83.9072 39.1982 84.0898 40.1973 84.3799C41.1533 84.6592 41.4648 84.874 41.4648 85.2822C41.4648 85.7871 41.0996 86.0449 40.3906 86.0449C39.8105 86.0449 39.3701 85.8086 39.2305 85.4111C39.123 85.1104 39.0908 85.0889 38.5107 85.0889H37.8984L37.9521 85.4648C38.0488 86.0557 38.4141 86.5391 38.9727 86.8184C39.7031 87.1836 41.1104 87.1621 41.7764 86.7861C42.5283 86.3779 42.7002 86.0557 42.7002 85.1318C42.7002 84.4443 42.668 84.3047 42.4316 84.0576C42.0664 83.6709 41.7441 83.5098 40.7451 83.2412C39.6387 82.9404 39.4238 82.8008 39.4238 82.3496C39.4238 82.1348 39.5098 81.9199 39.6387 81.8018C40.0791 81.4043 41.25 81.6729 41.25 82.1777C41.25 82.3711 41.3252 82.3926 41.8945 82.3926C42.4961 82.3926 42.5391 82.3711 42.5391 82.1455C42.5391 82.0166 42.4209 81.7158 42.292 81.4795C41.873 80.7383 40.874 80.3838 39.7354 80.5664Z" fill="white"/>
<path d="M50.2412 80.6094C49.1992 80.8887 48.6084 81.8447 48.8662 82.8223C49.0811 83.6279 49.5752 83.9824 51.0469 84.3691C51.4336 84.4766 51.8525 84.6484 51.9814 84.7666C52.2393 85.0029 52.2715 85.4756 52.0674 85.7656C51.9063 85.9805 51.1006 86.1201 50.6602 86.002C50.3379 85.9268 49.9512 85.54 49.9512 85.293C49.9512 85.1641 49.8115 85.1211 49.3066 85.0996C48.6943 85.0674 48.6621 85.0781 48.6621 85.3145C48.6729 85.8086 49.0596 86.4531 49.543 86.7646C49.9619 87.0332 50.1016 87.0547 50.9717 87.0654C51.7881 87.0654 52.0244 87.0225 52.4756 86.7969C52.7764 86.6465 53.1201 86.3672 53.2598 86.1523C53.4746 85.8301 53.5068 85.6689 53.4746 85.0566C53.4424 84.4014 53.3994 84.2939 53.0664 83.9502C52.7227 83.5957 52.3037 83.4131 50.9502 83.0479C50.3916 82.8975 50.166 82.6826 50.166 82.2959C50.166 81.7051 50.8965 81.3936 51.5947 81.6729C51.8525 81.791 52.0029 81.9307 52.0566 82.1133C52.1211 82.3711 52.1641 82.3926 52.7549 82.3926H53.3887L53.3242 82.0918C53.1201 81.2754 52.5938 80.749 51.7773 80.5771C51.1006 80.4268 50.8965 80.4375 50.2412 80.6094Z" fill="white"/>
<path d="M43.0762 80.9639C43.2051 81.1895 43.6777 81.9951 44.1182 82.7686C44.5693 83.5313 44.9668 84.208 45.0205 84.2725C45.0742 84.3262 45.1172 84.96 45.1172 85.6904V87.0117H45.7617H46.4062V85.7441V84.4766L46.8145 83.7783C48.3506 81.2109 48.6621 80.6738 48.6621 80.6201C48.6621 80.5879 48.3828 80.5664 48.0391 80.5664H47.4268L46.6318 81.9629L45.8369 83.3594L45.5469 82.8545C45.3857 82.5645 45.042 81.9521 44.7734 81.4795L44.29 80.6201L43.5596 80.5879L42.8291 80.5557L43.0762 80.9639Z" fill="white"/>
<path d="M53.9258 81.1572V81.748H54.8389H55.752V84.3799V87.0225L56.4287 86.9902L57.0947 86.958V84.3584V81.748H57.9863H58.8672V81.1572V80.5664H56.3965H53.9258V81.1572Z" fill="white"/>
<path d="M59.7266 83.7891V87.0117H61.7676H63.8086V86.4209V85.8301H62.4121H61.0156V85.0781V84.3262H62.251H63.4863V83.7891V83.252H62.251H61.0156V82.5V81.748H62.4121H63.8086V81.1572V80.5664H61.7676H59.7266V83.7891Z" fill="white"/>
<path d="M64.8828 83.7891V87.0117H65.5381H66.1826L66.1504 84.5947C66.1289 83.2627 66.1504 82.1777 66.2041 82.1777C66.2471 82.1777 66.2793 82.2422 66.2793 82.3066C66.2793 82.3818 66.6123 83.2412 67.0205 84.2188L67.7617 85.9912H68.2666C68.7607 85.9912 68.7715 85.9805 68.9541 85.5078C69.0615 85.2393 69.2441 84.8096 69.373 84.541C69.4912 84.2725 69.7705 83.6494 69.9854 83.1445C70.2002 82.6396 70.4043 82.21 70.4365 82.1777C70.4688 82.1455 70.4688 83.209 70.458 84.541L70.415 86.958L71.0381 86.9902L71.6504 87.0225V83.7891V80.5664H70.8232H69.9854L69.7168 81.1895C69.5771 81.5225 69.2334 82.2852 68.9541 82.876C68.6855 83.4668 68.4277 84.0469 68.3848 84.1543C68.2881 84.4229 68.2021 84.3047 67.9014 83.5205C67.7617 83.166 67.4287 82.3604 67.1709 81.7158L66.6875 80.5664H65.7852H64.8828V83.7891Z" fill="white"/>
</svg>
