<svg width="56" height="56" viewBox="0 0 56 56" fill="none" xmlns="http://www.w3.org/2000/svg">
<path fill-rule="evenodd" clip-rule="evenodd" d="M40 54C40 54.5304 40.2107 55.0391 40.5858 55.4142C40.9609 55.7893 41.4696 56 42 56H54C54.5304 56 55.0391 55.7893 55.4142 55.4142C55.7893 55.0391 56 54.5304 56 54C56 49.584 52.416 46 48 46C43.584 46 40 49.584 40 54ZM20 54C20 54.5304 20.2107 55.0391 20.5858 55.4142C20.9609 55.7893 21.4696 56 22 56H34C34.5304 56 35.0391 55.7893 35.4142 55.4142C35.7893 55.0391 36 54.5304 36 54C36 49.584 32.416 46 28 46C23.584 46 20 49.584 20 54ZM0 54C0 54.5304 0.210714 55.0391 0.585786 55.4142C0.960859 55.7893 1.46957 56 2 56H14C14.5304 56 15.0391 55.7893 15.4142 55.4142C15.7893 55.0391 16 54.5304 16 54C16 49.584 12.416 46 8 46C3.584 46 0 49.584 0 54ZM44.536 52C44.8867 51.3915 45.3915 50.886 45.9996 50.5346C46.6077 50.1832 47.2976 49.9982 48 49.9982C48.7024 49.9982 49.3923 50.1832 50.0004 50.5346C50.6085 50.886 51.1133 51.3915 51.464 52H44.536ZM24.536 52C24.8867 51.3915 25.3915 50.886 25.9996 50.5346C26.6077 50.1832 27.2977 49.9982 28 49.9982C28.7023 49.9982 29.3923 50.1832 30.0004 50.5346C30.6085 50.886 31.1133 51.3915 31.464 52H24.536ZM4.536 52C4.88668 51.3915 5.39148 50.886 5.99959 50.5346C6.6077 50.1832 7.29765 49.9982 8 49.9982C8.70235 49.9982 9.3923 50.1832 10.0004 50.5346C10.6085 50.886 11.1133 51.3915 11.464 52H4.536ZM8 32C6.43552 32.0404 4.9487 32.6903 3.85645 33.8111C2.7642 34.9319 2.15293 36.435 2.15293 38C2.15293 39.565 2.7642 41.0681 3.85645 42.1889C4.9487 43.3097 6.43552 43.9596 8 44C9.56448 43.9596 11.0513 43.3097 12.1436 42.1889C13.2358 41.0681 13.8471 39.565 13.8471 38C13.8471 36.435 13.2358 34.9319 12.1436 33.8111C11.0513 32.6903 9.56448 32.0404 8 32ZM48 32C46.4355 32.0404 44.9487 32.6903 43.8564 33.8111C42.7642 34.9319 42.1529 36.435 42.1529 38C42.1529 39.565 42.7642 41.0681 43.8564 42.1889C44.9487 43.3097 46.4355 43.9596 48 44C49.5645 43.9596 51.0513 43.3097 52.1436 42.1889C53.2358 41.0681 53.8471 39.565 53.8471 38C53.8471 36.435 53.2358 34.9319 52.1436 33.8111C51.0513 32.6903 49.5645 32.0404 48 32ZM28 32C26.4355 32.0404 24.9487 32.6903 23.8564 33.8111C22.7642 34.9319 22.1529 36.435 22.1529 38C22.1529 39.565 22.7642 41.0681 23.8564 42.1889C24.9487 43.3097 26.4355 43.9596 28 44C29.5645 43.9596 31.0513 43.3097 32.1436 42.1889C33.2358 41.0681 33.8471 39.565 33.8471 38C33.8471 36.435 33.2358 34.9319 32.1436 33.8111C31.0513 32.6903 29.5645 32.0404 28 32ZM8 36C8.53043 36 9.03914 36.2107 9.41421 36.5858C9.78929 36.9609 10 37.4696 10 38C10 38.5304 9.78929 39.0391 9.41421 39.4142C9.03914 39.7893 8.53043 40 8 40C7.46957 40 6.96086 39.7893 6.58579 39.4142C6.21071 39.0391 6 38.5304 6 38C6 37.4696 6.21071 36.9609 6.58579 36.5858C6.96086 36.2107 7.46957 36 8 36ZM48 36C48.5304 36 49.0391 36.2107 49.4142 36.5858C49.7893 36.9609 50 37.4696 50 38C50 38.5304 49.7893 39.0391 49.4142 39.4142C49.0391 39.7893 48.5304 40 48 40C47.4696 40 46.9609 39.7893 46.5858 39.4142C46.2107 39.0391 46 38.5304 46 38C46 37.4696 46.2107 36.9609 46.5858 36.5858C46.9609 36.2107 47.4696 36 48 36ZM28 36C28.5304 36 29.0391 36.2107 29.4142 36.5858C29.7893 36.9609 30 37.4696 30 38C30 38.5304 29.7893 39.0391 29.4142 39.4142C29.0391 39.7893 28.5304 40 28 40C27.4696 40 26.9609 39.7893 26.5858 39.4142C26.2107 39.0391 26 38.5304 26 38C26 37.4696 26.2107 36.9609 26.5858 36.5858C26.9609 36.2107 27.4696 36 28 36ZM54 6C54 5.46957 53.7893 4.96086 53.4142 4.58579C53.0391 4.21071 52.5304 4 52 4H44C43.4696 4 42.9609 4.21071 42.5858 4.58579C42.2107 4.96086 42 5.46957 42 6V26C42 26.5304 42.2107 27.0391 42.5858 27.4142C42.9609 27.7893 43.4696 28 44 28H52C52.5304 28 53.0391 27.7893 53.4142 27.4142C53.7893 27.0391 54 26.5304 54 26V6ZM34 10C34 9.46957 33.7893 8.96086 33.4142 8.58579C33.0391 8.21071 32.5304 8 32 8H24C23.4696 8 22.9609 8.21071 22.5858 8.58579C22.2107 8.96086 22 9.46957 22 10V26C22 26.5304 22.2107 27.0391 22.5858 27.4142C22.9609 27.7893 23.4696 28 24 28H32C32.5304 28 33.0391 27.7893 33.4142 27.4142C33.7893 27.0391 34 26.5304 34 26V10ZM14 2C14 1.46957 13.7893 0.960859 13.4142 0.585786C13.0391 0.210714 12.5304 0 12 0H4C3.46957 0 2.96086 0.210714 2.58579 0.585786C2.21071 0.960859 2 1.46957 2 2V26C2 26.5304 2.21071 27.0391 2.58579 27.4142C2.96086 27.7893 3.46957 28 4 28H12C12.5304 28 13.0391 27.7893 13.4142 27.4142C13.7893 27.0391 14 26.5304 14 26V2ZM10 4V24H6V4H10ZM50 8V24H46V8H50ZM30 12V24H26V12H30Z" fill="url(#paint0_linear_97_433)"/>
<defs>
<linearGradient id="paint0_linear_97_433" x1="0" y1="28" x2="56" y2="28" gradientUnits="userSpaceOnUse">
<stop stop-color="#1B4798"/>
<stop offset="1" stop-color="#6DC8FF"/>
</linearGradient>
</defs>
</svg>
