<svg width="331" height="347" viewBox="0 0 331 347" fill="none" xmlns="http://www.w3.org/2000/svg">
<g clip-path="url(#clip0_158_1692)">
<path opacity="0.18" d="M118.076 61.7666C92.5201 77.2697 60.292 80.8968 37.5084 100.243C29.4616 107.059 22.9704 115.606 17.7364 124.773C0.71889 154.61 -2.76649 191.799 8.40895 224.262C19.5844 256.725 45.2511 283.888 77.0113 296.893C92.216 303.112 108.491 306.177 124.766 308.312C154.772 312.252 185.098 313.165 215.286 311.039C234.374 309.699 254.526 306.657 269.21 294.389C278.994 286.199 285.374 274.674 290.298 262.909C303.629 230.916 307.751 195.831 302.198 161.618C298.807 140.926 291.777 120.667 280.216 103.186C260.76 73.7595 230.163 54.4538 198.76 39.7815C186.438 34.0248 170.69 23.9859 156.964 29.801C142.526 35.9086 131.836 53.4183 118.076 61.7666Z" fill="#606ED4"/>
<path opacity="0.12" d="M10.1691 309.962C7.47321 310.477 4.6428 311.074 2.60186 312.887C-1.29872 316.397 -0.503402 323.096 2.9235 327.057C6.3504 331.017 11.5609 332.86 16.5726 334.369C58.2334 346.918 102.485 347.012 145.988 346.994C159.28 346.994 172.918 346.924 185.327 342.174C193.935 338.88 201.573 333.463 210.052 329.888C241.906 316.374 279.163 330.397 312.842 322.447C316.789 321.516 321.181 319.82 322.555 316.011C325.333 308.289 314.099 303.597 305.906 303.194C269.956 301.415 233.937 301.585 198.005 303.703C169.298 305.393 143.146 296.869 114.333 298.034C79.3647 299.43 44.5482 303.418 10.1691 309.962Z" fill="#25233A"/>
<path d="M174.076 303.129H164.549C161.292 303.129 158.169 301.835 155.865 299.531C153.562 297.227 152.269 294.102 152.269 290.844V12.3148C152.269 9.05645 153.562 5.9316 155.865 3.62763C158.169 1.32365 161.292 0.0292969 164.549 0.0292969H174.076C172.46 0.0292923 170.861 0.348032 169.369 0.967263C167.877 1.58649 166.522 2.49405 165.381 3.63796C164.241 4.78187 163.337 6.13967 162.721 7.63358C162.106 9.1275 161.791 10.7282 161.795 12.344V290.82C161.792 292.436 162.107 294.036 162.723 295.529C163.339 297.022 164.243 298.379 165.384 299.523C166.524 300.666 167.879 301.573 169.371 302.192C170.862 302.811 172.461 303.129 174.076 303.129Z" fill="#606ED4"/>
<path d="M174.076 303.129H164.549C161.292 303.129 158.169 301.835 155.865 299.531C153.562 297.227 152.269 294.102 152.269 290.844V12.3148C152.269 9.05645 153.562 5.9316 155.865 3.62763C158.169 1.32365 161.292 0.0292969 164.549 0.0292969H174.076C172.46 0.0292923 170.861 0.348032 169.369 0.967263C167.877 1.58649 166.522 2.49405 165.381 3.63796C164.241 4.78187 163.337 6.13967 162.721 7.63358C162.106 9.1275 161.791 10.7282 161.795 12.344V290.82C161.792 292.436 162.107 294.036 162.723 295.529C163.339 297.022 164.243 298.379 165.384 299.523C166.524 300.666 167.879 301.573 169.371 302.192C170.862 302.811 172.461 303.129 174.076 303.129Z" fill="url(#paint0_linear_158_1692)"/>
<path d="M84.4499 95.891C84.4499 95.891 57.3622 131.074 60.1166 146.899C62.871 162.724 69.5318 178.771 69.5318 178.771L87.7131 101.104L84.4499 95.891Z" fill="#606ED4"/>
<path d="M84.4499 95.891C84.4499 95.891 57.3622 131.074 60.1166 146.899C62.871 162.724 69.5318 178.771 69.5318 178.771L87.7131 101.104L84.4499 95.891Z" fill="url(#paint1_linear_158_1692)"/>
<path d="M318.69 0H174.076C167.277 0 161.766 5.51348 161.766 12.3147V290.814C161.766 297.616 167.277 303.129 174.076 303.129H318.69C325.488 303.129 331 297.616 331 290.814V12.3147C331 5.51348 325.488 0 318.69 0Z" fill="#606ED4"/>
<path opacity="0.18" d="M248.117 34.1595H175.193C174.05 34.1548 172.955 33.6973 172.148 32.887C171.342 32.0767 170.889 30.9797 170.889 29.8361C170.89 28.6936 171.344 27.5981 172.15 26.7891C172.957 25.98 174.051 25.5233 175.193 25.5187H248.117C249.262 25.5187 250.36 25.9734 251.171 26.7829C251.981 27.5924 252.437 28.6905 252.438 29.8361C252.438 30.9828 251.983 32.0824 251.173 32.8932C250.362 33.704 249.263 34.1595 248.117 34.1595ZM248.117 78.1941H175.193C174.047 78.1941 172.947 77.7386 172.137 76.9278C171.326 76.117 170.871 75.0174 170.871 73.8708C170.873 72.7252 171.329 71.627 172.139 70.8175C172.949 70.008 174.048 69.5533 175.193 69.5533H248.117C249.262 69.5533 250.36 70.008 251.171 70.8175C251.981 71.627 252.437 72.7252 252.438 73.8708C252.438 75.0174 251.983 76.117 251.173 76.9278C250.362 77.7386 249.263 78.1941 248.117 78.1941ZM248.117 122.229H175.193C174.048 122.229 172.949 121.774 172.139 120.964C171.329 120.155 170.873 119.057 170.871 117.911C170.871 116.765 171.326 115.665 172.137 114.854C172.947 114.043 174.047 113.588 175.193 113.588H248.117C249.263 113.588 250.362 114.043 251.173 114.854C251.983 115.665 252.438 116.765 252.438 117.911C252.437 119.057 251.981 120.155 251.171 120.964C250.36 121.774 249.262 122.229 248.117 122.229ZM248.117 166.263H175.193C174.048 166.263 172.949 165.809 172.139 164.999C171.329 164.19 170.873 163.091 170.871 161.946C170.871 160.799 171.326 159.7 172.137 158.889C172.947 158.078 174.047 157.623 175.193 157.623H248.117C249.263 157.623 250.362 158.078 251.173 158.889C251.983 159.7 252.438 160.799 252.438 161.946C252.437 163.091 251.981 164.19 251.171 164.999C250.36 165.809 249.262 166.263 248.117 166.263ZM248.117 210.298H175.193C174.048 210.298 172.949 209.843 172.139 209.034C171.329 208.224 170.873 207.126 170.871 205.98C170.871 204.834 171.326 203.734 172.137 202.923C172.947 202.113 174.047 201.657 175.193 201.657H248.117C249.263 201.657 250.362 202.113 251.173 202.923C251.983 203.734 252.438 204.834 252.438 205.98C252.437 207.126 251.981 208.224 251.171 209.034C250.36 209.843 249.262 210.298 248.117 210.298ZM248.117 254.333H175.193C174.625 254.333 174.064 254.222 173.539 254.006C173.015 253.789 172.539 253.471 172.137 253.07C171.736 252.669 171.417 252.193 171.2 251.669C170.983 251.144 170.871 250.583 170.871 250.015C170.876 248.871 171.333 247.776 172.143 246.969C172.953 246.162 174.05 245.709 175.193 245.709H248.117C249.263 245.709 250.362 246.165 251.173 246.976C251.983 247.786 252.438 248.886 252.438 250.033C252.434 251.176 251.976 252.27 251.166 253.076C250.356 253.882 249.259 254.334 248.117 254.333Z" fill="white"/>
<path d="M71.8247 188.623C76.9533 178.765 101.907 200.007 105.059 210.544C108.211 221.08 87.7135 258.153 77.0703 269.59C66.427 281.027 46.7194 291.277 34.0995 294.828C34.0995 294.828 29.6609 288.902 30.5557 286.468C31.4504 284.034 57.5557 264.986 59.9241 253.484C62.2925 241.983 66.7019 198.486 71.8247 188.623Z" fill="#25233A"/>
<path d="M192.263 96.8622C192.263 96.8622 189.111 87.7007 189.637 86.6945C190.164 85.6882 193.228 83.3657 194.672 84.723C196.117 86.0802 199.053 94.4928 199.053 94.4928L229.836 83.9624C229.836 83.9624 233.275 83.4301 232.912 87.1917C232.55 90.9534 199.427 104.134 199.427 104.134C199.427 104.134 196.731 106.895 192.263 96.8622Z" fill="#222A72"/>
<path d="M116.129 44.9063C116.129 44.9063 125.731 61.673 123.831 71.8173C121.93 81.9616 116.497 79.7034 114.573 84.9627C113.365 88.4044 112.589 91.9829 112.264 95.616C112.264 95.616 106.685 100.144 96.7021 87.8176C97.5925 82.8018 97.0555 77.6365 95.1524 72.9113C91.9887 65.3586 93.7021 37.9504 116.129 44.9063Z" fill="url(#paint2_linear_158_1692)"/>
<path d="M88.9703 36.2714C74.2686 50.3119 72.4265 41.2558 61.6838 43.8065C53.5961 45.7254 49.6078 52.7105 52.2744 67.3302C54.9411 81.9499 42.6312 74.6137 36.0113 88.0692C24.1341 112.143 45.7247 115.565 62.368 114.869C79.0113 114.173 77.4733 83.7225 89.7598 82.5466C102.046 81.3708 104.561 83.2077 109.543 67.418C112.467 58.1278 110.386 54.0736 114.362 50.9204C119.438 46.8954 121.21 38.1786 115.912 34.4578C110.052 30.3685 98.3271 27.3206 88.9703 36.2714Z" fill="#3F3D56"/>
<path d="M87.9295 93.6035C87.9295 93.6035 86.7014 87.9931 90.7365 86.0684C94.7716 84.1437 106.31 83.2135 107.906 86.0684C109.503 88.9233 111.269 95.4288 112.988 95.5341C114.707 95.6394 121.76 106.913 121.76 106.913C121.76 106.913 123.234 138.1 123.315 150.204C123.45 169.44 111.924 199.475 96.0172 197.047C80.1108 194.619 68.5026 190.179 68.7833 181.924C69.064 173.67 82.4851 111.517 81.526 104.514C80.4968 96.9498 87.6605 93.311 87.9295 93.6035Z" fill="#606ED4"/>
<path d="M123.321 150.187C123.456 169.422 111.93 199.457 96.0231 197.03C80.1167 194.602 68.5085 190.161 68.7892 181.907C69.0699 173.652 82.4909 111.499 81.5319 104.497C80.4968 96.9499 87.6605 93.3111 87.9295 93.5743C87.9295 93.5743 86.7014 87.964 90.7365 86.0392C94.7716 84.1145 106.31 83.1843 107.906 86.0392C109.386 88.6952 111.023 94.4753 112.625 95.3996C112.736 95.4647 112.86 95.5046 112.988 95.5166C114.707 95.6512 121.76 106.895 121.76 106.895C121.76 106.895 123.239 138.065 123.321 150.187Z" fill="url(#paint3_linear_158_1692)"/>
<path d="M102.217 103.303C102.217 103.303 108.345 91.2108 117.018 98.5703C125.691 105.93 136.363 133.087 143.784 133.25C151.205 133.414 181.667 108.82 184.363 111.02C187.059 113.219 191.644 118.795 189.153 123.527C186.661 128.26 152.562 158.137 137.872 155.341C123.182 152.544 91.8894 132.484 102.217 103.303Z" fill="#606ED4"/>
<path d="M102.217 103.303C102.217 103.303 108.345 91.2108 117.018 98.5703C125.691 105.93 136.363 133.087 143.784 133.25C151.205 133.414 181.667 108.82 184.363 111.02C187.059 113.219 191.644 118.795 189.153 123.527C186.661 128.26 152.562 158.137 137.872 155.341C123.182 152.544 91.8894 132.484 102.217 103.303Z" fill="url(#paint4_linear_158_1692)"/>
<path d="M185.339 111.915C185.339 111.915 191.567 100.372 192.046 98.2837C192.526 96.1952 194.105 99.3367 194.105 99.3367C194.105 99.3367 199.403 95.1304 200.321 93.2876C201.239 91.4448 208.93 88.6074 212.415 89.0579C215.9 89.5084 210.076 91.6554 210.076 91.6554C210.076 91.6554 207.315 92.919 205.865 99.8457C204.415 106.772 202.941 112.716 196.561 115.641C190.181 118.566 189.748 119.181 189.748 119.181C189.748 119.181 188.222 113.085 185.339 111.915Z" fill="url(#paint5_linear_158_1692)"/>
<path d="M71.8244 188.623C71.8244 188.623 64.1929 206.097 78.3858 222.396C92.5788 238.695 103.158 251.448 100.164 276.686C97.1695 301.924 104.345 314.941 104.345 314.941H112.713C112.713 314.941 125.696 268.174 123.456 248.371C121.216 228.568 111.45 188.67 111.45 188.67C111.45 188.67 92.3215 179.555 71.8244 188.623Z" fill="#3F3D56"/>
<path d="M104.345 314.941V325.588H127.397C127.397 325.588 113.596 323.09 113.204 320.264C112.813 317.439 112.713 314.941 112.713 314.941H104.345Z" fill="url(#paint6_linear_158_1692)"/>
<path d="M106.059 322.347C105.012 322.125 103.72 321.867 103.053 322.704C102.839 323.016 102.703 323.376 102.655 323.751C102.45 324.789 102.375 325.848 102.433 326.904C102.474 327.688 102.655 328.578 103.334 328.97C103.762 329.164 104.234 329.241 104.702 329.192L128.608 328.753C129.521 328.753 130.573 328.648 131.088 327.899C131.323 327.528 131.428 327.09 131.386 326.653C131.326 326.058 131.138 325.483 130.835 324.967C130.532 324.451 130.122 324.006 129.632 323.663C128.641 322.987 127.541 322.486 126.38 322.183C123.456 321.282 118.661 319.598 115.749 320.832C112.532 322.172 109.579 323.073 106.059 322.347Z" fill="#091240"/>
<path d="M30.3154 288.065L20.8066 292.909L32.3446 312.87C32.3446 312.87 27.5961 299.672 29.8476 297.911C32.099 296.15 34.2101 294.822 34.2101 294.822L30.3154 288.065Z" fill="url(#paint7_linear_158_1692)"/>
<path d="M24.4852 292.763C24.1518 291.745 23.7308 290.493 22.6723 290.341C22.2951 290.309 21.9158 290.369 21.567 290.516C20.5655 290.858 19.6107 291.323 18.7249 291.903C18.07 292.33 17.3916 292.932 17.3916 293.716C17.439 294.186 17.6106 294.634 17.8887 295.015C22.0017 301.844 26.1167 308.669 30.2337 315.491C30.7015 316.269 31.3097 317.14 32.2162 317.211C32.654 317.226 33.0851 317.099 33.4442 316.848C33.9281 316.493 34.3303 316.038 34.6238 315.514C34.9173 314.99 35.0954 314.41 35.146 313.812C35.2334 312.615 35.1147 311.412 34.7951 310.255C34.0992 307.254 33.1635 302.275 30.6431 300.374C27.8711 298.279 25.6138 296.179 24.4852 292.763Z" fill="#091240"/>
<path opacity="0.18" d="M298.667 14.2804H273.971C272.111 14.2804 270.603 15.7891 270.603 17.6501V38.4126C270.603 40.2736 272.111 41.7823 273.971 41.7823H298.667C300.527 41.7823 302.035 40.2736 302.035 38.4126V17.6501C302.035 15.7891 300.527 14.2804 298.667 14.2804Z" fill="white"/>
<path opacity="0.18" d="M298.667 62.0767H273.971C272.111 62.0767 270.603 63.5853 270.603 65.4464V86.2088C270.603 88.0699 272.111 89.5785 273.971 89.5785H298.667C300.527 89.5785 302.035 88.0699 302.035 86.2088V65.4464C302.035 63.5853 300.527 62.0767 298.667 62.0767Z" fill="white"/>
<path opacity="0.18" d="M298.667 105.45H273.971C272.111 105.45 270.603 106.959 270.603 108.82V129.582C270.603 131.443 272.111 132.952 273.971 132.952H298.667C300.527 132.952 302.035 131.443 302.035 129.582V108.82C302.035 106.959 300.527 105.45 298.667 105.45Z" fill="white"/>
<path opacity="0.18" d="M298.667 191.255H273.971C272.111 191.255 270.603 192.764 270.603 194.625V215.388C270.603 217.249 272.111 218.757 273.971 218.757H298.667C300.527 218.757 302.035 217.249 302.035 215.388V194.625C302.035 192.764 300.527 191.255 298.667 191.255Z" fill="white"/>
<path opacity="0.18" d="M298.667 148.192H273.971C272.111 148.192 270.603 149.701 270.603 151.562V172.324C270.603 174.185 272.111 175.694 273.971 175.694H298.667C300.527 175.694 302.035 174.185 302.035 172.324V151.562C302.035 149.701 300.527 148.192 298.667 148.192Z" fill="white"/>
<path opacity="0.18" d="M298.667 236.261H273.971C272.111 236.261 270.603 237.77 270.603 239.631V260.393C270.603 262.254 272.111 263.763 273.971 263.763H298.667C300.527 263.763 302.035 262.254 302.035 260.393V239.631C302.035 237.77 300.527 236.261 298.667 236.261Z" fill="white"/>
<path d="M272.807 24.0151L278.456 33.51C280.211 36.4351 283.292 37.0787 285.509 34.9492L304.637 16.521C304.637 16.521 306.392 13.9761 304.526 12.0105C302.661 10.0448 301.07 12.3088 301.07 12.3088L284.111 28.5958C283.035 29.5787 281.573 29.2511 280.743 27.847L276.24 20.2417C275.386 18.8026 273.825 18.668 272.895 19.9609C272.511 20.5642 272.301 21.2611 272.285 21.9758C272.27 22.6905 272.45 23.3958 272.807 24.0151ZM272.807 70.969L278.456 80.458C280.211 83.3832 283.292 84.0267 285.509 81.8972L304.637 63.469C304.637 63.469 306.392 60.93 304.526 58.9585C302.661 56.987 301.07 59.2569 301.07 59.2569L284.111 75.5497C283.035 76.5267 281.573 76.2049 280.743 74.8009L276.24 67.1956C275.386 65.7506 273.825 65.6219 272.895 66.9148C272.511 67.5181 272.301 68.2149 272.285 68.9296C272.27 69.6444 272.45 70.3497 272.807 70.969ZM272.807 160.355L278.456 169.849C280.211 172.775 283.292 173.418 285.509 171.289L304.637 152.86C304.637 152.86 306.392 150.316 304.526 148.35C302.661 146.384 301.07 148.648 301.07 148.648L284.111 164.935C283.035 165.918 281.573 165.59 280.743 164.186L276.24 156.581C275.386 155.142 273.825 155.007 272.895 156.3C272.511 156.904 272.301 157.6 272.285 158.315C272.27 159.03 272.45 159.735 272.807 160.355ZM272.807 203.746L278.456 213.235C280.211 216.16 283.292 216.803 285.509 214.674L304.637 196.251C304.637 196.251 306.392 193.707 304.526 191.735C302.661 189.764 301.07 192.033 301.07 192.033L284.111 208.326C283.035 209.303 281.573 208.982 280.743 207.577L276.24 199.972C275.386 198.527 273.825 198.398 272.895 199.691C272.511 200.295 272.301 200.992 272.285 201.706C272.27 202.421 272.45 203.126 272.807 203.746ZM272.807 246.002L278.456 255.497C280.211 258.422 283.292 259.065 285.509 256.936L304.637 238.508C304.637 238.508 306.392 235.963 304.526 233.997C302.661 232.031 301.07 234.295 301.07 234.295L284.111 250.582C283.035 251.565 281.573 251.238 280.743 249.834L276.24 242.228C275.386 240.789 273.825 240.655 272.895 241.948C272.511 242.551 272.301 243.248 272.285 243.962C272.27 244.677 272.45 245.382 272.807 246.002Z" fill="#222A72"/>
<path d="M112.62 95.3879C98.0642 90.5732 87.9239 93.5743 87.9239 93.5743C87.9239 93.5743 86.6958 87.964 90.7309 86.0392C94.766 84.1145 106.304 83.1843 107.9 86.0392C109.386 88.6952 111.023 94.4753 112.62 95.3879Z" fill="url(#paint8_linear_158_1692)"/>
</g>
<defs>
<linearGradient id="paint0_linear_158_1692" x1="166.596" y1="-126.909" x2="161.955" y2="257.176" gradientUnits="userSpaceOnUse">
<stop/>
<stop offset="0.98" stop-opacity="0"/>
</linearGradient>
<linearGradient id="paint1_linear_158_1692" x1="108.128" y1="132.882" x2="58.4842" y2="139.973" gradientUnits="userSpaceOnUse">
<stop/>
<stop offset="0.98" stop-opacity="0"/>
</linearGradient>
<linearGradient id="paint2_linear_158_1692" x1="93.9419" y1="70.1149" x2="124.1" y2="70.1149" gradientUnits="userSpaceOnUse">
<stop stop-color="#ECC4D7"/>
<stop offset="0.42" stop-color="#EFD4D1"/>
<stop offset="1" stop-color="#F2EAC9"/>
</linearGradient>
<linearGradient id="paint3_linear_158_1692" x1="143.818" y1="149.602" x2="95.507" y2="139.857" gradientUnits="userSpaceOnUse">
<stop/>
<stop offset="0.98" stop-opacity="0"/>
</linearGradient>
<linearGradient id="paint4_linear_158_1692" x1="143.737" y1="204.237" x2="145.253" y2="101.946" gradientUnits="userSpaceOnUse">
<stop/>
<stop offset="0.98" stop-opacity="0"/>
</linearGradient>
<linearGradient id="paint5_linear_158_1692" x1="185.339" y1="104.116" x2="213.52" y2="104.116" gradientUnits="userSpaceOnUse">
<stop stop-color="#ECC4D7"/>
<stop offset="0.42" stop-color="#EFD4D1"/>
<stop offset="1" stop-color="#F2EAC9"/>
</linearGradient>
<linearGradient id="paint6_linear_158_1692" x1="104.345" y1="320.264" x2="127.397" y2="320.264" gradientUnits="userSpaceOnUse">
<stop stop-color="#ECC4D7"/>
<stop offset="0.42" stop-color="#EFD4D1"/>
<stop offset="1" stop-color="#F2EAC9"/>
</linearGradient>
<linearGradient id="paint7_linear_158_1692" x1="20.8183" y1="300.467" x2="34.2218" y2="300.467" gradientUnits="userSpaceOnUse">
<stop stop-color="#ECC4D7"/>
<stop offset="0.42" stop-color="#EFD4D1"/>
<stop offset="1" stop-color="#F2EAC9"/>
</linearGradient>
<linearGradient id="paint8_linear_158_1692" x1="148.181" y1="80.8618" x2="91.7525" y2="92.5945" gradientUnits="userSpaceOnUse">
<stop/>
<stop offset="0.98" stop-opacity="0"/>
</linearGradient>
<clipPath id="clip0_158_1692">
<rect width="331" height="347" fill="white"/>
</clipPath>
</defs>
</svg>
