<svg width="220" height="194" viewBox="0 0 220 194" fill="none" xmlns="http://www.w3.org/2000/svg">
<g clip-path="url(#clip0_126_629)">
<path opacity="0.18" d="M162.81 33.7107C156.095 25.5279 150.896 15.7591 142.87 9.07796C130.263 -1.43027 112.118 -2.45514 97.3761 4.14817C82.6344 10.7515 71.1413 24.0619 63.5721 39.1334C59.5907 47.0632 56.4631 55.7131 50.6288 62.1931C45.6967 67.6678 39.2145 71.1608 33.0683 74.9652C23.1678 81.0853 13.6245 88.4734 7.21192 98.6152C0.799306 108.757 -2.0679 122.077 2.03157 133.506C4.79584 141.219 10.3637 147.355 16.0679 152.911C22.7802 159.443 29.9952 165.576 38.3213 169.452C48.7395 174.294 60.3174 175.335 71.6651 175.828C91.7825 176.698 111.932 176.048 131.964 173.882C148.368 172.111 165.269 169.088 178.993 159.303C198.219 145.601 208.132 120.494 210.363 95.8746C211.271 86.028 211.041 75.7955 207.493 66.6591C199.006 44.8059 176.108 49.9173 162.81 33.7107Z" fill="#606ED4"/>
<path d="M81.4021 77.5858C81.4021 77.5858 73.7936 76.1523 71.6621 81.8021C69.5306 87.4518 71.6621 106.963 71.6621 106.963L100.05 128.492L81.4021 77.5858Z" fill="#3F3D56"/>
<path d="M117.159 164.483L106.147 167.976C105.379 168.218 104.552 168.123 103.849 167.713C103.145 167.304 102.622 166.612 102.393 165.79C102.167 164.967 102.256 164.081 102.638 163.328C103.02 162.574 103.666 162.013 104.434 161.768L115.442 158.279C116.21 158.037 117.036 158.131 117.74 158.54C118.444 158.949 118.967 159.64 119.197 160.461C119.422 161.284 119.335 162.169 118.953 162.923C118.571 163.676 117.926 164.237 117.159 164.483Z" fill="#606ED4"/>
<path d="M121.492 173.195C122.132 170.272 120.439 167.347 117.71 166.661C114.982 165.976 112.251 167.79 111.611 170.712C110.971 173.635 112.664 176.56 115.393 177.246C118.121 177.931 120.852 176.118 121.492 173.195Z" fill="#25233A"/>
<path d="M115.636 175.166C117.037 175.166 118.173 173.949 118.173 172.448C118.173 170.947 117.037 169.73 115.636 169.73C114.235 169.73 113.099 170.947 113.099 172.448C113.099 173.949 114.235 175.166 115.636 175.166Z" fill="#3F3D56"/>
<path d="M99.7967 170.426C101.778 168.304 101.778 164.862 99.7968 162.739C97.8151 160.616 94.6022 160.616 92.6205 162.739C90.6388 164.862 90.6388 168.304 92.6205 170.426C94.6022 172.549 97.8151 172.549 99.7967 170.426Z" fill="#25233A"/>
<path d="M97.8333 167.071C97.8333 167.609 97.6845 168.134 97.4057 168.581C97.1269 169.028 96.7306 169.376 96.267 169.582C95.8034 169.788 95.2933 169.842 94.8011 169.737C94.3089 169.632 93.8569 169.373 93.502 168.993C93.1472 168.613 92.9055 168.129 92.8076 167.601C92.7098 167.074 92.76 166.528 92.952 166.031C93.1441 165.534 93.4693 165.11 93.8865 164.811C94.3037 164.513 94.7943 164.353 95.2961 164.353C95.9688 164.354 96.6136 164.641 97.0893 165.15C97.5649 165.66 97.8325 166.351 97.8333 167.071Z" fill="url(#paint0_linear_126_629)"/>
<path d="M94.739 179.451C97.5415 179.451 99.8134 177.017 99.8134 174.015C99.8134 171.013 97.5415 168.579 94.739 168.579C91.9365 168.579 89.6646 171.013 89.6646 174.015C89.6646 177.017 91.9365 179.451 94.739 179.451Z" fill="#25233A"/>
<path d="M98.7476 174.197C98.7476 174.734 98.5988 175.26 98.32 175.707C98.0413 176.154 97.645 176.502 97.1814 176.708C96.7178 176.913 96.2076 176.967 95.7155 176.862C95.2233 176.757 94.7712 176.499 94.4164 176.118C94.0615 175.738 93.8199 175.254 93.722 174.727C93.6241 174.2 93.6743 173.653 93.8664 173.157C94.0584 172.66 94.3836 172.235 94.8009 171.937C95.2181 171.638 95.7086 171.479 96.2104 171.479C96.8834 171.479 97.5287 171.765 98.0045 172.275C98.4803 172.785 98.7476 173.476 98.7476 174.197Z" fill="#3F3D56"/>
<path d="M117.571 169.815L94.3636 164.797C93.5791 164.625 92.8902 164.128 92.4476 163.413C92.005 162.698 91.8448 161.824 92.002 160.983C92.1626 160.144 92.6269 159.406 93.2935 158.932C93.9601 158.458 94.7748 158.286 95.5595 158.454L118.767 163.468C119.551 163.64 120.24 164.138 120.683 164.852C121.125 165.567 121.285 166.441 121.128 167.282C120.968 168.122 120.504 168.86 119.838 169.335C119.171 169.81 118.356 169.982 117.571 169.815Z" fill="#606ED4"/>
<path d="M103.265 130.759H109.602V159.349C109.602 160.249 109.268 161.111 108.674 161.748C108.08 162.384 107.275 162.741 106.435 162.741C105.595 162.741 104.789 162.384 104.196 161.748C103.602 161.111 103.268 160.249 103.268 159.349V130.759H103.265Z" fill="#606ED4"/>
<path d="M105.539 167.937L94.5301 171.436C93.7612 171.679 92.934 171.585 92.2296 171.175C91.5253 170.766 91.0014 170.073 90.7727 169.25C90.5472 168.427 90.6353 167.542 91.0177 166.788C91.4002 166.034 92.0459 165.474 92.8134 165.229L103.822 161.739C104.59 161.497 105.416 161.591 106.12 162C106.823 162.409 107.347 163.1 107.576 163.922C107.8 164.744 107.712 165.627 107.33 166.379C106.948 167.131 106.304 167.691 105.539 167.937Z" fill="#606ED4"/>
<path d="M107.361 167.59L106.15 167.976C105.789 168.091 105.411 168.131 105.036 168.096L105.542 167.937C105.893 167.826 106.223 167.647 106.514 167.408L107.361 167.59Z" fill="url(#paint1_linear_126_629)"/>
<path d="M119.324 161.382C119.323 162.128 119.081 162.85 118.639 163.426L109.011 161.34C109.254 160.987 109.429 160.586 109.526 160.16L115.457 158.279C115.907 158.14 116.381 158.114 116.842 158.205C117.302 158.295 117.737 158.499 118.112 158.8C118.486 159.1 118.791 159.49 119.001 159.938C119.212 160.386 119.322 160.881 119.324 161.382Z" fill="url(#paint2_linear_126_629)"/>
<path opacity="0.31" d="M103.347 160.121C103.292 159.868 103.264 159.609 103.265 159.349V130.759H105.466V161.57C105.445 161.722 105.452 161.876 105.487 162.024C105.154 161.87 104.796 161.786 104.434 161.775C104.178 161.756 103.921 161.756 103.665 161.775L103.822 161.726C103.919 161.707 103.474 160.704 103.347 160.121Z" fill="url(#paint3_linear_126_629)"/>
<path opacity="0.31" d="M119.608 169.465C119.166 169.726 118.669 169.863 118.164 169.863C117.961 169.863 117.758 169.841 117.559 169.799L107.349 167.59L106.498 167.408C106.208 167.647 105.878 167.826 105.527 167.937L105.021 168.096L94.5301 171.436C93.7612 171.679 92.934 171.585 92.2296 171.175C91.5253 170.766 91.0014 170.073 90.7727 169.25C91.214 169.688 91.7839 169.948 92.3845 169.985C92.9851 170.021 93.5789 169.833 94.0638 169.452C95.3445 168.501 100.443 167.074 103.332 166.315C103.999 166.144 104.607 165.769 105.08 165.235C105.552 164.701 105.871 164.032 105.996 163.309C105.996 163.218 106.023 163.134 106.032 163.049C106.514 163.607 107.398 164.233 108.996 164.765C112.932 166.062 119.324 166.922 119.324 166.922C119.324 166.922 120.477 168.135 119.608 169.465Z" fill="url(#paint4_linear_126_629)"/>
<path d="M120.704 168.375C120.506 168.71 120.25 169.001 119.95 169.234C120.153 169.01 120.414 168.712 120.704 168.375Z" fill="url(#paint5_linear_126_629)"/>
<path d="M103.347 160.121C103.471 160.696 103.734 161.226 104.11 161.658C104.016 161.677 103.919 161.703 103.822 161.733L94.2788 164.759C93.5691 164.566 92.9488 164.104 92.5327 163.458C92.1165 162.813 91.9329 162.028 92.0156 161.248C92.0984 160.469 92.442 159.748 92.9828 159.22C93.5236 158.691 94.225 158.39 94.957 158.373C95.1603 158.373 95.3631 158.395 95.5625 158.437L103.347 160.121Z" fill="url(#paint6_linear_126_629)"/>
<path d="M118.049 22.4079C118.049 22.4079 117.925 12.3278 110.383 13.197C102.841 14.0662 103.419 10.7289 100.198 11.0954C96.9764 11.4619 93.2342 14.8673 94.3091 19.0738C95.3839 23.2804 91.4661 24.2209 88.8925 27.4123C86.319 30.6037 89.4981 33.2145 93.8337 36.3346C98.1693 39.4546 93.5643 38.647 96.1348 43.5801C98.7052 48.5131 107.407 42.2114 107.407 42.2114L118.049 22.4079Z" fill="#3F3D56"/>
<path d="M56.5297 191.062L61.8796 191.256V145.49C61.8796 145.49 62.1491 133.655 72.5764 132.468C83.0037 131.281 177.57 116.619 177.57 116.619C177.57 116.619 181.318 116.194 183.471 123.883C185.624 131.573 187.731 161.859 187.731 161.859L216.763 166.043C216.763 166.043 217.529 112.574 207.048 109.626C196.566 106.678 59.4878 121.714 59.4878 121.714C59.4878 121.714 49.3208 178.513 56.5297 191.062Z" fill="#606ED4"/>
<path d="M56.5297 191.062L61.8796 191.256V145.49C61.8796 145.49 62.1491 133.655 72.5764 132.468C83.0037 131.281 177.57 116.619 177.57 116.619C177.57 116.619 181.318 116.194 183.471 123.883C185.624 131.573 187.731 161.859 187.731 161.859L216.763 166.043C216.763 166.043 217.529 112.574 207.048 109.626C196.566 106.678 59.4878 121.714 59.4878 121.714C59.4878 121.714 49.3208 178.513 56.5297 191.062Z" fill="url(#paint7_linear_126_629)"/>
<path d="M28.2997 127.328C28.2997 127.328 30.9217 111.786 49.3632 107.713L179.526 91.7362C179.526 91.7362 192.306 91.1686 198.152 94.96C203.999 98.7514 212.343 101.894 215.764 119.051C219.186 136.208 220.003 165.518 220.003 165.518L216.769 166.043C216.769 166.043 212.058 112.983 207.054 109.626C202.049 106.269 66.733 126.88 66.733 126.88C66.733 126.88 57.3472 128.881 56.5297 143.781C55.7123 158.681 56.5297 191.062 56.5297 191.062L28.2997 178.851V127.328Z" fill="#606ED4"/>
<path opacity="0.19" d="M162.229 97.7169C155.492 96.7763 148.701 96.0952 141.913 96.3709C136.812 96.585 131.743 97.3439 126.684 98.0996L82.0651 104.784C81.3082 104.898 80.4453 105.082 80.0669 105.796C79.3402 107.158 81.0478 108.501 82.4315 109.02C97.2671 114.592 113.117 120.235 128.389 116.262C135.37 114.446 141.856 110.674 148.937 109.364C156.019 108.053 163.289 109.26 170.355 108.024C176.998 106.863 183.323 103.565 190.056 103.532C192.121 103.532 194.247 103.818 196.205 103.117C198.164 102.416 199.896 100.276 199.354 98.1418C193.032 97.905 185.936 96.6531 179.735 98.012C173.598 99.3547 168.375 97.7169 162.229 97.7169Z" fill="url(#paint8_linear_126_629)"/>
<path d="M121.879 105.864L122.139 106.931C122.139 106.931 129.848 112.065 129.799 112.231C129.751 112.396 161.775 104.035 161.775 104.035L162.52 101.635L121.879 105.864Z" fill="url(#paint9_linear_126_629)"/>
<path d="M122.6 105.864L150.772 99.0627L162.517 101.635L130.511 110.259L122.6 105.864Z" fill="url(#paint10_linear_126_629)"/>
<path d="M113.732 111.251L120.42 111.491C120.42 111.491 122.118 111.598 122.557 110.216C122.996 108.835 119.848 105.919 119.493 105.864C119.139 105.809 110.353 108.313 111.621 110.816L113.732 111.251Z" fill="url(#paint11_linear_126_629)"/>
<path d="M36.426 181.815L33.1712 192.401C23.7309 195.991 15.7046 192.401 15.7046 192.401L13.3702 181.306C13.3702 181.306 25.1448 185.48 36.426 181.815Z" fill="#606ED4"/>
<path d="M36.426 181.815L33.1712 192.401C23.7309 195.991 15.7046 192.401 15.7046 192.401L13.3702 181.306C13.3702 181.306 25.1448 185.48 36.426 181.815Z" fill="url(#paint12_linear_126_629)"/>
<path d="M40.1167 171.959L39.0722 180.33L36.426 181.815C25.1539 185.477 13.3702 181.306 13.3702 181.306L11.3386 179.684L10.391 171.959H40.1167Z" fill="#606ED4"/>
<path d="M40.1167 171.959L39.0722 180.33L36.426 181.815C25.1539 185.477 13.3702 181.306 13.3702 181.306L11.3386 179.684L10.391 171.959H40.1167Z" fill="url(#paint13_linear_126_629)"/>
<path d="M25.2508 174.823C33.4577 174.823 40.1106 173.54 40.1106 171.959C40.1106 170.377 33.4577 169.095 25.2508 169.095C17.044 169.095 10.391 170.377 10.391 171.959C10.391 173.54 17.044 174.823 25.2508 174.823Z" fill="#606ED4"/>
<path d="M25.2508 174.823C33.4577 174.823 40.1106 173.54 40.1106 171.959C40.1106 170.377 33.4577 169.095 25.2508 169.095C17.044 169.095 10.391 170.377 10.391 171.959C10.391 173.54 17.044 174.823 25.2508 174.823Z" fill="url(#paint14_linear_126_629)"/>
<path d="M18.1812 108.06C16.7219 107.32 15.1535 106.762 13.891 105.682C11.3477 103.487 10.7028 99.7049 9.90655 96.3124C9.11027 92.9199 7.57221 89.1772 4.42949 88.2042C3.25475 87.8442 1.87716 87.9869 0.983992 88.882C0.0423847 89.8323 -0.148359 91.3891 0.108994 92.748C0.366346 94.107 0.993075 95.3427 1.4775 96.64C2.60858 99.6531 2.95291 102.939 2.47361 106.146C2.07698 108.776 1.12932 111.442 1.73788 114.021C2.77032 118.396 7.91434 120.961 8.05664 125.469C8.15353 128.512 5.81616 131.327 6.34601 134.32C6.73658 136.536 8.64098 138.264 8.74393 140.515C8.85898 143.068 6.60638 145.228 6.71538 147.78C6.82438 150.332 9.20413 152.048 10.7573 154.043C12.0594 155.729 12.8337 157.811 12.9706 159.994C13.0523 161.356 12.8888 162.767 13.3036 164.058C13.6064 165.002 14.2119 165.803 14.6812 166.653C15.1989 167.57 15.5895 168.563 16.2132 169.413C16.9973 170.471 18.0599 171.254 19.2636 171.658C20.4673 172.063 21.7567 172.072 22.9649 171.683C23.4463 168.291 23.0255 164.83 23.1587 161.402C23.4221 154.76 25.7685 148.065 24.2668 141.618C23.7158 139.253 22.6561 137.009 22.4684 134.583C22.3019 132.417 22.8408 130.27 23.2162 128.132C23.9913 123.718 23.9792 119.155 23.6613 114.692C23.41 111.163 21.0847 109.532 18.1812 108.06Z" fill="#606ED4"/>
<path d="M27.461 125.456C27.4368 128.418 28.0666 131.479 27.1825 134.291C26.5134 136.422 25.0419 138.167 24.282 140.262C22.5289 145.098 24.8875 150.521 24.4061 155.684C24.2063 157.811 23.525 159.855 23.0951 161.943C22.5561 164.587 22.4201 167.306 22.6924 169.996C22.6628 170.484 22.7979 170.966 23.0731 171.356C23.3483 171.745 23.7452 172.016 24.1911 172.118C25.6747 172.723 27.2114 173.168 28.7781 173.444C28.2449 170.308 28.8028 167.072 30.3464 164.347C32.7473 160.13 37.413 157.289 38.2819 152.447C38.8693 149.168 37.5008 145.84 37.5977 142.503C37.666 140.282 38.3794 138.139 39.6383 136.373C40.7677 134.797 42.2966 133.578 43.3472 131.943C45.8723 128.002 45.0851 122.735 44.3343 118.023C43.5834 113.31 43.1474 107.888 46.1145 104.317C47.0531 103.188 48.2763 102.342 49.1271 101.135C51.0224 98.4464 50.544 94.3048 48.3399 91.9015C46.1357 89.4982 42.5873 88.8334 39.5899 89.8907C38.3485 90.3318 37.1677 91.0745 36.3987 92.2161C34.8849 94.5188 35.4904 97.6648 36.1323 100.402C36.6924 102.779 37.1435 105.523 36.3775 107.92C35.8053 109.704 34.355 110.67 33.1228 111.913C29.6531 115.399 27.5004 120.342 27.461 125.456Z" fill="#606ED4"/>
<path d="M24.3334 151.695C23.9035 154.912 23.2828 158.155 23.1557 161.382C23.1557 161.493 23.1557 161.6 23.1557 161.707C23.1557 161.814 23.1193 161.862 23.1042 161.94C22.5652 164.584 22.4292 167.303 22.7015 169.993C22.7213 170.434 22.8308 170.864 23.0224 171.255C23.0073 171.391 22.9891 171.524 22.971 171.66C21.7627 172.049 20.4733 172.041 19.2697 171.636C18.066 171.231 17.0034 170.449 16.2193 169.39C15.6137 168.54 15.205 167.548 14.6873 166.63C14.2028 165.777 13.6124 164.976 13.3097 164.035C12.8949 162.738 13.0584 161.334 12.9766 159.971C12.8397 157.788 12.0655 155.706 10.7634 154.02C9.21019 152.025 6.82741 150.352 6.72144 147.757C6.61547 145.163 8.86503 143.045 8.74998 140.492C8.64704 138.242 6.74263 136.513 6.35206 134.298C5.82222 131.304 8.16867 128.489 8.0627 125.447C7.9204 120.939 2.77638 118.373 1.74394 113.998C1.1384 111.42 2.08304 108.754 2.47967 106.123C2.95897 102.917 2.61463 99.6304 1.48356 96.6173C0.999132 95.3199 0.372404 94.0972 0.115051 92.7253C-0.142301 91.3534 0.0484424 89.8064 0.99005 88.8593C1.89835 87.9642 3.26081 87.8215 4.43554 88.1815C7.57827 89.1545 9.1133 92.8972 9.91261 96.2897C10.7119 99.6822 11.3538 103.464 13.897 105.66C15.1535 106.746 16.7279 107.297 18.1872 108.037C21.0938 109.509 23.4191 111.141 23.6673 114.65C23.9701 119.113 23.9974 123.676 23.2223 128.09C22.8468 130.227 22.314 132.374 22.4744 134.541C22.6349 136.707 23.516 138.757 24.0912 140.859C24.1548 141.096 24.2184 141.336 24.2729 141.576C25.0358 144.913 24.7906 148.289 24.3334 151.695Z" fill="url(#paint15_linear_126_629)"/>
<path d="M23.0255 171.258C22.8338 170.868 22.7243 170.437 22.7045 169.997C22.4322 167.306 22.5682 164.587 23.1072 161.943C23.1224 161.866 23.1405 161.788 23.1587 161.71C23.0527 164.895 23.3979 168.106 23.0255 171.258Z" fill="url(#paint16_linear_126_629)"/>
<path d="M49.115 101.135C48.2642 102.342 47.041 103.188 46.1024 104.317C43.1353 107.884 43.5713 113.31 44.3221 118.023C45.073 122.735 45.8602 128.002 43.3351 131.943C42.2845 133.565 40.7555 134.797 39.6262 136.373C38.3673 138.139 37.6539 140.282 37.5856 142.503C37.4887 145.84 38.8572 149.168 38.2698 152.447C37.4009 157.289 32.7352 160.137 30.3343 164.347C28.7949 167.073 28.2413 170.31 28.7781 173.444C27.2155 173.167 25.6829 172.723 24.2032 172.118C23.7984 171.989 23.4313 171.751 23.1375 171.427C23.0958 171.374 23.0583 171.318 23.0255 171.258C22.8338 170.868 22.7243 170.437 22.7045 169.996C22.4322 167.306 22.5682 164.587 23.1072 161.943C23.1224 161.866 23.1405 161.788 23.1587 161.71C23.5886 159.702 24.2244 157.734 24.4182 155.684C24.5225 154.355 24.4982 153.018 24.3455 151.695C24.8027 148.289 25.048 144.913 24.2759 141.598C24.2214 141.358 24.1578 141.118 24.0942 140.882C24.1518 140.674 24.2184 140.466 24.2941 140.262C25.054 138.167 26.5255 136.422 27.1946 134.291C28.0756 131.479 27.4489 128.418 27.4731 125.456C27.5125 120.342 29.6652 115.402 33.1228 111.913C34.355 110.67 35.8053 109.704 36.3775 107.92C37.1435 105.523 36.6803 102.779 36.1323 100.402C35.4874 97.6648 34.8758 94.5188 36.3987 92.2161C37.1556 91.0745 38.3485 90.3318 39.5899 89.8907C42.5752 88.8334 46.1388 89.4982 48.3399 91.9015C50.541 94.3048 51.0103 98.4627 49.115 101.135Z" fill="url(#paint17_linear_126_629)"/>
<path d="M102.78 50.2579C102.78 50.2579 90.0431 52.3434 84.1512 67.2203C78.2594 82.0972 81.3234 100.555 81.4263 102.16C81.5292 103.766 99.4803 110.816 104.612 110.816C109.744 110.816 110.813 105.374 110.813 105.374L101.745 101.284L129.297 97.9147H134.244L131.519 102.763C131.519 102.763 136.896 103.36 140.49 103.496C144.084 103.633 146.524 96.1049 146.927 92.3622C147.33 88.6195 131.053 55.7975 128.622 53.8223C126.19 51.8471 119.578 47.1379 102.78 50.2579Z" fill="#606ED4"/>
<path d="M118.049 22.4077C118.049 22.4077 120.305 23.7861 120.102 28.2456C119.899 32.7051 118.627 39.4155 117.344 41.1539C116.06 42.8923 111.57 43.5734 111.57 43.5734C111.57 43.5734 114.019 49.8945 115.842 51.5259C117.665 53.1572 114.01 59.167 110.456 57.1951C106.901 55.2232 102.781 50.2578 102.781 50.2578C102.781 50.2578 105.745 44.2934 104.742 41.1539C103.74 38.0144 99.8982 27.0099 102.781 23.9937C105.663 20.9774 111.83 16.6768 118.049 22.4077Z" fill="url(#paint18_linear_126_629)"/>
<path opacity="0.25" d="M97.6244 71.6863L95.6291 97.9147L101.73 101.284L106.695 100.373L100.501 92.3654L97.6244 71.6863Z" fill="white"/>
<path opacity="0.25" d="M129.799 70.363C129.799 70.363 137.777 90.7016 134.241 97.9147L131.516 97.3536L129.799 70.363Z" fill="white"/>
<path d="M107.498 104.433C107.498 104.433 104.452 107.352 105.811 109.623C107.171 111.893 108.793 111.828 110.147 110.813C111.5 109.798 114.159 107.388 117.325 108.494C120.492 109.6 121.261 110.304 121.261 110.304C121.261 110.304 122.93 109.133 122.497 107.959C122.064 106.785 118.751 102.98 117.792 102.475C116.832 101.969 112.848 103.496 112.848 103.496C112.848 103.496 109.92 102.62 107.498 104.433Z" fill="url(#paint19_linear_126_629)"/>
<path d="M135.146 98.9557C135.146 98.9557 132.246 99.3125 131.513 101.284C130.78 103.256 130.517 103.496 130.517 103.496C130.517 103.496 132.155 103.821 132.836 102.903C133.517 101.985 134.226 102.371 134.226 102.371L134.023 103.548C134.023 103.548 138.474 104.242 140.484 103.496C142.495 102.75 143.357 101.875 143.357 101.875L144.145 99.8833C144.145 99.8833 142.246 98.4595 140.814 98.2389C139.382 98.0184 135.146 98.9557 135.146 98.9557Z" fill="url(#paint20_linear_126_629)"/>
<path d="M149.867 120.884C149.867 120.884 159.746 128.94 158.868 139.837C157.99 150.735 156.7 166.915 156.7 166.915C156.7 166.915 152.716 168.712 150.076 166.915C147.436 165.119 145.837 140.531 144.529 138.183C143.221 135.835 135.352 125.249 126.944 124.338L149.867 120.884Z" fill="#25233A"/>
<path d="M100.05 128.479C100.05 128.479 104.812 133.344 113.302 134.872C121.791 136.399 125.748 137.674 128.343 145.494C130.938 153.313 133.427 170.143 134.241 172.024C135.056 173.905 138.519 172.945 138.519 172.945C138.519 172.945 140.478 170.538 140.478 157.156C140.478 138.501 141.689 134.677 137.326 129.991C132.963 125.304 128.994 124.026 128.994 124.026L100.05 128.479Z" fill="#3F3D56"/>
<path d="M134.241 172.023L135.049 178.851H136.563C136.563 178.851 146.312 179.421 146.618 179.175C146.924 178.928 146.149 173.768 142.455 173.914C138.761 174.06 138.519 172.941 138.519 172.941L134.241 172.023ZM151.269 167.476L152.843 174.196L170.046 171.667C170.046 171.667 170.652 167.253 165.202 167.69C163.764 167.804 162.692 168.887 160.963 168.897C159.235 168.907 157.578 168.148 156.706 166.915L151.269 167.476Z" fill="#25233A"/>
<path d="M211.256 82.9372L146.14 86.6735C145.753 86.6955 145.366 86.6329 145.002 86.4895C144.638 86.3461 144.306 86.1249 144.025 85.8393C143.743 85.5538 143.519 85.2099 143.366 84.8286C143.213 84.4473 143.134 84.0366 143.133 83.6215V34.1907C143.133 33.2281 143.485 32.3037 144.114 31.6161C144.743 30.9284 145.599 30.5324 146.497 30.5128L211.347 29.0793C211.764 29.0702 212.179 29.1505 212.567 29.3153C212.955 29.4801 213.308 29.7261 213.606 30.039C213.904 30.3519 214.141 30.7254 214.302 31.1376C214.464 31.5497 214.547 31.9923 214.547 32.4393V79.2172C214.547 80.1705 214.206 81.0875 213.593 81.7795C212.981 82.4714 212.145 82.8858 211.256 82.9372Z" fill="#606ED4"/>
<path d="M214.26 82.937L149.143 86.6733C148.757 86.6948 148.37 86.6319 148.007 86.4883C147.643 86.3447 147.311 86.1234 147.03 85.8379C146.749 85.5524 146.525 85.2087 146.372 84.8277C146.219 84.4466 146.14 84.0362 146.14 83.6214V34.1905C146.139 33.2282 146.49 32.3038 147.119 31.6161C147.747 30.9284 148.602 30.5322 149.501 30.5127L214.35 29.0791C214.768 29.0696 215.183 29.1495 215.571 29.3141C215.959 29.4787 216.313 29.7247 216.611 30.0377C216.91 30.3506 217.147 30.7243 217.309 31.1366C217.47 31.549 217.554 31.9918 217.554 32.4392V79.217C217.553 80.1706 217.211 81.0876 216.598 81.7795C215.985 82.4714 215.148 82.8856 214.26 82.937Z" fill="#606ED4"/>
<path d="M214.26 82.937L149.143 86.6733C148.757 86.6948 148.37 86.6319 148.007 86.4883C147.643 86.3447 147.311 86.1234 147.03 85.8379C146.749 85.5524 146.525 85.2087 146.372 84.8277C146.219 84.4466 146.14 84.0362 146.14 83.6214V34.1905C146.139 33.2282 146.49 32.3038 147.119 31.6161C147.747 30.9284 148.602 30.5322 149.501 30.5127L214.35 29.0791C214.768 29.0696 215.183 29.1495 215.571 29.3141C215.959 29.4787 216.313 29.7247 216.611 30.0377C216.91 30.3506 217.147 30.7243 217.309 31.1366C217.47 31.549 217.554 31.9918 217.554 32.4392V79.217C217.553 80.1706 217.211 81.0876 216.598 81.7795C215.985 82.4714 215.148 82.8856 214.26 82.937Z" fill="url(#paint21_linear_126_629)"/>
<path d="M195.3 101.609L178.766 103.496C178.766 103.496 173.731 102.407 174.004 101.609C174.276 100.811 179.535 100.042 179.535 100.042V67.8818C179.49 67.8104 178.796 66.8634 176.898 66.2601C176.53 66.1441 176.156 66.0509 175.778 65.9812C175.452 65.9307 175.136 65.8279 174.839 65.6764C173.71 65.0504 174.957 63.9607 176.71 63.912C176.985 63.9024 177.259 63.9197 177.531 63.9639H190.247C190.247 63.9639 195.061 65.4169 195.294 72.6689C195.527 79.9208 195.3 101.609 195.3 101.609Z" fill="#606ED4"/>
<path d="M181.845 101.677L178.757 103.496C178.757 103.496 173.722 102.407 173.994 101.609C174.267 100.811 179.526 100.042 179.526 100.042V67.8819C179.462 67.8073 178.69 66.9543 176.889 66.2602C176.218 66.0065 175.53 65.8113 174.83 65.6765C173.701 65.0505 174.948 63.9608 176.701 63.9121C178.194 64.1294 181.134 65.8808 181.324 66.8797C181.515 67.8786 181.845 101.677 181.845 101.677Z" fill="#606ED4"/>
<path d="M181.845 101.677L178.757 103.496C178.757 103.496 173.722 102.407 173.994 101.609C174.267 100.811 179.526 100.042 179.526 100.042V67.8819C179.462 67.8073 178.69 66.9543 176.889 66.2602C176.218 66.0065 175.53 65.8113 174.83 65.6765C173.701 65.0505 174.948 63.9608 176.701 63.9121C178.194 64.1294 181.134 65.8808 181.324 66.8797C181.515 67.8786 181.845 101.677 181.845 101.677Z" fill="url(#paint22_linear_126_629)"/>
<path d="M119.95 169.234C119.566 169.656 119.387 169.812 119.614 169.465C119.732 169.398 119.845 169.321 119.95 169.234Z" fill="url(#paint23_linear_126_629)"/>
</g>
<defs>
<linearGradient id="paint0_linear_126_629" x1="92.7589" y1="167.071" x2="97.8333" y2="167.071" gradientUnits="userSpaceOnUse">
<stop stop-color="#183866"/>
<stop offset="1" stop-color="#1A7FC1"/>
</linearGradient>
<linearGradient id="paint1_linear_126_629" x1="105.033" y1="167.759" x2="107.361" y2="167.759" gradientUnits="userSpaceOnUse">
<stop/>
<stop offset="0.99" stop-opacity="0"/>
</linearGradient>
<linearGradient id="paint2_linear_126_629" x1="110.226" y1="163.633" x2="124.38" y2="157.733" gradientUnits="userSpaceOnUse">
<stop/>
<stop offset="0.99" stop-opacity="0"/>
</linearGradient>
<linearGradient id="paint3_linear_126_629" x1="110.011" y1="144.365" x2="92.952" y2="149.705" gradientUnits="userSpaceOnUse">
<stop/>
<stop offset="0.99" stop-opacity="0"/>
</linearGradient>
<linearGradient id="paint4_linear_126_629" x1="119.351" y1="163.935" x2="75.6291" y2="177.626" gradientUnits="userSpaceOnUse">
<stop/>
<stop offset="0.99" stop-opacity="0"/>
</linearGradient>
<linearGradient id="paint5_linear_126_629" x1="120.81" y1="168.631" x2="119.295" y2="169.106" gradientUnits="userSpaceOnUse">
<stop/>
<stop offset="0.99" stop-opacity="0"/>
</linearGradient>
<linearGradient id="paint6_linear_126_629" x1="104.297" y1="164.039" x2="91.0675" y2="160.682" gradientUnits="userSpaceOnUse">
<stop/>
<stop offset="0.99" stop-opacity="0"/>
</linearGradient>
<linearGradient id="paint7_linear_126_629" x1="210.99" y1="146.058" x2="-23.737" y2="156.598" gradientUnits="userSpaceOnUse">
<stop/>
<stop offset="0.99" stop-opacity="0"/>
</linearGradient>
<linearGradient id="paint8_linear_126_629" x1="79.8792" y1="106.951" x2="199.439" y2="106.951" gradientUnits="userSpaceOnUse">
<stop stop-color="#183866"/>
<stop offset="1" stop-color="#1A7FC1"/>
</linearGradient>
<linearGradient id="paint9_linear_126_629" x1="142.095" y1="102.403" x2="142.64" y2="108.559" gradientUnits="userSpaceOnUse">
<stop stop-color="#68E1FD"/>
<stop offset="0.2" stop-color="#5DB4CF"/>
<stop offset="0.46" stop-color="#50819B"/>
<stop offset="0.69" stop-color="#475C76"/>
<stop offset="0.87" stop-color="#41455E"/>
<stop offset="0.99" stop-color="#3F3D56"/>
</linearGradient>
<linearGradient id="paint10_linear_126_629" x1="140.639" y1="91.6778" x2="144.738" y2="114.138" gradientUnits="userSpaceOnUse">
<stop stop-color="#68E1FD"/>
<stop offset="0.2" stop-color="#5DB4CF"/>
<stop offset="0.46" stop-color="#50819B"/>
<stop offset="0.69" stop-color="#475C76"/>
<stop offset="0.87" stop-color="#41455E"/>
<stop offset="0.99" stop-color="#3F3D56"/>
</linearGradient>
<linearGradient id="paint11_linear_126_629" x1="117.092" y1="103.931" x2="117.016" y2="113.648" gradientUnits="userSpaceOnUse">
<stop stop-color="#68E1FD"/>
<stop offset="0.2" stop-color="#5DB4CF"/>
<stop offset="0.46" stop-color="#50819B"/>
<stop offset="0.69" stop-color="#475C76"/>
<stop offset="0.87" stop-color="#41455E"/>
<stop offset="0.99" stop-color="#3F3D56"/>
</linearGradient>
<linearGradient id="paint12_linear_126_629" x1="40.4497" y1="186.784" x2="19.9788" y2="187.513" gradientUnits="userSpaceOnUse">
<stop/>
<stop offset="0.99" stop-opacity="0"/>
</linearGradient>
<linearGradient id="paint13_linear_126_629" x1="43.5622" y1="176.723" x2="26.6016" y2="177.269" gradientUnits="userSpaceOnUse">
<stop/>
<stop offset="0.99" stop-opacity="0"/>
</linearGradient>
<linearGradient id="paint14_linear_126_629" x1="27.3308" y1="161.233" x2="17.5479" y2="205.23" gradientUnits="userSpaceOnUse">
<stop/>
<stop offset="0.99" stop-opacity="0"/>
</linearGradient>
<linearGradient id="paint15_linear_126_629" x1="23.4524" y1="171.576" x2="3.77196" y2="87.7884" gradientUnits="userSpaceOnUse">
<stop/>
<stop offset="0.99" stop-opacity="0"/>
</linearGradient>
<linearGradient id="paint16_linear_126_629" x1="24.4182" y1="173.266" x2="22.1199" y2="163.476" gradientUnits="userSpaceOnUse">
<stop/>
<stop offset="0.99" stop-opacity="0"/>
</linearGradient>
<linearGradient id="paint17_linear_126_629" x1="21.9991" y1="177.667" x2="43.9725" y2="107.444" gradientUnits="userSpaceOnUse">
<stop/>
<stop offset="0.99" stop-opacity="0"/>
</linearGradient>
<linearGradient id="paint18_linear_126_629" x1="101.733" y1="38.5884" x2="120.117" y2="38.5884" gradientUnits="userSpaceOnUse">
<stop stop-color="#ECC4D7"/>
<stop offset="0.42" stop-color="#EFD4D1"/>
<stop offset="1" stop-color="#F2EAC9"/>
</linearGradient>
<linearGradient id="paint19_linear_126_629" x1="105.466" y1="106.931" x2="122.557" y2="106.931" gradientUnits="userSpaceOnUse">
<stop stop-color="#ECC4D7"/>
<stop offset="0.42" stop-color="#EFD4D1"/>
<stop offset="1" stop-color="#F2EAC9"/>
</linearGradient>
<linearGradient id="paint20_linear_126_629" x1="130.511" y1="101.028" x2="144.139" y2="101.028" gradientUnits="userSpaceOnUse">
<stop stop-color="#ECC4D7"/>
<stop offset="0.42" stop-color="#EFD4D1"/>
<stop offset="1" stop-color="#F2EAC9"/>
</linearGradient>
<linearGradient id="paint21_linear_126_629" x1="221.244" y1="85.8884" x2="142.546" y2="37.2517" gradientUnits="userSpaceOnUse">
<stop/>
<stop offset="0.99" stop-opacity="0"/>
</linearGradient>
<linearGradient id="paint22_linear_126_629" x1="208.283" y1="114.796" x2="152.377" y2="66.1299" gradientUnits="userSpaceOnUse">
<stop/>
<stop offset="0.99" stop-opacity="0"/>
</linearGradient>
<linearGradient id="paint23_linear_126_629" x1="119.987" y1="169.354" x2="119.472" y2="169.515" gradientUnits="userSpaceOnUse">
<stop/>
<stop offset="0.99" stop-opacity="0"/>
</linearGradient>
<clipPath id="clip0_126_629">
<rect width="220" height="194" fill="white"/>
</clipPath>
</defs>
</svg>
