<svg width="64" height="64" viewBox="0 0 64 64" fill="none" xmlns="http://www.w3.org/2000/svg">
<path d="M59 5H5C3.3457 5 2 6.3457 2 8V46C2 47.6543 3.3457 49 5 49H21.1315L18.4648 53H17C15.3457 53 14 54.3457 14 56C14 57.6543 15.3457 59 17 59H47C48.6543 59 50 57.6543 50 56C50 54.3457 48.6543 53 47 53H45.5352L42.8685 49H59C60.6543 49 62 47.6543 62 46V8C62 6.3457 60.6543 5 59 5ZM5 7H59C59.5513 7 60 7.4487 60 8V39H4V8C4 7.4487 4.4487 7 5 7ZM48 56C48 56.5513 47.5513 57 47 57H17C16.4487 57 16 56.5513 16 56C16 55.4487 16.4487 55 17 55H19H45H47C47.5513 55 48 55.4487 48 56ZM43.1313 53H20.8687L23.5352 49H40.4649L43.1313 53ZM59 47H41H23H5C4.4487 47 4 46.5513 4 46V41H60V46C60 46.5513 59.5513 47 59 47Z" fill="#1B4798"/>
<path d="M42 10H30C28.3457 10 27 11.3457 27 13V22H19.5C19.2239 22 19 22.2238 19 22.5V23.5C19 23.7761 19.2239 24 19.5 24H27V33C27 34.6543 28.3457 36 30 36H42C43.6543 36 45 34.6543 45 33V13C45 11.3457 43.6543 10 42 10ZM43 33C43 33.5513 42.5513 34 42 34H30C29.4487 34 29 33.5513 29 33V24H35.5859L31.6465 27.9394C31.4512 28.1347 31.4512 28.4512 31.6465 28.6465L32.3534 29.3535C32.5487 29.5488 32.8652 29.5488 33.0606 29.3535L38.707 23.7071C39.0975 23.3166 39.0975 22.6835 38.707 22.293L33.0606 16.6465C32.8653 16.4512 32.5488 16.4512 32.3534 16.6465L31.6465 17.3535C31.4512 17.5488 31.4512 17.8653 31.6465 18.0606L35.5859 22H29V13C29 12.4487 29.4487 12 30 12H42C42.5513 12 43 12.4487 43 13V33Z" fill="#1B4798"/>
<path d="M31 44.5V43.5C31 43.2239 31.2239 43 31.5 43H32.5C32.7761 43 33 43.2239 33 43.5V44.5C33 44.7761 32.7761 45 32.5 45H31.5C31.2239 45 31 44.7761 31 44.5Z" fill="#1B4798"/>
</svg>
