<svg width="65" height="64" viewBox="0 0 65 64" fill="none" xmlns="http://www.w3.org/2000/svg">
<path d="M38.9862 8.24125C38.4975 7.75375 37.7062 7.75375 37.2187 8.24125L32.0375 13.4225L29.4812 10.865C28.9925 10.3775 28.2012 10.3775 27.7137 10.865C27.225 11.3525 27.225 12.145 27.7137 12.6325L31.1537 16.0737C31.3881 16.3082 31.706 16.4399 32.0375 16.44C32.37 16.44 32.6875 16.3087 32.9225 16.0737L38.9862 10.01C39.475 9.52125 39.4738 8.73 38.9862 8.24125ZM38.9862 8.24125C38.4975 7.75375 37.7062 7.75375 37.2187 8.24125L32.0375 13.4225L29.4812 10.865C28.9925 10.3775 28.2012 10.3775 27.7137 10.865C27.225 11.3525 27.225 12.145 27.7137 12.6325L31.1537 16.0737C31.3881 16.3082 31.706 16.4399 32.0375 16.44C32.37 16.44 32.6875 16.3087 32.9225 16.0737L38.9862 10.01C39.475 9.52125 39.4738 8.73 38.9862 8.24125ZM38.9862 8.24125C38.4975 7.75375 37.7062 7.75375 37.2187 8.24125L32.0375 13.4225L29.4812 10.865C28.9925 10.3775 28.2012 10.3775 27.7137 10.865C27.225 11.3525 27.225 12.145 27.7137 12.6325L31.1537 16.0737C31.3881 16.3082 31.706 16.4399 32.0375 16.44C32.37 16.44 32.6875 16.3087 32.9225 16.0737L38.9862 10.01C39.475 9.52125 39.4738 8.73 38.9862 8.24125ZM38.9862 8.24125C38.4975 7.75375 37.7062 7.75375 37.2187 8.24125L32.0375 13.4225L29.4812 10.865C28.9925 10.3775 28.2012 10.3775 27.7137 10.865C27.225 11.3525 27.225 12.145 27.7137 12.6325L31.1537 16.0737C31.3881 16.3082 31.706 16.4399 32.0375 16.44C32.37 16.44 32.6875 16.3087 32.9225 16.0737L38.9862 10.01C39.475 9.52125 39.4738 8.73 38.9862 8.24125ZM38.9862 8.24125C38.4975 7.75375 37.7062 7.75375 37.2187 8.24125L32.0375 13.4225L29.4812 10.865C28.9925 10.3775 28.2012 10.3775 27.7137 10.865C27.225 11.3525 27.225 12.145 27.7137 12.6325L31.1537 16.0737C31.3881 16.3082 31.706 16.4399 32.0375 16.44C32.37 16.44 32.6875 16.3087 32.9225 16.0737L38.9862 10.01C39.475 9.52125 39.4738 8.73 38.9862 8.24125ZM38.9862 8.24125C38.4975 7.75375 37.7062 7.75375 37.2187 8.24125L32.0375 13.4225L29.4812 10.865C28.9925 10.3775 28.2012 10.3775 27.7137 10.865C27.225 11.3525 27.225 12.145 27.7137 12.6325L31.1537 16.0737C31.3881 16.3082 31.706 16.4399 32.0375 16.44C32.37 16.44 32.6875 16.3087 32.9225 16.0737L38.9862 10.01C39.475 9.52125 39.4738 8.73 38.9862 8.24125ZM38.9862 8.24125C38.4975 7.75375 37.7062 7.75375 37.2187 8.24125L32.0375 13.4225L29.4812 10.865C28.9925 10.3775 28.2012 10.3775 27.7137 10.865C27.225 11.3525 27.225 12.145 27.7137 12.6325L31.1537 16.0737C31.3881 16.3082 31.706 16.4399 32.0375 16.44C32.37 16.44 32.6875 16.3087 32.9225 16.0737L38.9862 10.01C39.475 9.52125 39.4738 8.73 38.9862 8.24125ZM53.1813 12.9975H44.7038V3.25C44.7038 2.56 44.145 2 43.4538 2H21.64C20.95 2 20.39 2.56 20.39 3.25V12.9975H11.495C9.01625 12.9975 7 15.0138 7 17.4925V46.2588C7 48.7375 9.01625 50.7537 11.495 50.7537H24.1213L22.6675 55.0325H19.0075C18.3162 55.0325 17.7575 55.5925 17.7575 56.2825V60.75C17.7575 61.44 18.3162 62 19.0075 62H46.0438C46.7337 62 47.2938 61.44 47.2938 60.75V56.2825C47.2938 55.5925 46.7337 55.0325 46.0438 55.0325H42.3825L40.9288 50.7537H53.1813C55.6588 50.7537 57.675 48.7375 57.675 46.2588V17.4925C57.675 15.0138 55.6588 12.9975 53.1813 12.9975ZM22.89 14.27V4.5H42.2038V19.815H22.89V14.27ZM20.39 15.5188V19.815H18.1537C17.4637 19.815 16.9037 20.375 16.9037 21.065C16.9037 21.755 17.4637 22.315 18.1537 22.315H46.9412C47.6312 22.315 48.1912 21.755 48.1912 21.065C48.1912 20.375 47.6312 19.815 46.9412 19.815H44.7038V15.5188H45.3613L50.3787 21.4613V26.6112H14.7075L14.675 21.46L19.72 15.5188H20.39ZM47.0563 29.1112V35.2588H17.9937V29.1112H47.0563ZM41.4875 57.5325H44.7938V59.5H20.2575V57.5325H41.4875ZM25.3075 55.0325L26.7612 50.7537H38.2887L39.7425 55.0325H25.3075ZM55.175 46.2588C55.175 47.3587 54.2812 48.2537 53.1813 48.2537H11.495C10.395 48.2537 9.5 47.3587 9.5 46.2588V43.7238H55.175V46.2588ZM55.175 41.2238H9.5V17.4925C9.5 16.3925 10.395 15.4975 11.495 15.4975H16.4575L12.4688 20.195C12.2749 20.4231 12.1693 20.7132 12.1712 21.0125L12.2162 27.87C12.22 28.5575 12.7787 29.1112 13.4662 29.1112H15.4937V36.5088C15.4937 37.2 16.0538 37.7588 16.7437 37.7588H48.3063C48.9975 37.7588 49.5563 37.2 49.5563 36.5088V29.1112H51.6287C52.3187 29.1112 52.8787 28.5525 52.8787 27.8612V21.0037C52.8787 20.7087 52.775 20.4225 52.5838 20.1975L48.6163 15.4975H53.1813C54.2812 15.4975 55.175 16.3925 55.175 17.4925V41.2238ZM37.2187 8.24125L32.0375 13.4225L29.4812 10.865C28.9925 10.3775 28.2012 10.3775 27.7137 10.865C27.225 11.3525 27.225 12.145 27.7137 12.6325L31.1537 16.0737C31.3881 16.3082 31.706 16.4399 32.0375 16.44C32.37 16.44 32.6875 16.3087 32.9225 16.0737L38.9862 10.01C39.475 9.52125 39.4738 8.73 38.9862 8.24125C38.4975 7.75375 37.7062 7.75375 37.2187 8.24125ZM38.9862 8.24125C38.4975 7.75375 37.7062 7.75375 37.2187 8.24125L32.0375 13.4225L29.4812 10.865C28.9925 10.3775 28.2012 10.3775 27.7137 10.865C27.225 11.3525 27.225 12.145 27.7137 12.6325L31.1537 16.0737C31.3881 16.3082 31.706 16.4399 32.0375 16.44C32.37 16.44 32.6875 16.3087 32.9225 16.0737L38.9862 10.01C39.475 9.52125 39.4738 8.73 38.9862 8.24125ZM38.9862 8.24125C38.4975 7.75375 37.7062 7.75375 37.2187 8.24125L32.0375 13.4225L29.4812 10.865C28.9925 10.3775 28.2012 10.3775 27.7137 10.865C27.225 11.3525 27.225 12.145 27.7137 12.6325L31.1537 16.0737C31.3881 16.3082 31.706 16.4399 32.0375 16.44C32.37 16.44 32.6875 16.3087 32.9225 16.0737L38.9862 10.01C39.475 9.52125 39.4738 8.73 38.9862 8.24125ZM38.9862 8.24125C38.4975 7.75375 37.7062 7.75375 37.2187 8.24125L32.0375 13.4225L29.4812 10.865C28.9925 10.3775 28.2012 10.3775 27.7137 10.865C27.225 11.3525 27.225 12.145 27.7137 12.6325L31.1537 16.0737C31.3881 16.3082 31.706 16.4399 32.0375 16.44C32.37 16.44 32.6875 16.3087 32.9225 16.0737L38.9862 10.01C39.475 9.52125 39.4738 8.73 38.9862 8.24125ZM38.9862 8.24125C38.4975 7.75375 37.7062 7.75375 37.2187 8.24125L32.0375 13.4225L29.4812 10.865C28.9925 10.3775 28.2012 10.3775 27.7137 10.865C27.225 11.3525 27.225 12.145 27.7137 12.6325L31.1537 16.0737C31.3881 16.3082 31.706 16.4399 32.0375 16.44C32.37 16.44 32.6875 16.3087 32.9225 16.0737L38.9862 10.01C39.475 9.52125 39.4738 8.73 38.9862 8.24125ZM38.9862 8.24125C38.4975 7.75375 37.7062 7.75375 37.2187 8.24125L32.0375 13.4225L29.4812 10.865C28.9925 10.3775 28.2012 10.3775 27.7137 10.865C27.225 11.3525 27.225 12.145 27.7137 12.6325L31.1537 16.0737C31.3881 16.3082 31.706 16.4399 32.0375 16.44C32.37 16.44 32.6875 16.3087 32.9225 16.0737L38.9862 10.01C39.475 9.52125 39.4738 8.73 38.9862 8.24125ZM38.9862 8.24125C38.4975 7.75375 37.7062 7.75375 37.2187 8.24125L32.0375 13.4225L29.4812 10.865C28.9925 10.3775 28.2012 10.3775 27.7137 10.865C27.225 11.3525 27.225 12.145 27.7137 12.6325L31.1537 16.0737C31.3881 16.3082 31.706 16.4399 32.0375 16.44C32.37 16.44 32.6875 16.3087 32.9225 16.0737L38.9862 10.01C39.475 9.52125 39.4738 8.73 38.9862 8.24125ZM38.9862 8.24125C38.4975 7.75375 37.7062 7.75375 37.2187 8.24125L32.0375 13.4225L29.4812 10.865C28.9925 10.3775 28.2012 10.3775 27.7137 10.865C27.225 11.3525 27.225 12.145 27.7137 12.6325L31.1537 16.0737C31.3881 16.3082 31.706 16.4399 32.0375 16.44C32.37 16.44 32.6875 16.3087 32.9225 16.0737L38.9862 10.01C39.475 9.52125 39.4738 8.73 38.9862 8.24125Z" fill="#1B4798"/>
</svg>
