<svg width="220" height="165" viewBox="0 0 220 165" fill="none" xmlns="http://www.w3.org/2000/svg">
<g clip-path="url(#clip0_126_683)">
<path opacity="0.18" d="M28.5935 37.8368C18.548 42.4026 7.06144 46.7225 2.23328 56.6473C-1.87162 65.0715 0.179453 75.3086 4.35613 83.6968C8.37035 91.7464 14.1653 98.7733 21.3002 104.243C27.2354 108.784 34.4293 112.667 37.1429 119.635C39.6936 126.182 37.4907 133.589 38.4238 140.557C40.3837 155.183 56.1298 164.663 70.8654 164.989C85.6011 165.315 99.5335 158.909 113.055 153.016C126.576 147.124 141.077 141.549 155.669 143.633C168.218 145.424 180.514 152.82 192.79 149.713C202.026 147.375 208.861 139.487 213.419 131.107C221.488 116.266 223.451 95.9737 211.763 83.788C207.539 79.388 201.714 76.1793 199.36 70.5521C197.331 65.7071 198.371 60.2099 198.366 54.9559C198.366 41.3938 190.832 28.4481 180.064 20.2174C169.295 11.9868 155.622 8.14785 142.084 7.64207C133.077 7.30212 123.948 8.34684 115.114 6.50614C98.8931 3.12322 85.5073 -6.48381 71.8841 6.89307C58.813 19.7283 45.5487 30.1257 28.5935 37.8368Z" fill="#606ED4"/>
<path d="M145.27 28.7024L113.819 59.8009L68.8226 22.1438V15.8313C73.0545 14.8778 80.9275 19.6647 85.6867 19.2474C105.286 17.531 127.763 15.4554 145.262 22.3898L145.27 28.7024Z" fill="#606ED4"/>
<path d="M145.27 28.7024L113.819 59.8009L68.8226 22.1438V15.8313C73.0545 14.8778 80.9275 19.6647 85.6867 19.2474C105.286 17.531 127.763 15.4554 145.262 22.3898L145.27 28.7024Z" fill="url(#paint0_linear_126_683)"/>
<path d="M145.27 22.387L116.306 51.0285L113.822 53.4883L68.8254 15.8285C74.3551 14.3805 79.9992 13.4124 85.695 12.9348C87.3862 12.7892 89.0831 12.6796 90.7854 12.6059C109.593 11.7961 128.803 15.5079 145.27 22.387ZM132.229 134.186C90.7605 137.815 45.8716 118.629 31.9669 91.3277C28.2816 84.0948 27.1442 77.0194 28.2291 70.4554C28.8844 74.3483 30.1457 78.1141 31.9669 81.6157C45.8716 108.917 90.766 128.103 132.226 124.474C162.708 121.804 182.854 107.551 185.872 89.3433C184.483 113.469 167.953 131.06 132.229 134.186Z" fill="#606ED4"/>
<path d="M132.229 134.186C90.7605 137.815 45.8716 118.629 31.9669 91.3277C28.2816 84.0948 27.1442 77.0194 28.2291 70.4553C28.8844 74.3482 30.1457 78.1141 31.9669 81.6156C45.8716 108.917 90.766 128.103 132.226 124.474C162.708 121.804 182.854 107.551 185.872 89.3433C184.483 113.469 167.953 131.06 132.229 134.186Z" fill="url(#paint1_linear_126_683)"/>
<path d="M186.253 85.2611C186.222 86.6282 186.095 87.9915 185.872 89.3405C184.602 97.0074 180.293 103.989 173.449 109.677C164.064 117.501 149.872 122.926 132.229 124.471C100.69 127.235 67.1746 116.794 46.8157 99.6275C40.403 94.2242 35.2961 88.1659 31.9669 81.6156C30.1445 78.1149 28.8841 74.3487 28.2319 70.4553C25.2284 51.6199 39.5832 35.2885 65.0104 28.5061L110.007 66.1631L141.449 35.0646C160.003 42.8199 175.07 54.5993 182.134 68.4709C185.068 74.228 186.388 79.8744 186.253 85.2611Z" fill="#606ED4"/>
<path d="M186.253 85.2609L109.999 66.1629L141.449 35.0645C160.003 42.8197 175.07 54.5964 182.134 68.4707C185.068 74.2278 186.388 79.8743 186.253 85.2609Z" fill="#606ED4"/>
<path d="M186.253 85.2609L109.999 66.1629L141.449 35.0645C160.003 42.8197 175.07 54.5964 182.134 68.4707C185.068 74.2278 186.388 79.8743 186.253 85.2609Z" fill="url(#paint2_linear_126_683)"/>
<path d="M186.253 85.2611C186.222 86.6282 186.095 87.9914 185.872 89.3405C184.599 97.0101 180.29 103.989 173.449 109.677L109.999 66.1631L186.253 85.2611Z" fill="#606ED4"/>
<path d="M186.253 85.2611C186.222 86.6282 186.095 87.9914 185.872 89.3405C184.599 97.0101 180.29 103.989 173.449 109.677L109.999 66.1631L186.253 85.2611Z" fill="url(#paint3_linear_126_683)"/>
<path d="M109.999 66.1631L46.813 99.6302C40.403 94.2241 35.2961 88.1658 31.9669 81.6156C30.1445 78.1148 28.884 74.3486 28.2319 70.4553L109.999 66.1631Z" fill="url(#paint4_linear_126_683)"/>
<path opacity="0.18" d="M116.306 51.0283L113.822 53.4881L68.8254 15.8283C74.3551 14.3804 79.9992 13.4122 85.695 12.9346C87.3862 12.789 89.0831 12.6794 90.7854 12.6057C90.7854 12.6057 78.7191 15.0932 85.5404 21.8175C92.3616 28.5419 116.306 51.0283 116.306 51.0283ZM37.6646 43.1404C37.6646 43.1404 35.3347 59.5326 45.118 62.4319C54.9013 65.3311 109.99 66.163 109.99 66.163L28.2236 70.4552C28.2236 70.4552 23.7405 57.2801 37.6646 43.1404ZM46.813 99.6301C46.813 99.6301 151.014 125.057 176.803 82.8952L186.253 85.2638C186.253 85.2638 186.611 113.134 149.344 121.511C112.077 129.888 71.205 121.967 46.813 99.6301Z" fill="white"/>
<path d="M215.274 126.613C213.994 129.675 212.496 132.641 210.791 135.488C210.791 135.488 208.748 131.597 204.295 123.742C202.407 120.403 200.351 118.703 198.291 117.805C195.506 116.589 192.709 116.829 190.286 116.443C186.057 115.776 181.827 113.35 181.827 113.35C181.827 113.35 172.03 107.084 168.469 104.655C164.908 102.225 162.854 95.935 167.564 95.49C172.273 95.045 184.337 98.8701 184.337 98.8701C190.783 79.1033 177.124 60.2845 176.778 59.8091L176.806 59.8284L176.903 59.9141L176.977 59.9777L177.165 60.1407C178.473 61.2656 182.805 64.9968 186.642 68.341L186.772 68.4543C188.963 70.3641 190.976 72.1385 192.16 73.2136C195.832 76.5551 218.981 103.472 218.981 103.472C220.676 111.2 218.007 120.146 215.274 126.613Z" fill="url(#paint5_linear_126_683)"/>
<path d="M184.342 99.2212C190.788 79.4571 177.129 60.6355 176.784 60.1602L176.812 60.1823L176.908 60.2652L176.983 60.3287L177.17 60.4918L186.647 68.6948L186.777 68.8081C186.777 68.8081 191.103 73.7056 189.43 88.7684C188.936 93.2375 184.5 98.9061 184.342 99.2212Z" fill="url(#paint6_linear_126_683)"/>
<path d="M215.274 126.986C213.995 130.048 212.497 133.013 210.791 135.858C210.791 135.858 208.748 131.967 204.295 124.112C202.407 120.773 200.351 119.076 198.291 118.175C198.772 118.3 209.938 121.216 213.422 124.773C214.092 125.464 214.712 126.204 215.274 126.986Z" fill="url(#paint7_linear_126_683)"/>
<path d="M169.295 98.8093C170.341 98.6407 171.406 98.9061 172.403 99.2598C173.247 99.5634 174.066 99.9331 174.852 100.365C175.169 100.539 175.511 100.761 175.586 101.114C175.613 101.376 175.559 101.639 175.431 101.869C174.907 103.053 174.239 104.167 173.441 105.185C173.379 105.284 173.29 105.362 173.184 105.409C173.089 105.433 172.99 105.433 172.894 105.409C170.811 105.115 168.881 104.151 167.393 102.662C165.794 101.001 167.219 99.1438 169.295 98.8093Z" fill="url(#paint8_linear_126_683)"/>
</g>
<defs>
<linearGradient id="paint0_linear_126_683" x1="100.48" y1="88.3179" x2="107.611" y2="16.7948" gradientUnits="userSpaceOnUse">
<stop/>
<stop offset="0.99" stop-opacity="0"/>
</linearGradient>
<linearGradient id="paint1_linear_126_683" x1="124.182" y1="16.7654" x2="82.5546" y2="174.762" gradientUnits="userSpaceOnUse">
<stop/>
<stop offset="0.99" stop-opacity="0"/>
</linearGradient>
<linearGradient id="paint2_linear_126_683" x1="50.6418" y1="103.533" x2="208.153" y2="43.3376" gradientUnits="userSpaceOnUse">
<stop/>
<stop offset="0.99" stop-opacity="0"/>
</linearGradient>
<linearGradient id="paint3_linear_126_683" x1="159.442" y1="43.5937" x2="126.967" y2="141.357" gradientUnits="userSpaceOnUse">
<stop/>
<stop offset="0.99" stop-opacity="0"/>
</linearGradient>
<linearGradient id="paint4_linear_126_683" x1="112.224" y1="-2.31606" x2="32.6266" y2="127.778" gradientUnits="userSpaceOnUse">
<stop/>
<stop offset="0.99" stop-opacity="0"/>
</linearGradient>
<linearGradient id="paint5_linear_126_683" x1="164.814" y1="97.643" x2="219.517" y2="97.643" gradientUnits="userSpaceOnUse">
<stop stop-color="#ECC4D7"/>
<stop offset="0.42" stop-color="#EFD4D1"/>
<stop offset="1" stop-color="#F2EAC9"/>
</linearGradient>
<linearGradient id="paint6_linear_126_683" x1="193.689" y1="74.4298" x2="49.3906" y2="132.26" gradientUnits="userSpaceOnUse">
<stop stop-color="#ECC4D7"/>
<stop offset="0.42" stop-color="#EFD4D1"/>
<stop offset="1" stop-color="#F2EAC9"/>
</linearGradient>
<linearGradient id="paint7_linear_126_683" x1="198.291" y1="127.017" x2="215.274" y2="127.017" gradientUnits="userSpaceOnUse">
<stop stop-color="#ECC4D7"/>
<stop offset="0.42" stop-color="#EFD4D1"/>
<stop offset="1" stop-color="#F2EAC9"/>
</linearGradient>
<linearGradient id="paint8_linear_126_683" x1="166.708" y1="102.09" x2="175.6" y2="102.09" gradientUnits="userSpaceOnUse">
<stop stop-color="#ECC4D7"/>
<stop offset="0.42" stop-color="#EFD4D1"/>
<stop offset="1" stop-color="#F2EAC9"/>
</linearGradient>
<clipPath id="clip0_126_683">
<rect width="220" height="165" fill="white"/>
</clipPath>
</defs>
</svg>
