<svg width="600" height="491" viewBox="0 0 600 491" fill="none" xmlns="http://www.w3.org/2000/svg">
<path opacity="0.9" d="M579.656 384.245C579.656 422.929 454.831 454.29 300.838 454.29C146.862 454.29 22.0368 422.929 22.0368 384.245C22.0368 383.612 22.074 382.98 22.1532 382.348C25.7844 347.901 128.422 319.646 261.186 314.904C263.062 314.829 264.937 314.774 266.831 314.718C266.887 314.904 266.965 315.09 267.022 315.276C267.787 317.451 268.609 319.515 269.394 321.189C270.425 323.419 271.46 324.962 272.338 325.184C273.985 325.593 289.477 324.999 300.016 324.311C310.554 324.999 326.047 325.574 327.672 325.166C328.572 324.943 329.585 323.399 330.619 321.168C331.422 319.458 332.263 317.339 333.048 315.126C333.109 314.975 333.161 314.82 333.202 314.662C335.077 314.718 336.934 314.774 338.786 314.849C468.203 319.273 569.387 346.005 578.914 379.113C579.409 380.805 579.656 382.515 579.656 384.245Z" fill="#1B4798"/>
<g opacity="0.3">
<path d="M284.777 216.629C289.828 215.476 293.174 213.655 294.818 212.112C296.447 210.567 290.952 197.723 289.327 194.917C287.72 192.109 285.823 185.974 283.529 180.604C283.297 180.071 283.014 179.561 282.684 179.079C282.4 178.39 282.016 177.816 281.482 177.406C280.716 176.829 279.68 176.346 278.496 175.899C277.154 166.92 271.525 135.543 258.289 135.1H258.252C254.37 134.393 250.832 135.156 250.832 135.156C250.832 135.156 245.838 136.68 243.715 143.022C238.208 151.183 236.7 163.861 237.2 172.355C238.291 172.188 241.16 171.817 244.22 172.394H244.24C257.438 172.89 263.009 204.216 264.349 213.232C265.537 213.659 266.568 214.159 267.335 214.736C267.85 215.127 268.235 215.683 268.519 216.371C268.844 216.835 269.131 217.357 269.382 217.933C271.68 223.305 273.554 229.44 275.161 232.248C276.768 235.07 282.24 247.917 280.615 249.442C278.99 250.985 275.624 252.824 270.592 253.96C268.145 254.518 263.538 256.006 259.309 257.438C259.081 260.096 259.1 262.81 259.597 263.61C260.191 264.576 263.329 269.206 265.53 272.456C268.224 273.907 270.238 275.522 270.752 277.253C271.364 279.24 272.108 281.621 272.99 284.448H273.01C276.204 284.259 279.416 284.073 282.648 283.907C283.702 283.851 284.773 283.812 285.842 283.756C287.273 262.414 283.392 247.824 280.06 239.57C280.825 239.199 281.494 238.807 281.992 238.38C281.992 238.38 274.74 227.803 273.803 226.299C273.306 225.5 273.306 222.803 273.534 220.127C277.742 218.694 282.348 217.188 284.777 216.629ZM278.96 200.922C279.893 202.987 280.786 205.07 281.639 207.168C278.582 208.209 277.32 208.786 276.248 209.325C277.088 206.74 278.082 203.636 278.96 200.922ZM225.161 218.258C224.033 219.763 223.285 221.494 222.808 223.222C222.214 225.248 221.966 227.237 221.855 228.763C221.74 228.707 221.623 228.632 221.489 228.576C221.057 228.184 220.507 227.937 219.92 227.871C219.901 227.871 219.883 227.852 219.864 227.852C212.018 224.434 201.424 222.186 200.909 222.073C200.087 219.767 200.14 217.054 200.292 215.308V215.289C202.074 213.225 203.681 209.989 204.535 204.934C204.823 205.119 205.036 204.654 205.036 204.654C205.189 204.152 207.367 198.127 206.888 196.734C206.638 195.971 206.141 196.028 205.72 196.252C206.086 194.077 206.504 191.23 206.639 189.092C206.81 186.062 204.898 183.853 203.022 182.421C202.2 181.789 200.938 180.377 199.615 179.114C199.578 178.667 199.499 178.203 199.424 177.699C197.874 175.598 196.439 172.363 195.595 167.383C195.576 167.402 195.576 167.439 195.576 167.439C195.251 167.737 195.023 167.179 195.023 167.179C194.926 166.956 192.822 160.617 193.319 159.223C193.681 158.237 194.428 158.665 194.828 158.981C194.828 158.74 194.848 158.385 194.866 157.977C194.675 155.654 194.332 153.479 193.718 153.124C187.939 149.797 191.765 137.732 209.954 139.383C212.039 139.586 215.465 143.917 217.13 145.182C218.983 146.613 220.915 148.826 220.747 151.855C220.613 154.012 220.19 156.837 219.828 159.03C220.231 158.809 220.747 158.714 221.012 159.495C221.495 160.888 219.312 166.912 219.16 167.415C219.16 167.415 218.951 167.879 218.663 167.675C217.804 172.75 216.197 176.004 214.418 178.069C214.27 179.797 214.228 182.531 215.072 184.855C215.244 184.891 220.273 185.95 225.992 187.694C221.6 200.116 222.594 215.916 225.161 218.258ZM184.608 222.541V222.69C181.312 223.614 178.029 224.582 174.761 225.593C174.914 223.77 174.932 222.655 174.761 222.655H174.186C174.854 221.595 177.055 219.084 177.589 216.333C177.607 216.277 177.626 216.241 177.607 216.184H177.626C177.626 216.184 179.789 211.611 180.899 209.79C182.027 207.986 181.067 207.744 180.649 207.726C180.112 207.726 177.474 212.149 176.364 214.028C176.327 213.992 176.29 213.973 176.252 213.952C177.265 211.518 179.958 204.973 180.19 204.341C180.515 203.561 179.578 203.021 179.062 203.282C178.584 203.542 175.18 210.385 173.974 212.875L173.899 212.856C174.99 210.198 178.105 202.537 178.142 202.129C178.217 201.607 177.108 201.274 176.801 201.59C176.364 202.039 172.558 209.826 171.373 212.262C171.317 212.262 171.257 212.262 171.202 212.243C171.47 211.184 171.949 209.194 172.386 207.372C172.846 205.552 173.245 203.898 173.342 203.526C173.551 202.596 172.999 202.391 172.232 202.857C171.541 203.285 169.27 211.297 168.829 212.821C168.829 212.84 168.81 212.857 168.81 212.857C168.197 214.308 167.834 217.858 167.125 217.153C166.303 216.351 163.282 212.042 162.078 212.507C160.871 212.972 163.318 215.424 163.777 216.354C164.102 217.042 165.271 219.198 166.572 220.349C167.129 220.851 166.975 221.78 166.632 222.674L164.222 222.675C164.222 222.675 164.009 224.2 163.666 226.468C161.819 226.012 159.956 225.621 158.081 225.297C160.319 223.512 161.735 220.852 161.753 217.879C161.753 213.881 159.186 210.462 155.537 208.94C157.826 203.603 160.446 194.195 153.5 188.712C153.826 188.584 154.151 188.453 154.476 188.342C154.476 188.342 154.916 188.006 155.798 187.637C155.781 187.338 155.755 187.04 155.72 186.743C155.646 185.778 155.567 184.848 155.492 184.011L155.473 183.991C152.316 184.122 149.294 181.705 147.205 175.273C145.312 169.438 144.87 164.884 145.214 161.333C142.727 156.388 151.984 142.982 165.448 150.138C175.052 155.248 172.146 165.976 169.662 171.793C173.334 173.297 175.897 176.718 175.901 180.716C175.901 183.671 174.467 186.33 172.229 188.116C174.124 188.45 176.398 188.896 178.524 189.47C178.83 189.806 179.192 190.084 179.615 190.325C180.224 190.679 180.553 192.797 180.762 195.103V195.159C180.743 195.586 180.725 195.922 180.725 196.181C180.322 195.865 179.574 195.437 179.212 196.422C178.715 197.817 180.803 204.156 180.896 204.38C180.896 204.38 181.128 204.937 181.453 204.64C181.453 204.64 181.472 204.622 181.472 204.604C182.294 209.529 183.71 212.764 185.261 214.864V214.883C186.312 221.574 184.608 222.541 184.608 222.541ZM141.631 224.78C141 225.06 140.615 225.301 140.443 225.412C140.408 225.44 140.371 225.465 140.332 225.487C138.401 226.194 136.159 227.013 135.15 227.199C135.062 227.217 134.978 227.248 134.899 227.291C133.886 227.644 129.889 229.189 127.48 232.403C126.217 234.079 125.452 236.049 124.955 237.964C123.924 237.964 122.796 238.02 121.589 238.13C119.499 238.313 117.507 239.075 115.85 240.326C115.159 240.831 114.535 241.418 113.994 242.074L102.174 242.168C101.468 239.939 101.524 237.373 101.677 235.717V235.699C103.456 233.634 105.062 230.401 105.92 225.343C106.208 225.566 106.417 225.066 106.417 225.066C106.589 224.563 108.77 218.538 108.289 217.143C108.02 216.383 107.504 216.458 107.105 216.66C107.467 214.485 107.909 211.641 108.02 209.504C108.211 206.474 106.279 204.263 104.423 202.833C103.448 202.096 102.348 201.53 101.173 201.16C101.106 200.189 100.996 199.222 100.844 198.26C99.2976 196.157 97.8636 192.905 97.0188 187.941C96.9996 187.963 96.9996 187.981 96.9996 187.999C96.6744 188.297 96.4428 187.739 96.4428 187.739C96.3492 187.498 94.2456 181.177 94.7616 179.782C94.9896 179.15 95.37 179.112 95.718 179.243C95.3712 176.845 95.064 174.41 95.1432 173.685C95.334 171.603 94.6056 161.881 112.795 163.55C114.891 163.729 116.889 164.49 118.552 165.742C120.408 167.155 122.34 169.367 122.167 172.416C122.033 174.572 121.614 177.397 121.252 179.592C121.655 179.348 122.171 179.276 122.436 180.056C122.914 181.45 120.736 187.454 120.583 187.975C120.583 187.975 120.371 188.422 120.086 188.235C119.227 193.311 117.62 196.564 115.842 198.628C115.708 200.284 115.67 202.848 116.399 205.098L131.297 204.945C131.603 207.158 132.179 209.649 133.079 212.418C135.145 218.85 138.149 221.284 141.324 221.135V221.154C141.398 221.992 141.496 222.92 141.57 223.888C141.594 224.184 141.613 224.481 141.631 224.78ZM43.1664 229.853L30.558 229.929C30.558 229.929 32.43 217.157 37.3236 206.971C37.8804 210.54 40.8684 221.898 43.1664 229.853ZM86.0124 242.972V243.101C79.7364 244.868 70.2324 247.676 65.1072 249.816C62.8284 245.318 60.21 239.926 57.1872 233.478C57.2079 233.488 57.227 233.501 57.2436 233.517C59.1756 234.24 61.4124 235.058 62.406 235.243C62.406 235.243 64.1844 235.8 66.216 237.046C66.3468 236.73 66.462 236.396 66.5976 236.08C64.11 234.909 60.4932 233.346 56.5332 232.066C55.8084 230.523 55.08 228.923 54.318 227.251C53.2608 225.002 47.7696 204.684 47.7696 204.684C47.7696 204.684 46.776 204.796 45.3972 204.945C44.9376 204.108 44.6724 203.216 45.1692 202.64C46.3164 201.338 47.2128 199.071 47.4408 198.347C47.6904 197.583 49.0692 195.76 49.0512 194.849C49.7128 194.681 50.3921 194.588 51.0756 194.571H51.1128C54.9984 193.883 58.554 194.644 58.554 194.644C58.554 194.644 63.0108 196 65.2896 201.522C69.7464 207.393 71.7 216.002 72.1044 223.399C74.7612 217.822 77.1708 213.714 78.6792 213.063C79.4592 212.715 80.2504 212.393 81.0516 212.095C81.1488 213.191 81.3576 214.752 81.5712 216.277C81.2232 216.146 80.8236 216.202 80.592 216.834C80.0988 218.228 82.1832 224.568 82.2768 224.792C82.2768 224.792 82.5084 225.349 82.8336 225.051C82.8336 225.051 82.8528 225.033 82.8528 225.014C83.6976 229.978 85.1316 233.213 86.6592 235.314C87.6936 242.002 86.0124 242.972 86.0124 242.972Z" fill="#1B4798"/>
</g>
<path d="M262.511 300.363C262.511 300.363 261.498 311.034 260.602 321.667C263.165 321.518 265.746 321.367 268.331 321.239C268.674 321.219 269.018 321.2 269.381 321.183C266.053 314.154 262.511 300.363 262.511 300.363ZM57.9792 294.023C58.1544 293.948 58.3452 293.931 58.5168 294.023C58.5168 292.554 58.5168 291.067 58.536 289.578C58.4388 290.695 58.2108 292.367 57.9792 294.023Z" fill="#0B4870"/>
<path opacity="0.5" d="M275.161 232.248C273.554 229.442 271.679 223.305 269.382 217.933C269.147 217.386 268.859 216.863 268.519 216.371C268.235 215.683 267.851 215.126 267.335 214.736C266.569 214.159 265.537 213.657 264.349 213.232C263.009 204.216 257.438 172.891 244.24 172.393H244.22C241.16 171.818 238.291 172.188 237.2 172.355C236.894 172.411 236.741 172.449 236.741 172.449C236.741 172.449 231.75 173.956 229.628 180.296C228.138 182.489 226.95 185.018 226.012 187.694H225.992C221.599 200.115 222.593 215.916 225.16 218.258C224.032 219.763 223.284 221.493 222.806 223.222C225.732 220.749 230.82 219.037 238.452 219.76C240.536 219.947 243.962 224.297 245.606 225.559C247.482 226.991 249.395 229.203 249.223 232.235C249.089 234.39 248.67 237.235 248.29 239.41C248.712 239.186 249.228 239.094 249.474 239.874C249.952 241.268 247.774 247.291 247.621 247.793C247.621 247.793 247.393 248.257 247.124 248.054C246.246 253.129 244.64 256.384 242.862 258.448C242.708 260.176 242.671 262.91 243.493 265.213C243.799 265.288 257.648 268.185 265.531 272.458C263.33 269.207 260.192 264.578 259.598 263.612C259.102 262.811 259.082 260.097 259.31 257.44C263.539 256.008 268.146 254.519 270.593 253.962C275.624 252.827 278.99 250.987 280.616 249.444C282.24 247.917 276.767 235.071 275.161 232.248ZM262.063 246.638C262.981 243.847 263.885 241.052 264.775 238.253C265.71 240.311 266.603 242.387 267.454 244.479C264.394 245.522 263.131 246.118 262.063 246.638ZM227.196 265.679V265.828C220.655 267.671 210.594 270.646 205.678 272.805C205.315 272.972 204.93 273.326 204.452 273.826C204.187 273.141 203.784 272.563 203.25 272.154C200.78 270.295 195.427 269.237 191.676 268.549C193.914 266.765 195.348 264.125 195.348 261.151C195.348 257.155 192.781 253.734 189.109 252.228C191.616 246.409 194.537 235.701 184.937 230.572C181.014 228.471 177.457 228.135 174.436 228.826C174.57 227.6 174.683 226.501 174.761 225.593C178.029 224.582 181.312 223.614 184.608 222.69V222.541C184.608 222.541 186.312 221.573 185.258 214.882V214.863C183.708 212.763 182.292 209.528 181.47 204.602C181.47 204.621 181.451 204.639 181.451 204.639C181.126 204.936 180.894 204.378 180.894 204.378C180.8 204.156 178.712 197.816 179.209 196.421C179.572 195.435 180.319 195.864 180.722 196.18C180.722 195.921 180.742 195.584 180.76 195.158V195.102C180.551 192.796 180.222 190.678 179.612 190.324C179.204 190.097 178.836 189.808 178.522 189.469C174.464 185.326 178.978 175.043 195.868 176.619C196.898 176.713 198.277 177.846 199.614 179.111C200.936 180.374 202.199 181.787 203.021 182.419C204.896 183.851 206.809 186.061 206.638 189.09C206.503 191.229 206.084 194.074 205.718 196.25C206.141 196.024 206.638 195.968 206.887 196.731C207.365 198.125 205.187 204.151 205.034 204.651C205.034 204.651 204.821 205.116 204.534 204.931C203.678 209.987 202.072 213.222 200.291 215.287V215.305C200.137 217.051 200.086 219.765 200.908 222.071C201.424 222.183 212.018 224.43 219.863 227.85C219.366 230.136 220.225 232.311 222.198 233.463C222.811 233.816 223.154 235.991 223.345 238.316C223.308 238.724 223.308 239.079 223.289 239.32C222.889 239.004 222.161 238.576 221.798 239.561C221.302 240.955 223.386 247.295 223.483 247.518C223.483 247.518 223.711 248.075 224.036 247.778C224.036 247.778 224.036 247.742 224.056 247.722C224.9 252.705 226.334 255.938 227.866 258.039C228.896 264.731 227.196 265.679 227.196 265.679ZM33.1512 268.801C32.2371 266.004 31.3367 263.204 30.45 260.399C29.094 263.337 27.756 266.646 27.756 266.646C27.9648 266.718 28.1748 266.795 28.368 266.849H28.9584C29.3244 266.81 29.6676 266.793 30.0492 266.81C29.9928 267.015 29.9364 267.221 29.8776 267.405C31.4844 268.002 32.3664 268.429 33.1512 268.801ZM23.7696 323.773C23.844 323.754 23.9232 323.735 23.9976 323.698C24.2112 323.624 24.438 323.549 24.648 323.493C25.8768 323.093 27.1134 322.715 28.3572 322.361C28.4352 322.339 28.4916 322.321 28.548 322.302C29.43 322.061 30.252 321.838 31.0356 321.633C32.5638 321.223 34.101 320.846 35.646 320.501C35.892 320.445 36.1056 320.389 36.2964 320.351C36.774 320.239 37.0812 320.182 37.1748 320.165C38.0184 317.859 37.9776 315.125 37.8252 313.378C36.0468 311.316 34.4592 308.062 33.6156 302.987C33.3276 303.173 33.0996 302.727 33.0996 302.727C32.946 302.205 30.7836 296.201 31.2612 294.808C31.5264 294.027 32.046 294.101 32.4492 294.325C32.292 293.375 32.1204 292.297 31.9668 291.2C31.9104 290.848 31.8732 290.494 31.8324 290.141L31.7208 289.248C31.6471 288.555 31.5899 287.861 31.5492 287.166C31.374 284.118 33.3048 281.905 35.1612 280.493C35.4072 280.307 35.658 280.141 35.904 279.971C35.904 279.843 35.886 279.73 35.886 279.602C31.6608 278.17 27.0504 276.685 24.6228 276.127C20.682 275.234 17.79 273.916 15.9372 272.634H15.918C15.036 273.005 14.2704 273.415 13.6584 273.86C13.1424 274.251 12.7428 274.828 12.474 275.516V275.535C12.1351 276.003 11.8532 276.508 11.634 277.039C9.32158 282.412 7.42798 288.549 5.80198 291.355C4.17718 294.161 -1.32962 306.992 0.29878 308.532C1.94278 310.075 5.28958 311.916 10.3188 313.067C12.7692 313.642 17.3604 315.147 21.5676 316.577C21.7428 318.528 21.7812 320.518 21.5676 321.745C21.5112 322.189 21.414 322.544 21.2844 322.749M13.4928 303.605C13.4928 303.605 14.8308 300.297 16.1712 297.378C17.0496 300.111 18.0432 303.213 18.8868 305.778C17.8152 305.242 16.5564 304.665 13.4928 303.605ZM42.0084 195.462C42.0084 195.462 41.9904 195.444 41.9712 195.407C41.9492 195.365 41.9303 195.322 41.9148 195.277C41.1672 193.492 38.1036 186.263 37.398 185.946C36.576 185.555 36.0384 185.816 36.3636 186.728C36.6324 187.434 38.7768 193.102 39.5616 195.146C39.5052 195.165 39.4464 195.165 39.39 195.185C37.8996 192.86 33.1692 185.595 32.6736 185.204C32.3304 184.943 31.2984 185.407 31.4112 185.892C31.5276 186.3 35.5464 193.531 36.9624 196.059L36.9024 196.078C35.3748 193.754 31.164 187.36 30.6672 187.155C30.1104 186.95 29.2512 187.602 29.6508 188.345C29.9796 188.941 33.462 195.131 34.7616 197.418C34.7244 197.454 34.6836 197.473 34.6452 197.51C33.3456 195.762 30.1512 191.653 29.6172 191.747C29.214 191.803 28.2948 192.175 29.6364 193.828C30.9744 195.502 33.6744 199.796 33.6744 199.796H33.6936C33.6936 199.852 33.7128 199.888 33.7308 199.945C34.6092 202.603 37.0968 204.834 37.8816 205.82C37.5564 205.856 37.3476 205.895 37.3068 205.876C37.2132 205.893 37.2324 206.284 37.326 206.972C37.5012 206.582 37.692 206.21 37.9008 205.837C39.3732 202.918 41.1324 200.277 43.1796 198.289C42.7932 197.341 42.3936 196.133 42.0084 195.462ZM43.1856 229.853H43.1664C43.338 230.431 43.5096 230.988 43.6632 231.527C42.438 231.322 39.7776 231.044 36.9504 231.565H36.9096C26.334 231.921 20.5992 248.354 18.036 258.692C18.8616 256.777 19.6056 255.195 20.0652 254.396C21.69 251.589 23.562 245.456 25.8552 240.082C26.0902 239.557 26.3729 239.053 26.7 238.577C26.988 237.871 27.3684 237.294 27.9024 236.903C29.5092 235.694 32.3412 234.819 35.1504 234.17C37.9632 233.538 40.776 233.107 42.3228 232.792C42.5736 232.718 42.8196 232.682 43.0704 232.607C43.1448 232.588 43.224 232.568 43.2792 232.551C43.2792 232.551 43.836 231.547 44.2548 229.837C43.8983 229.832 43.5417 229.837 43.1856 229.853ZM48.6468 194.328C48.168 194.197 47.5188 194.794 46.8504 195.649C47.5495 195.299 48.2881 195.03 49.0512 194.847C49.05 194.588 48.9348 194.402 48.6468 194.328ZM56.5332 232.065C56.3616 232.009 56.1708 231.951 55.9992 231.898V231.934C55.98 232.214 55.962 232.511 55.9248 232.807C56.6316 233.105 57.0528 233.366 57.1872 233.477C56.9736 233.013 56.7648 232.547 56.5332 232.065Z" fill="#1B4798"/>
<path opacity="0.5" d="M117.868 279.977C117.445 280.069 92.6772 285.206 90.5736 291.935C90.3648 292.659 90.114 293.44 89.8452 294.258C89.214 294.036 88.5828 293.794 87.9516 293.57V293.552C87.9516 293.552 87.4956 293.198 86.5584 292.809C86.5764 292.493 86.5956 292.159 86.6328 291.843C86.7108 290.8 86.8044 289.797 86.9016 288.888V288.868C90.3048 289.015 93.5592 286.431 95.8116 279.497C103.477 255.942 89.4384 251.651 89.4384 251.651C89.4384 251.651 82.284 250.092 76.8528 253.18C76.89 253.141 76.9272 253.085 76.9692 253.049C76.9692 253.049 58.776 249.667 58.7424 272.904C58.6488 277.849 58.5744 283.018 58.5372 288.074C58.4028 285.396 58.1712 276.753 40.9188 278.318C40.475 278.357 40.0344 278.426 39.6 278.523L39.1212 278.634C37.9834 278.914 36.8978 279.367 35.904 279.974C35.904 279.846 35.886 279.732 35.886 279.604C31.6608 278.172 27.0504 276.687 24.6228 276.13C20.682 275.236 17.79 273.919 15.9372 272.637C19.7628 271.054 25.5756 270.291 28.1004 269.77C28.4256 269.698 28.7316 269.601 29.0568 269.547C29.0568 269.547 29.4792 268.767 29.8788 267.408C31.4856 268.004 32.3664 268.43 33.1512 268.802C32.2371 266.006 31.3367 263.205 30.45 260.4C29.094 263.338 27.756 266.647 27.756 266.647C27.9648 266.719 28.1748 266.796 28.368 266.85L16.3356 266.909C16.3356 266.909 16.8516 263.451 18.0348 258.691C18.8604 256.776 19.6044 255.194 20.064 254.395C21.6888 251.588 23.5608 245.455 25.854 240.08C26.089 239.555 26.3718 239.052 26.6988 238.576C26.9868 237.87 27.3672 237.293 27.9012 236.902C29.508 235.693 32.34 234.818 35.1492 234.169C37.962 233.536 40.7748 233.106 42.3216 232.791C42.5724 232.717 42.8184 232.68 43.0692 232.606C43.1436 232.587 43.2228 232.567 43.278 232.55C43.278 232.55 43.8348 231.546 44.2536 229.836C43.8912 229.836 43.5288 229.836 43.1856 229.854H43.1664C40.8684 221.899 37.8804 210.54 37.3236 206.973C37.4988 206.583 37.6896 206.211 37.8984 205.839C38.0328 206.024 38.1072 206.136 38.1264 206.227C38.1264 206.136 38.0328 206.024 37.8984 205.839C39.3708 202.919 41.13 200.278 43.1772 198.291C43.5612 199.239 43.9056 199.926 44.2308 199.536C44.6712 198.997 45.7776 197.008 46.8492 195.651C47.5483 195.302 48.2869 195.033 49.05 194.849C49.068 195.76 47.6904 197.583 47.4396 198.347C47.2116 199.071 46.3152 201.338 45.168 202.64C44.6712 203.215 44.9364 204.108 45.396 204.945C46.7748 204.796 47.7684 204.684 47.7684 204.684C47.7684 204.684 53.2596 225.002 54.3168 227.251C55.0788 228.924 55.8072 230.523 56.532 232.066C56.3604 232.01 56.1696 231.953 55.998 231.899V231.935C55.9788 232.215 55.9608 232.512 55.9236 232.809C56.6304 233.106 57.0516 233.367 57.186 233.478C60.2088 239.926 62.8272 245.318 65.106 249.816C70.2312 247.676 79.7352 244.868 86.0112 243.101V242.972C86.0112 242.972 87.6924 242.002 86.658 235.313C85.1304 233.212 83.6952 229.977 82.8516 225.013C82.8516 225.032 82.8324 225.049 82.8324 225.049C82.5072 225.347 82.2756 224.791 82.2756 224.791C82.182 224.568 80.0976 218.228 80.5908 216.833C80.8224 216.201 81.222 216.145 81.57 216.276C81.3564 214.751 81.1476 213.19 81.0504 212.093C80.994 211.48 80.976 210.997 80.994 210.737C81.2028 208.655 80.4936 198.931 98.6832 200.638C99.5318 200.709 100.368 200.884 101.171 201.16C102.346 201.53 103.446 202.096 104.42 202.833C106.277 204.264 108.209 206.474 108.018 209.504C107.906 211.641 107.465 214.485 107.102 216.66C107.502 216.458 108.018 216.383 108.287 217.143C108.769 218.538 106.588 224.563 106.415 225.066C106.415 225.066 106.206 225.567 105.918 225.343C105.059 230.401 103.452 233.634 101.675 235.699V235.717C101.521 237.372 101.466 239.938 102.172 242.168L113.992 242.074C112.904 243.356 112.102 244.993 112.217 246.982C112.351 249.138 112.77 251.982 113.136 254.157C112.714 253.933 112.199 253.841 111.93 254.621C111.474 256.015 113.615 262.039 113.786 262.54C113.786 262.54 113.995 263.005 114.283 262.82C115.128 267.896 116.734 271.15 118.512 273.209C118.649 274.939 118.69 277.672 117.868 279.977Z" fill="#1B4798"/>
<path d="M118.26 336.211C118.186 336.23 117.878 336.34 117.36 336.489L118.26 336.211ZM219.863 227.851C219.882 227.851 219.9 227.869 219.919 227.869C220.513 227.944 221.07 228.186 221.488 228.575C221.622 228.631 221.738 228.706 221.854 228.762C221.965 227.237 222.212 225.247 222.806 223.221C221.125 224.616 220.17 226.271 219.863 227.851Z" fill="#1B4798"/>
<path opacity="0.8" d="M308.297 314.551C308.278 314.439 308.26 314.329 308.219 314.218C308.2 314.031 308.162 313.865 308.125 313.697C307.913 312.692 307.782 312.04 307.782 312.04C307.782 312.04 304.393 312.505 300.034 312.97H299.959C297.415 313.231 294.565 313.509 291.868 313.697C286.32 314.049 281.404 314.069 281.098 312.934C278.639 303.378 275.941 293.882 273.006 284.453H272.987C272.108 281.629 271.362 279.248 270.749 277.259C270.233 275.53 268.224 273.913 265.53 272.462C257.647 268.186 243.799 265.287 243.492 265.214C242.67 262.908 242.707 260.175 242.861 258.448C244.643 256.384 246.25 253.131 247.127 248.055C247.396 248.261 247.624 247.795 247.624 247.795C247.777 247.294 249.959 241.271 249.48 239.876C249.229 239.096 248.714 239.188 248.292 239.412C248.677 237.237 249.095 234.392 249.229 232.236C249.383 229.206 247.47 226.992 245.617 225.563C243.97 224.3 240.529 219.947 238.445 219.763C230.813 219.039 225.725 220.748 222.817 223.221C222.205 225.247 221.972 227.236 221.861 228.759C221.746 228.705 221.629 228.631 221.476 228.574C221.076 228.184 220.519 227.942 219.907 227.868C219.888 227.868 219.888 227.849 219.87 227.849C219.373 230.136 220.232 232.311 222.205 233.464C222.817 233.818 223.162 235.993 223.352 238.317C223.315 238.725 223.315 239.077 223.296 239.321C222.893 239.004 222.168 238.577 221.802 239.563C221.305 240.956 223.39 247.296 223.487 247.518C223.487 247.518 223.715 248.076 224.04 247.779C224.04 247.779 224.04 247.74 224.059 247.723C224.904 252.704 226.338 255.939 227.866 258.04C228.9 264.733 227.197 265.681 227.197 265.681V265.83C220.656 267.671 210.595 270.645 205.679 272.801C205.316 272.968 204.931 273.323 204.454 273.823C204.188 273.135 203.785 272.56 203.251 272.149C200.782 270.29 195.428 269.231 191.677 268.544C193.915 266.76 195.349 264.121 195.349 261.144C195.349 257.149 192.787 253.728 189.114 252.221C191.621 246.403 194.546 235.695 184.945 230.583C181.003 228.483 177.466 228.13 174.444 228.835C174.578 227.608 174.695 226.512 174.769 225.6C174.923 223.779 174.941 222.664 174.769 222.664H174.198C174.866 221.604 177.044 219.093 177.583 216.343C177.602 216.269 177.62 216.251 177.602 216.194H177.622C177.622 216.194 179.785 211.621 180.894 209.798C182.022 207.978 181.066 207.754 180.644 207.736C180.11 207.736 177.469 212.161 176.359 214.038C176.322 214.001 176.285 213.982 176.244 213.945C177.26 211.529 179.957 204.966 180.185 204.353C180.51 203.573 179.572 203.033 179.057 203.293C178.578 203.554 175.175 210.394 173.969 212.885L173.894 212.867C174.982 210.209 178.1 202.55 178.139 202.142C178.217 201.62 177.108 201.287 176.801 201.603C176.36 202.047 172.553 209.838 171.368 212.272C171.308 212.272 171.253 212.272 171.197 212.253C171.462 211.193 171.941 209.205 172.381 207.383C172.841 205.562 173.244 203.906 173.338 203.536C173.546 202.607 172.994 202.402 172.229 202.867C171.541 203.294 169.266 211.306 168.826 212.832C168.826 212.85 168.806 212.868 168.806 212.868C168.193 214.319 167.831 217.87 167.122 217.161C166.3 216.362 163.278 212.049 162.071 212.513C160.867 212.977 163.315 215.432 163.775 216.362C164.1 217.05 165.269 219.206 166.588 220.36C167.141 220.861 166.969 221.791 166.644 222.683H164.234C164.234 222.683 164.026 224.206 163.681 226.476C162.799 232.592 161.077 244.137 160.543 245.864C154.174 265.886 149.888 277.522 146.485 284.345C145.948 284.178 145.412 284.011 144.878 283.842L143.272 283.341L141.09 282.671C140.208 282.413 139.331 282.152 138.49 281.891C137.608 281.65 136.768 281.39 135.946 281.167C135.314 280.98 134.72 280.812 134.146 280.646V280.496C134.146 280.496 132.464 279.531 133.514 272.857C135.065 270.756 136.499 267.522 137.358 262.559L137.381 262.595C137.706 262.893 137.934 262.354 137.934 262.354C138.031 262.112 140.135 255.791 139.638 254.396C139.406 253.764 139.025 253.708 138.662 253.839C138.756 253.207 138.853 252.593 138.928 251.98C139.047 251.158 139.143 250.334 139.216 249.507C139.235 249.322 139.253 249.135 139.253 248.986C139.273 248.757 139.273 248.527 139.253 248.298C139.081 246.347 139.693 237.757 124.967 237.962C123.932 237.962 122.803 238.018 121.601 238.129C119.511 238.312 117.52 239.074 115.862 240.324C115.169 240.826 114.545 241.413 114.006 242.07C112.915 243.353 112.112 244.989 112.228 246.977C112.362 249.133 112.781 251.978 113.147 254.153C112.724 253.93 112.21 253.837 111.94 254.617C111.48 256.012 113.624 262.034 113.796 262.536C113.796 262.536 114.005 263 114.293 262.816C115.134 267.889 116.74 271.143 118.518 273.207C118.652 274.936 118.69 277.669 117.868 279.973C117.449 280.067 92.6772 285.198 90.5736 291.927C90.3648 292.651 90.114 293.431 89.8452 294.25C89.214 294.027 88.5828 293.786 87.9516 293.562V293.543C87.9516 293.543 87.4956 293.19 86.5584 292.799C86.5776 292.483 86.5956 292.167 86.6328 291.852C86.7108 290.792 86.8044 289.788 86.9016 288.897V288.858C90.3048 289.008 93.5592 286.424 95.8152 279.49C103.484 255.937 89.4456 251.643 89.4456 251.643C89.4456 251.643 82.2912 250.1 76.86 253.186C76.8972 253.147 76.9344 253.091 76.9752 253.055C76.9752 253.055 58.782 249.671 58.7448 272.909C58.6512 277.854 58.5732 283.022 58.536 288.078C58.4016 285.403 58.1736 276.757 40.9176 278.319C40.4741 278.361 40.0336 278.429 39.5988 278.524L39.1212 278.635C37.9932 278.915 36.9024 279.362 35.9088 279.973C35.6557 280.141 35.4064 280.315 35.1612 280.494C33.3084 281.906 31.3764 284.119 31.5492 287.167C31.5864 287.819 31.6428 288.507 31.7208 289.249L31.8324 290.143C31.8732 290.495 31.9104 290.848 31.9668 291.202C32.1204 292.3 32.292 293.377 32.4456 294.326C32.046 294.103 31.5264 294.029 31.2612 294.809C30.7824 296.203 32.9424 302.206 33.096 302.728C33.096 302.728 33.3276 303.174 33.6156 302.989C34.4568 308.063 36.0444 311.316 37.8216 313.381C37.9752 315.126 38.0304 317.861 37.1712 320.165C37.074 320.185 36.768 320.239 36.2892 320.351C36.1176 320.387 35.8896 320.445 35.6388 320.501C34.5288 320.742 32.9232 321.133 31.0284 321.633C30.1989 321.851 29.3709 322.074 28.5444 322.302C28.4844 322.321 28.4472 322.339 28.3728 322.358C27.1848 322.692 25.9224 323.083 24.6408 323.491C21.9432 331.132 21.2748 359.649 21.2184 383.964C21.4836 383.426 21.7896 382.886 22.1556 382.347C25.7868 347.9 128.424 319.645 261.188 314.902C261.899 306.928 262.511 300.366 262.511 300.366C262.511 300.366 264.443 307.931 266.833 314.717C266.89 314.902 266.968 315.089 267.024 315.275C267.79 317.45 268.612 319.514 269.396 321.188C270.427 323.417 271.463 324.96 272.34 325.183C273.988 325.591 289.48 324.998 300.018 324.31C305.719 323.919 310.022 323.511 310.022 323.175C309.96 322.935 308.947 317.748 308.297 314.551ZM58.5132 294.029C58.3416 293.936 58.1508 293.954 57.9756 294.029C58.2072 292.375 58.4352 290.701 58.5324 289.586C58.5132 291.072 58.5132 292.559 58.5132 294.029Z" fill="#1B4798"/>
<path opacity="0.5" d="M163.666 226.468C162.787 232.584 161.069 244.127 160.531 245.856C154.169 265.879 149.888 277.517 146.48 284.339L144.874 283.84C144.34 283.671 143.802 283.504 143.267 283.337L141.085 282.668C140.207 282.408 139.326 282.149 138.485 281.887C137.603 281.645 136.763 281.387 135.941 281.165C135.31 280.979 134.716 280.81 134.144 280.643V280.494C134.144 280.494 132.46 279.528 133.51 272.855C135.06 270.754 136.494 267.518 137.353 262.554L137.372 262.591C137.698 262.888 137.929 262.349 137.929 262.349C138.023 262.108 140.125 255.787 139.628 254.392C139.397 253.76 139.015 253.704 138.653 253.834C138.746 253.202 138.844 252.589 138.918 251.975C139.038 251.154 139.134 250.329 139.206 249.503C139.227 249.33 139.239 249.157 139.243 248.984C139.263 248.755 139.263 248.525 139.243 248.296C139.072 246.342 139.684 237.755 124.954 237.962C125.45 236.047 126.216 234.078 127.478 232.402C129.888 229.186 133.885 227.643 134.898 227.29C134.976 227.246 135.061 227.215 135.149 227.198C136.157 227.012 138.398 226.192 140.33 225.486C140.33 225.486 140.368 225.467 140.442 225.411C140.614 225.3 140.999 225.059 141.63 224.779C141.611 224.482 141.593 224.183 141.57 223.888C141.496 222.92 141.398 221.99 141.324 221.154V221.135C138.149 221.285 135.145 218.85 133.079 212.418C132.179 209.649 131.603 207.158 131.297 204.945C130.954 202.454 130.916 200.316 131.106 198.439C128.636 193.458 137.912 180.127 151.339 187.3C152.102 187.705 152.824 188.178 153.498 188.712C160.442 194.195 157.824 203.602 155.534 208.94C159.185 210.461 161.75 213.881 161.75 217.879C161.731 220.853 160.316 223.512 158.078 225.297C159.764 225.594 161.753 225.985 163.666 226.468Z" fill="#1B4798"/>
<g opacity="0.3">
<path d="M104.09 138.314L149.698 108.849L166.257 133.06L120.649 162.525L104.09 138.314Z" fill="#1B4798"/>
<path d="M120.656 162.516L122.954 161.034L139.873 185.821L137.576 187.302L120.656 162.516Z" fill="#1B4798"/>
</g>
<g opacity="0.3">
<path d="M326.449 220.123C326.681 222.801 326.681 225.497 326.18 226.295C325.247 227.799 317.995 238.379 317.995 238.379C318.492 238.806 319.16 239.197 319.926 239.568C316.597 247.823 312.715 262.416 314.15 283.757C315.223 283.813 316.291 283.849 317.345 283.906C320.576 284.073 323.789 284.259 326.987 284.445H327.006C327.884 281.618 328.631 279.239 329.244 277.251C329.76 275.52 331.77 273.904 334.463 272.454C336.664 269.201 339.802 264.571 340.396 263.605C340.892 262.805 340.912 260.09 340.68 257.432C336.455 256 331.844 254.513 329.398 253.955C324.366 252.821 321 250.981 319.374 249.438C317.749 247.913 323.219 235.068 324.824 232.243C326.431 229.437 328.306 223.3 330.6 217.928C330.851 217.353 331.138 216.832 331.463 216.367C331.747 215.678 332.131 215.121 332.647 214.73C333.413 214.153 334.444 213.651 335.632 213.223C336.97 204.208 342.535 172.883 355.734 172.382H355.752C358.812 171.807 361.681 172.177 362.772 172.343C363.269 163.849 361.759 151.171 356.249 143.01C354.127 136.671 349.132 135.146 349.132 135.146C349.132 135.146 345.594 134.384 341.712 135.091H341.675C328.439 135.536 322.812 166.915 321.475 175.895C320.291 176.341 319.256 176.824 318.491 177.401C317.957 177.81 317.572 178.386 317.287 179.074C316.961 179.557 316.679 180.067 316.444 180.598C314.149 185.97 312.256 192.106 310.649 194.913C309.024 197.719 303.532 210.565 305.161 212.108C306.805 213.651 310.152 215.472 315.203 216.625C317.633 217.185 322.243 218.692 326.449 220.123ZM323.734 209.323C322.662 208.783 321.398 208.207 318.34 207.167C318.34 207.167 319.681 203.857 321.018 200.92C321.9 203.633 322.894 206.738 323.734 209.323ZM374.825 218.245C375.953 219.75 376.697 221.481 377.174 223.209C377.768 225.235 378.019 227.224 378.131 228.75C378.246 228.694 378.362 228.619 378.497 228.563C378.929 228.171 379.478 227.924 380.065 227.857C380.084 227.857 380.102 227.838 380.122 227.838C387.964 224.418 398.562 222.169 399.077 222.056C399.899 219.75 399.842 217.036 399.689 215.29V215.271C397.907 213.207 396.301 209.972 395.441 204.916C395.153 205.102 394.944 204.636 394.944 204.636C394.79 204.135 392.609 198.112 393.088 196.717C393.337 195.954 393.835 196.012 394.256 196.234C393.89 194.059 393.472 191.215 393.337 189.076C393.166 186.046 395.078 183.835 396.949 182.402C397.775 181.77 399.037 180.358 400.356 179.095C400.393 178.648 400.471 178.184 400.547 177.68C402.097 175.58 403.531 172.344 404.372 167.363C404.392 167.381 404.392 167.419 404.392 167.419C404.717 167.717 404.948 167.16 404.948 167.16C405.042 166.938 407.146 160.598 406.649 159.203C406.286 158.217 405.539 158.645 405.139 158.961C405.139 158.72 405.12 158.367 405.102 157.957C405.293 155.634 405.636 153.459 406.249 153.104C412.025 149.777 408.199 137.712 390.01 139.367C387.925 139.57 384.499 143.901 382.837 145.167C380.981 146.598 379.049 148.81 379.22 151.84C379.355 153.997 379.777 156.821 380.14 159.015C379.736 158.794 379.22 158.699 378.955 159.479C378.478 160.873 380.656 166.897 380.808 167.401C380.808 167.401 381.022 167.865 381.305 167.66C382.168 172.735 383.774 175.989 385.553 178.051C385.706 179.779 385.744 182.513 384.902 184.836C384.731 184.873 379.698 185.933 373.979 187.68C378.382 200.103 377.388 215.904 374.825 218.245ZM415.374 222.521V222.67C418.671 223.595 421.955 224.561 425.226 225.571C425.072 223.748 425.054 222.633 425.226 222.633H425.797C425.129 221.573 422.928 219.064 422.394 216.312C422.375 216.256 422.357 216.22 422.375 216.162H422.357C422.357 216.162 420.193 211.589 419.084 209.769C417.956 207.965 418.913 207.723 419.335 207.705C419.869 207.705 422.51 212.128 423.62 214.006C423.658 213.97 423.695 213.951 423.732 213.931C422.719 211.497 420.023 204.952 419.795 204.32C419.47 203.54 420.408 203 420.923 203.262C421.4 203.521 424.804 210.363 426.011 212.853L426.085 212.834C424.994 210.176 421.879 202.517 421.841 202.109C421.763 201.588 422.872 201.254 423.179 201.57C423.619 202.017 427.427 209.805 428.611 212.241C428.668 212.241 428.726 212.241 428.783 212.222C428.514 211.164 428.035 209.174 427.598 207.351C427.139 205.531 426.736 203.877 426.642 203.505C426.43 202.575 426.985 202.37 427.752 202.835C428.44 203.263 430.715 211.276 431.155 212.8C431.155 212.819 431.173 212.836 431.173 212.836C431.786 214.287 432.149 217.837 432.858 217.132C433.68 216.33 436.703 212.02 437.905 212.484C439.111 212.948 436.664 215.401 436.205 216.33C435.88 217.018 434.711 219.175 433.41 220.328C432.857 220.83 433.01 221.759 433.354 222.652H435.763C435.763 222.652 435.972 224.177 436.316 226.444C438.163 225.989 440.026 225.598 441.901 225.273C439.663 223.489 438.251 220.829 438.229 217.856C438.229 213.858 440.796 210.438 444.445 208.915C442.152 203.58 439.532 194.172 446.473 188.689C446.148 188.559 445.823 188.428 445.499 188.318C445.499 188.318 445.058 187.982 444.18 187.611C444.199 187.314 444.217 187.015 444.254 186.718C444.332 185.752 444.408 184.822 444.486 183.985L444.505 183.965C447.662 184.096 450.684 181.679 452.768 175.247C454.662 169.41 455.1 164.856 454.756 161.305C457.243 156.36 447.986 142.957 434.519 150.113C424.918 155.225 427.824 165.952 430.313 171.771C426.641 173.275 424.078 176.698 424.078 180.694C424.078 183.649 425.512 186.308 427.75 188.094C425.856 188.427 423.581 188.874 421.454 189.45C421.14 189.79 420.772 190.078 420.364 190.305C419.755 190.658 419.426 192.778 419.216 195.083V195.139C419.236 195.566 419.254 195.902 419.254 196.161C419.657 195.845 420.404 195.417 420.767 196.402C421.264 197.797 419.179 204.136 419.082 204.359C419.082 204.359 418.854 204.916 418.529 204.619C418.529 204.619 418.51 204.6 418.51 204.583C417.688 209.508 416.272 212.743 414.721 214.843V214.862C413.67 221.555 415.374 222.521 415.374 222.521ZM458.354 224.752C458.809 224.949 459.244 225.185 459.655 225.459C461.586 226.164 463.824 226.984 464.837 227.169C464.925 227.187 465.009 227.218 465.088 227.261C466.1 227.614 470.098 229.158 472.507 232.372C473.77 234.046 474.535 236.016 475.032 237.931C476.066 237.931 477.196 237.987 478.398 238.098C480.488 238.28 482.479 239.042 484.136 240.293C484.83 240.795 485.453 241.382 485.993 242.038L497.813 242.131C498.523 239.902 498.463 237.336 498.31 235.68V235.661C496.531 233.597 494.926 230.364 494.066 225.306C493.778 225.529 493.57 225.028 493.57 225.028C493.398 224.526 491.216 218.502 491.694 217.107C491.963 216.347 492.479 216.421 492.878 216.624C492.516 214.449 492.076 211.605 491.963 209.468C491.768 206.438 493.7 204.226 495.557 202.795C496.532 202.057 497.631 201.491 498.806 201.121C498.866 200.302 498.96 199.337 499.135 198.222C500.682 196.12 502.116 192.866 502.961 187.904C502.98 187.924 502.98 187.942 502.98 187.96C503.305 188.257 503.533 187.7 503.533 187.7C503.63 187.458 505.734 181.137 505.218 179.742C504.986 179.11 504.605 179.073 504.262 179.203C504.605 176.805 504.912 174.37 504.833 173.645C504.642 171.563 505.37 161.841 487.181 163.513C485.084 163.693 483.084 164.455 481.42 165.708C479.567 167.121 477.635 169.334 477.808 172.382C477.942 174.538 478.361 177.363 478.723 179.558C478.324 179.314 477.808 179.242 477.539 180.022C477.06 181.416 479.243 187.42 479.395 187.941C479.395 187.941 479.604 188.388 479.892 188.201C480.751 193.277 482.358 196.531 484.136 198.593C484.271 200.247 484.312 202.813 483.583 205.063L468.682 204.914C468.379 207.127 467.803 209.617 466.903 212.386C464.837 218.818 461.838 221.254 458.662 221.105V221.124C458.584 221.961 458.49 222.891 458.412 223.857L458.354 224.752ZM556.819 229.808L569.428 229.882C569.428 229.882 567.552 217.111 562.655 206.924C562.102 210.494 559.116 221.853 556.819 229.808ZM513.977 242.933V243.062C520.249 244.828 529.757 247.635 534.882 249.774C537.157 245.276 539.78 239.884 542.798 233.434C542.761 233.452 542.742 233.472 542.742 233.472C540.81 234.196 538.573 235.015 537.58 235.201C537.58 235.201 535.801 235.758 533.773 237.004C533.639 236.688 533.522 236.354 533.388 236.038C535.876 234.867 539.492 233.304 543.452 232.023C544.177 230.48 544.906 228.881 545.668 227.208C546.721 224.958 552.212 204.638 552.212 204.638C552.212 204.638 553.206 204.75 554.581 204.9C555.041 204.062 555.31 203.169 554.813 202.594C553.666 201.292 552.766 199.025 552.538 198.301C552.287 197.538 550.909 195.717 550.927 194.804C550.266 194.637 549.586 194.544 548.903 194.527H548.866C544.98 193.839 541.424 194.602 541.424 194.602C541.424 194.602 536.968 195.958 534.692 201.48C530.236 207.354 528.282 215.962 527.882 223.359C525.222 217.782 522.812 213.675 521.304 213.024C520.524 212.677 519.733 212.354 518.932 212.056C518.834 213.152 518.626 214.714 518.412 216.238C518.759 216.108 519.16 216.164 519.391 216.796C519.888 218.189 517.804 224.529 517.706 224.753C517.706 224.753 517.478 225.311 517.153 225.012C517.153 225.012 517.13 224.995 517.13 224.976C516.289 229.94 514.855 233.175 513.328 235.275C512.292 241.966 513.977 242.933 513.977 242.933Z" fill="#1B4798"/>
</g>
<path d="M330.619 321.177C330.985 321.196 331.33 321.213 331.673 321.233C334.254 321.361 336.835 321.511 339.398 321.66C338.502 311.027 337.486 300.356 337.486 300.356C337.486 300.356 333.947 314.15 330.619 321.177ZM541.46 289.537C541.48 291.025 541.48 292.512 541.48 293.982C541.651 293.89 541.842 293.907 542.017 293.982C541.786 292.326 541.558 290.653 541.46 289.537Z" fill="#0B4870"/>
<path opacity="0.5" d="M319.374 249.44C320.999 250.983 324.365 252.822 329.398 253.957C331.844 254.514 336.455 256.001 340.68 257.433C340.912 260.091 340.892 262.805 340.396 263.606C339.802 264.572 336.664 269.201 334.463 272.455C342.346 268.179 356.194 265.279 356.501 265.204C357.323 262.901 357.286 260.167 357.132 258.439C355.35 256.374 353.744 253.122 352.866 248.047C352.597 248.25 352.369 247.786 352.369 247.786C352.216 247.284 350.034 241.262 350.513 239.867C350.764 239.087 351.278 239.179 351.701 239.403C351.316 237.228 350.898 234.383 350.764 232.228C350.592 229.195 352.505 226.985 354.376 225.552C356.023 224.289 359.446 219.939 361.53 219.752C369.162 219.028 374.25 220.738 377.176 223.21C376.698 221.482 375.954 219.752 374.826 218.247C377.389 215.905 378.383 200.103 373.981 187.684H373.963C373.026 185.009 371.842 182.479 370.351 180.287C368.226 173.947 363.234 172.442 363.234 172.442C363.234 172.442 363.08 172.404 362.774 172.348C361.684 172.181 358.814 171.81 355.754 172.386H355.736C342.538 172.888 336.971 204.213 335.634 213.228C334.446 213.656 333.415 214.158 332.65 214.735C332.134 215.126 331.75 215.683 331.465 216.371C331.125 216.863 330.836 217.386 330.602 217.933C328.309 223.305 326.434 229.44 324.827 232.248C323.219 235.069 317.749 247.915 319.374 249.44ZM332.532 244.476C332.532 244.476 333.874 241.166 335.21 238.247C336.104 241.046 337.01 243.841 337.926 246.632C336.854 246.112 335.596 245.516 332.532 244.476ZM372.797 265.667V265.816C379.338 267.657 389.399 270.631 394.315 272.787C394.678 272.954 395.063 273.308 395.54 273.809C395.806 273.123 396.209 272.546 396.744 272.136C399.214 270.277 404.567 269.217 408.318 268.529C406.08 266.745 404.646 264.104 404.646 261.131C404.646 257.133 407.209 253.714 410.881 252.208C408.374 246.389 405.449 235.681 415.05 230.551C418.973 228.45 422.53 228.114 425.551 228.802C425.429 227.726 425.32 226.648 425.226 225.57C421.956 224.559 418.671 223.592 415.374 222.669V222.52C415.374 222.52 413.67 221.554 414.724 214.861V214.842C416.274 212.742 417.69 209.506 418.512 204.581C418.512 204.6 418.531 204.617 418.531 204.617C418.856 204.915 419.084 204.357 419.084 204.357C419.182 204.135 421.266 197.795 420.769 196.401C420.407 195.416 419.659 195.844 419.256 196.16C419.256 195.9 419.237 195.565 419.219 195.138V195.082C419.428 192.776 419.756 190.657 420.366 190.304C420.774 190.077 421.142 189.788 421.457 189.449C425.514 185.304 420.997 175.025 404.107 176.604C403.076 176.698 401.698 177.831 400.361 179.096C399.042 180.359 397.78 181.771 396.954 182.404C395.082 183.836 393.169 186.047 393.342 189.077C393.476 191.216 393.895 194.06 394.261 196.235C393.839 196.013 393.342 195.956 393.092 196.718C392.615 198.113 394.795 204.136 394.949 204.637C394.949 204.637 395.158 205.101 395.446 204.917C396.305 209.973 397.912 213.208 399.694 215.273V215.291C399.847 217.037 399.902 219.752 399.082 222.057C398.566 222.169 387.967 224.418 380.126 227.839C380.623 230.125 379.764 232.3 377.791 233.452C377.178 233.806 376.835 235.981 376.644 238.305C376.681 238.713 376.681 239.068 376.7 239.309C377.104 238.993 377.828 238.565 378.194 239.551C378.691 240.944 376.607 247.284 376.51 247.508C376.51 247.508 376.282 248.066 375.956 247.768C375.956 247.768 375.956 247.732 375.937 247.712C375.092 252.696 373.658 255.931 372.131 258.032C371.093 264.72 372.797 265.667 372.797 265.667ZM542.798 233.434C542.933 233.323 543.355 233.062 544.061 232.764C544.027 232.474 544.002 232.183 543.986 231.891V231.855C543.815 231.909 543.624 231.965 543.452 232.021C543.221 232.504 543.011 232.968 542.798 233.434ZM550.927 194.803C551.693 194.99 552.421 195.25 553.128 195.605C552.46 194.75 551.809 194.154 551.332 194.284C551.044 194.359 550.927 194.544 550.927 194.803ZM556.8 229.808C556.457 229.789 556.094 229.789 555.732 229.789C556.151 231.499 556.708 232.503 556.708 232.503C556.764 232.522 556.842 232.542 556.916 232.559C557.166 232.634 557.413 232.67 557.664 232.744C559.211 233.06 562.024 233.489 564.836 234.121C567.646 234.77 570.478 235.645 572.084 236.853C572.622 237.244 573.004 237.821 573.292 238.527C573.598 238.973 573.882 239.475 574.133 240.031C576.426 245.404 578.302 251.539 579.928 254.346C580.387 255.145 581.134 256.726 581.956 258.641C579.392 248.305 573.654 231.872 563.078 231.518H563.038C560.209 230.999 557.55 231.276 556.325 231.481C556.478 230.943 556.65 230.385 556.822 229.808H556.8ZM570.342 193.782C571.684 192.128 570.764 191.756 570.361 191.7C569.827 191.608 566.633 195.715 565.333 197.464C565.296 197.425 565.255 197.408 565.217 197.371C566.516 195.084 569.999 188.894 570.324 188.298C570.727 187.555 569.864 186.904 569.311 187.108C568.814 187.314 564.605 193.707 563.076 196.031L563.016 196.013C564.432 193.484 568.448 186.253 568.564 185.845C568.68 185.36 567.644 184.896 567.301 185.157C566.804 185.548 562.079 192.816 560.588 195.14C560.532 195.121 560.472 195.121 560.417 195.102C561.202 193.057 563.342 187.388 563.611 186.681C563.936 185.771 563.402 185.508 562.58 185.899C561.871 186.216 558.811 193.447 558.064 195.232C558.048 195.277 558.029 195.321 558.007 195.363C557.997 195.383 557.985 195.401 557.97 195.418C557.585 196.087 557.185 197.297 556.801 198.245C558.848 200.232 560.608 202.874 562.08 205.792C562.292 206.164 562.483 206.536 562.655 206.927C562.752 206.239 562.77 205.848 562.674 205.83C562.637 205.848 562.427 205.811 562.103 205.774C562.884 204.789 565.372 202.558 566.254 199.9C566.273 199.844 566.291 199.807 566.291 199.751H566.309C566.308 199.748 569.005 195.455 570.342 193.782ZM578.722 322.702C578.225 321.901 578.206 319.187 578.434 316.53C582.64 315.098 587.232 313.593 589.682 313.018C594.71 311.865 598.058 310.024 599.702 308.481C601.331 306.938 595.82 294.11 594.196 291.304C592.571 288.498 590.676 282.363 588.36 276.989C588.142 276.457 587.86 275.952 587.52 275.485V275.466C587.251 274.778 586.852 274.201 586.336 273.81C585.722 273.366 584.957 272.955 584.076 272.584H584.057C582.204 273.866 579.316 275.186 575.375 276.08C572.946 276.637 568.337 278.124 564.108 279.556C564.108 279.686 564.089 279.798 564.089 279.927C564.338 280.096 564.586 280.263 564.836 280.448C566.689 281.861 568.621 284.074 568.448 287.122C568.408 287.817 568.351 288.511 568.277 289.204L568.165 290.097C568.124 290.449 568.087 290.803 568.031 291.156C567.877 292.252 567.706 293.331 567.553 294.28C567.953 294.056 568.472 293.983 568.738 294.763C569.215 296.157 567.056 302.161 566.904 302.682C566.904 302.682 566.672 303.129 566.384 302.941C565.543 308.017 563.956 311.271 562.178 313.335C562.025 315.081 561.988 317.813 562.829 320.119C562.926 320.138 563.232 320.194 563.711 320.306C563.902 320.342 564.11 320.398 564.361 320.455C565.471 320.696 567.077 321.087 568.972 321.587C569.756 321.774 570.596 322.015 571.456 322.257C571.516 322.276 571.571 322.293 571.646 322.313C573.043 322.721 574.516 323.168 576.01 323.651C576.084 323.687 576.163 323.707 576.238 323.725M581.113 305.728C581.953 303.164 582.947 300.059 583.829 297.327C584.762 299.386 585.655 301.462 586.507 303.553C583.444 304.614 582.185 305.191 581.113 305.728ZM570.115 267.359C570.055 267.174 569.999 266.969 569.944 266.765C570.325 266.746 570.668 266.765 571.034 266.803H571.625C571.819 266.747 572.028 266.672 572.237 266.598C572.237 266.598 570.899 263.29 569.539 260.354C568.655 263.159 567.756 265.959 566.842 268.755C567.626 268.382 568.508 267.955 570.115 267.359Z" fill="#1B4798"/>
<path opacity="0.5" d="M482.129 279.946C482.548 280.038 507.319 285.168 509.423 291.899C509.632 292.623 509.882 293.403 510.151 294.222C510.782 293.999 511.414 293.758 512.045 293.534V293.515C512.045 293.515 512.501 293.162 513.438 292.771C513.419 292.455 513.401 292.122 513.364 291.806C513.29 290.819 513.2 289.834 513.095 288.85V288.83C509.692 288.98 506.437 286.396 504.181 279.461C496.512 255.908 510.551 251.615 510.551 251.615C510.551 251.615 517.705 250.053 523.136 253.139C523.099 253.101 523.062 253.045 523.021 253.008C523.021 253.008 541.214 249.625 541.252 272.862C541.345 277.807 541.423 282.976 541.46 288.031C541.595 285.354 541.823 276.711 559.079 278.272C559.516 278.308 559.957 278.383 560.398 278.477L560.875 278.588C562.003 278.868 563.094 279.312 564.088 279.926C564.088 279.796 564.107 279.684 564.107 279.555C568.336 278.123 572.946 276.636 575.374 276.078C579.314 275.185 582.203 273.866 584.056 272.583C580.23 271.002 574.417 270.239 571.891 269.72C571.566 269.645 571.26 269.551 570.935 269.497C570.935 269.497 570.512 268.717 570.113 267.358C568.506 267.954 567.625 268.38 566.84 268.752C567.755 265.956 568.654 263.155 569.538 260.35C570.481 262.413 571.381 264.495 572.236 266.594C572.034 266.669 571.83 266.737 571.624 266.8L583.656 266.856C583.656 266.856 583.14 263.398 581.953 258.639C581.131 256.724 580.384 255.143 579.925 254.344C578.3 251.538 576.425 245.403 574.13 240.029C573.897 239.504 573.615 239.001 573.289 238.524C573.001 237.819 572.621 237.242 572.082 236.851C570.475 235.644 567.643 234.769 564.834 234.118C562.021 233.486 559.207 233.058 557.662 232.742C557.411 232.667 557.165 232.631 556.914 232.557C556.84 232.538 556.76 232.518 556.705 232.501C556.705 232.501 556.148 231.497 555.73 229.787C556.092 229.787 556.454 229.787 556.798 229.805H556.817C559.115 221.85 562.099 210.491 562.652 206.922C562.481 206.534 562.289 206.156 562.078 205.787C561.947 205.974 561.869 206.085 561.85 206.178C561.85 206.086 561.947 205.975 562.078 205.787C560.605 202.87 558.846 200.229 556.799 198.24C556.417 199.188 556.074 199.875 555.749 199.486C555.308 198.947 554.198 196.957 553.127 195.601C552.428 195.252 551.689 194.983 550.926 194.8C550.907 195.712 552.286 197.534 552.536 198.296C552.764 199.021 553.664 201.288 554.812 202.589C555.308 203.164 555.04 204.058 554.58 204.895C553.205 204.746 552.211 204.634 552.211 204.634C552.211 204.634 546.72 224.954 545.666 227.203C544.904 228.876 544.176 230.475 543.451 232.018C543.623 231.962 543.814 231.906 543.985 231.851V231.887C544.004 232.167 544.022 232.465 544.06 232.761C543.353 233.058 542.932 233.321 542.797 233.43C539.779 239.881 537.156 245.273 534.881 249.771C529.756 247.632 520.248 244.826 513.976 243.059V242.929C513.976 242.929 512.291 241.961 513.325 235.271C514.853 233.17 516.288 229.935 517.128 224.971C517.128 224.99 517.151 225.007 517.151 225.007C517.476 225.305 517.704 224.748 517.704 224.748C517.801 224.526 519.886 218.186 519.389 216.791C519.157 216.159 518.758 216.103 518.41 216.234C518.622 214.708 518.832 213.148 518.929 212.051C518.986 211.438 519.004 210.955 518.986 210.695C518.777 208.613 519.482 198.89 501.293 200.6C500.444 200.671 499.609 200.846 498.805 201.121C497.63 201.491 496.531 202.057 495.556 202.795C493.699 204.226 491.767 206.438 491.962 209.468C492.073 211.605 492.515 214.449 492.877 216.624C492.478 216.421 491.962 216.347 491.693 217.107C491.215 218.501 493.396 224.525 493.568 225.028C493.568 225.028 493.777 225.53 494.065 225.306C494.924 230.364 496.531 233.597 498.308 235.661V235.68C498.462 237.335 498.522 239.901 497.812 242.131L485.992 242.038C487.082 243.321 487.885 244.958 487.77 246.947C487.636 249.103 487.217 251.947 486.851 254.122C487.273 253.899 487.788 253.806 488.058 254.586C488.518 255.98 486.373 262.004 486.202 262.505C486.202 262.505 485.993 262.969 485.705 262.785C484.864 267.861 483.258 271.115 481.48 273.177C481.344 274.909 481.307 277.64 482.129 279.946Z" fill="#1B4798"/>
<path d="M481.744 336.18C482.012 337.592 482.222 338.838 482.398 339.767C482.472 338.689 482.548 337.611 482.645 336.458C482.129 336.309 481.823 336.199 481.744 336.18ZM377.174 223.209C377.768 225.235 378.019 227.225 378.131 228.75C378.246 228.694 378.362 228.619 378.497 228.563C378.929 228.171 379.478 227.924 380.065 227.857C380.084 227.857 380.102 227.838 380.122 227.838C379.816 226.258 378.859 224.604 377.174 223.209Z" fill="#1B4798"/>
<path opacity="0.5" d="M436.316 226.444C437.198 232.56 438.92 244.105 439.454 245.832C445.824 265.855 450.109 277.491 453.512 284.313L455.119 283.812L456.726 283.309L458.908 282.639C459.79 282.38 460.667 282.12 461.508 281.858C462.39 281.617 463.23 281.358 464.052 281.134C464.683 280.949 465.277 280.781 465.853 280.613V280.464C465.853 280.464 467.534 279.498 466.484 272.825C464.934 270.724 463.5 267.489 462.641 262.525L462.618 262.561C462.293 262.859 462.065 262.32 462.065 262.32C461.968 262.078 459.864 255.757 460.362 254.364C460.594 253.731 460.974 253.675 461.338 253.806C461.244 253.174 461.147 252.561 461.072 251.947C460.953 251.126 460.857 250.301 460.784 249.475C460.764 249.302 460.751 249.129 460.747 248.956C460.727 248.727 460.727 248.496 460.747 248.268C460.919 246.314 460.307 237.727 475.033 237.931C474.536 236.016 473.771 234.046 472.508 232.372C470.099 229.157 466.102 227.614 465.089 227.261C465.011 227.217 464.926 227.185 464.838 227.169C463.825 226.983 461.587 226.164 459.656 225.459C459.656 225.459 459.619 225.44 459.54 225.384C459.164 225.142 458.768 224.931 458.356 224.752L458.412 223.861C458.49 222.893 458.584 221.963 458.662 221.127V221.109C461.837 221.258 464.837 218.822 466.903 212.39C467.803 209.621 468.379 207.131 468.682 204.917C469.028 202.426 469.067 200.288 468.876 198.411C471.342 193.429 462.065 180.1 448.639 187.275C447.836 187.703 447.108 188.186 446.476 188.687C439.535 194.171 442.153 203.58 444.448 208.914C440.798 210.437 438.232 213.858 438.232 217.855C438.254 220.829 439.667 223.488 441.904 225.272C440.027 225.598 438.164 225.989 436.316 226.444Z" fill="#1B4798"/>
<path opacity="0.8" d="M574.874 323.939C575.009 323.903 575.584 323.847 576.522 323.772C576.425 323.733 576.328 323.716 576.253 323.68C576.168 323.663 576.084 323.638 576.004 323.605C574.566 323.129 573.119 322.682 571.662 322.265C571.588 322.247 571.508 322.229 571.453 322.21C570.571 321.969 569.768 321.746 568.964 321.541C567.436 321.132 565.899 320.753 564.354 320.406C564.108 320.351 563.894 320.295 563.704 320.259C563.226 320.147 562.919 320.09 562.825 320.073C561.98 317.767 562.022 315.034 562.175 313.288C563.953 311.224 565.541 307.971 566.381 302.896C566.669 303.082 566.897 302.636 566.897 302.636C567.05 302.114 569.213 296.112 568.735 294.717C568.466 293.936 567.95 294.01 567.547 294.234C567.701 293.284 567.872 292.206 568.025 291.109C568.085 290.757 568.122 290.403 568.159 290.05C568.196 289.753 568.237 289.454 568.276 289.157C568.35 288.413 568.41 287.726 568.447 287.075C568.619 284.027 566.688 281.814 564.83 280.402C564.584 280.216 564.334 280.048 564.088 279.881C563.095 279.272 562.009 278.821 560.87 278.543C560.722 278.504 560.545 278.468 560.393 278.432C559.958 278.335 559.518 278.266 559.074 278.227C541.822 276.665 541.594 285.308 541.459 287.986C541.417 282.929 541.346 277.873 541.247 272.816C541.21 249.58 523.02 252.963 523.02 252.963C523.057 252.999 523.094 253.055 523.135 253.092C520.745 251.719 517.987 251.272 515.694 251.197L526.961 234.707L481.343 205.261L464.797 229.485L478.07 238.053C477.06 237.952 476.045 237.902 475.03 237.904C460.303 237.701 460.912 246.29 460.74 248.241C460.72 248.47 460.72 248.7 460.74 248.929C460.74 249.078 460.759 249.262 460.781 249.448C460.837 250.117 460.93 250.991 461.065 251.92C461.143 252.534 461.237 253.147 461.334 253.779C460.972 253.651 460.586 253.705 460.358 254.337C459.862 255.732 461.965 262.053 462.061 262.294C462.061 262.294 462.289 262.833 462.614 262.536L462.634 262.5C463.496 267.463 464.932 270.698 466.477 272.799C467.531 279.472 465.846 280.438 465.846 280.438V280.587C465.275 280.756 464.681 280.923 464.05 281.109C463.228 281.331 462.388 281.591 461.506 281.833C460.664 282.094 459.784 282.354 458.905 282.615L456.724 283.284C456.19 283.451 455.652 283.617 455.117 283.786L453.51 284.288C450.107 277.465 445.822 265.829 439.452 245.807C438.914 244.078 437.196 232.535 436.314 226.419C435.952 224.151 435.761 222.626 435.761 222.626H433.328C433.003 221.735 432.832 220.805 433.406 220.302C434.688 219.149 435.853 216.993 436.178 216.304C436.638 215.374 439.085 212.921 437.882 212.457C436.675 211.993 433.654 216.304 432.832 217.105C432.125 217.812 431.759 214.26 431.15 212.809C431.15 212.809 431.131 212.791 431.131 212.773C430.691 211.248 428.412 203.237 427.724 202.809C426.959 202.345 426.406 202.549 426.616 203.478C426.713 203.85 427.112 205.504 427.572 207.327C428.012 209.147 428.491 211.137 428.76 212.196C428.7 212.216 428.644 212.216 428.588 212.216C427.4 209.78 423.594 201.991 423.152 201.544C422.85 201.228 421.74 201.563 421.814 202.083C421.852 202.491 424.972 210.152 426.062 212.808L425.984 212.828C424.782 210.336 421.374 203.494 420.896 203.236C420.38 202.974 419.443 203.513 419.768 204.295C420 204.928 422.698 211.471 423.709 213.905C423.672 213.924 423.631 213.943 423.594 213.979C422.484 212.103 419.846 207.678 419.309 207.678C418.89 207.697 417.934 207.937 419.062 209.742C420.172 211.563 422.33 216.136 422.33 216.136H422.35C422.33 216.192 422.35 216.228 422.372 216.285C422.926 219.037 425.107 221.546 425.795 222.606H425.201C425.029 222.606 425.047 223.721 425.201 225.543C425.279 226.453 425.413 227.551 425.526 228.776C422.526 228.09 418.966 228.424 415.046 230.524C405.442 235.654 408.371 246.363 410.874 252.182C407.202 253.687 404.639 257.107 404.639 261.105C404.639 264.079 406.073 266.718 408.311 268.502C404.563 269.191 399.206 270.251 396.74 272.11C396.203 272.518 395.803 273.095 395.534 273.783C395.057 273.281 394.675 272.926 394.313 272.759C389.396 270.603 379.336 267.648 372.794 265.808V265.659C372.794 265.659 371.09 264.71 372.122 258.018C373.654 255.917 375.089 252.682 375.929 247.701C375.947 247.719 375.947 247.757 375.947 247.757C376.272 248.053 376.504 247.496 376.504 247.496C376.597 247.273 378.682 240.933 378.185 239.539C377.822 238.555 377.098 238.982 376.694 239.298C376.675 239.056 376.675 238.704 376.638 238.294C376.829 235.97 377.172 233.795 377.785 233.443C379.754 232.291 380.617 230.116 380.098 227.829C380.078 227.829 380.078 227.847 380.06 227.847C379.448 227.922 378.913 228.165 378.492 228.555C378.338 228.61 378.245 228.684 378.13 228.741C378.013 227.215 377.767 225.228 377.154 223.2C374.248 220.728 369.14 219.018 361.508 219.743C359.442 219.928 356.017 224.277 354.354 225.543C352.498 226.974 350.585 229.186 350.756 232.216C350.891 234.373 351.313 237.216 351.694 239.392C351.275 239.17 350.756 239.075 350.509 239.856C350.03 241.25 352.208 247.273 352.362 247.775C352.362 247.775 352.594 248.241 352.859 248.036C353.741 253.111 355.346 256.365 357.125 258.427C357.278 260.158 357.316 262.889 356.494 265.195C356.188 265.269 342.338 268.169 334.46 272.443C331.763 273.894 329.758 275.512 329.238 277.24C328.626 279.23 327.882 281.61 327 284.435H326.981C324.049 293.864 321.351 303.36 318.889 312.915C318.605 314.048 313.67 314.048 308.123 313.695C305.425 313.509 302.575 313.231 300.031 312.969H299.957C295.594 312.505 292.208 312.039 292.208 312.039L291.865 313.695C291.822 313.873 291.79 314.053 291.768 314.234C291.734 314.343 291.709 314.455 291.694 314.568C291.08 317.765 290.046 322.933 290.009 323.175C290.009 323.511 294.312 323.919 300.013 324.31C310.552 324.998 326.045 325.573 327.67 325.165C328.57 324.942 329.582 323.398 330.617 321.167C331.42 319.457 332.261 317.338 333.046 315.125C333.107 314.974 333.158 314.819 333.199 314.661C335.552 307.877 337.484 300.346 337.484 300.346C337.484 300.346 338.116 306.89 338.784 314.848C468.2 319.271 569.384 346.003 578.911 379.112C578.93 379.131 578.948 379.168 578.968 379.186C578.815 354.537 577.915 327.973 574.874 323.939ZM482.125 279.919C481.303 277.613 481.344 274.882 481.475 273.151C483.257 271.089 484.864 267.835 485.704 262.741C485.992 262.926 486.2 262.461 486.2 262.461C486.372 261.978 488.516 255.937 488.057 254.542C487.788 253.761 487.272 253.854 486.85 254.077C487.212 251.902 487.634 249.057 487.769 246.921C487.825 245.902 487.641 244.884 487.231 243.945L505.253 255.584C503.471 257.851 501.943 261.328 501.883 266.533L491.191 282.185C486.298 280.793 482.3 279.937 482.125 279.919ZM512.041 293.471V293.49C511.41 293.713 510.779 293.954 510.148 294.178C509.894 293.407 509.652 292.633 509.423 291.855C508.313 288.286 500.797 285.161 493.926 283.006L502.171 270.959C502.514 273.45 503.147 276.256 504.181 279.416C506.437 286.351 509.688 288.934 513.095 288.786V288.805C513.199 289.789 513.287 290.775 513.36 291.763C513.401 292.079 513.42 292.412 513.438 292.728C512.501 293.117 512.041 293.471 512.041 293.471ZM541.48 293.935C541.48 292.467 541.48 290.98 541.46 289.491C541.554 290.607 541.786 292.279 542.014 293.935C541.842 293.861 541.651 293.841 541.48 293.935Z" fill="#1B4798"/>
<path d="M102.772 336.597C102.752 336.728 102.734 336.877 102.734 337.008C102.546 336.944 102.366 336.856 102.2 336.747C102.39 336.692 102.581 336.653 102.772 336.597ZM199.578 319.923C199.96 319.867 200.344 319.831 200.725 319.794H200.743C200.743 319.83 200.743 319.886 200.725 319.923" fill="#1B4798"/>
<path opacity="0.9" d="M117.404 337.044C117.655 336.969 117.901 336.915 118.152 336.841L117.404 337.044ZM333.047 315.126C332.262 317.34 331.422 319.458 330.618 321.168C329.584 323.399 328.571 324.942 327.671 325.166C326.046 325.574 310.553 324.999 300.014 324.311C289.476 324.999 273.983 325.592 272.336 325.184C271.458 324.96 270.424 323.417 269.393 321.189C268.608 319.515 267.786 317.451 267.02 315.276C275.241 314.898 283.467 314.663 291.696 314.57C295.025 314.514 298.372 314.495 301.72 314.495C303.917 314.495 306.116 314.495 308.298 314.551C316.636 314.588 324.9 314.793 333.047 315.126ZM481.763 336.153C481.842 336.172 482.148 336.282 482.663 336.413C482.566 337.565 482.491 338.644 482.413 339.74C482.24 338.811 482.032 337.565 481.763 336.153Z" fill="#1B4798"/>
<path d="M559.172 357.439C555.557 356.712 552.172 355.652 550.278 354.13C550.071 353.987 549.885 353.818 549.725 353.627C549.934 353.702 550.124 353.777 550.315 353.85C553.288 354.999 556.24 356.196 559.172 357.439Z" fill="#1B4798"/>
<path d="M291.161 82.8833H291.131V82.7259L291.161 82.8833ZM300.288 83.0396L300.113 83.3988L299.933 83.0396V82.7259H300.287V83.0396H300.288ZM302.473 88.1899L300.272 90.309C300.272 90.309 299.431 88.927 298.158 87.3572L300.112 83.4L302.473 88.1899ZM392.417 141.599V141.677C392.272 142.699 392.014 143.703 391.625 144.537C391.607 144.591 391.584 144.643 391.558 144.693C391.042 145.763 390.283 146.514 389.233 146.594C389.17 146.61 389.106 146.61 389.039 146.61C385.598 146.594 382.075 144.647 380.641 144.13C380.365 144.036 380.171 143.99 380.058 144.003C379.33 144.146 374.664 143.108 374.664 143.108L375.822 134.537C375.822 134.537 377.376 135.227 378.912 135.494C380.074 135.699 381.221 135.666 381.707 134.913C382.805 133.155 385.147 131.35 385.921 130.816C386.941 130.094 389.347 126.749 390.187 128.02C391.027 129.279 386.474 133.705 385.697 134.821C385.018 135.794 389.395 135.417 391.271 135.794C391.285 135.794 391.319 135.808 391.349 135.808C391.591 135.854 391.801 135.918 391.932 136.013C392.238 136.216 392.466 137.144 392.545 138.384C392.545 138.447 392.564 138.509 392.564 138.587C392.608 139.496 392.578 140.565 392.417 141.599Z" fill="#F1B99E"/>
<path d="M390.99 135.777C390.99 135.777 403.39 136.672 404.136 137.434C404.88 138.201 404.764 138.88 403.595 138.849C402.43 138.811 391.57 138.334 391.57 138.334C391.57 138.334 405.956 141.905 406.708 142.388C407.148 142.672 406.992 144.002 406.364 144.041C405.733 144.081 391.235 141.382 391.235 141.382C391.235 141.382 404.662 144.741 405.162 145.338C405.599 145.863 405.158 147.067 404.138 146.881C403.122 146.711 390.45 144.318 390.45 144.318C390.45 144.318 400.044 147.387 400.159 148.164C400.23 148.638 400.144 149.789 397.7 148.915C395.254 148.042 389.239 146.61 389.239 146.61L390.99 135.777Z" fill="#F1B99E"/>
<path d="M380.641 144.128C380.365 144.033 380.171 143.988 380.058 144.001C379.33 144.144 374.664 143.106 374.664 143.106L375.822 134.535C375.822 134.535 377.376 135.224 378.912 135.491C378.587 133.907 378.362 132.761 378.362 132.761C378.362 132.761 350.236 136.623 349.496 133.75C344.554 114.627 340.516 102.523 338.237 95.1584C335.972 87.8108 308.738 82.1743 308.738 82.1743C308.85 82.474 308.963 82.7574 309.094 83.0385C309.094 83.0385 309.852 86.7111 308.044 89.5847L300.258 137.893C301.114 137.548 301.001 139.495 300.083 140.124C300.871 140.407 301.988 140.877 302.182 141.317C302.567 142.243 302.454 143.043 302.051 143.624C302.051 143.624 302.746 145.476 302.275 146.717C302.275 146.717 302.954 148.396 301.939 149.792C301.939 149.792 302.436 151.584 301.58 152.307C301.58 152.307 300.37 152.903 299.708 152.933C299.708 152.933 298.498 152.855 297.624 152.855C297.352 152.869 297.124 152.869 296.963 152.888C296.332 152.982 294.942 153.358 293.347 153.138C291.744 152.933 286.171 151.615 286.171 151.615L286.205 151.114C286.9 151.018 287.288 150.956 287.288 150.956C291.017 145.242 291.181 141.694 291.148 140.783C293.184 139.81 295.316 138.898 296.027 138.914C296.172 138.914 296.318 138.93 296.446 138.947C296.498 138.947 296.546 138.962 296.596 138.976C297.19 138.803 299.502 138.176 300.26 137.893C300.26 137.893 293.394 97.4046 291.571 85.8795C291.322 84.8973 291.176 83.8931 291.134 82.8822C284.059 84.8753 273.187 88.0919 267.841 90.4489C262.092 92.9926 244.451 147.077 245.774 149.23C248.599 153.861 262.672 153.611 273.655 152.636C273.125 163.546 272.168 173.281 270.602 175.998C265.271 185.245 296.48 186.28 296.48 186.28C316.075 187.268 326.172 183.517 326.172 183.517C326.172 183.517 325.75 171.303 325.75 165.275C325.75 159.247 329.37 120.185 329.37 120.185C329.37 120.185 336.058 146.026 340.032 147.015C342.778 147.691 380.951 145.806 380.771 144.788C380.754 144.74 380.72 144.504 380.641 144.128ZM274.074 141.488C269.404 141.521 265.478 141.254 265.074 140.281C264.01 137.738 273.346 114.737 273.961 115.036C274.249 115.177 274.414 127.737 274.074 141.488Z" fill="#0B4870"/>
<path d="M301.939 149.795C301.939 149.795 302.436 151.586 301.58 152.309C301.58 152.309 300.37 152.905 299.708 152.935C299.708 152.935 298.498 152.857 297.624 152.857C297.352 152.871 297.124 152.871 296.963 152.89C296.332 152.984 294.942 153.36 293.347 153.141C291.744 152.935 286.171 151.618 286.171 151.618L286.205 151.116C286.9 151.02 287.288 150.959 287.288 150.959C291.017 145.244 291.181 141.696 291.148 140.785C293.184 139.813 295.316 138.901 296.027 138.917C296.172 138.917 296.318 138.932 296.446 138.949C296.498 138.949 296.546 138.965 296.596 138.979C297.19 138.805 299.502 138.179 300.26 137.895C301.116 137.55 301.003 139.498 300.085 140.126C300.874 140.41 301.991 140.88 302.184 141.319C302.569 142.245 302.456 143.045 302.053 143.626C302.053 143.626 302.748 145.478 302.278 146.719C302.275 146.719 302.956 148.399 301.939 149.795ZM291.131 82.8834C291.131 83.0536 291.292 84.1394 291.568 85.8807C291.32 84.8982 291.173 83.8941 291.131 82.8834ZM308.044 89.5859L309.094 83.0396C309.094 83.0396 309.852 86.7122 308.044 89.5859Z" fill="#0E538C"/>
<path d="M380.641 144.128C380.365 144.033 380.171 143.988 380.058 144.001C379.33 144.144 374.664 143.106 374.664 143.106L375.822 134.535C375.822 134.535 377.376 135.224 378.912 135.491C379.476 138.305 380.316 142.51 380.641 144.128Z" fill="#0B4870"/>
<path d="M309.03 82.8834C308.885 82.8834 308.544 82.8671 308.029 82.8507C306.445 82.8041 303.36 82.7259 300.288 82.7259H299.934C297.042 82.7259 294.121 82.8041 292.474 82.8507C292.041 82.7528 291.589 82.7641 291.162 82.8834L291.132 82.7259C291.132 82.7259 292.94 81.6891 291.841 74.4839C291.76 74.0279 291.68 73.5415 291.583 73.0389C289.985 64.5298 308.286 72.9771 308.286 72.9771C308.286 72.9771 308.141 73.7142 308.062 74.8594C307.897 76.7278 307.853 79.6808 308.738 82.1755C308.836 82.4274 308.917 82.6478 309.03 82.8834Z" fill="#F1B99E"/>
<path d="M292.472 82.8507C291.758 82.867 291.292 82.8833 291.161 82.8833C291.588 82.764 292.039 82.7528 292.472 82.8507ZM300.288 83.0396L300.113 83.3988L299.933 83.0396V82.7259H300.287V83.0396H300.288ZM303.908 91.0927L308.063 89.4623L308.045 89.5859L300.259 137.894L300.128 137.108L300.031 136.529L299.807 135.195L299.515 133.453L298.966 130.171L298.61 128.038L298.435 126.968L298.256 125.901C296.189 113.755 294.153 101.604 292.148 89.4483L292.085 89.0856L291.812 87.3595C291.715 86.8253 291.648 86.339 291.57 85.883C291.358 84.5488 291.211 83.6088 291.163 83.1527L291.149 82.9953L291.134 82.8868H291.164L292.248 89.4973L296.32 91.0962L298.162 87.3595L300.115 83.4023L302.476 88.1934L303.908 91.0927ZM309.094 83.0396L308.597 86.1162L309.079 82.9918C309.078 83.007 309.094 83.0256 309.094 83.0396Z" fill="#CCE9FF"/>
<path d="M302.197 38.4006C302.197 38.4006 315.023 40.4159 313.073 60.3837C311.116 80.3572 299.8 78.7209 299.041 78.7034C298.283 78.6766 287.677 79.0615 286.855 54.6806C286.855 54.6806 286.492 36.6512 302.197 38.4006Z" fill="#F1B99E"/>
<path d="M313.266 54.7448C313.266 54.7448 314.675 53.2485 315.19 54.7669C315.702 56.2738 313.36 62.7839 313.183 63.3355C313.183 63.3355 312.925 63.914 312.589 63.5968C312.253 63.2714 313.266 54.7448 313.266 54.7448ZM287.164 54.487C287.164 54.487 285.785 52.9709 285.24 54.473C284.699 55.9764 286.966 62.8235 287.075 63.0766C287.075 63.0766 287.321 63.6714 287.672 63.3507C288.008 63.0346 287.164 54.487 287.164 54.487Z" fill="#F1B99E"/>
<path d="M313.259 57.8109L311.429 60.2495C311.429 60.2495 311.482 54.894 311.183 54.0566C310.891 53.2158 311.534 50.2884 311.287 49.6855C311.04 49.0848 304.069 56.1594 290.09 54.7762L289.175 55.1156C288.266 55.4573 288.712 61.3902 288.712 61.3902L287.202 59.6932C287.202 59.6932 285.494 49.5653 285.662 47.8707C285.883 45.6198 285.098 35.1106 304.771 36.9183C307.033 37.1141 309.189 37.9375 310.984 39.2905C313.004 40.8241 315.085 43.2173 314.892 46.5027C314.645 50.8471 313.259 57.8109 313.259 57.8109Z" fill="#0B4870"/>
<path d="M293.197 76.0537C293.197 76.0537 298.487 82.0577 306.889 76.0537C306.889 76.0537 304.536 80.6045 299.593 80.7153C294.654 80.8214 293.197 76.0537 293.197 76.0537Z" fill="#A77860"/>
<path d="M353.531 183.835L344.695 332.589L344.228 339.261H261.846L261.376 332.653V332.634L250.926 183.835H353.531Z" fill="#CCD4E6"/>
<path d="M235.595 355.746H371.287L345.846 332.589H261.439L235.595 355.746ZM368.862 151.648L359.978 183.835H244.478L235.595 151.648H368.862Z" fill="#F2F2F2"/>
<path d="M300.258 137.894L300.194 146.608L296.026 138.916L289.985 124.723L293.197 123.403L280.226 86.1022L291.131 82.7259L291.161 82.8833L292.244 89.4938L298.435 126.967L298.61 128.037L298.966 130.17L299.514 133.452L299.806 135.195L300.03 136.529L300.127 137.108L300.258 137.894ZM309.407 82.7259L320.3 86.0952L307.337 123.409L310.558 124.717L304.51 138.916L300.343 146.608L300.276 137.894L309.407 82.7259Z" fill="#0E538C"/>
<path d="M300.083 140.125C300.064 140.139 300.049 140.139 300.03 140.155C299.077 140.751 296.443 139.008 296.443 139.008C296.443 139.008 296.496 138.993 296.593 138.976C297.187 138.803 299.5 138.176 300.258 137.893C301.114 137.549 301.001 139.496 300.083 140.125Z" fill="#F1B99E"/>
<path d="M301.939 149.795C301.939 149.795 302.231 150.831 301.987 151.648H286.315C286.266 151.64 286.218 151.63 286.17 151.618L286.204 151.116C286.898 151.02 287.287 150.959 287.287 150.959C291.016 145.244 291.18 141.696 291.146 140.785C293.183 139.813 295.315 138.901 296.026 138.917C296.171 138.917 296.317 138.932 296.444 138.949C296.497 138.949 296.545 138.965 296.594 138.979C297.786 139.135 298.645 139.716 299.273 139.874C299.352 139.891 299.676 139.983 300.084 140.126C300.872 140.41 301.99 140.88 302.183 141.319C302.568 142.245 302.455 143.045 302.052 143.626C302.052 143.626 302.747 145.478 302.276 146.719C302.275 146.719 302.956 148.399 301.939 149.795Z" fill="#F1B99E"/>
<path d="M297.788 89.4425L296.683 116.607L300.184 137.447L303.912 116.507L302.365 89.4425L299.1 89.5241L297.788 89.4425Z" fill="#1B4798"/>
<path d="M296.321 86.3694H303.55V92.5168H296.321V86.3694Z" fill="#1B4798"/>
<path d="M300.113 83.3988L298.159 87.356L296.317 91.0927L292.246 89.4938L291.162 82.8833C291.293 82.8833 291.76 82.867 292.474 82.8507C294.121 82.804 297.042 82.7259 299.934 82.7259V83.0396L300.113 83.3988ZM291.162 82.8833L292.246 89.4938L292.147 89.4459L292.084 89.0832L291.811 87.3572L291.161 83.1504L291.146 82.993L291.132 82.8845C291.131 82.8833 291.148 82.8833 291.162 82.8833Z" fill="#F2F2F2"/>
<path d="M300.288 82.7259V83.0396L300.113 83.3988L299.933 83.0396V82.7259H300.288Z" fill="#F2F2F2"/>
<path d="M309.078 82.993L308.596 86.1174L308.062 89.4634L303.907 91.0939L302.473 88.191L300.113 83.4L300.288 83.0408V82.7271C303.359 82.7271 306.444 82.8052 308.029 82.8518C308.545 82.8682 308.885 82.8845 309.03 82.8845C309.044 82.9148 309.064 82.9638 309.078 82.993Z" fill="#F2F2F2"/>
<path d="M300.272 82.7259H300.287V83.0396L300.112 83.3988L299.932 83.0396V82.7259H300.272ZM308.062 89.4623L308.596 86.1174L308.092 89.4459L308.062 89.4623ZM309.094 82.8833L309.079 82.9918C309.065 82.9626 309.046 82.9137 309.031 82.8833H309.094Z" fill="#F2F2F2"/>
<path d="M264.236 146.678H278.503V151.647H264.236V146.678Z" fill="#1B4798"/>
<path d="M269.699 147.217L279.095 116.597L280.953 117.135L271.557 147.756L269.699 147.217Z" fill="#1B4798"/>
<path d="M283.798 119.498C283.605 120.015 283.31 120.49 282.929 120.895C282.547 121.301 282.088 121.63 281.576 121.863C281.064 122.096 280.509 122.229 279.945 122.253C279.38 122.278 278.816 122.195 278.284 122.008C277.753 121.821 277.264 121.534 276.847 121.163C276.429 120.793 276.091 120.346 275.851 119.848C275.612 119.351 275.475 118.812 275.45 118.263C275.424 117.714 275.51 117.166 275.702 116.649L276.8 113.697C277.19 112.653 277.989 111.802 279.024 111.33C280.058 110.859 281.243 110.806 282.318 111.183C283.392 111.562 284.267 112.339 284.751 113.345C285.235 114.35 285.288 115.502 284.899 116.545L283.798 119.498ZM330.607 146.678H344.874V151.647H330.607V146.678Z" fill="#1B4798"/>
<path d="M328.149 117.155L330.007 116.615L339.42 147.231L337.562 147.771L328.149 117.155Z" fill="#1B4798"/>
<path d="M325.31 119.498C325.498 120.021 325.791 120.502 326.172 120.914C326.552 121.326 327.013 121.661 327.527 121.898C328.042 122.136 328.6 122.272 329.169 122.299C329.738 122.325 330.306 122.242 330.842 122.054C331.378 121.865 331.87 121.575 332.289 121.201C332.709 120.827 333.048 120.375 333.286 119.872C333.525 119.37 333.659 118.826 333.68 118.273C333.701 117.719 333.609 117.168 333.409 116.649L332.311 113.697C331.923 112.654 331.123 111.803 330.089 111.332C329.055 110.861 327.871 110.808 326.797 111.186C325.723 111.564 324.847 112.34 324.362 113.346C323.878 114.351 323.824 115.502 324.212 116.545L325.31 119.498Z" fill="#1B4798"/>
<path d="M245.495 213.34H359.441V242.603H245.495V213.34Z" fill="#F2F2F2"/>
<path d="M21.4056 374.149C21.0804 374.057 20.928 374 20.928 374C20.928 374 21.1368 367.809 21.2712 362.326C21.2712 363.944 21.2904 365.485 21.3084 366.954V367.16C21.2148 369.966 21.1368 372.03 21.1368 372.03C21.1368 372.03 21.2148 372.066 21.3684 372.105C21.3684 372.83 21.3864 373.499 21.4056 374.149ZM21.48 379.374C21.5028 380.786 21.5208 381.549 21.5208 381.549L21.3864 381.194C21.4236 380.601 21.4428 380.006 21.48 379.374ZM578.893 369.129C578.987 371.938 579.065 374 579.065 374C579.065 374 578.987 374.038 578.833 374.074L578.893 369.129ZM579.006 348.85C579.043 348.738 579.103 348.645 579.14 348.534C579.088 349.178 579.043 349.823 579.006 350.468V348.85Z" fill="#1B4798"/>
</svg>
