<svg width="394" height="554" viewBox="0 0 394 554" fill="none" xmlns="http://www.w3.org/2000/svg">
<g clip-path="url(#clip0_175_3089)">
<path opacity="0.18" d="M112.324 132.138C91.6546 153.693 84.7835 185.002 67.2376 209.166C46.727 237.429 11.2436 256.833 3.84109 290.973C-4.26994 328.57 26.0578 363.036 56.6467 386.325C71.377 397.55 87.1982 408.374 96.7822 424.21C102.777 434.122 105.965 445.43 110.767 455.975C126.001 489.631 159.666 515.314 196.594 517.186C233.523 519.059 271.281 494.69 281.285 459.133C286.17 441.751 284.949 422.3 294.412 406.967C306.793 386.856 332.794 380.652 351.599 366.353C387.567 339.022 389.553 277.68 355.431 248.048C325.513 222.096 275.467 218.696 258.648 182.841C254.089 173.125 252.794 162.198 248.803 152.24C228.041 100.456 147.956 94.9698 112.324 132.138Z" fill="#606ED4"/>
<path d="M177.38 264.527C188.455 264.527 197.434 255.556 197.434 244.489C197.434 233.423 188.455 224.452 177.38 224.452C166.304 224.452 157.326 233.423 157.326 244.489C157.326 255.556 166.304 264.527 177.38 264.527Z" fill="#3F3D56"/>
<path d="M245.289 396.096C245.289 396.096 244.16 421.248 242.538 426.119C240.916 430.991 242.846 433.227 237.756 434.503C232.665 435.779 234.455 408.364 234.455 408.364L236.171 397.857L245.289 396.096Z" fill="url(#paint0_linear_175_3089)"/>
<path d="M192.063 403.409L203.838 472.277H213.907L216.425 432.603L218.746 482.412H229.794C229.794 482.412 239.294 427.852 237.541 417.81C237.06 414.5 236.017 411.296 234.455 408.336L192.063 403.409Z" fill="#25233A"/>
<path d="M199.009 296.041C198.599 290.722 198.888 285.067 201.75 280.568C202.916 278.759 204.448 277.213 206.248 276.033C208.048 274.852 210.076 274.061 212.201 273.712C218.326 272.78 224.321 275.575 229.915 278.276C238.119 282.3 246.379 286.362 253.595 291.942C260.811 297.522 267.011 304.834 269.743 313.544C270.971 317.785 271.626 322.171 271.691 326.585C271.914 330.703 271.629 334.833 270.843 338.882C269.424 345.083 266.348 350.784 261.943 355.377C257.538 359.97 251.969 363.283 245.829 364.965C231.845 368.598 215.912 363.465 203.26 370.405C202.432 370.98 201.468 371.333 200.463 371.429C199.781 371.364 199.134 371.095 198.605 370.659C198.077 370.222 197.691 369.637 197.499 368.979C197.14 367.656 197.14 366.26 197.499 364.937C198.384 360.824 200.455 357.061 203.456 354.112C207.316 350.34 212.462 348.16 216.676 344.797C217.393 344.32 217.941 343.629 218.242 342.822C218.746 340.959 216.807 339.422 215.026 338.733C213.245 338.043 211.12 337.428 210.411 335.668C209.833 334.243 210.411 332.659 210.812 331.169C212.425 324.648 208.947 320.27 205.358 315.435C201.191 309.846 199.531 302.859 199.009 296.041Z" fill="#3F3D56"/>
<path d="M230.055 297.969C230.055 297.969 236.338 308.467 243.564 315.416C250.789 322.366 263.096 334.857 255.255 344.34C250.545 350.034 244.546 354.526 237.756 357.447L221.841 341.471V315.388L230.055 297.969Z" fill="#25233A"/>
<path d="M174.9 288.644L190.078 287.517C190.078 287.517 185.817 316.953 206.533 326.511C227.249 336.068 239.993 338.062 241.401 345.44C242.809 352.817 248.291 395.398 248.291 395.398L237.858 397.829L237.541 364.899L237.942 406.436C237.942 406.436 215.343 419.105 208.836 416.609C202.328 414.112 188.67 412.035 188.996 390.87C189.323 369.706 199.252 354.727 188.474 338.621C177.697 322.515 174.62 296.273 174.9 288.644Z" fill="#606ED4"/>
<path d="M174.9 288.644L190.078 287.517C190.078 287.517 185.817 316.953 206.533 326.511C227.249 336.068 239.993 338.062 241.401 345.44C242.809 352.817 248.291 395.398 248.291 395.398L237.858 397.829L237.541 364.899L237.942 406.436C237.942 406.436 215.343 419.105 208.836 416.609C202.328 414.112 188.67 412.035 188.996 390.87C189.323 369.706 199.252 354.727 188.474 338.621C177.697 322.515 174.62 296.273 174.9 288.644Z" fill="url(#paint1_linear_175_3089)"/>
<path d="M211.036 328.569C211.036 328.569 211.614 337.326 217.245 337.112C222.876 336.897 222.885 334.084 222.885 334.084L226.465 318.826L211.036 319.757C211.036 319.757 212.789 326.222 211.036 328.569Z" fill="url(#paint2_linear_175_3089)"/>
<path d="M211.735 323.763C211.735 323.763 211.027 328.271 213.926 329.548C216.825 330.824 221.496 329.222 222.624 327.936L222.885 334.047L225.496 322.915L211.735 323.763Z" fill="#222A72"/>
<path d="M206.207 297.67C206.207 297.67 202.953 320.847 214.644 325.533C226.335 330.218 229.915 317.643 231.425 311.606C232.936 305.57 228.563 283.94 219.305 287.303C213.885 289.167 209.264 292.825 206.207 297.67Z" fill="url(#paint3_linear_175_3089)"/>
<path d="M178.732 288.364C178.732 288.364 179.822 280.26 179.85 280.111C179.947 279.359 179.836 278.595 179.531 277.9C179.225 277.206 178.736 276.608 178.116 276.171C176.997 275.332 175.767 273.376 175.767 268.858C175.767 264.34 180.559 259.45 182.535 261.406C184.512 263.362 184.521 264.909 186.358 265.197C188.194 265.486 186.777 270.144 186.358 271.718C185.938 273.292 188.614 287.656 188.614 287.656L178.732 288.364Z" fill="url(#paint4_linear_175_3089)"/>
<path d="M237.541 364.937L243.601 396.487L237.858 397.829L237.541 364.937Z" fill="url(#paint5_linear_175_3089)"/>
<path d="M218.746 482.412C218.746 482.412 216.126 508.215 220.424 529.184H223.417L229.794 482.412H218.746ZM203.838 472.277L209.842 524.899L212.043 523.968C212.043 523.968 216.163 486.706 215.828 483.111C215.492 479.515 213.907 472.258 213.907 472.258L203.838 472.277Z" fill="#25233A"/>
<path d="M212.043 523.986C212.043 523.986 213.376 526.241 213.227 527.843C213.115 528.942 205.507 538.369 200.072 543.455C194.198 548.951 188.502 546.921 188.502 546.921C186.376 546.706 185.276 541.825 186.899 540.4C190.434 537.374 194.407 534.899 198.683 533.059C208.425 528.942 209.87 524.862 209.87 524.862L212.043 523.986ZM220.424 529.184C219.839 531.015 219.627 532.944 219.799 534.857C220.172 537.587 231.919 550.945 231.919 550.945C231.919 550.945 241.541 557.186 244.916 551.82C248.291 546.455 234.959 539.338 232.311 537.848C229.663 536.357 223.417 529.194 223.417 529.194L220.424 529.184Z" fill="#25233A"/>
<path d="M153.121 213.516C154.398 217.604 156.929 221.187 160.355 223.76C163.781 226.332 167.93 227.764 172.215 227.853C177.576 227.853 183.608 225.813 189.201 219.059C204.118 201.062 176.662 169.343 213.646 130.992C250.631 92.6409 254.481 24.6577 188.055 20.1398C137.328 16.7118 116.575 48.2348 110.739 67.9646V87.9646L146.371 101.938C146.371 101.938 160.002 60.6148 182.442 65.878C204.883 71.1411 183.747 108.197 169.586 122.282C138.382 153.33 147.406 195.771 153.121 213.516Z" fill="#3F3D56"/>
<path d="M153.121 188.188C154.407 192.27 156.94 195.848 160.364 198.419C163.788 200.99 167.932 202.426 172.215 202.524C177.576 202.524 183.607 200.093 189.201 193.348C204.118 175.342 174.76 157.447 211.754 119.096C248.747 80.7449 254.509 4.69474 188.083 0.20476C121.656 -4.28522 110.767 67.9923 110.767 67.9923L146.399 81.9652C146.399 81.9652 160.002 40.6891 182.442 45.9336C204.883 51.1781 183.747 88.2437 169.586 102.338C138.382 133.358 147.406 170.442 153.121 188.188Z" fill="#606ED4"/>
<path d="M177.38 251.42C188.455 251.42 197.434 242.449 197.434 231.383C197.434 220.317 188.455 211.346 177.38 211.346C166.304 211.346 157.326 220.317 157.326 231.383C157.326 242.449 166.304 251.42 177.38 251.42Z" fill="#606ED4"/>
<path d="M97.416 240.745C99.4087 236.485 97.5678 231.417 93.3043 229.426C89.0408 227.435 83.9693 229.275 81.9766 233.535C79.984 237.795 81.8249 242.862 86.0884 244.853C90.3519 246.844 95.4234 245.005 97.416 240.745Z" fill="#3F3D56"/>
<path d="M75.5258 228.299C76.6322 229.746 78.1642 230.809 79.9067 231.34C81.6491 231.872 83.5144 231.844 85.2404 231.262C87.3847 230.498 89.4916 228.793 90.7503 225.281C94.0879 215.966 78.5185 207.238 87.7389 186.548C96.9594 165.859 88.6153 138.109 61.4294 145.971C40.6577 151.951 36.9378 167.554 37.4692 176.292L40.3687 184.266L56.628 184.676C56.628 184.676 56.0686 166.204 65.8019 165.048C75.5351 163.893 72.4678 181.769 68.8505 189.455C60.8886 206.39 70.6592 222.04 75.5258 228.299Z" fill="#3F3D56"/>
<path d="M71.8525 218.174C72.9546 219.623 74.4849 220.688 76.2267 221.22C77.9685 221.751 79.8335 221.722 81.5578 221.136C83.7114 220.372 85.7624 218.519 87.0117 215.007C90.3587 205.691 76.0385 202.757 85.2497 182.068C94.4608 161.378 85.7251 130.163 58.5299 137.997C31.3347 145.831 37.5158 176.292 37.5158 176.292L53.7752 176.693C53.7752 176.693 53.2251 158.23 62.949 157.075C72.6729 155.92 69.615 173.796 65.9976 181.472C58.0265 198.407 66.9766 211.914 71.8525 218.174Z" fill="#606ED4"/>
<path d="M91.5496 239.554C95.7766 237.487 97.526 232.388 95.4571 228.164C93.3881 223.941 88.2843 222.193 84.0573 224.26C79.8303 226.327 78.0809 231.427 80.1498 235.65C82.2188 239.874 87.3227 241.622 91.5496 239.554Z" fill="#606ED4"/>
<path d="M52.153 318.816C52.5083 320.461 52.3678 322.175 51.7492 323.74C51.1306 325.305 50.0616 326.652 48.6774 327.611C47.2931 328.569 45.6555 329.096 43.9716 329.126C42.2876 329.155 40.6327 328.685 39.2159 327.775C37.7991 326.865 36.684 325.556 36.0114 324.013C35.3387 322.47 35.1387 320.763 35.4367 319.107C35.7346 317.45 36.517 315.919 37.6852 314.707C38.8534 313.495 40.355 312.656 42.0002 312.296C43.0955 312.055 44.2277 312.032 45.3317 312.23C46.4357 312.428 47.4897 312.841 48.4332 313.447C49.3767 314.053 50.191 314.839 50.8294 315.761C51.4677 316.682 51.9175 317.721 52.153 318.816Z" fill="#3F3D56"/>
<path d="M30.9338 309.995C31.8374 311.576 33.2156 312.833 34.8737 313.589C36.5317 314.344 38.3855 314.56 40.1729 314.205C42.4011 313.73 44.7225 312.342 46.4193 309.007C50.9596 300.176 36.6674 289.51 48.517 270.209C60.3665 250.908 55.7516 222.338 27.7639 226.539C6.38627 229.743 0.652612 244.722 0.0372925 253.451L1.9019 261.741L17.9375 264.294C17.9375 264.294 19.8021 245.915 29.6099 246.045C39.4177 246.175 34.0197 263.493 29.4328 270.628C19.2986 286.362 26.9342 303.157 30.9338 309.995Z" fill="#3F3D56"/>
<path d="M28.6217 299.478C29.5263 301.058 30.9047 302.315 32.5625 303.07C34.2202 303.825 36.0734 304.042 37.8608 303.688C40.089 303.213 42.3638 301.639 44.0699 298.332C48.6102 289.501 34.7935 284.75 46.643 265.449C58.4926 246.148 53.9243 214.047 25.9366 218.248C-2.05107 222.45 0.0372898 253.451 0.0372898 253.451L16.0729 255.985C16.0729 255.985 17.9375 237.606 27.7453 237.736C37.5531 237.866 32.1551 255.184 27.5682 262.319C17.4807 278.071 24.6128 292.64 28.6217 299.478Z" fill="#606ED4"/>
<path d="M43.2536 323.704C47.9467 323.354 51.4672 319.269 51.1168 314.58C50.7663 309.89 46.6778 306.373 41.9847 306.723C37.2916 307.073 33.7712 311.158 34.1216 315.847C34.472 320.537 38.5605 324.054 43.2536 323.704Z" fill="#606ED4"/>
<path d="M301.59 254.829C301.214 256.471 300.36 257.964 299.135 259.12C297.91 260.276 296.37 261.043 294.709 261.325C293.048 261.607 291.34 261.39 289.802 260.702C288.264 260.014 286.965 258.886 286.068 257.46C285.172 256.035 284.719 254.376 284.766 252.693C284.813 251.01 285.358 249.379 286.333 248.005C287.308 246.632 288.668 245.578 290.242 244.977C291.816 244.376 293.533 244.255 295.176 244.629C297.38 245.133 299.293 246.491 300.496 248.403C301.698 250.316 302.092 252.627 301.59 254.829Z" fill="#3F3D56"/>
<path d="M286.179 237.801C286.319 239.613 287.023 241.335 288.194 242.726C289.365 244.116 290.943 245.104 292.705 245.551C294.915 246.073 297.619 245.784 300.574 243.521C308.452 237.475 300.099 221.732 319.062 209.343C338.025 196.953 346.098 169.147 318.978 160.996C298.281 154.764 286.683 165.859 282.394 173.488L280.53 181.76L293.973 190.908C293.973 190.908 303.529 175.072 312.33 179.394C321.131 183.716 308.853 197.047 301.646 201.546C285.769 211.457 285.508 229.902 286.179 237.801Z" fill="#3F3D56"/>
<path d="M288.585 227.303C288.723 229.115 289.427 230.838 290.598 232.229C291.769 233.619 293.347 234.607 295.111 235.053C297.33 235.584 300.071 235.128 303.026 232.864C310.904 226.818 300.444 216.618 319.416 204.229C338.388 191.839 347.972 160.894 320.936 152.715C293.899 144.536 282.459 173.488 282.459 173.488L295.903 182.636C295.903 182.636 305.459 166.8 314.26 171.113C323.061 175.426 310.783 188.812 303.585 193.274C287.662 203.185 287.885 219.413 288.585 227.303Z" fill="#606ED4"/>
<path d="M302.423 250.64C304.163 246.271 302.029 241.32 297.657 239.581C293.284 237.843 288.329 239.975 286.589 244.344C284.848 248.713 286.983 253.664 291.355 255.403C295.728 257.142 300.683 255.009 302.423 250.64Z" fill="#606ED4"/>
<path d="M344.858 331.001C344.136 332.022 343.126 332.806 341.957 333.254C340.789 333.701 339.514 333.793 338.293 333.517C337.072 333.241 335.961 332.61 335.099 331.702C334.237 330.795 333.664 329.653 333.452 328.421C333.239 327.188 333.398 325.921 333.906 324.778C334.415 323.635 335.251 322.669 336.309 322.001C337.367 321.333 338.6 320.993 339.851 321.025C341.102 321.057 342.316 321.458 343.339 322.179C344.019 322.658 344.597 323.267 345.042 323.97C345.486 324.672 345.788 325.456 345.929 326.275C346.07 327.094 346.048 327.934 345.864 328.744C345.681 329.555 345.339 330.322 344.858 331.001Z" fill="#3F3D56"/>
<path d="M339.078 314.941C338.664 316.229 338.666 317.615 339.082 318.902C339.499 320.189 340.309 321.312 341.4 322.114C342.264 322.709 343.255 323.094 344.294 323.238C345.333 323.382 346.392 323.281 347.385 322.943C354.517 321.015 353.221 307.825 369.76 304.657C386.299 301.49 399.715 284.648 383.381 271.383C370.916 261.257 359.803 265.608 354.694 269.641L351.049 274.792L357.706 284.89C357.706 284.89 368.753 276.711 373.555 282.152C378.356 287.592 366.171 293.33 359.943 294.373C346.257 296.702 340.84 309.306 339.078 314.941Z" fill="#3F3D56"/>
<path d="M343.702 308.393C343.288 309.682 343.289 311.069 343.705 312.357C344.122 313.646 344.933 314.771 346.024 315.575C347.394 316.562 349.408 317.028 352.074 316.301C359.207 314.373 354.871 304.406 371.457 301.248C388.043 298.09 403.37 279.497 387.036 266.232C370.702 252.967 354.703 269.641 354.703 269.641L361.36 279.73C361.36 279.73 372.408 271.551 377.209 277C382.011 282.45 369.825 288.179 363.598 289.222C349.902 291.551 345.464 302.766 343.702 308.393Z" fill="#606ED4"/>
<path d="M347.298 327.524C349.279 324.639 348.544 320.696 345.658 318.717C342.771 316.737 338.824 317.471 336.843 320.355C334.862 323.24 335.596 327.183 338.483 329.162C341.37 331.142 345.316 330.408 347.298 327.524Z" fill="#606ED4"/>
<path d="M177.93 499.254C177.812 499.254 177.696 499.222 177.594 499.161C177.515 499.118 177.446 499.059 177.39 498.987C177.335 498.916 177.294 498.835 177.272 498.747C177.249 498.66 177.244 498.569 177.258 498.48C177.272 498.391 177.304 498.306 177.352 498.229C184.416 485.319 190.178 471.739 194.553 457.689C201.47 435.752 207.997 403.008 199.774 371.578C183.924 311.076 180.251 273.926 180.195 273.553C180.18 273.377 180.235 273.201 180.348 273.065C180.462 272.929 180.625 272.843 180.801 272.827C180.975 272.811 181.149 272.865 181.283 272.977C181.418 273.089 181.503 273.249 181.519 273.423C181.519 273.796 185.248 310.852 201.042 371.234C209.348 402.98 202.776 436.003 195.793 458.118C191.385 472.246 185.589 485.903 178.489 498.891C178.436 498.995 178.356 499.083 178.258 499.147C178.16 499.21 178.047 499.247 177.93 499.254Z" fill="white"/>
</g>
<defs>
<linearGradient id="paint0_linear_175_3089" x1="234.148" y1="415.304" x2="245.289" y2="415.304" gradientUnits="userSpaceOnUse">
<stop stop-color="#ECC4D7"/>
<stop offset="0.42" stop-color="#EFD4D1"/>
<stop offset="1" stop-color="#F2EAC9"/>
</linearGradient>
<linearGradient id="paint1_linear_175_3089" x1="168.299" y1="361.807" x2="380.976" y2="288.359" gradientUnits="userSpaceOnUse">
<stop stop-color="white" stop-opacity="0"/>
<stop offset="0.99" stop-color="white"/>
</linearGradient>
<linearGradient id="paint2_linear_175_3089" x1="224.545" y1="307.675" x2="217.079" y2="326.701" gradientUnits="userSpaceOnUse">
<stop stop-color="#ECC4D7"/>
<stop offset="0.42" stop-color="#EFD4D1"/>
<stop offset="1" stop-color="#F2EAC9"/>
</linearGradient>
<linearGradient id="paint3_linear_175_3089" x1="205.787" y1="306.753" x2="231.714" y2="306.753" gradientUnits="userSpaceOnUse">
<stop stop-color="#ECC4D7"/>
<stop offset="0.42" stop-color="#EFD4D1"/>
<stop offset="1" stop-color="#F2EAC9"/>
</linearGradient>
<linearGradient id="paint4_linear_175_3089" x1="175.767" y1="274.662" x2="188.614" y2="274.662" gradientUnits="userSpaceOnUse">
<stop stop-color="#ECC4D7"/>
<stop offset="0.42" stop-color="#EFD4D1"/>
<stop offset="1" stop-color="#F2EAC9"/>
</linearGradient>
<linearGradient id="paint5_linear_175_3089" x1="247.647" y1="377.857" x2="192.458" y2="400.162" gradientUnits="userSpaceOnUse">
<stop stop-opacity="0"/>
<stop offset="1"/>
</linearGradient>
<clipPath id="clip0_175_3089">
<rect width="394" height="554" fill="white"/>
</clipPath>
</defs>
</svg>
