<svg width="484" height="337" viewBox="0 0 484 337" fill="none" xmlns="http://www.w3.org/2000/svg">
<g clip-path="url(#clip0_132_503)">
<path d="M96.4338 337C149.693 337 192.868 333.718 192.868 329.67C192.868 325.622 149.693 322.341 96.4338 322.341C43.1749 322.341 0 325.622 0 329.67C0 333.718 43.1749 337 96.4338 337Z" fill="#E6E6E6"/>
<path d="M73.7124 74.7744C90.4948 67.6308 111.398 72.1569 131.811 75.2982C132.001 71.4941 134.304 66.8643 131.892 64.2103C128.961 60.986 129.231 57.5982 130.995 54.1908C135.504 45.4777 129.043 36.2065 122.52 28.4976C121.05 26.7639 119.192 25.4018 117.097 24.5218C115.002 23.6417 112.729 23.2687 110.463 23.4329L98.3797 24.2966C95.4394 24.5068 92.6334 25.6106 90.337 27.4604C88.0407 29.3102 86.3637 31.8177 85.5303 34.6474C82.645 38.5744 81.1008 42.4905 82.073 46.3862C77.7514 49.3418 77.0254 52.9094 78.9673 56.9314C80.614 59.4637 80.5965 61.9287 78.8924 64.3255C76.6544 67.3812 74.9404 70.7885 73.8204 74.4075L73.7124 74.7744Z" fill="#2F2E41"/>
<path d="M472.531 291.331H130.486C127.444 291.331 124.527 290.122 122.376 287.969C120.225 285.817 119.017 282.898 119.017 279.853C243.008 265.432 364.669 265.432 484 279.853C484 282.898 482.792 285.817 480.641 287.969C478.49 290.122 475.573 291.331 472.531 291.331Z" fill="#2F2E41"/>
<path d="M484 280.529L119.017 279.853L161.317 208.624L161.519 208.287V51.3053C161.519 49.3999 161.894 47.5131 162.623 45.7527C163.351 43.9923 164.419 42.3928 165.765 41.0454C167.112 39.6981 168.71 38.6294 170.469 37.9003C172.228 37.1712 174.113 36.796 176.017 36.7961H424.975C426.879 36.796 428.765 37.1712 430.524 37.9003C432.283 38.6294 433.881 39.6981 435.227 41.0454C436.574 42.3928 437.642 43.9923 438.37 45.7527C439.099 47.5131 439.474 49.3999 439.474 51.3053V209.367L484 280.529Z" fill="#8F8CAE"/>
<path d="M175.687 46.9236C174.435 46.925 173.234 47.4234 172.349 48.3094C171.464 49.1954 170.966 50.3967 170.964 51.6497V194.783C170.966 196.036 171.464 197.238 172.349 198.124C173.234 199.01 174.435 199.508 175.687 199.51H427.33C428.582 199.508 429.782 199.01 430.668 198.124C431.553 197.238 432.051 196.036 432.052 194.783V51.6497C432.051 50.3967 431.553 49.1955 430.668 48.3095C429.782 47.4234 428.582 46.925 427.33 46.9236H175.687Z" fill="white"/>
<path d="M176.741 218.414C176.354 218.415 175.976 218.526 175.65 218.735C175.324 218.944 175.065 219.241 174.902 219.593L161.868 247.95C161.727 248.258 161.664 248.597 161.688 248.936C161.711 249.275 161.82 249.603 162.003 249.889C162.186 250.175 162.438 250.41 162.736 250.573C163.033 250.736 163.367 250.822 163.707 250.822H437.806C438.151 250.822 438.49 250.733 438.792 250.565C439.093 250.397 439.346 250.155 439.528 249.861C439.709 249.567 439.812 249.232 439.828 248.887C439.843 248.542 439.77 248.199 439.616 247.89L425.448 219.534C425.281 219.196 425.023 218.913 424.703 218.715C424.383 218.517 424.014 218.413 423.638 218.414H176.741Z" fill="#2F2E41"/>
<path d="M300.496 44.5604C302.173 44.5604 303.532 43.2002 303.532 41.5222C303.532 39.8443 302.173 38.484 300.496 38.484C298.82 38.484 297.46 39.8443 297.46 41.5222C297.46 43.2002 298.82 44.5604 300.496 44.5604Z" fill="white"/>
<path d="M273.555 256.223C273.11 256.223 272.677 256.37 272.324 256.641C271.971 256.912 271.717 257.292 271.6 257.721L268.331 269.874C268.25 270.175 268.239 270.489 268.3 270.794C268.36 271.099 268.49 271.386 268.679 271.633C268.868 271.88 269.111 272.08 269.389 272.217C269.668 272.355 269.974 272.427 270.285 272.427H332.463C332.786 272.427 333.104 272.349 333.39 272.201C333.677 272.053 333.924 271.839 334.111 271.576C334.299 271.313 334.42 271.009 334.466 270.689C334.512 270.37 334.48 270.044 334.375 269.739L330.171 257.586C330.034 257.188 329.775 256.843 329.433 256.598C329.09 256.354 328.68 256.223 328.259 256.223H273.555Z" fill="#2F2E41"/>
<path d="M439.473 205.924V208.624H161.316L161.526 208.287V205.924H439.473Z" fill="#2F2E41"/>
<path d="M431.715 94.5222C457.797 94.5222 478.94 73.3627 478.94 47.2611C478.94 21.1595 457.797 0 431.715 0C405.633 0 384.49 21.1595 384.49 47.2611C384.49 73.3627 405.633 94.5222 431.715 94.5222Z" fill="#015FC7"/>
<path d="M451.28 67.8535H412.15C411.435 67.8528 410.749 67.568 410.243 67.0617C409.737 66.5554 409.452 65.8689 409.452 65.1529V41.5223C409.452 40.8063 409.737 40.1198 410.243 39.6135C410.749 39.1072 411.435 38.8224 412.15 38.8217H451.28C451.995 38.8224 452.681 39.1072 453.187 39.6135C453.693 40.1198 453.978 40.8063 453.978 41.5223V65.1528C453.978 65.8689 453.693 66.5554 453.187 67.0617C452.681 67.568 451.995 67.8528 451.28 67.8535ZM412.15 41.5223V65.1529H451.282L451.28 41.5223L412.15 41.5223Z" fill="white"/>
<path d="M443.859 41.5223H419.571V30.7197C419.571 22.8954 424.679 17.2166 431.715 17.2166C438.751 17.2166 443.859 22.8954 443.859 30.7197L443.859 41.5223ZM422.27 38.8217H441.16V30.7197C441.16 24.3594 437.276 19.9172 431.715 19.9172C426.154 19.9172 422.27 24.3595 422.27 30.7197L422.27 38.8217Z" fill="white"/>
<path d="M431.715 55.3631C433.205 55.3631 434.413 54.1539 434.413 52.6624C434.413 51.1709 433.205 49.9618 431.715 49.9618C430.224 49.9618 429.016 51.1709 429.016 52.6624C429.016 54.1539 430.224 55.3631 431.715 55.3631Z" fill="white"/>
<path d="M398.748 150.96H204.269C203.314 150.959 202.399 150.579 201.724 149.903C201.048 149.227 200.669 148.311 200.667 147.356V99.0772C200.669 98.1217 201.048 97.2056 201.724 96.5299C202.399 95.8542 203.314 95.4741 204.269 95.473H398.748C399.703 95.4741 400.618 95.8542 401.293 96.5299C401.968 97.2056 402.348 98.1217 402.349 99.0772V147.356C402.348 148.311 401.968 149.227 401.293 149.903C400.618 150.579 399.703 150.959 398.748 150.96ZM204.269 96.9147C203.696 96.9153 203.147 97.1434 202.742 97.5488C202.337 97.9542 202.109 98.5039 202.108 99.0772V147.356C202.109 147.929 202.337 148.479 202.742 148.884C203.147 149.29 203.696 149.518 204.269 149.518H398.748C399.321 149.518 399.87 149.29 400.275 148.884C400.68 148.479 400.908 147.929 400.909 147.356V99.0772C400.908 98.5039 400.68 97.9542 400.275 97.5488C399.87 97.1434 399.321 96.9153 398.748 96.9147L204.269 96.9147Z" fill="#E6E6E6"/>
<path d="M234.487 136.046C242.589 136.046 249.157 129.472 249.157 121.364C249.157 113.256 242.589 106.682 234.487 106.682C226.385 106.682 219.816 113.256 219.816 121.364C219.816 129.472 226.385 136.046 234.487 136.046Z" fill="#E6E6E6"/>
<path d="M268.368 111.576C268.047 111.576 267.729 111.639 267.431 111.761C267.134 111.884 266.864 112.064 266.637 112.292C266.409 112.519 266.229 112.789 266.106 113.086C265.983 113.383 265.919 113.702 265.919 114.023C265.919 114.345 265.983 114.663 266.106 114.961C266.229 115.258 266.409 115.528 266.637 115.755C266.864 115.982 267.134 116.162 267.431 116.285C267.729 116.408 268.047 116.471 268.368 116.47H383.636C384.284 116.47 384.906 116.212 385.365 115.753C385.823 115.295 386.081 114.672 386.081 114.023C386.081 113.374 385.823 112.752 385.365 112.293C384.906 111.834 384.284 111.576 383.636 111.576H268.368Z" fill="#E6E6E6"/>
<path d="M268.368 126.258C267.72 126.258 267.098 126.516 266.639 126.975C266.181 127.434 265.923 128.056 265.923 128.705C265.923 129.354 266.181 129.976 266.639 130.435C267.098 130.894 267.72 131.152 268.368 131.152H317.968C318.617 131.152 319.239 130.894 319.697 130.435C320.156 129.976 320.413 129.354 320.413 128.705C320.413 128.056 320.156 127.434 319.697 126.975C319.239 126.516 318.617 126.258 317.968 126.258H268.368Z" fill="#E6E6E6"/>
<path d="M160.838 127.248L124.887 146.375L124.432 130.436C136.166 128.475 147.33 125.062 157.653 119.506L161.413 110.209C161.822 109.196 162.488 108.307 163.345 107.63C164.202 106.952 165.22 106.509 166.299 106.344C167.379 106.179 168.482 106.298 169.502 106.689C170.522 107.079 171.423 107.729 172.116 108.573C173.13 109.809 173.637 111.384 173.534 112.98C173.431 114.575 172.726 116.072 171.561 117.167L160.838 127.248Z" fill="#FFB8B8"/>
<path d="M72.9954 237.684C72.7331 236.721 72.6774 235.714 72.832 234.728C72.9865 233.743 73.3479 232.801 73.8921 231.965L81.7895 219.836C83.6574 216.967 86.5236 214.895 89.8319 214.021C93.1403 213.148 96.6549 213.535 99.6939 215.109C96.3748 220.763 96.8375 225.722 100.84 230.033C94.6265 233.068 88.8837 236.986 83.7896 241.666C82.8596 242.3 81.7916 242.703 80.6746 242.841C79.5575 242.978 78.4237 242.847 77.3676 242.458C76.3116 242.068 75.3638 241.432 74.6033 240.601C73.8427 239.771 73.2915 238.771 72.9954 237.684Z" fill="#2F2E41"/>
<path d="M162.475 221.825C161.28 223.818 159.593 225.471 157.576 226.623C155.56 227.776 153.28 228.391 150.958 228.409L98.4926 228.807L96.2173 215.599L119.426 208.768L99.8579 193.739L121.246 168.691L160.095 204.927C162.365 207.044 163.84 209.878 164.274 212.954C164.707 216.03 164.072 219.161 162.475 221.825Z" fill="#DDDBFF"/>
<path d="M90.3016 312.149H78.0145C66.9826 236.471 55.7531 160.582 88.9363 132.257L128.073 138.633L123.067 171.879L101.223 196.927L90.3016 312.149Z" fill="#DDDBFF"/>
<path d="M101.103 329.292C100.141 329.554 99.1342 329.61 98.1492 329.455C97.1643 329.301 96.2232 328.939 95.3878 328.395L82.0467 326.6C79.1799 324.731 77.1091 321.863 76.2361 318.552C75.3631 315.241 75.7501 311.724 77.322 308.682C82.9718 312.004 87.928 311.54 92.2348 307.534C95.2779 313.684 100.292 313.309 105.08 318.489C105.714 319.42 106.117 320.489 106.255 321.606C106.393 322.724 106.261 323.859 105.872 324.916C105.483 325.973 104.847 326.921 104.017 327.683C103.188 328.444 102.188 328.995 101.103 329.292Z" fill="#2F2E41"/>
<path d="M119.426 81.7057L96.6724 76.2406C100.451 68.4993 100.763 59.8856 98.9477 50.737L114.42 50.2816C114.905 61.6581 116.372 72.2866 119.426 81.7057Z" fill="#FFB8B8"/>
<path d="M125.68 152.346C109.116 163.641 97.4122 152.732 88.481 135.901C89.7221 125.601 87.7126 113.276 83.9909 99.8839C82.3358 93.9769 82.9537 87.6636 85.7227 82.1903C88.4918 76.717 93.2106 72.4816 98.9477 70.3202L118.516 78.5178C135.132 92.0718 138.402 106.753 132.168 122.238L125.68 152.346Z" fill="#015FC7"/>
<path d="M78.0144 93.0912L59.8114 102.655L92.1217 121.783L96.6175 132.881C96.9175 133.621 97.0637 134.416 97.0471 135.215C97.0305 136.014 96.8514 136.801 96.5208 137.529C96.1902 138.256 95.7149 138.909 95.1241 139.447C94.5332 139.985 93.8391 140.396 93.084 140.657C92.2257 140.953 91.3106 141.046 90.4102 140.929C89.5099 140.813 88.6488 140.489 87.8944 139.983C87.14 139.478 86.5127 138.804 86.0618 138.016C85.6109 137.227 85.3485 136.345 85.2951 135.438L84.8405 127.703L43.7745 114.141C42.3908 113.684 41.1293 112.918 40.0853 111.901C39.0413 110.884 38.2423 109.642 37.7488 108.27C37.0294 106.271 36.9928 104.089 37.6447 102.066C38.2965 100.043 39.6001 98.2934 41.3514 97.0911L74.3738 74.4189L78.0144 93.0912Z" fill="#FFB8B8"/>
<path d="M96.2176 94.9129C88.6258 91.5834 81.7224 95.2003 73.0088 98.1009L71.6436 73.9635C80.2958 69.3485 88.5452 68.1042 96.2176 71.6865L96.2176 94.9129Z" fill="#015FC7"/>
<path d="M105.299 62.2376C113.322 62.2376 119.826 55.7285 119.826 47.6992C119.826 39.6698 113.322 33.1608 105.299 33.1608C97.2756 33.1608 90.7715 39.6698 90.7715 47.6992C90.7715 55.7285 97.2756 62.2376 105.299 62.2376Z" fill="#FFB8B8"/>
<path d="M122.679 45.8649C108.295 47.2747 97.3352 44.9205 90.3306 38.2176V32.8195H121.458L122.679 45.8649Z" fill="#2F2E41"/>
</g>
<defs>
<clipPath id="clip0_132_503">
<rect width="484" height="337" fill="white"/>
</clipPath>
</defs>
</svg>
