<svg width="220" height="186" viewBox="0 0 220 186" fill="none" xmlns="http://www.w3.org/2000/svg">
<g clip-path="url(#clip0_173_2863)">
<path opacity="0.19" d="M46.568 171.962C46.9601 172.996 46.151 174.143 45.1614 174.635C44.1718 175.127 43.0266 175.171 41.956 175.448C40.2911 175.878 38.8254 176.856 37.2133 177.458C35.0007 178.283 32.592 178.374 30.23 178.455C23.1035 178.701 15.4978 178.822 9.44182 175.053C9.21392 174.941 9.02913 174.757 8.91589 174.529C8.85221 174.304 8.87554 174.062 8.98124 173.853C9.48227 172.697 10.92 172.345 12.1648 172.149C18.0278 171.233 24.0309 170.404 29.9686 170.196C33.0557 170.093 45.3979 168.865 46.568 171.962Z" fill="url(#paint0_linear_173_2863)"/>
<path opacity="0.18" d="M168.92 172.43C166.221 172.978 163.679 174.102 161.161 175.233L151.063 179.71C156.696 182.745 163.533 181.492 169.931 181.405C170.491 181.405 171.095 181.405 171.54 181.754C172.162 182.243 172.218 183.168 172.607 183.866C173.339 185.187 175.097 185.452 176.6 185.551C190.212 186.439 203.877 186.003 217.405 184.249C218.052 184.165 218.73 184.065 219.253 183.676C220.809 182.514 219.714 179.832 217.952 179.003C216.191 178.174 214.121 178.38 212.251 177.844C210.381 177.308 208.576 175.327 209.45 173.579C201.739 173.731 194.027 173.648 186.316 173.33C180.493 173.081 174.73 171.246 168.92 172.43Z" fill="#1D2741"/>
<path opacity="0.18" d="M206.102 105.091C207.365 91.8971 213.779 77.9403 207.222 66.0115C205.501 62.8962 203.033 60.2263 200.273 57.7433C196.626 54.4691 192.471 51.5126 188.839 48.2134C182.413 42.3815 178.738 35.3812 173.787 28.976C171.735 26.2709 169.402 23.7926 166.825 21.5833C165.8 20.7172 164.763 19.8646 163.713 19.0255C155.105 12.1998 145.418 6.33975 134.401 2.93777C118.779 -1.87548 100.203 -1.09975 87.0147 7.68559C82.2657 10.8477 78.4193 14.8665 74.7098 19.0255C71.716 22.3808 68.825 25.8264 65.6259 28.9667C62.7659 31.7954 59.6664 34.3874 56.0471 36.4654C50.8936 39.4281 44.9622 41.1696 39.4944 43.6588C35.9867 45.2549 32.6501 47.2037 29.5359 49.4752C25.3561 52.5132 21.6181 56.1179 18.4292 60.1858C11.5112 69.0147 7.60255 79.6537 7.86707 90.3644C7.90752 92.0404 8.04445 93.7259 8.09735 95.4081C8.19965 97.2555 8.09212 99.1086 7.77682 100.932C7.19799 103.922 5.7758 106.733 4.30693 109.518C2.30903 113.315 0.214649 117.066 0.0154804 121.182C-0.333064 128.266 4.90755 134.335 10.7208 139.522C11.6917 140.388 12.6813 141.232 13.6585 142.051C15.2145 143.36 16.8172 144.668 18.4323 145.961L18.7435 146.21C19.6087 146.899 20.4769 147.584 21.3576 148.264C23.5671 149.968 25.8296 151.628 28.148 153.211C29.1853 153.915 30.2227 154.599 31.26 155.264C33.6842 156.821 36.1707 158.245 38.7288 159.544C45.0493 162.759 51.7992 165.108 59.0626 166.043C78.9577 168.535 98.7469 159.678 118.813 160.85C131.98 161.616 144.26 166.644 157.019 169.573C169.778 172.501 184.595 172.968 194.883 165.731C204.365 159.074 207.474 147.572 207.499 136.936C207.524 126.3 205.093 115.692 206.102 105.091Z" fill="#606ED4"/>
<path d="M191.662 19.0256H27.0371C25.9087 19.024 24.7911 19.2449 23.748 19.6756C22.705 20.1064 21.7568 20.7386 20.9578 21.5362C20.1588 22.3337 19.5245 23.281 19.0912 24.324C18.6579 25.367 18.434 26.4851 18.4324 27.6147V146.214H200.257V27.6272C200.257 25.3459 199.352 23.1581 197.741 21.545C196.129 19.9319 193.944 19.0256 191.665 19.0256H191.662Z" fill="#606ED4"/>
<path opacity="0.47" d="M51.3792 127.054C51.068 130.304 48.1551 132.69 45.1552 133.712C43.5992 134.241 41.9467 134.537 40.6116 135.503C39.2766 136.469 38.4021 138.422 39.2424 139.865C40.2639 139.86 41.2632 140.163 42.1102 140.735C42.9572 141.307 43.6126 142.12 43.9913 143.07C42.0712 145.996 38.6697 147.594 35.2777 148.055C31.8856 148.516 28.4313 147.974 25.0703 147.413C23.8908 147.22 22.6336 146.983 21.784 146.117C20.9344 145.251 20.701 143.992 20.4894 142.799C20.4614 142.631 20.4303 142.463 20.3992 142.291H18.3577V28.9668H29.5018V82.8627C29.5018 87.2585 29.3026 91.6916 29.3711 96.0719C29.4395 100.24 32.2092 102.352 34.8482 105.384C35.6604 106.318 36.5038 107.309 36.7434 108.54C37.0017 109.845 36.5349 111.228 36.8803 112.509C37.4778 114.733 40.2755 115.574 42.4228 114.945C44.5701 114.315 46.291 112.695 48.1427 111.406C51.3426 109.184 55.0988 107.901 58.988 107.702C57.6841 113.238 51.2702 116.736 51.1209 122.44C51.0742 123.986 51.5285 125.512 51.3792 127.054Z" fill="url(#paint1_linear_173_2863)"/>
<path d="M10.5123 131.939C7.71154 127.406 5.75098 122.313 5.19393 117.013C4.85161 113.783 4.99787 110.374 3.54145 107.471C2.67632 105.745 1.26658 104.262 0.830898 102.377C0.0217769 98.8569 2.84436 95.6387 5.43666 93.1246C5.59218 92.9383 5.80053 92.8036 6.03417 92.7383C6.43873 92.6635 6.80283 93 7.04868 93.3334C8.53311 95.3365 8.65136 98.0064 9.03103 100.458C9.4387 103.122 10.3101 105.876 12.336 107.655C14.3619 109.434 17.4832 110.216 18.4822 112.727C19.3691 114.963 18.0963 117.602 18.8961 119.873C19.6959 122.144 22.4313 123.506 22.8421 125.898C23.116 127.487 22.2633 129.064 22.2882 130.674C22.3068 131.902 22.8328 133.057 23.1315 134.251C23.7726 136.811 23.1315 144.31 19.2446 142.117C15.7249 140.139 12.5787 135.282 10.5123 131.939Z" fill="#606ED4"/>
<path d="M10.5123 131.939C7.71154 127.406 5.75098 122.313 5.19393 117.013C4.85161 113.783 4.99787 110.374 3.54145 107.471C2.67632 105.745 1.26658 104.262 0.830898 102.377C0.0217769 98.8569 2.84436 95.6387 5.43666 93.1246C5.59218 92.9383 5.80053 92.8036 6.03417 92.7383C6.43873 92.6635 6.80283 93 7.04868 93.3333C8.53311 95.3365 8.65136 98.0064 9.03103 100.458C9.4387 103.122 10.3101 105.876 12.336 107.655C14.3619 109.434 17.4832 110.216 18.4822 112.727C19.3691 114.963 18.0963 117.602 18.8961 119.873C19.6959 122.144 22.4313 123.506 22.8421 125.898C23.116 127.487 22.2633 129.064 22.2882 130.674C22.3068 131.902 22.8328 133.057 23.1315 134.251C23.7726 136.811 23.1315 144.31 19.2446 142.117C15.7249 140.139 12.5787 135.282 10.5123 131.939Z" fill="url(#paint2_linear_173_2863)"/>
<path d="M17.5766 126.789C16.559 121.562 16.5248 116.097 17.8878 110.945C18.7125 107.801 20.0662 104.667 19.7146 101.436C19.5154 99.5142 18.7187 97.6263 18.9801 95.7135C19.4687 92.1339 23.2436 90.1058 26.5547 88.6852C26.7676 88.5684 27.0099 88.5164 27.2518 88.5357C27.6595 88.6104 27.8742 89.0528 27.9894 89.4516C28.6709 91.8504 27.8431 94.3801 27.3265 96.8194C26.7695 99.455 26.6108 102.34 27.8742 104.72C29.1377 107.1 31.786 108.938 31.8327 111.639C31.8732 114.047 29.7508 116.066 29.6979 118.471C29.645 120.876 31.7207 123.119 31.2539 125.506C30.9427 127.088 29.5921 128.26 29.0475 129.774C28.6304 130.93 28.7145 132.198 28.5744 133.419C28.2632 136.042 25.033 142.837 22.1575 139.4C19.5683 136.297 18.3235 130.643 17.5766 126.789Z" fill="#606ED4"/>
<path d="M17.5766 126.789C16.559 121.562 16.5248 116.097 17.8878 110.945C18.7125 107.801 20.0662 104.667 19.7146 101.436C19.5154 99.5142 18.7187 97.6263 18.9801 95.7135C19.4687 92.1339 23.2436 90.1058 26.5547 88.6852C26.7676 88.5684 27.0099 88.5164 27.2518 88.5357C27.6595 88.6104 27.8742 89.0528 27.9894 89.4516C28.6709 91.8504 27.8431 94.3801 27.3265 96.8194C26.7695 99.455 26.6108 102.34 27.8742 104.72C29.1377 107.1 31.786 108.938 31.8327 111.639C31.8732 114.047 29.7508 116.066 29.6979 118.471C29.645 120.876 31.7207 123.119 31.2539 125.506C30.9427 127.088 29.5921 128.26 29.0475 129.774C28.6304 130.93 28.7145 132.198 28.5744 133.419C28.2632 136.042 25.033 142.837 22.1575 139.4C19.5683 136.297 18.3235 130.643 17.5766 126.789Z" fill="url(#paint3_linear_173_2863)"/>
<path d="M24.7529 127.658C27.4292 123.054 30.9987 118.935 35.4053 115.938C38.094 114.116 41.1656 112.642 43.039 109.988C44.1531 108.412 44.8004 106.468 46.2537 105.2C48.9767 102.829 53.1437 103.804 56.5793 104.913C56.8166 104.964 57.0334 105.084 57.2017 105.259C57.46 105.57 57.3325 106.06 57.1551 106.436C56.0908 108.689 53.8003 110.044 51.8086 111.539C49.652 113.153 47.6354 115.219 47.0193 117.842C46.4031 120.465 47.1842 123.596 45.4384 125.658C43.8824 127.496 40.9602 127.612 39.3357 129.397C37.7113 131.182 37.7984 134.229 35.8814 135.718C34.6086 136.705 32.8192 136.696 31.4126 137.475C30.3389 138.07 29.5672 139.076 28.6553 139.902C26.701 141.674 19.7955 144.65 19.895 140.17C19.9791 136.135 22.7768 131.054 24.7529 127.658Z" fill="#606ED4"/>
<path d="M24.7529 127.659C27.4292 123.054 30.9987 118.936 35.4053 115.939C38.094 114.116 41.1656 112.643 43.039 109.988C44.1531 108.412 44.8004 106.468 46.2537 105.2C48.9767 102.829 53.1437 103.804 56.5793 104.913C56.8166 104.964 57.0334 105.084 57.2018 105.259C57.46 105.571 57.3325 106.06 57.1551 106.437C56.0908 108.689 53.8003 110.044 51.8086 111.54C49.652 113.153 47.6355 115.219 47.0193 117.842C46.4031 120.465 47.1842 123.596 45.4384 125.659C43.8824 127.497 40.9602 127.612 39.3357 129.397C37.7113 131.182 37.7984 134.229 35.8814 135.718C34.6086 136.706 32.8192 136.696 31.4126 137.475C30.3389 138.07 29.5672 139.076 28.6553 139.902C26.701 141.675 19.7955 144.65 19.895 140.17C19.9791 136.136 22.7768 131.054 24.7529 127.659Z" fill="url(#paint4_linear_173_2863)"/>
<path d="M41.4581 143.855L41.0411 146.214L40.6832 148.267L39.8305 153.214L39.4913 155.267L38.6324 160.217L38.2745 162.267L36.1397 174.567H13.9418L11.7883 162.267L11.4304 160.217L10.5777 155.267L10.2167 153.214L9.33291 148.267L8.98125 146.214L8.57047 143.858C8.47784 143.33 8.49011 142.789 8.60657 142.265C8.72304 141.742 8.94141 141.247 9.24921 140.808C9.55701 140.369 9.94821 139.995 10.4004 139.708C10.8527 139.42 11.357 139.225 11.8848 139.132C12.118 139.091 12.3544 139.071 12.5912 139.07H37.4374C38.0326 139.069 38.6207 139.199 39.1603 139.45C39.7 139.701 40.178 140.068 40.5608 140.524C40.9435 140.981 41.2217 141.515 41.3756 142.091C41.5296 142.666 41.5556 143.269 41.4519 143.855H41.4581Z" fill="#606ED4"/>
<path d="M41.4581 143.855L41.0411 146.214L40.6832 148.267L39.8305 153.214L39.4913 155.267L38.6324 160.217L38.2745 162.267L36.1397 174.567H13.9418L11.7883 162.267L11.4304 160.217L10.5777 155.267L10.2167 153.214L9.33291 148.267L8.98125 146.214L8.57047 143.858C8.47784 143.33 8.49011 142.789 8.60657 142.265C8.72304 141.742 8.94141 141.247 9.24921 140.808C9.55701 140.369 9.94821 139.995 10.4004 139.708C10.8527 139.42 11.357 139.225 11.8848 139.132C12.118 139.091 12.3544 139.071 12.5912 139.07H37.4374C38.0326 139.069 38.6207 139.199 39.1603 139.45C39.7 139.701 40.178 140.068 40.5608 140.524C40.9435 140.981 41.2217 141.515 41.3756 142.091C41.5296 142.666 41.5556 143.269 41.4519 143.855H41.4581Z" fill="url(#paint5_linear_173_2863)"/>
<path d="M200.257 27.6272V28.9668H18.4324V27.6272C18.4324 25.3459 19.3377 23.1581 20.949 21.545C22.5604 19.9319 24.7458 19.0256 27.0246 19.0256H191.65C192.778 19.0252 193.895 19.2473 194.938 19.6792C195.981 20.1111 196.928 20.7443 197.726 21.5428C198.524 22.3412 199.158 23.2892 199.59 24.3326C200.022 25.3761 200.245 26.4945 200.245 27.6241L200.257 27.6272Z" fill="url(#paint6_linear_173_2863)"/>
<path d="M27.6221 25.5492C28.6826 25.5492 29.5422 24.6886 29.5422 23.627C29.5422 22.5654 28.6826 21.7048 27.6221 21.7048C26.5617 21.7048 25.702 22.5654 25.702 23.627C25.702 24.6886 26.5617 25.5492 27.6221 25.5492Z" fill="url(#paint7_linear_173_2863)"/>
<path d="M34.0671 25.5492C35.1276 25.5492 35.9872 24.6886 35.9872 23.627C35.9872 22.5654 35.1276 21.7048 34.0671 21.7048C33.0067 21.7048 32.147 22.5654 32.147 23.627C32.147 24.6886 33.0067 25.5492 34.0671 25.5492Z" fill="url(#paint8_linear_173_2863)"/>
<path d="M40.509 25.5492C41.5694 25.5492 42.4291 24.6886 42.4291 23.627C42.4291 22.5654 41.5694 21.7048 40.509 21.7048C39.4485 21.7048 38.5889 22.5654 38.5889 23.627C38.5889 24.6886 39.4485 25.5492 40.509 25.5492Z" fill="url(#paint9_linear_173_2863)"/>
<path d="M129.83 70.7281V106.312C129.828 107.518 129.348 108.675 128.496 109.527C127.644 110.38 126.488 110.859 125.283 110.86H89.7409C88.5358 110.859 87.3803 110.38 86.5279 109.527C85.6755 108.675 85.1959 107.518 85.1942 106.312V70.7281C85.1942 69.5218 85.6729 68.3649 86.525 67.5119C87.3771 66.6589 88.5327 66.1797 89.7377 66.1797H125.283C126.486 66.1789 127.64 66.6556 128.492 67.5053C129.345 68.355 129.826 69.5084 129.83 70.7126V70.7281Z" fill="url(#paint10_linear_173_2863)"/>
<path d="M111.145 84.2768C111.163 84.9339 111.004 85.5836 110.683 86.1573C110.363 86.7309 109.893 87.2071 109.325 87.5355C109.18 87.6189 109.061 87.7394 108.979 87.8846C108.897 88.0298 108.855 88.1943 108.858 88.3611V96.1495C108.858 96.4371 108.744 96.7128 108.541 96.9161C108.338 97.1194 108.062 97.2337 107.775 97.2337H107.246C106.959 97.2337 106.683 97.1194 106.48 96.9161C106.277 96.7128 106.163 96.4371 106.163 96.1495V88.3611C106.164 88.1941 106.122 88.0297 106.04 87.8843C105.958 87.7389 105.84 87.6175 105.696 87.5324C105.147 87.2155 104.69 86.7604 104.371 86.2122C104.052 85.664 103.882 85.0419 103.877 84.4075C103.872 83.7731 104.033 83.1484 104.344 82.5955C104.655 82.0427 105.105 81.5807 105.649 81.2556C106.193 80.9305 106.813 80.7534 107.447 80.742C108.08 80.7307 108.706 80.8853 109.261 81.1907C109.817 81.4961 110.283 81.9415 110.613 82.4829C110.944 83.0242 111.127 83.6427 111.145 84.2768ZM41.0504 146.213L40.6925 148.267H9.34222L8.98434 146.213H41.0504ZM39.8305 153.214L39.4758 155.267H10.5684L10.2074 153.214H39.8305ZM38.6168 160.217L38.259 162.267H11.7883L11.4304 160.217H38.6168Z" fill="#606ED4"/>
<path opacity="0.18" d="M153.798 95.2961C152.339 93.2493 150.132 91.8256 147.783 90.9346C147.248 90.7321 146.644 90.5576 146.121 90.785C145.754 90.9878 145.446 91.2831 145.228 91.6418C144.095 93.1995 142.916 94.8818 142.807 96.8071C142.645 99.7355 144.963 102.854 143.476 105.381C143.062 106.085 142.402 106.608 141.92 107.268C141.011 108.515 140.803 110.147 140.924 111.686C141.07 113.533 141.307 116.004 139.564 116.633C139.041 116.787 138.485 116.794 137.958 116.655C136.43 116.344 135.017 115.611 133.521 115.175C132.024 114.739 130.296 114.636 128.996 115.487C128.881 117.15 130.309 118.537 131.812 119.256C133.315 119.976 135.008 120.303 136.387 121.241C138.472 122.655 139.499 125.291 139.433 127.824C139.368 130.356 138.378 132.755 137.115 134.939C136.527 135.955 135.87 136.967 135.627 138.117C135.151 140.41 136.433 142.662 137.663 144.659C138.024 145.242 138.419 145.859 139.047 146.133C139.58 146.314 140.149 146.36 140.703 146.267L162.531 144.397C163.153 144.344 163.878 144.22 164.146 143.656C164.264 143.31 164.264 142.934 164.146 142.587C163.433 139.528 161.189 137.011 160.393 133.97C160.025 132.553 159.985 131.073 159.945 129.609C159.783 123.571 159.58 117.474 158.295 111.54C157.651 108.583 156.064 105.82 155.435 102.938C154.85 100.25 155.653 97.8943 153.798 95.2961Z" fill="#1D2741"/>
<path d="M119.545 66.1799H115.683V60.9866C115.677 58.8177 114.811 56.7397 113.276 55.2099C111.74 53.68 109.66 52.8236 107.493 52.829C105.327 52.8343 103.251 53.7011 101.723 55.2385C100.195 56.776 99.3391 58.8582 99.3445 61.0271V66.1799H95.4794V60.8837C95.5596 57.7367 96.8672 54.7461 99.1223 52.5521C101.377 50.358 104.401 49.1347 107.545 49.1441C110.69 49.1535 113.706 50.3947 115.948 52.6022C118.19 54.8096 119.48 57.8079 119.541 60.9554L119.545 66.1799Z" fill="url(#paint11_linear_173_2863)"/>
<path d="M200.229 170.093L203.488 173.208L198.798 177.9L192.907 178.408C192.733 177.909 192.747 177.363 192.945 176.873C193.143 176.383 193.512 175.982 193.984 175.744C195.067 175.158 196.246 174.772 197.466 174.604L197.338 172.193L200.229 170.093ZM164.015 169.853L164.494 173.785L153.459 178.732C153.459 178.732 152.081 176.598 153.493 174.744C154.906 172.89 158.802 171.588 158.802 171.588L159.49 169.878L164.015 169.853Z" fill="#3F3D56"/>
<path d="M166.825 109.212C166.825 109.212 162.829 112.169 162.409 116.758C161.989 121.347 161.787 122.957 161.787 122.957L154.785 122.39L154.691 126.266C154.691 126.266 163.981 129.665 165.406 129.085C166.831 128.506 168.615 125.948 168.615 125.948L166.825 109.212Z" fill="#606ED4"/>
<path d="M166.825 109.212C166.825 109.212 162.829 112.169 162.409 116.758C161.989 121.347 161.787 122.957 161.787 122.957L154.785 122.39L154.691 126.266C154.691 126.266 163.981 129.665 165.406 129.085C166.831 128.506 168.615 125.948 168.615 125.948L166.825 109.212Z" fill="url(#paint12_linear_173_2863)"/>
<path d="M169.514 133.671C169.514 133.671 154.888 145.752 154.769 149.871C154.651 153.989 158.364 170.093 158.364 170.093L164.034 170.062L164.199 153.133C164.199 153.133 176.161 148.952 177.462 146.425C178.763 143.899 181.52 131.574 169.514 133.671Z" fill="#606ED4"/>
<path d="M169.514 133.671C169.514 133.671 154.888 145.752 154.769 149.871C154.651 153.989 158.364 170.093 158.364 170.093L164.034 170.062L164.199 153.133C164.199 153.133 176.161 148.952 177.462 146.425C178.763 143.899 181.52 131.574 169.514 133.671Z" fill="url(#paint13_linear_173_2863)"/>
<path d="M169.514 133.671C169.514 133.671 170.407 152.095 176.161 158.052C181.915 164.009 196.641 172.947 196.641 172.947L200.821 170.352L186.683 155.578C186.683 155.578 188.727 138.995 186.309 136.089C183.891 133.182 169.514 133.671 169.514 133.671Z" fill="#606ED4"/>
<path d="M169.514 133.671C169.514 133.671 170.407 152.095 176.161 158.052C181.915 164.009 196.641 172.947 196.641 172.947L200.821 170.352L186.683 155.578C186.683 155.578 188.727 138.995 186.309 136.089C183.891 133.182 169.514 133.671 169.514 133.671Z" fill="url(#paint14_linear_173_2863)"/>
<path d="M169.514 133.671L164.516 112.502C164.516 112.502 167.317 104.43 178.417 107.029C189.518 109.627 186.3 136.089 186.3 136.089C186.3 136.089 173.84 140.226 169.514 133.671Z" fill="#606ED4"/>
<path d="M169.514 133.671L164.516 112.502C164.516 112.502 167.317 104.43 178.417 107.029C189.518 109.627 186.3 136.089 186.3 136.089C186.3 136.089 173.84 140.226 169.514 133.671Z" fill="url(#paint15_linear_173_2863)"/>
<path d="M178.041 110.278C178.041 110.278 177.375 106.754 180.947 107.695C184.52 108.636 190.081 120.78 189.876 122.468C189.67 124.157 172.29 124.851 172.29 124.851L171.876 120.801L181.013 119.272C181.013 119.272 177.658 113.521 178.041 110.278Z" fill="#606ED4"/>
<path d="M178.041 110.278C178.041 110.278 177.375 106.754 180.947 107.695C184.52 108.636 190.081 120.78 189.876 122.468C189.67 124.157 172.29 124.851 172.29 124.851L171.876 120.801L181.013 119.272C181.013 119.272 177.658 113.521 178.041 110.278Z" fill="url(#paint16_linear_173_2863)"/>
<path d="M176.335 102.764C175.907 103.65 175.178 104.356 174.278 104.754C174.127 104.806 173.981 104.87 173.84 104.944C173.776 104.984 173.719 105.032 173.668 105.088C173.357 105.437 173.575 105.954 173.668 106.402C173.843 107.424 173.251 108.471 172.399 109.057C171.92 109.364 171.394 109.593 170.843 109.733C170.068 109.935 169.234 109.982 168.646 109.705C167.712 109.265 167.805 107.835 167.6 106.96C166.922 104.119 166.327 101.206 166.635 98.2681C166.8 96.7104 167.236 95.1216 168.173 93.8567C169.109 92.5919 170.6 91.676 172.175 91.704C173.749 91.732 175.243 92.7258 176.367 93.8848C176.759 94.2715 177.091 94.7159 177.35 95.2025C178.078 96.6637 177.692 98.4114 177.288 99.994C177.082 100.952 176.762 101.882 176.335 102.764Z" fill="url(#paint17_linear_173_2863)"/>
<path d="M177.587 95.8724C177.587 95.8724 172.918 95.8724 170.096 97.5174C167.578 98.9785 166.884 102.1 166.673 102.047C166.197 101.938 164.644 98.9317 165.297 98.2682C165.951 97.6046 165.434 97.6015 165.434 97.6015C165.434 97.6015 164.684 96.3553 165.061 94.1185C165.369 92.4845 165.791 90.8741 166.324 89.299C166.324 89.299 166.52 88.5576 169.346 89.299C172.172 90.0405 176.936 92.3053 177.201 93.2244C177.465 94.1434 177.247 94.564 177.247 94.564C177.247 94.564 178.022 95.1341 177.587 95.8724Z" fill="#606ED4"/>
<path d="M177.586 95.8725C177.586 95.8725 172.918 95.8724 170.096 97.5174C167.578 98.9785 166.884 102.1 166.673 102.047C166.197 101.938 164.644 98.9317 165.297 98.2682C165.951 97.6046 165.434 97.6015 165.434 97.6015C165.434 97.6015 164.684 96.3553 165.061 94.1185C165.369 92.4845 165.791 90.8741 166.324 89.299C166.324 89.299 166.52 88.5576 169.346 89.299C172.172 90.0405 176.936 92.3054 177.201 93.2244C177.465 94.1434 177.247 94.564 177.247 94.564C177.247 94.564 178.022 95.1341 177.586 95.8725Z" fill="url(#paint18_linear_173_2863)"/>
<path d="M170.096 97.5049C171.734 97.9013 173.398 98.1803 175.075 98.3398C176.581 98.4364 177.667 98.0283 177.677 97.9566C177.695 97.7977 177.188 100.486 177.188 100.486L176.046 100.888C175.605 101.044 175.135 101.1 174.671 101.05L167.547 100.309C167.547 100.309 168.761 98.128 170.096 97.5049Z" fill="#606ED4"/>
<path d="M170.096 97.5049C171.734 97.9013 173.398 98.1803 175.075 98.3398C176.581 98.4364 177.667 98.0283 177.677 97.9566C177.695 97.7977 177.188 100.486 177.188 100.486L176.046 100.888C175.605 101.044 175.135 101.1 174.671 101.05L167.547 100.309C167.547 100.309 168.761 98.128 170.096 97.5049Z" fill="url(#paint19_linear_173_2863)"/>
<path d="M173.024 98.888C173.229 98.8317 173.446 98.8383 173.647 98.9066C173.784 98.9315 173.908 99.0031 173.998 99.1091C174.05 99.1898 174.086 99.2797 174.104 99.374C174.123 99.4274 174.123 99.4856 174.104 99.5391C174.078 99.5698 174.044 99.5928 174.005 99.6054C173.967 99.618 173.926 99.6199 173.886 99.6107C173.515 99.6132 173.147 99.5423 172.803 99.402C172.523 99.2556 172.788 98.9721 173.024 98.888ZM176.311 99.0406C176.369 98.9881 176.437 98.9481 176.512 98.9229C176.586 98.8977 176.665 98.888 176.743 98.8942C176.794 98.8912 176.845 98.8988 176.892 98.9165C176.94 98.9342 176.984 98.9616 177.02 98.997C177.073 99.0657 177.114 99.1425 177.141 99.2244C177.166 99.2746 177.177 99.3306 177.173 99.3864C177.165 99.4183 177.149 99.4472 177.125 99.4694C177.101 99.4917 177.071 99.5062 177.039 99.511C176.791 99.6095 176.52 99.6365 176.258 99.5889C176.034 99.5235 176.161 99.1808 176.311 99.0406Z" fill="white"/>
<path d="M172.383 109.057C171.904 109.364 171.379 109.593 170.827 109.733C170.364 109.208 170.067 108.557 169.975 107.863C169.884 107.382 169.829 106.895 169.81 106.405C169.752 105.98 169.857 105.549 170.102 105.197C170.264 105.046 170.459 104.935 170.671 104.872C170.883 104.809 171.107 104.797 171.325 104.835C171.764 104.885 172.187 105.038 172.626 105.084C172.999 105.125 173.448 104.954 173.84 104.932C173.776 104.972 173.719 105.02 173.668 105.075C173.357 105.424 173.575 105.941 173.668 106.39C173.827 107.424 173.236 108.471 172.383 109.057Z" fill="url(#paint20_linear_173_2863)"/>
<path d="M152.367 120.44C152.187 120.297 151.972 120.204 151.744 120.169C151.631 120.155 151.517 120.183 151.422 120.248C151.328 120.313 151.261 120.41 151.234 120.521C151.234 120.68 151.287 120.834 151.387 120.957L151.807 121.615C151.859 121.683 151.891 121.765 151.897 121.852C151.897 122.07 151.586 122.113 151.365 122.085C149.995 121.911 148.629 121.487 147.263 121.668C147.158 121.671 147.057 121.712 146.98 121.783C146.94 121.842 146.922 121.913 146.928 121.984C146.935 122.055 146.965 122.121 147.014 122.172C147.117 122.272 147.243 122.344 147.381 122.381C148.146 122.662 148.932 122.883 149.731 123.042C149.641 123.266 149.345 123.306 149.109 123.316C148.447 123.34 147.789 123.415 147.139 123.54C146.768 123.609 146.314 123.796 146.311 124.163C146.321 124.286 146.37 124.402 146.45 124.496C146.529 124.59 146.637 124.657 146.756 124.687C146.997 124.743 147.246 124.752 147.49 124.711C148.347 124.64 149.209 124.662 150.061 124.777C149.14 124.883 148.265 125.238 147.531 125.805C147.464 125.852 147.408 125.914 147.369 125.986C147.285 126.166 147.444 126.384 147.633 126.447C147.83 126.487 148.034 126.475 148.225 126.412C149.076 126.215 149.944 126.102 150.817 126.076C150.291 126.319 149.801 126.633 149.361 127.011C149.227 127.114 149.121 127.247 149.049 127.4C149.013 127.477 149.002 127.564 149.016 127.648C149.031 127.732 149.07 127.81 149.13 127.87C149.21 127.919 149.3 127.949 149.393 127.957C149.486 127.964 149.579 127.95 149.666 127.914C150.702 127.634 151.617 126.961 152.678 126.805C153.232 126.721 153.873 126.755 154.259 126.347C154.424 126.145 154.539 125.907 154.595 125.652C154.825 124.852 155.301 123.16 154.819 122.381C154.629 122.07 154.169 121.814 153.885 121.584C153.4 121.176 152.893 120.794 152.367 120.44ZM169.71 119.163C169.53 119.02 169.315 118.926 169.088 118.892C168.974 118.878 168.86 118.906 168.766 118.971C168.672 119.036 168.605 119.133 168.577 119.244C168.577 119.403 168.631 119.556 168.73 119.68L169.15 120.337C169.203 120.406 169.234 120.488 169.24 120.574C169.225 120.792 168.929 120.836 168.708 120.808C167.339 120.633 165.972 120.207 164.606 120.39C164.501 120.392 164.401 120.432 164.323 120.503C164.283 120.562 164.264 120.633 164.27 120.705C164.277 120.776 164.307 120.844 164.357 120.895C164.46 120.995 164.587 121.066 164.725 121.104C165.49 121.384 166.275 121.605 167.074 121.764C166.984 121.989 166.688 122.026 166.452 122.035C165.79 122.063 165.132 122.139 164.482 122.263C164.112 122.331 163.657 122.515 163.654 122.886C163.665 123.009 163.713 123.125 163.793 123.219C163.873 123.313 163.98 123.379 164.099 123.409C164.34 123.466 164.589 123.474 164.833 123.434C165.69 123.362 166.552 123.384 167.404 123.5C166.484 123.605 165.61 123.961 164.877 124.528C164.809 124.573 164.753 124.634 164.712 124.705C164.699 124.753 164.695 124.802 164.701 124.851C164.707 124.9 164.723 124.947 164.747 124.99C164.771 125.033 164.804 125.071 164.843 125.101C164.882 125.131 164.926 125.153 164.974 125.166C165.17 125.209 165.374 125.198 165.565 125.135C166.415 124.936 167.284 124.823 168.157 124.799C167.631 125.041 167.141 125.356 166.701 125.733C166.567 125.836 166.461 125.97 166.389 126.123C166.354 126.2 166.343 126.287 166.357 126.37C166.372 126.454 166.411 126.532 166.47 126.593C166.55 126.642 166.641 126.672 166.734 126.679C166.828 126.687 166.922 126.672 167.009 126.637C168.042 126.356 168.957 125.683 170.018 125.528C170.572 125.444 171.213 125.478 171.599 125.07C171.764 124.868 171.879 124.63 171.935 124.375C172.168 123.574 172.642 121.883 172.159 121.101C171.969 120.789 171.509 120.537 171.226 120.306C170.741 119.899 170.235 119.517 169.71 119.163Z" fill="#606ED4"/>
<path d="M152.367 120.44C152.187 120.297 151.972 120.204 151.744 120.169C151.631 120.155 151.516 120.183 151.422 120.248C151.328 120.313 151.261 120.41 151.234 120.521C151.234 120.68 151.287 120.834 151.387 120.957L151.807 121.615C151.859 121.683 151.891 121.765 151.897 121.851C151.897 122.069 151.586 122.113 151.365 122.085C149.995 121.911 148.629 121.487 147.263 121.668C147.158 121.67 147.057 121.711 146.98 121.783C146.94 121.842 146.922 121.913 146.928 121.984C146.935 122.054 146.965 122.121 147.014 122.172C147.117 122.272 147.243 122.343 147.381 122.381C148.146 122.662 148.932 122.882 149.731 123.041C149.641 123.266 149.345 123.306 149.109 123.316C148.447 123.34 147.789 123.415 147.139 123.54C146.768 123.608 146.314 123.795 146.311 124.163C146.321 124.286 146.37 124.402 146.45 124.496C146.529 124.59 146.637 124.656 146.756 124.686C146.997 124.743 147.246 124.751 147.49 124.711C148.347 124.639 149.209 124.661 150.061 124.777C149.14 124.883 148.265 125.238 147.531 125.805C147.464 125.852 147.408 125.913 147.369 125.985C147.285 126.166 147.444 126.384 147.633 126.447C147.83 126.487 148.034 126.475 148.225 126.412C149.076 126.215 149.944 126.102 150.817 126.076C150.291 126.319 149.801 126.633 149.361 127.01C149.227 127.113 149.121 127.247 149.049 127.4C149.013 127.477 149.002 127.564 149.016 127.648C149.031 127.732 149.07 127.81 149.13 127.87C149.21 127.919 149.3 127.949 149.393 127.956C149.486 127.964 149.579 127.949 149.666 127.914C150.702 127.633 151.617 126.961 152.678 126.805C153.232 126.721 153.873 126.755 154.259 126.347C154.424 126.145 154.539 125.907 154.595 125.652C154.825 124.851 155.301 123.16 154.819 122.381C154.629 122.069 154.169 121.814 153.885 121.583C153.4 121.176 152.893 120.794 152.367 120.44Z" fill="url(#paint21_linear_173_2863)"/>
<path d="M169.71 119.163C169.53 119.02 169.315 118.926 169.088 118.892C168.974 118.878 168.86 118.906 168.766 118.971C168.672 119.036 168.605 119.133 168.577 119.244C168.577 119.403 168.631 119.556 168.73 119.68L169.15 120.337C169.203 120.406 169.234 120.488 169.24 120.574C169.225 120.792 168.929 120.836 168.708 120.808C167.339 120.633 165.973 120.207 164.606 120.39C164.501 120.392 164.401 120.432 164.323 120.503C164.283 120.562 164.264 120.633 164.27 120.705C164.277 120.776 164.307 120.844 164.357 120.895C164.46 120.995 164.587 121.066 164.725 121.104C165.49 121.384 166.275 121.605 167.074 121.764C166.984 121.989 166.688 122.026 166.452 122.035C165.79 122.063 165.132 122.139 164.482 122.263C164.112 122.331 163.657 122.515 163.654 122.886C163.665 123.009 163.713 123.125 163.793 123.219C163.873 123.313 163.98 123.379 164.099 123.409C164.34 123.466 164.589 123.474 164.834 123.434C165.69 123.362 166.552 123.384 167.404 123.5C166.484 123.605 165.61 123.961 164.877 124.528C164.809 124.573 164.753 124.634 164.712 124.705C164.699 124.753 164.695 124.802 164.701 124.851C164.707 124.9 164.723 124.947 164.747 124.99C164.771 125.033 164.804 125.071 164.843 125.101C164.882 125.131 164.926 125.153 164.974 125.166C165.17 125.209 165.374 125.198 165.565 125.135C166.415 124.936 167.284 124.823 168.157 124.799C167.631 125.041 167.141 125.356 166.701 125.733C166.567 125.836 166.461 125.97 166.39 126.123C166.354 126.2 166.343 126.287 166.357 126.37C166.372 126.454 166.411 126.532 166.47 126.593C166.55 126.642 166.641 126.672 166.734 126.679C166.828 126.687 166.922 126.672 167.009 126.637C168.042 126.356 168.957 125.683 170.018 125.528C170.572 125.444 171.213 125.478 171.599 125.07C171.764 124.868 171.879 124.63 171.935 124.375C172.169 123.574 172.642 121.883 172.159 121.101C171.969 120.789 171.509 120.537 171.226 120.306C170.741 119.899 170.235 119.517 169.71 119.163Z" fill="url(#paint22_linear_173_2863)"/>
</g>
<defs>
<linearGradient id="paint0_linear_173_2863" x1="8.88166" y1="174.215" x2="46.6676" y2="174.215" gradientUnits="userSpaceOnUse">
<stop stop-color="#183866"/>
<stop offset="1" stop-color="#1A7FC1"/>
</linearGradient>
<linearGradient id="paint1_linear_173_2863" x1="84.8923" y1="85.8597" x2="-151.142" y2="96.7555" gradientUnits="userSpaceOnUse">
<stop stop-opacity="0"/>
<stop offset="0.97" stop-color="#0C0C11"/>
<stop offset="0.98" stop-color="#312F43"/>
<stop offset="0.99" stop-color="#3F3D56"/>
</linearGradient>
<linearGradient id="paint2_linear_173_2863" x1="-3.69084" y1="120.284" x2="103.234" y2="103.649" gradientUnits="userSpaceOnUse">
<stop stop-opacity="0"/>
<stop offset="0.97" stop-color="#0C0C11"/>
<stop offset="0.98" stop-color="#312F43"/>
<stop offset="0.99" stop-color="#3F3D56"/>
</linearGradient>
<linearGradient id="paint3_linear_173_2863" x1="6.67526" y1="115.577" x2="82.2073" y2="111.035" gradientUnits="userSpaceOnUse">
<stop stop-opacity="0"/>
<stop offset="0.29" stop-opacity="0.29"/>
<stop offset="0.97" stop-color="#0C0C11"/>
<stop offset="0.98" stop-color="#312F43"/>
<stop offset="0.99" stop-color="#3F3D56"/>
</linearGradient>
<linearGradient id="paint4_linear_173_2863" x1="66.1923" y1="161.532" x2="25.8502" y2="105.734" gradientUnits="userSpaceOnUse">
<stop stop-opacity="0"/>
<stop offset="0.84" stop-opacity="0.66"/>
<stop offset="0.97"/>
</linearGradient>
<linearGradient id="paint5_linear_173_2863" x1="50.1562" y1="154.772" x2="1.46511" y2="158.614" gradientUnits="userSpaceOnUse">
<stop stop-opacity="0"/>
<stop offset="0.87" stop-opacity="0.66"/>
<stop offset="1"/>
</linearGradient>
<linearGradient id="paint6_linear_173_2863" x1="108.923" y1="-7.20266" x2="111.512" y2="210.063" gradientUnits="userSpaceOnUse">
<stop stop-opacity="0"/>
<stop offset="0.5" stop-opacity="0.38"/>
<stop offset="0.97" stop-color="#0C0C11"/>
<stop offset="0.98" stop-color="#312F43"/>
<stop offset="0.99" stop-color="#3F3D56"/>
</linearGradient>
<linearGradient id="paint7_linear_173_2863" x1="28.4313" y1="18.468" x2="27.056" y2="27.1843" gradientUnits="userSpaceOnUse">
<stop stop-color="#183866"/>
<stop offset="1" stop-color="#1A7FC1"/>
</linearGradient>
<linearGradient id="paint8_linear_173_2863" x1="34.8762" y1="18.4711" x2="33.5009" y2="27.1874" gradientUnits="userSpaceOnUse">
<stop stop-color="#183866"/>
<stop offset="1" stop-color="#1A7FC1"/>
</linearGradient>
<linearGradient id="paint9_linear_173_2863" x1="41.3212" y1="18.4742" x2="39.9459" y2="27.1905" gradientUnits="userSpaceOnUse">
<stop stop-color="#183866"/>
<stop offset="1" stop-color="#1A7FC1"/>
</linearGradient>
<linearGradient id="paint10_linear_173_2863" x1="118.01" y1="21.7888" x2="100.213" y2="134.668" gradientUnits="userSpaceOnUse">
<stop offset="0.01"/>
<stop offset="0.99" stop-opacity="0"/>
</linearGradient>
<linearGradient id="paint11_linear_173_2863" x1="107.769" y1="47.1948" x2="107.354" y2="73.6879" gradientUnits="userSpaceOnUse">
<stop offset="0.01"/>
<stop offset="0.99" stop-opacity="0"/>
</linearGradient>
<linearGradient id="paint12_linear_173_2863" x1="158.096" y1="115.153" x2="195.928" y2="151.808" gradientUnits="userSpaceOnUse">
<stop offset="0.01"/>
<stop offset="0.15" stop-opacity="0.52"/>
<stop offset="0.99" stop-opacity="0"/>
</linearGradient>
<linearGradient id="paint13_linear_173_2863" x1="169.318" y1="154.039" x2="125.598" y2="117.01" gradientUnits="userSpaceOnUse">
<stop offset="0.01"/>
<stop offset="0.16" stop-opacity="0.52"/>
<stop offset="1" stop-opacity="0"/>
</linearGradient>
<linearGradient id="paint14_linear_173_2863" x1="171.117" y1="156.354" x2="236.835" y2="139.659" gradientUnits="userSpaceOnUse">
<stop offset="0.01"/>
<stop offset="0.15" stop-opacity="0.52"/>
<stop offset="0.99" stop-opacity="0"/>
</linearGradient>
<linearGradient id="paint15_linear_173_2863" x1="166.088" y1="129.359" x2="216.83" y2="96.5174" gradientUnits="userSpaceOnUse">
<stop offset="0.01"/>
<stop offset="0.15" stop-opacity="0.52"/>
<stop offset="0.99" stop-opacity="0"/>
</linearGradient>
<linearGradient id="paint16_linear_173_2863" x1="172.337" y1="115.016" x2="217.733" y2="128.299" gradientUnits="userSpaceOnUse">
<stop offset="0.01"/>
<stop offset="0.15" stop-opacity="0.52"/>
<stop offset="0.99" stop-opacity="0"/>
</linearGradient>
<linearGradient id="paint17_linear_173_2863" x1="166.44" y1="100.596" x2="177.009" y2="103.317" gradientUnits="userSpaceOnUse">
<stop stop-color="#ECC4D7"/>
<stop offset="0.42" stop-color="#EFD4D1"/>
<stop offset="1" stop-color="#F2EAC9"/>
</linearGradient>
<linearGradient id="paint18_linear_173_2863" x1="165.599" y1="95.9503" x2="200.441" y2="82.9559" gradientUnits="userSpaceOnUse">
<stop offset="0.01"/>
<stop offset="0.03" stop-opacity="0.93"/>
<stop offset="0.51" stop-opacity="0.05"/>
<stop offset="0.58" stop-opacity="0.03"/>
<stop offset="0.99" stop-opacity="0"/>
</linearGradient>
<linearGradient id="paint19_linear_173_2863" x1="168.873" y1="99.5361" x2="192.68" y2="97.9414" gradientUnits="userSpaceOnUse">
<stop offset="0.01"/>
<stop offset="0.15" stop-opacity="0.52"/>
<stop offset="0.99" stop-opacity="0"/>
</linearGradient>
<linearGradient id="paint20_linear_173_2863" x1="169.217" y1="105.676" x2="180.625" y2="114.554" gradientUnits="userSpaceOnUse">
<stop stop-color="#ECC4D7"/>
<stop offset="0.42" stop-color="#EFD4D1"/>
<stop offset="1" stop-color="#F2EAC9"/>
</linearGradient>
<linearGradient id="paint21_linear_173_2863" x1="150.836" y1="118.512" x2="148.356" y2="196.801" gradientUnits="userSpaceOnUse">
<stop offset="0.01"/>
<stop offset="0.15" stop-opacity="0.52"/>
<stop offset="0.99" stop-opacity="0"/>
</linearGradient>
<linearGradient id="paint22_linear_173_2863" x1="168.132" y1="118.693" x2="165.653" y2="196.982" gradientUnits="userSpaceOnUse">
<stop offset="0.01"/>
<stop offset="0.15" stop-opacity="0.52"/>
<stop offset="0.99" stop-opacity="0"/>
</linearGradient>
<clipPath id="clip0_173_2863">
<rect width="220" height="186" fill="white"/>
</clipPath>
</defs>
</svg>
