<svg width="350" height="287" viewBox="0 0 350 287" fill="none" xmlns="http://www.w3.org/2000/svg">
<g clip-path="url(#clip0_130_298)">
<path opacity="0.19" d="M74.0855 265.339C74.7093 266.935 73.4221 268.704 71.8477 269.464C70.2733 270.223 68.4514 270.291 66.7483 270.718C64.0995 271.382 61.7676 272.891 59.2031 273.819C55.683 275.093 51.8509 275.232 48.0932 275.357C36.7556 275.737 24.6556 275.925 15.0211 270.108C14.6585 269.935 14.3645 269.651 14.1844 269.3C14.0831 268.952 14.1202 268.58 14.2884 268.257C15.0855 266.474 17.3728 265.931 19.3531 265.628C28.6807 264.215 38.231 262.936 47.6773 262.614C52.5886 262.455 72.224 260.561 74.0855 265.339Z" fill="url(#paint0_linear_130_298)"/>
<path opacity="0.18" d="M268.736 266.06C264.443 266.906 260.398 268.642 256.393 270.387L240.327 277.294C249.289 281.977 260.166 280.044 270.345 279.91C271.236 279.91 272.196 279.91 272.904 280.448C273.895 281.203 273.984 282.63 274.603 283.707C275.766 285.745 278.563 286.154 280.955 286.308C302.609 287.678 324.35 287.005 345.871 284.298C346.901 284.169 347.98 284.015 348.812 283.414C351.287 281.621 349.545 277.482 346.742 276.203C343.94 274.925 340.648 275.242 337.672 274.415C334.697 273.588 331.825 270.531 333.216 267.834C320.948 268.068 308.68 267.94 296.411 267.45C287.148 267.065 277.979 264.234 268.736 266.06Z" fill="#000206"/>
<path opacity="0.18" d="M327.889 162.156C329.899 141.798 340.103 120.262 329.671 101.856C326.933 97.0492 323.007 92.9296 318.616 89.0984C312.813 84.0462 306.204 79.4843 300.426 74.3936C290.203 65.3948 284.355 54.5934 276.479 44.7101C273.215 40.536 269.503 36.712 265.403 33.303C263.773 31.9666 262.123 30.6511 260.452 29.3564C246.758 18.8242 231.346 9.78209 213.82 4.5328C188.966 -2.89409 159.414 -1.69714 138.432 11.8587C130.877 16.7379 124.758 22.939 118.856 29.3564C114.094 34.5336 109.494 39.8502 104.405 44.6957C99.8547 49.0605 94.9236 53.0599 89.1657 56.2663C80.967 60.8378 71.5305 63.5249 62.8318 67.3657C57.2514 69.8287 51.9432 72.8357 46.9888 76.3405C40.339 81.0282 34.3923 86.5903 29.319 92.8671C18.3132 106.49 12.0948 122.906 12.5156 139.433C12.58 142.019 12.7978 144.62 12.882 147.216C13.0447 150.066 12.8737 152.925 12.3721 155.739C11.4512 160.353 9.18862 164.689 6.85178 168.987C3.6733 174.847 0.341331 180.634 0.0244726 186.984C-0.53003 197.916 7.80731 207.28 17.0556 215.283C18.6003 216.62 20.1747 217.922 21.7293 219.187C24.2047 221.206 26.7545 223.225 29.324 225.22L29.8191 225.604C31.1954 226.667 32.5767 227.724 33.9778 228.772C37.493 231.401 41.0923 233.964 44.7807 236.406C46.431 237.492 48.0814 238.548 49.7317 239.573C53.5884 241.977 57.5442 244.174 61.6139 246.178C71.6692 251.139 82.4077 254.764 93.9631 256.206C125.614 260.051 157.097 246.385 189.021 248.192C209.968 249.375 229.504 257.134 249.803 261.652C270.102 266.171 293.673 266.892 310.041 255.725C325.126 245.452 330.072 227.705 330.112 211.294C330.151 194.882 326.285 178.514 327.889 162.156Z" fill="#606ED4"/>
<path d="M304.917 29.3567H43.0135C41.2184 29.3542 39.4404 29.695 37.7809 30.3596C36.1215 31.0243 34.6131 31.9998 33.3419 33.2305C32.0707 34.4611 31.0617 35.9228 30.3723 37.5321C29.683 39.1414 29.3268 40.8668 29.3242 42.6097V225.609H318.591V42.629C318.591 39.1089 317.151 35.7331 314.588 33.2441C312.024 30.755 308.547 29.3567 304.922 29.3567H304.917Z" fill="#E7E4FC"/>
<path opacity="0.47" d="M81.7397 196.046C81.2446 201.06 76.6106 204.742 71.8379 206.318C69.3624 207.136 66.7335 207.592 64.6096 209.083C62.4856 210.573 61.0944 213.587 62.4312 215.812C64.0564 215.805 65.6462 216.273 66.9936 217.155C68.3411 218.038 69.3839 219.293 69.9863 220.759C66.9315 225.273 61.5202 227.739 56.1237 228.45C50.7272 229.162 45.2317 228.325 39.8847 227.46C38.0083 227.162 36.0081 226.797 34.6565 225.46C33.3049 224.124 32.9336 222.182 32.5969 220.341C32.5524 220.081 32.5029 219.822 32.4534 219.557H29.2056V44.6959H46.9348V127.858C46.9348 134.641 46.6179 141.481 46.7269 148.24C46.8358 154.672 51.2421 157.931 55.4405 162.608C56.7327 164.05 58.0744 165.579 58.4556 167.478C58.8665 169.492 58.1239 171.626 58.6734 173.602C59.624 177.034 64.0749 178.332 67.491 177.361C70.9071 176.39 73.645 173.89 76.5908 171.9C81.6816 168.472 87.6574 166.492 93.8447 166.184C91.7703 174.727 81.5664 180.125 81.3288 188.927C81.2545 191.311 81.9774 193.666 81.7397 196.046Z" fill="url(#paint1_linear_130_298)"/>
<path d="M16.7242 203.583C12.2683 196.589 9.14925 188.73 8.26304 180.553C7.71844 175.568 7.95113 170.309 5.6341 165.829C4.25775 163.166 2.01498 160.877 1.32186 157.969C0.0346172 152.537 4.5251 147.572 8.64921 143.692C8.89662 143.405 9.22809 143.197 9.59978 143.096C10.2434 142.981 10.8227 143.5 11.2138 144.014C13.5754 147.105 13.7635 151.225 14.3675 155.008C15.0161 159.118 16.4023 163.368 19.6254 166.112C22.8484 168.857 27.8142 170.064 29.4034 173.938C30.8145 177.39 28.7895 181.461 30.0619 184.966C31.3343 188.47 35.6862 190.571 36.3397 194.262C36.7754 196.714 35.4188 199.146 35.4584 201.632C35.4881 203.526 36.3248 205.309 36.8001 207.15C37.82 211.102 36.8001 222.672 30.6164 219.288C25.0169 216.235 20.0116 208.741 16.7242 203.583Z" fill="#606ED4"/>
<path d="M16.7242 203.583C12.2683 196.589 9.14925 188.73 8.26304 180.553C7.71844 175.568 7.95113 170.309 5.6341 165.829C4.25775 163.166 2.01498 160.877 1.32186 157.969C0.0346172 152.537 4.5251 147.572 8.64921 143.692C8.89662 143.405 9.22809 143.197 9.59978 143.096C10.2434 142.981 10.8227 143.5 11.2138 144.014C13.5754 147.105 13.7635 151.225 14.3675 155.008C15.0161 159.118 16.4023 163.368 19.6254 166.112C22.8484 168.857 27.8142 170.064 29.4034 173.938C30.8145 177.39 28.7895 181.461 30.0619 184.966C31.3343 188.47 35.6862 190.571 36.3397 194.262C36.7754 196.714 35.4188 199.146 35.4584 201.632C35.4881 203.526 36.3248 205.309 36.8001 207.15C37.82 211.102 36.8001 222.672 30.6164 219.288C25.0169 216.235 20.0116 208.741 16.7242 203.583Z" fill="url(#paint2_linear_130_298)"/>
<path d="M27.9627 195.637C26.3438 187.571 26.2893 179.139 28.4578 171.189C29.7698 166.338 31.9235 161.502 31.364 156.518C31.0471 153.552 29.7797 150.638 30.1956 147.687C30.9729 142.164 36.9783 139.034 42.2461 136.842C42.5847 136.662 42.9702 136.582 43.3551 136.612C44.0037 136.727 44.3453 137.409 44.5285 138.025C45.6127 141.726 44.2958 145.63 43.4739 149.393C42.5877 153.46 42.3352 157.912 44.3453 161.584C46.3554 165.257 50.5686 168.093 50.6429 172.261C50.7072 175.976 47.3307 179.091 47.2465 182.802C47.1624 186.513 50.4646 189.975 49.722 193.657C49.2269 196.099 47.0782 197.906 46.2118 200.242C45.5484 202.026 45.6821 203.982 45.4593 205.867C44.9642 209.914 39.8251 220.398 35.2505 215.096C31.1313 210.308 29.1509 201.584 27.9627 195.637Z" fill="#606ED4"/>
<path d="M27.9627 195.637C26.3438 187.571 26.2893 179.139 28.4578 171.189C29.7698 166.338 31.9235 161.502 31.364 156.518C31.0471 153.552 29.7797 150.638 30.1956 147.687C30.9729 142.164 36.9783 139.034 42.2461 136.842C42.5847 136.662 42.9702 136.582 43.3551 136.612C44.0037 136.727 44.3453 137.409 44.5285 138.025C45.6127 141.726 44.2958 145.63 43.4739 149.393C42.5877 153.46 42.3352 157.912 44.3453 161.584C46.3554 165.257 50.5686 168.093 50.6429 172.261C50.7072 175.976 47.3307 179.091 47.2465 182.802C47.1624 186.513 50.4646 189.975 49.722 193.657C49.2269 196.099 47.0782 197.906 46.2118 200.242C45.5484 202.026 45.6821 203.982 45.4593 205.867C44.9642 209.914 39.8251 220.398 35.2505 215.096C31.1313 210.308 29.1509 201.584 27.9627 195.637Z" fill="url(#paint3_linear_130_298)"/>
<path d="M39.3795 196.978C43.6373 189.874 49.316 183.519 56.3265 178.894C60.6041 176.082 65.4906 173.808 68.4711 169.713C70.2435 167.28 71.2733 164.281 73.5854 162.324C77.9174 158.666 84.5467 160.171 90.0125 161.882C90.39 161.96 90.7348 162.146 91.0027 162.416C91.4136 162.896 91.2106 163.651 90.9284 164.233C89.2352 167.708 85.5913 169.799 82.4227 172.107C78.9918 174.597 75.7836 177.784 74.8033 181.831C73.823 185.879 75.0657 190.71 72.2882 193.892C69.8128 196.728 65.1639 196.906 62.5795 199.661C59.9951 202.415 60.1337 207.116 57.084 209.414C55.059 210.938 52.2123 210.924 49.9744 212.125C48.2664 213.044 47.0386 214.596 45.5879 215.87C42.4788 218.605 31.4927 223.196 31.6511 216.283C31.7848 210.058 36.2357 202.218 39.3795 196.978Z" fill="#606ED4"/>
<path d="M39.3795 196.978C43.6373 189.874 49.316 183.519 56.3265 178.894C60.6041 176.082 65.4906 173.808 68.4711 169.713C70.2435 167.28 71.2733 164.281 73.5854 162.324C77.9174 158.666 84.5467 160.171 90.0125 161.882C90.39 161.96 90.7348 162.146 91.0027 162.416C91.4136 162.896 91.2106 163.651 90.9284 164.233C89.2352 167.708 85.5913 169.799 82.4227 172.107C78.9918 174.597 75.7836 177.784 74.8033 181.831C73.823 185.879 75.0657 190.71 72.2882 193.892C69.8128 196.728 65.1639 196.906 62.5795 199.661C59.9951 202.415 60.1337 207.116 57.084 209.414C55.059 210.938 52.2123 210.924 49.9744 212.125C48.2664 213.044 47.0386 214.596 45.5879 215.87C42.4788 218.605 31.4927 223.196 31.6511 216.283C31.7848 210.058 36.2357 202.218 39.3795 196.978Z" fill="url(#paint4_linear_130_298)"/>
<path d="M65.9561 221.97L65.2926 225.609L64.7233 228.777L63.3667 236.411L62.8271 239.579L61.4606 247.217L60.8913 250.38L57.495 269.358H22.1801L18.754 250.38L18.1847 247.217L16.8281 239.579L16.2538 236.411L14.8478 228.777L14.2883 225.609L13.6348 221.975C13.4874 221.16 13.507 220.325 13.6922 219.517C13.8775 218.71 14.2249 217.945 14.7146 217.268C15.2043 216.591 15.8267 216.014 16.5461 215.57C17.2655 215.127 18.068 214.825 18.9075 214.683C19.2786 214.62 19.6546 214.587 20.0314 214.587H59.5595C60.5063 214.585 61.442 214.785 62.3005 215.173C63.159 215.561 63.9195 216.127 64.5284 216.831C65.1374 217.535 65.5799 218.36 65.8249 219.248C66.0698 220.136 66.1112 221.065 65.9462 221.97H65.9561Z" fill="#606ED4"/>
<path d="M65.9561 221.97L65.2926 225.609L64.7233 228.777L63.3667 236.411L62.8271 239.579L61.4606 247.217L60.8913 250.38L57.495 269.358H22.1801L18.754 250.38L18.1847 247.217L16.8281 239.579L16.2538 236.411L14.8478 228.777L14.2883 225.609L13.6348 221.975C13.4874 221.16 13.507 220.325 13.6922 219.517C13.8775 218.71 14.2249 217.945 14.7146 217.268C15.2043 216.591 15.8267 216.014 16.5461 215.57C17.2655 215.127 18.068 214.825 18.9075 214.683C19.2786 214.62 19.6546 214.587 20.0314 214.587H59.5595C60.5063 214.585 61.442 214.785 62.3005 215.173C63.159 215.561 63.9195 216.127 64.5284 216.831C65.1374 217.535 65.5799 218.36 65.8249 219.248C66.0698 220.136 66.1112 221.065 65.9462 221.97H65.9561Z" fill="url(#paint5_linear_130_298)"/>
<path d="M318.591 42.629V44.696H29.3242V42.629C29.3242 39.1089 30.7644 35.7331 33.3279 33.244C35.8914 30.755 39.3683 29.3567 42.9937 29.3567H304.897C306.692 29.3561 308.47 29.6987 310.129 30.3651C311.787 31.0316 313.295 32.0086 314.564 33.2406C315.834 34.4726 316.842 35.9354 317.529 37.5454C318.217 39.1555 318.571 40.8812 318.572 42.6241L318.591 42.629Z" fill="url(#paint6_linear_130_298)"/>
<path d="M43.9444 39.4226C45.6314 39.4226 46.9991 38.0947 46.9991 36.4567C46.9991 34.8186 45.6314 33.4907 43.9444 33.4907C42.2573 33.4907 40.8896 34.8186 40.8896 36.4567C40.8896 38.0947 42.2573 39.4226 43.9444 39.4226Z" fill="url(#paint7_linear_130_298)"/>
<path d="M54.1978 39.4226C55.8849 39.4226 57.2525 38.0947 57.2525 36.4567C57.2525 34.8186 55.8849 33.4907 54.1978 33.4907C52.5107 33.4907 51.1431 34.8186 51.1431 36.4567C51.1431 38.0947 52.5107 39.4226 54.1978 39.4226Z" fill="url(#paint8_linear_130_298)"/>
<path d="M64.4461 39.4226C66.1331 39.4226 67.5008 38.0947 67.5008 36.4567C67.5008 34.8186 66.1331 33.4907 64.4461 33.4907C62.759 33.4907 61.3914 34.8186 61.3914 36.4567C61.3914 38.0947 62.759 39.4226 64.4461 39.4226Z" fill="url(#paint9_linear_130_298)"/>
<path d="M206.547 109.134V164.04C206.544 165.902 205.781 167.686 204.425 169.002C203.069 170.318 201.231 171.057 199.314 171.059H142.769C140.852 171.057 139.014 170.318 137.658 169.002C136.302 167.686 135.539 165.902 135.536 164.04V109.134C135.536 107.273 136.298 105.488 137.653 104.172C139.009 102.856 140.847 102.116 142.764 102.116H199.314C201.227 102.115 203.064 102.85 204.42 104.161C205.775 105.473 206.541 107.252 206.547 109.11V109.134Z" fill="url(#paint10_linear_130_298)"/>
<path d="M176.822 130.04C176.851 131.054 176.597 132.057 176.087 132.942C175.577 133.827 174.83 134.562 173.926 135.068C173.696 135.197 173.506 135.383 173.375 135.607C173.245 135.831 173.178 136.085 173.183 136.342V148.36C173.183 148.804 173.001 149.229 172.678 149.543C172.355 149.857 171.917 150.033 171.46 150.033H170.618C170.161 150.033 169.723 149.857 169.4 149.543C169.077 149.229 168.895 148.804 168.895 148.36V136.342C168.898 136.085 168.83 135.831 168.7 135.607C168.57 135.382 168.381 135.195 168.153 135.064C167.279 134.575 166.553 133.872 166.045 133.027C165.538 132.181 165.267 131.221 165.259 130.242C165.251 129.263 165.508 128.299 166.002 127.446C166.497 126.593 167.212 125.88 168.078 125.378C168.944 124.877 169.93 124.604 170.938 124.586C171.946 124.568 172.941 124.807 173.825 125.278C174.709 125.749 175.45 126.437 175.976 127.272C176.502 128.107 176.793 129.062 176.822 130.04ZM65.3074 225.609L64.7381 228.777H14.8626L14.2932 225.609H65.3074ZM63.3667 236.411L62.8023 239.578H16.8132L16.2389 236.411H63.3667ZM61.4358 247.217L60.8665 250.38H18.754L18.1846 247.217H61.4358Z" fill="#606ED4"/>
<path opacity="0.18" d="M244.679 147.043C242.357 143.885 238.847 141.688 235.109 140.313C234.257 140 233.297 139.731 232.465 140.082C231.881 140.395 231.391 140.851 231.044 141.404C229.242 143.808 227.366 146.403 227.192 149.374C226.935 153.893 230.623 158.705 228.257 162.603C227.598 163.69 226.549 164.497 225.781 165.516C224.336 167.439 224.004 169.958 224.197 172.333C224.43 175.183 224.806 178.995 222.034 179.966C221.201 180.203 220.318 180.215 219.479 180C217.048 179.519 214.8 178.39 212.419 177.717C210.038 177.044 207.29 176.885 205.22 178.197C205.037 180.764 207.31 182.903 209.701 184.014C212.092 185.124 214.786 185.629 216.979 187.076C220.296 189.258 221.93 193.325 221.826 197.233C221.722 201.141 220.147 204.843 218.137 208.213C217.202 209.78 216.157 211.342 215.771 213.116C215.013 216.654 217.053 220.129 219.009 223.21C219.583 224.109 220.212 225.061 221.212 225.484C222.059 225.764 222.964 225.835 223.846 225.691L258.571 222.807C259.562 222.725 260.715 222.533 261.141 221.663C261.329 221.128 261.329 220.548 261.141 220.014C260.007 215.293 256.438 211.409 255.17 206.718C254.586 204.53 254.522 202.247 254.457 199.988C254.2 190.672 253.878 181.264 251.833 172.107C250.808 167.545 248.283 163.281 247.283 158.835C246.353 154.686 247.63 151.052 244.679 147.043Z" fill="#000206"/>
<path d="M190.184 102.116H184.04V94.1027C184.032 90.7561 182.654 87.5498 180.211 85.1892C177.768 82.8287 174.459 81.5072 171.012 81.5155C167.565 81.5237 164.263 82.8611 161.832 85.2334C159.4 87.6057 158.039 90.8186 158.048 94.1652V102.116H151.899V93.9441C152.027 89.0882 154.107 84.4737 157.694 81.0882C161.282 77.7027 166.092 75.8152 171.095 75.8297C176.098 75.8441 180.896 77.7594 184.463 81.1655C188.03 84.5717 190.081 89.1981 190.179 94.0546L190.184 102.116Z" fill="url(#paint11_linear_130_298)"/>
<path d="M318.547 262.455L323.73 267.262L316.269 274.502L306.897 275.285C306.621 274.515 306.643 273.674 306.958 272.918C307.273 272.162 307.86 271.542 308.61 271.175C310.333 270.271 312.21 269.675 314.15 269.416L313.947 265.695L318.547 262.455ZM260.933 262.085L261.695 268.152L244.14 275.785C244.14 275.785 241.946 272.492 244.194 269.632C246.442 266.772 252.64 264.763 252.64 264.763L253.734 262.124L260.933 262.085Z" fill="#3F3D56"/>
<path d="M265.404 168.516C265.404 168.516 259.047 173.078 258.378 180.159C257.71 187.239 257.388 189.725 257.388 189.725L246.249 188.85L246.1 194.83C246.1 194.83 260.879 200.074 263.146 199.18C265.414 198.286 268.251 194.339 268.251 194.339L265.404 168.516Z" fill="#606ED4"/>
<path d="M265.404 168.516C265.404 168.516 259.047 173.078 258.378 180.159C257.71 187.239 257.388 189.725 257.388 189.725L246.249 188.85L246.1 194.83C246.1 194.83 260.879 200.074 263.146 199.18C265.414 198.286 268.251 194.339 268.251 194.339L265.404 168.516Z" fill="url(#paint12_linear_130_298)"/>
<path d="M269.681 206.256C269.681 206.256 246.412 224.898 246.224 231.253C246.036 237.608 251.942 262.455 251.942 262.455L260.963 262.407L261.225 236.286C261.225 236.286 280.256 229.835 282.326 225.936C284.395 222.038 288.782 203.021 269.681 206.256Z" fill="#606ED4"/>
<path d="M269.681 206.256C269.681 206.256 246.412 224.898 246.224 231.253C246.036 237.608 251.942 262.455 251.942 262.455L260.963 262.407L261.225 236.286C261.225 236.286 280.256 229.835 282.326 225.936C284.395 222.038 288.782 203.021 269.681 206.256Z" fill="url(#paint13_linear_130_298)"/>
<path d="M269.681 206.256C269.681 206.256 271.102 234.685 280.257 243.876C289.411 253.067 312.839 266.858 312.839 266.858L319.488 262.854L296.996 240.059C296.996 240.059 300.248 214.471 296.401 209.986C292.555 205.501 269.681 206.256 269.681 206.256Z" fill="#606ED4"/>
<path d="M269.681 206.256C269.681 206.256 271.102 234.685 280.257 243.876C289.411 253.067 312.839 266.858 312.839 266.858L319.488 262.854L296.996 240.059C296.996 240.059 300.248 214.471 296.401 209.986C292.555 205.501 269.681 206.256 269.681 206.256Z" fill="url(#paint14_linear_130_298)"/>
<path d="M269.681 206.256L261.73 173.592C261.73 173.592 266.186 161.137 283.846 165.146C301.506 169.155 296.387 209.986 296.387 209.986C296.387 209.986 276.563 216.37 269.681 206.256Z" fill="#606ED4"/>
<path d="M269.681 206.256L261.73 173.592C261.73 173.592 266.186 161.137 283.846 165.146C301.506 169.155 296.387 209.986 296.387 209.986C296.387 209.986 276.563 216.37 269.681 206.256Z" fill="url(#paint15_linear_130_298)"/>
<path d="M283.247 170.16C283.247 170.16 282.187 164.723 287.871 166.175C293.555 167.627 302.402 186.364 302.075 188.97C301.748 191.575 274.097 192.647 274.097 192.647L273.439 186.398L287.975 184.038C287.975 184.038 282.638 175.164 283.247 170.16Z" fill="#606ED4"/>
<path d="M283.247 170.16C283.247 170.16 282.187 164.723 287.871 166.175C293.555 167.627 302.402 186.364 302.075 188.97C301.748 191.575 274.097 192.647 274.097 192.647L273.439 186.398L287.975 184.038C287.975 184.038 282.638 175.164 283.247 170.16Z" fill="url(#paint16_linear_130_298)"/>
<path d="M280.534 158.565C279.852 159.933 278.692 161.022 277.261 161.637C277.021 161.717 276.787 161.815 276.563 161.93C276.462 161.992 276.371 162.066 276.291 162.151C275.796 162.69 276.142 163.488 276.291 164.18C276.568 165.757 275.627 167.372 274.271 168.275C273.509 168.75 272.673 169.102 271.795 169.319C270.562 169.631 269.236 169.703 268.3 169.275C266.815 168.598 266.963 166.391 266.636 165.04C265.557 160.656 264.611 156.162 265.102 151.629C265.364 149.225 266.057 146.774 267.547 144.822C269.038 142.87 271.409 141.457 273.914 141.5C276.419 141.543 278.796 143.077 280.583 144.865C281.208 145.462 281.735 146.148 282.148 146.899C283.306 149.153 282.692 151.85 282.049 154.292C281.721 155.77 281.212 157.204 280.534 158.565Z" fill="url(#paint17_linear_130_298)"/>
<path d="M282.524 147.932C282.524 147.932 275.098 147.932 270.607 150.47C266.602 152.725 265.498 157.541 265.161 157.46C264.404 157.291 261.933 152.653 262.973 151.629C264.012 150.605 263.191 150.6 263.191 150.6C263.191 150.6 261.997 148.677 262.596 145.226C263.087 142.704 263.759 140.22 264.607 137.789C264.607 137.789 264.918 136.645 269.414 137.789C273.909 138.933 281.489 142.428 281.91 143.846C282.331 145.264 281.984 145.913 281.984 145.913C281.984 145.913 283.217 146.793 282.524 147.932Z" fill="#606ED4"/>
<path d="M282.524 147.932C282.524 147.932 275.098 147.932 270.607 150.47C266.602 152.725 265.498 157.541 265.161 157.46C264.404 157.291 261.933 152.653 262.973 151.629C264.012 150.605 263.191 150.6 263.191 150.6C263.191 150.6 261.997 148.677 262.596 145.226C263.087 142.705 263.759 140.22 264.607 137.789C264.607 137.789 264.918 136.645 269.414 137.789C273.909 138.933 281.489 142.428 281.91 143.846C282.331 145.264 281.984 145.913 281.984 145.913C281.984 145.913 283.217 146.793 282.524 147.932Z" fill="url(#paint18_linear_130_298)"/>
<path d="M270.607 150.451C273.213 151.063 275.86 151.493 278.529 151.739C280.925 151.888 282.653 151.259 282.667 151.148C282.697 150.903 281.89 155.051 281.89 155.051L280.073 155.671C279.372 155.912 278.624 155.998 277.885 155.921L266.552 154.777C266.552 154.777 268.483 151.412 270.607 150.451Z" fill="#606ED4"/>
<path d="M270.607 150.451C273.213 151.063 275.86 151.493 278.529 151.739C280.925 151.888 282.653 151.259 282.667 151.148C282.697 150.903 281.89 155.051 281.89 155.051L280.073 155.671C279.372 155.912 278.624 155.998 277.885 155.921L266.552 154.777C266.552 154.777 268.483 151.412 270.607 150.451Z" fill="url(#paint19_linear_130_298)"/>
<path d="M275.266 152.585C275.592 152.499 275.936 152.509 276.256 152.614C276.474 152.652 276.672 152.763 276.816 152.927C276.898 153.051 276.955 153.19 276.984 153.335C277.014 153.418 277.014 153.507 276.984 153.59C276.942 153.637 276.888 153.673 276.827 153.692C276.765 153.712 276.7 153.715 276.637 153.7C276.047 153.704 275.461 153.595 274.914 153.378C274.469 153.153 274.89 152.715 275.266 152.585ZM280.494 152.821C280.587 152.74 280.696 152.678 280.814 152.639C280.933 152.6 281.058 152.585 281.182 152.595C281.263 152.59 281.344 152.602 281.42 152.629C281.496 152.657 281.565 152.699 281.623 152.754C281.706 152.86 281.772 152.978 281.816 153.104C281.855 153.182 281.872 153.268 281.866 153.354C281.854 153.404 281.828 153.448 281.79 153.483C281.752 153.517 281.704 153.539 281.653 153.547C281.258 153.699 280.828 153.74 280.41 153.667C280.053 153.566 280.256 153.037 280.494 152.821Z" fill="#606ED4"/>
<path d="M274.246 168.276C273.484 168.75 272.648 169.103 271.77 169.319C271.034 168.509 270.562 167.505 270.414 166.434C270.27 165.692 270.182 164.94 270.152 164.185C270.061 163.528 270.227 162.863 270.617 162.32C270.875 162.087 271.185 161.916 271.522 161.819C271.86 161.722 272.216 161.703 272.563 161.762C273.261 161.839 273.934 162.074 274.632 162.147C275.226 162.209 275.939 161.945 276.563 161.911C276.462 161.973 276.371 162.047 276.291 162.132C275.796 162.671 276.142 163.469 276.291 164.161C276.543 165.757 275.602 167.372 274.246 168.276Z" fill="url(#paint20_linear_130_298)"/>
<path d="M242.402 185.84C242.115 185.62 241.774 185.475 241.412 185.422C241.231 185.401 241.049 185.444 240.899 185.544C240.75 185.644 240.643 185.794 240.6 185.965C240.599 186.21 240.685 186.448 240.842 186.638L241.511 187.653C241.595 187.758 241.645 187.885 241.654 188.018C241.654 188.355 241.159 188.422 240.808 188.379C238.629 188.109 236.456 187.456 234.282 187.734C234.115 187.739 233.955 187.802 233.832 187.912C233.769 188.003 233.74 188.113 233.75 188.222C233.76 188.331 233.808 188.434 233.886 188.513C234.05 188.667 234.251 188.777 234.47 188.835C235.687 189.268 236.937 189.609 238.208 189.854C238.065 190.2 237.594 190.263 237.218 190.277C236.166 190.316 235.118 190.431 234.084 190.623C233.495 190.729 232.772 191.018 232.767 191.585C232.784 191.774 232.861 191.954 232.988 192.099C233.115 192.243 233.285 192.346 233.475 192.392C233.858 192.48 234.255 192.493 234.644 192.431C236.007 192.32 237.378 192.354 238.733 192.532C237.268 192.695 235.876 193.244 234.708 194.118C234.601 194.191 234.513 194.286 234.451 194.397C234.317 194.676 234.569 195.012 234.871 195.108C235.184 195.171 235.509 195.152 235.812 195.056C237.166 194.75 238.547 194.577 239.936 194.536C239.099 194.911 238.319 195.396 237.619 195.979C237.407 196.137 237.237 196.343 237.124 196.579C237.067 196.699 237.048 196.832 237.071 196.962C237.094 197.092 237.158 197.212 237.253 197.305C237.379 197.381 237.522 197.426 237.67 197.438C237.818 197.45 237.967 197.427 238.104 197.373C239.753 196.94 241.209 195.902 242.897 195.661C243.778 195.531 244.798 195.584 245.412 194.955C245.674 194.643 245.858 194.276 245.947 193.883C246.313 192.647 247.071 190.037 246.303 188.835C246.001 188.355 245.268 187.96 244.818 187.605C244.045 186.976 243.238 186.387 242.402 185.84ZM269.993 183.87C269.706 183.649 269.365 183.505 269.003 183.451C268.823 183.43 268.641 183.473 268.491 183.573C268.341 183.673 268.235 183.823 268.191 183.995C268.191 184.239 268.276 184.477 268.434 184.668L269.102 185.682C269.186 185.787 269.236 185.914 269.246 186.047C269.221 186.384 268.751 186.451 268.399 186.408C266.221 186.138 264.047 185.48 261.874 185.764C261.707 185.766 261.547 185.828 261.423 185.937C261.359 186.028 261.329 186.138 261.339 186.249C261.349 186.359 261.398 186.463 261.478 186.542C261.641 186.696 261.842 186.806 262.062 186.864C263.279 187.297 264.529 187.638 265.8 187.883C265.656 188.23 265.186 188.287 264.81 188.302C263.758 188.344 262.71 188.461 261.676 188.653C261.087 188.758 260.364 189.042 260.359 189.614C260.376 189.803 260.453 189.983 260.58 190.128C260.707 190.273 260.877 190.375 261.067 190.422C261.45 190.509 261.847 190.522 262.235 190.46C263.598 190.349 264.969 190.383 266.325 190.561C264.861 190.724 263.471 191.273 262.304 192.147C262.196 192.218 262.107 192.311 262.042 192.421C262.021 192.495 262.015 192.571 262.025 192.647C262.034 192.722 262.059 192.795 262.098 192.861C262.136 192.927 262.188 192.985 262.25 193.032C262.312 193.078 262.382 193.113 262.458 193.133C262.77 193.199 263.095 193.182 263.399 193.085C264.752 192.777 266.134 192.603 267.523 192.566C266.686 192.94 265.906 193.425 265.206 194.008C264.994 194.167 264.824 194.373 264.711 194.608C264.654 194.728 264.637 194.861 264.66 194.991C264.683 195.12 264.745 195.24 264.839 195.334C264.967 195.41 265.111 195.456 265.259 195.467C265.408 195.479 265.558 195.457 265.696 195.402C267.34 194.969 268.795 193.931 270.483 193.69C271.365 193.561 272.385 193.613 272.998 192.984C273.261 192.672 273.444 192.305 273.533 191.912C273.904 190.676 274.657 188.066 273.89 186.86C273.588 186.379 272.855 185.989 272.404 185.634C271.633 185.005 270.828 184.416 269.993 183.87Z" fill="#606ED4"/>
<path d="M242.402 185.841C242.115 185.62 241.774 185.475 241.412 185.422C241.231 185.401 241.049 185.444 240.899 185.544C240.75 185.644 240.643 185.794 240.6 185.965C240.599 186.21 240.685 186.448 240.842 186.638L241.511 187.653C241.595 187.758 241.645 187.885 241.654 188.018C241.654 188.355 241.159 188.422 240.808 188.379C238.629 188.109 236.456 187.456 234.282 187.734C234.115 187.739 233.955 187.802 233.832 187.912C233.769 188.003 233.74 188.113 233.75 188.222C233.76 188.331 233.808 188.434 233.886 188.513C234.05 188.667 234.251 188.777 234.47 188.835C235.687 189.268 236.937 189.609 238.208 189.854C238.065 190.2 237.594 190.263 237.218 190.277C236.166 190.316 235.118 190.431 234.084 190.624C233.495 190.729 232.772 191.018 232.767 191.585C232.784 191.774 232.861 191.954 232.988 192.099C233.115 192.243 233.285 192.346 233.475 192.393C233.858 192.48 234.255 192.493 234.644 192.431C236.007 192.32 237.378 192.354 238.733 192.532C237.268 192.695 235.876 193.244 234.708 194.118C234.601 194.191 234.513 194.286 234.451 194.397C234.317 194.676 234.569 195.012 234.871 195.108C235.184 195.171 235.509 195.152 235.812 195.056C237.166 194.751 238.547 194.577 239.936 194.536C239.099 194.911 238.319 195.396 237.619 195.979C237.407 196.137 237.237 196.344 237.124 196.579C237.067 196.699 237.048 196.832 237.071 196.962C237.094 197.092 237.158 197.212 237.253 197.305C237.379 197.381 237.522 197.427 237.67 197.438C237.818 197.45 237.967 197.427 238.104 197.373C239.753 196.94 241.209 195.902 242.897 195.661C243.778 195.532 244.798 195.584 245.412 194.955C245.674 194.643 245.858 194.276 245.947 193.883C246.313 192.647 247.071 190.037 246.303 188.835C246.001 188.355 245.268 187.96 244.818 187.605C244.045 186.976 243.238 186.387 242.402 185.841Z" fill="url(#paint21_linear_130_298)"/>
<path d="M269.993 183.87C269.706 183.649 269.365 183.505 269.003 183.451C268.823 183.43 268.64 183.473 268.491 183.573C268.341 183.673 268.234 183.823 268.191 183.995C268.19 184.239 268.276 184.477 268.434 184.668L269.102 185.682C269.186 185.787 269.236 185.914 269.246 186.047C269.221 186.384 268.75 186.451 268.399 186.408C266.221 186.138 264.047 185.48 261.874 185.764C261.707 185.766 261.547 185.828 261.423 185.937C261.359 186.028 261.329 186.138 261.339 186.249C261.349 186.359 261.398 186.463 261.478 186.542C261.641 186.696 261.842 186.806 262.062 186.864C263.279 187.297 264.528 187.638 265.8 187.883C265.656 188.23 265.186 188.287 264.81 188.302C263.757 188.344 262.71 188.461 261.676 188.653C261.086 188.758 260.364 189.042 260.359 189.614C260.375 189.803 260.453 189.983 260.58 190.128C260.706 190.273 260.877 190.375 261.067 190.422C261.45 190.509 261.847 190.522 262.235 190.46C263.598 190.349 264.969 190.383 266.324 190.561C264.861 190.724 263.47 191.273 262.304 192.147C262.196 192.218 262.106 192.311 262.042 192.421C262.021 192.495 262.015 192.571 262.025 192.647C262.034 192.722 262.059 192.795 262.098 192.861C262.136 192.927 262.188 192.985 262.25 193.032C262.312 193.078 262.382 193.113 262.458 193.133C262.77 193.199 263.095 193.182 263.399 193.085C264.752 192.777 266.133 192.603 267.523 192.566C266.685 192.94 265.906 193.425 265.206 194.008C264.993 194.167 264.824 194.373 264.71 194.608C264.654 194.728 264.637 194.861 264.66 194.991C264.683 195.12 264.745 195.24 264.839 195.334C264.967 195.41 265.11 195.456 265.259 195.467C265.408 195.479 265.558 195.457 265.696 195.402C267.339 194.969 268.795 193.931 270.483 193.69C271.365 193.561 272.384 193.613 272.998 192.984C273.261 192.672 273.444 192.305 273.533 191.912C273.904 190.676 274.657 188.066 273.889 186.86C273.587 186.379 272.855 185.989 272.404 185.634C271.633 185.005 270.828 184.416 269.993 183.87Z" fill="url(#paint22_linear_130_298)"/>
</g>
<defs>
<linearGradient id="paint0_linear_130_298" x1="14.1299" y1="268.815" x2="74.2439" y2="268.815" gradientUnits="userSpaceOnUse">
<stop stop-color="#183866"/>
<stop offset="1" stop-color="#1A7FC1"/>
</linearGradient>
<linearGradient id="paint1_linear_130_298" x1="135.056" y1="132.482" x2="-240.402" y2="150.352" gradientUnits="userSpaceOnUse">
<stop stop-opacity="0"/>
<stop offset="0.97" stop-color="#0C0C11"/>
<stop offset="0.98" stop-color="#312F43"/>
<stop offset="0.99" stop-color="#3F3D56"/>
</linearGradient>
<linearGradient id="paint2_linear_130_298" x1="-5.87183" y1="185.6" x2="163.982" y2="158.354" gradientUnits="userSpaceOnUse">
<stop stop-opacity="0"/>
<stop offset="0.97" stop-color="#0C0C11"/>
<stop offset="0.98" stop-color="#312F43"/>
<stop offset="0.99" stop-color="#3F3D56"/>
</linearGradient>
<linearGradient id="paint3_linear_130_298" x1="10.6197" y1="178.337" x2="130.757" y2="170.889" gradientUnits="userSpaceOnUse">
<stop stop-opacity="0"/>
<stop offset="0.29" stop-opacity="0.29"/>
<stop offset="0.97" stop-color="#0C0C11"/>
<stop offset="0.98" stop-color="#312F43"/>
<stop offset="0.99" stop-color="#3F3D56"/>
</linearGradient>
<linearGradient id="paint4_linear_130_298" x1="105.306" y1="249.245" x2="43.6769" y2="161.358" gradientUnits="userSpaceOnUse">
<stop stop-opacity="0"/>
<stop offset="0.84" stop-opacity="0.66"/>
<stop offset="0.97"/>
</linearGradient>
<linearGradient id="paint5_linear_130_298" x1="79.7939" y1="238.814" x2="2.36104" y2="245.114" gradientUnits="userSpaceOnUse">
<stop stop-opacity="0"/>
<stop offset="0.87" stop-opacity="0.66"/>
<stop offset="1"/>
</linearGradient>
<linearGradient id="paint6_linear_130_298" x1="173.287" y1="-11.1139" x2="177.161" y2="324.132" gradientUnits="userSpaceOnUse">
<stop stop-opacity="0"/>
<stop offset="0.5" stop-opacity="0.38"/>
<stop offset="0.97" stop-color="#0C0C11"/>
<stop offset="0.98" stop-color="#312F43"/>
<stop offset="0.99" stop-color="#3F3D56"/>
</linearGradient>
<linearGradient id="paint7_linear_130_298" x1="45.2316" y1="28.4962" x2="43.1704" y2="41.965" gradientUnits="userSpaceOnUse">
<stop stop-color="#183866"/>
<stop offset="1" stop-color="#1A7FC1"/>
</linearGradient>
<linearGradient id="paint8_linear_130_298" x1="55.485" y1="28.501" x2="53.4238" y2="41.9698" gradientUnits="userSpaceOnUse">
<stop stop-color="#183866"/>
<stop offset="1" stop-color="#1A7FC1"/>
</linearGradient>
<linearGradient id="paint9_linear_130_298" x1="65.7383" y1="28.5058" x2="63.6771" y2="41.9746" gradientUnits="userSpaceOnUse">
<stop stop-color="#183866"/>
<stop offset="1" stop-color="#1A7FC1"/>
</linearGradient>
<linearGradient id="paint10_linear_130_298" x1="187.744" y1="33.6205" x2="161.07" y2="208.046" gradientUnits="userSpaceOnUse">
<stop offset="0.01"/>
<stop offset="0.99" stop-opacity="0"/>
</linearGradient>
<linearGradient id="paint11_linear_130_298" x1="171.45" y1="72.8219" x2="170.829" y2="113.702" gradientUnits="userSpaceOnUse">
<stop offset="0.01"/>
<stop offset="0.99" stop-opacity="0"/>
</linearGradient>
<linearGradient id="paint12_linear_130_298" x1="251.516" y1="177.683" x2="309.92" y2="236.027" gradientUnits="userSpaceOnUse">
<stop offset="0.01"/>
<stop offset="0.15" stop-opacity="0.52"/>
<stop offset="0.99" stop-opacity="0"/>
</linearGradient>
<linearGradient id="paint13_linear_130_298" x1="269.369" y1="237.685" x2="201.6" y2="178.504" gradientUnits="userSpaceOnUse">
<stop offset="0.01"/>
<stop offset="0.16" stop-opacity="0.52"/>
<stop offset="1" stop-opacity="0"/>
</linearGradient>
<linearGradient id="paint14_linear_130_298" x1="272.231" y1="241.256" x2="376.385" y2="213.975" gradientUnits="userSpaceOnUse">
<stop offset="0.01"/>
<stop offset="0.15" stop-opacity="0.52"/>
<stop offset="0.99" stop-opacity="0"/>
</linearGradient>
<linearGradient id="paint15_linear_130_298" x1="264.23" y1="199.603" x2="343.482" y2="146.717" gradientUnits="userSpaceOnUse">
<stop offset="0.01"/>
<stop offset="0.15" stop-opacity="0.52"/>
<stop offset="0.99" stop-opacity="0"/>
</linearGradient>
<linearGradient id="paint16_linear_130_298" x1="274.172" y1="177.471" x2="346.036" y2="199.151" gradientUnits="userSpaceOnUse">
<stop offset="0.01"/>
<stop offset="0.15" stop-opacity="0.52"/>
<stop offset="0.99" stop-opacity="0"/>
</linearGradient>
<linearGradient id="paint17_linear_130_298" x1="264.79" y1="155.22" x2="281.54" y2="159.667" gradientUnits="userSpaceOnUse">
<stop stop-color="#ECC4D7"/>
<stop offset="0.42" stop-color="#EFD4D1"/>
<stop offset="1" stop-color="#F2EAC9"/>
</linearGradient>
<linearGradient id="paint18_linear_130_298" x1="263.453" y1="148.052" x2="318.46" y2="126.9" gradientUnits="userSpaceOnUse">
<stop offset="0.01"/>
<stop offset="0.03" stop-opacity="0.93"/>
<stop offset="0.51" stop-opacity="0.05"/>
<stop offset="0.58" stop-opacity="0.03"/>
<stop offset="0.99" stop-opacity="0"/>
</linearGradient>
<linearGradient id="paint19_linear_130_298" x1="268.661" y1="153.585" x2="306.526" y2="150.97" gradientUnits="userSpaceOnUse">
<stop offset="0.01"/>
<stop offset="0.15" stop-opacity="0.52"/>
<stop offset="0.99" stop-opacity="0"/>
</linearGradient>
<linearGradient id="paint20_linear_130_298" x1="269.208" y1="163.059" x2="286.937" y2="177.283" gradientUnits="userSpaceOnUse">
<stop stop-color="#ECC4D7"/>
<stop offset="0.42" stop-color="#EFD4D1"/>
<stop offset="1" stop-color="#F2EAC9"/>
</linearGradient>
<linearGradient id="paint21_linear_130_298" x1="239.966" y1="182.865" x2="236.255" y2="303.673" gradientUnits="userSpaceOnUse">
<stop offset="0.01"/>
<stop offset="0.15" stop-opacity="0.52"/>
<stop offset="0.99" stop-opacity="0"/>
</linearGradient>
<linearGradient id="paint22_linear_130_298" x1="267.483" y1="183.144" x2="263.772" y2="303.952" gradientUnits="userSpaceOnUse">
<stop offset="0.01"/>
<stop offset="0.15" stop-opacity="0.52"/>
<stop offset="0.99" stop-opacity="0"/>
</linearGradient>
<clipPath id="clip0_130_298">
<rect width="350" height="287" fill="white"/>
</clipPath>
</defs>
</svg>
