<svg width="1363" height="163" viewBox="0 0 1363 163" fill="none" xmlns="http://www.w3.org/2000/svg">
<path d="M0 15C0 6.71573 6.71573 0 15 0H37V163H15C6.71573 163 0 156.284 0 148V15Z" fill="#424242"/>
<rect width="1097" height="163" transform="translate(37)" fill="#F0F0F0"/>
<path d="M101.906 53.9219L94.3945 51.2383V48.0859L104.602 52.375V54.6367L101.906 53.9219ZM94.3945 56.1719L101.918 53.4297L104.602 52.7852V55.0352L94.3945 59.3242V56.1719ZM121.781 56.5352C121.781 56.2305 121.734 55.957 121.641 55.7148C121.555 55.4648 121.391 55.2383 121.148 55.0352C120.906 54.8242 120.566 54.6172 120.129 54.4141C119.691 54.2109 119.125 54 118.43 53.7812C117.656 53.5312 116.922 53.25 116.227 52.9375C115.539 52.625 114.93 52.2617 114.398 51.8477C113.875 51.4258 113.461 50.9375 113.156 50.3828C112.859 49.8281 112.711 49.1836 112.711 48.4492C112.711 47.7383 112.867 47.0938 113.18 46.5156C113.492 45.9297 113.93 45.4297 114.492 45.0156C115.055 44.5938 115.719 44.2695 116.484 44.043C117.258 43.8164 118.105 43.7031 119.027 43.7031C120.285 43.7031 121.383 43.9297 122.32 44.3828C123.258 44.8359 123.984 45.457 124.5 46.2461C125.023 47.0352 125.285 47.9375 125.285 48.9531H121.793C121.793 48.4531 121.688 48.0156 121.477 47.6406C121.273 47.2578 120.961 46.957 120.539 46.7383C120.125 46.5195 119.602 46.4102 118.969 46.4102C118.359 46.4102 117.852 46.5039 117.445 46.6914C117.039 46.8711 116.734 47.1172 116.531 47.4297C116.328 47.7344 116.227 48.0781 116.227 48.4609C116.227 48.75 116.297 49.0117 116.438 49.2461C116.586 49.4805 116.805 49.6992 117.094 49.9023C117.383 50.1055 117.738 50.2969 118.16 50.4766C118.582 50.6562 119.07 50.832 119.625 51.0039C120.555 51.2852 121.371 51.6016 122.074 51.9531C122.785 52.3047 123.379 52.6992 123.855 53.1367C124.332 53.5742 124.691 54.0703 124.934 54.625C125.176 55.1797 125.297 55.8086 125.297 56.5117C125.297 57.2539 125.152 57.918 124.863 58.5039C124.574 59.0898 124.156 59.5859 123.609 59.9922C123.062 60.3984 122.41 60.707 121.652 60.918C120.895 61.1289 120.047 61.2344 119.109 61.2344C118.266 61.2344 117.434 61.125 116.613 60.9062C115.793 60.6797 115.047 60.3398 114.375 59.8867C113.711 59.4336 113.18 58.8555 112.781 58.1523C112.383 57.4492 112.184 56.6172 112.184 55.6562H115.711C115.711 56.1875 115.793 56.6367 115.957 57.0039C116.121 57.3711 116.352 57.668 116.648 57.8945C116.953 58.1211 117.312 58.2852 117.727 58.3867C118.148 58.4883 118.609 58.5391 119.109 58.5391C119.719 58.5391 120.219 58.4531 120.609 58.2812C121.008 58.1094 121.301 57.8711 121.488 57.5664C121.684 57.2617 121.781 56.918 121.781 56.5352ZM133.312 61.2344C132.328 61.2344 131.445 61.0781 130.664 60.7656C129.883 60.4453 129.219 60.0039 128.672 59.4414C128.133 58.8789 127.719 58.2266 127.43 57.4844C127.141 56.7344 126.996 55.9375 126.996 55.0938V54.625C126.996 53.6641 127.133 52.7852 127.406 51.9883C127.68 51.1914 128.07 50.5 128.578 49.9141C129.094 49.3281 129.719 48.8789 130.453 48.5664C131.188 48.2461 132.016 48.0859 132.938 48.0859C133.836 48.0859 134.633 48.2344 135.328 48.5312C136.023 48.8281 136.605 49.25 137.074 49.7969C137.551 50.3438 137.91 51 138.152 51.7656C138.395 52.5234 138.516 53.3672 138.516 54.2969V55.7031H128.438V53.4531H135.199V53.1953C135.199 52.7266 135.113 52.3086 134.941 51.9414C134.777 51.5664 134.527 51.2695 134.191 51.0508C133.855 50.832 133.426 50.7227 132.902 50.7227C132.457 50.7227 132.074 50.8203 131.754 51.0156C131.434 51.2109 131.172 51.4844 130.969 51.8359C130.773 52.1875 130.625 52.6016 130.523 53.0781C130.43 53.5469 130.383 54.0625 130.383 54.625V55.0938C130.383 55.6016 130.453 56.0703 130.594 56.5C130.742 56.9297 130.949 57.3008 131.215 57.6133C131.488 57.9258 131.816 58.168 132.199 58.3398C132.59 58.5117 133.031 58.5977 133.523 58.5977C134.133 58.5977 134.699 58.4805 135.223 58.2461C135.754 58.0039 136.211 57.6406 136.594 57.1562L138.234 58.9375C137.969 59.3203 137.605 59.6875 137.145 60.0391C136.691 60.3906 136.145 60.6797 135.504 60.9062C134.863 61.125 134.133 61.2344 133.312 61.2344ZM145.676 58.5977C146.09 58.5977 146.457 58.5195 146.777 58.3633C147.098 58.1992 147.348 57.9727 147.527 57.6836C147.715 57.3867 147.812 57.0391 147.82 56.6406H150.996C150.988 57.5312 150.75 58.3242 150.281 59.0195C149.812 59.707 149.184 60.25 148.395 60.6484C147.605 61.0391 146.723 61.2344 145.746 61.2344C144.762 61.2344 143.902 61.0703 143.168 60.7422C142.441 60.4141 141.836 59.9609 141.352 59.3828C140.867 58.7969 140.504 58.1172 140.262 57.3438C140.02 56.5625 139.898 55.7266 139.898 54.8359V54.4961C139.898 53.5977 140.02 52.7617 140.262 51.9883C140.504 51.207 140.867 50.5273 141.352 49.9492C141.836 49.3633 142.441 48.9062 143.168 48.5781C143.895 48.25 144.746 48.0859 145.723 48.0859C146.762 48.0859 147.672 48.2852 148.453 48.6836C149.242 49.082 149.859 49.6523 150.305 50.3945C150.758 51.1289 150.988 52 150.996 53.0078H147.82C147.812 52.5859 147.723 52.2031 147.551 51.8594C147.387 51.5156 147.145 51.2422 146.824 51.0391C146.512 50.8281 146.125 50.7227 145.664 50.7227C145.172 50.7227 144.77 50.8281 144.457 51.0391C144.145 51.2422 143.902 51.5234 143.73 51.8828C143.559 52.2344 143.438 52.6367 143.367 53.0898C143.305 53.5352 143.273 54.0039 143.273 54.4961V54.8359C143.273 55.3281 143.305 55.8008 143.367 56.2539C143.43 56.707 143.547 57.1094 143.719 57.4609C143.898 57.8125 144.145 58.0898 144.457 58.293C144.77 58.4961 145.176 58.5977 145.676 58.5977ZM160.453 57.9648V48.3203H163.828V61H160.652L160.453 57.9648ZM160.828 55.3633L161.824 55.3398C161.824 56.1836 161.727 56.9688 161.531 57.6953C161.336 58.4141 161.043 59.0391 160.652 59.5703C160.262 60.0938 159.77 60.5039 159.176 60.8008C158.582 61.0898 157.883 61.2344 157.078 61.2344C156.461 61.2344 155.891 61.1484 155.367 60.9766C154.852 60.7969 154.406 60.5195 154.031 60.1445C153.664 59.7617 153.375 59.2734 153.164 58.6797C152.961 58.0781 152.859 57.3555 152.859 56.5117V48.3203H156.234V56.5352C156.234 56.9102 156.277 57.2266 156.363 57.4844C156.457 57.7422 156.586 57.9531 156.75 58.1172C156.914 58.2812 157.105 58.3984 157.324 58.4688C157.551 58.5391 157.801 58.5742 158.074 58.5742C158.77 58.5742 159.316 58.4336 159.715 58.1523C160.121 57.8711 160.406 57.4883 160.57 57.0039C160.742 56.5117 160.828 55.9648 160.828 55.3633ZM169.781 51.0859V61H166.406V48.3203H169.582L169.781 51.0859ZM173.602 48.2383L173.543 51.3672C173.379 51.3438 173.18 51.3242 172.945 51.3086C172.719 51.2852 172.512 51.2734 172.324 51.2734C171.848 51.2734 171.434 51.3359 171.082 51.4609C170.738 51.5781 170.449 51.7539 170.215 51.9883C169.988 52.2227 169.816 52.5078 169.699 52.8438C169.59 53.1797 169.527 53.5625 169.512 53.9922L168.832 53.7812C168.832 52.9609 168.914 52.207 169.078 51.5195C169.242 50.8242 169.48 50.2188 169.793 49.7031C170.113 49.1875 170.504 48.7891 170.965 48.5078C171.426 48.2266 171.953 48.0859 172.547 48.0859C172.734 48.0859 172.926 48.1016 173.121 48.1328C173.316 48.1562 173.477 48.1914 173.602 48.2383ZM180.797 61.2344C179.812 61.2344 178.93 61.0781 178.148 60.7656C177.367 60.4453 176.703 60.0039 176.156 59.4414C175.617 58.8789 175.203 58.2266 174.914 57.4844C174.625 56.7344 174.48 55.9375 174.48 55.0938V54.625C174.48 53.6641 174.617 52.7852 174.891 51.9883C175.164 51.1914 175.555 50.5 176.062 49.9141C176.578 49.3281 177.203 48.8789 177.938 48.5664C178.672 48.2461 179.5 48.0859 180.422 48.0859C181.32 48.0859 182.117 48.2344 182.812 48.5312C183.508 48.8281 184.09 49.25 184.559 49.7969C185.035 50.3438 185.395 51 185.637 51.7656C185.879 52.5234 186 53.3672 186 54.2969V55.7031H175.922V53.4531H182.684V53.1953C182.684 52.7266 182.598 52.3086 182.426 51.9414C182.262 51.5664 182.012 51.2695 181.676 51.0508C181.34 50.832 180.91 50.7227 180.387 50.7227C179.941 50.7227 179.559 50.8203 179.238 51.0156C178.918 51.2109 178.656 51.4844 178.453 51.8359C178.258 52.1875 178.109 52.6016 178.008 53.0781C177.914 53.5469 177.867 54.0625 177.867 54.625V55.0938C177.867 55.6016 177.938 56.0703 178.078 56.5C178.227 56.9297 178.434 57.3008 178.699 57.6133C178.973 57.9258 179.301 58.168 179.684 58.3398C180.074 58.5117 180.516 58.5977 181.008 58.5977C181.617 58.5977 182.184 58.4805 182.707 58.2461C183.238 58.0039 183.695 57.6406 184.078 57.1562L185.719 58.9375C185.453 59.3203 185.09 59.6875 184.629 60.0391C184.176 60.3906 183.629 60.6797 182.988 60.9062C182.348 61.125 181.617 61.2344 180.797 61.2344ZM194.109 43.9375H200.473C201.777 43.9375 202.898 44.1328 203.836 44.5234C204.781 44.9141 205.508 45.4922 206.016 46.2578C206.523 47.0234 206.777 47.9648 206.777 49.082C206.777 49.9961 206.621 50.7812 206.309 51.4375C206.004 52.0859 205.57 52.6289 205.008 53.0664C204.453 53.4961 203.801 53.8398 203.051 54.0977L201.938 54.6836H196.406L196.383 51.9414H200.496C201.113 51.9414 201.625 51.832 202.031 51.6133C202.438 51.3945 202.742 51.0898 202.945 50.6992C203.156 50.3086 203.262 49.8555 203.262 49.3398C203.262 48.793 203.16 48.3203 202.957 47.9219C202.754 47.5234 202.445 47.2188 202.031 47.0078C201.617 46.7969 201.098 46.6914 200.473 46.6914H197.625V61H194.109V43.9375ZM203.648 61L199.758 53.3945L203.473 53.3711L207.41 60.8359V61H203.648ZM215.109 61.2344C214.125 61.2344 213.242 61.0781 212.461 60.7656C211.68 60.4453 211.016 60.0039 210.469 59.4414C209.93 58.8789 209.516 58.2266 209.227 57.4844C208.938 56.7344 208.793 55.9375 208.793 55.0938V54.625C208.793 53.6641 208.93 52.7852 209.203 51.9883C209.477 51.1914 209.867 50.5 210.375 49.9141C210.891 49.3281 211.516 48.8789 212.25 48.5664C212.984 48.2461 213.812 48.0859 214.734 48.0859C215.633 48.0859 216.43 48.2344 217.125 48.5312C217.82 48.8281 218.402 49.25 218.871 49.7969C219.348 50.3438 219.707 51 219.949 51.7656C220.191 52.5234 220.312 53.3672 220.312 54.2969V55.7031H210.234V53.4531H216.996V53.1953C216.996 52.7266 216.91 52.3086 216.738 51.9414C216.574 51.5664 216.324 51.2695 215.988 51.0508C215.652 50.832 215.223 50.7227 214.699 50.7227C214.254 50.7227 213.871 50.8203 213.551 51.0156C213.23 51.2109 212.969 51.4844 212.766 51.8359C212.57 52.1875 212.422 52.6016 212.32 53.0781C212.227 53.5469 212.18 54.0625 212.18 54.625V55.0938C212.18 55.6016 212.25 56.0703 212.391 56.5C212.539 56.9297 212.746 57.3008 213.012 57.6133C213.285 57.9258 213.613 58.168 213.996 58.3398C214.387 58.5117 214.828 58.5977 215.32 58.5977C215.93 58.5977 216.496 58.4805 217.02 58.2461C217.551 58.0039 218.008 57.6406 218.391 57.1562L220.031 58.9375C219.766 59.3203 219.402 59.6875 218.941 60.0391C218.488 60.3906 217.941 60.6797 217.301 60.9062C216.66 61.125 215.93 61.2344 215.109 61.2344ZM225.609 50.9453V61H222.223V48.3203H225.398L225.609 50.9453ZM225.141 54.2148H224.203C224.203 53.332 224.309 52.5195 224.52 51.7773C224.738 51.0273 225.055 50.3789 225.469 49.832C225.891 49.2773 226.41 48.8477 227.027 48.543C227.645 48.2383 228.359 48.0859 229.172 48.0859C229.734 48.0859 230.25 48.1719 230.719 48.3438C231.188 48.5078 231.59 48.7695 231.926 49.1289C232.27 49.4805 232.535 49.9414 232.723 50.5117C232.91 51.0742 233.004 51.75 233.004 52.5391V61H229.629V52.9141C229.629 52.3359 229.551 51.8906 229.395 51.5781C229.238 51.2656 229.016 51.0469 228.727 50.9219C228.445 50.7969 228.105 50.7344 227.707 50.7344C227.27 50.7344 226.887 50.8242 226.559 51.0039C226.238 51.1836 225.973 51.4336 225.762 51.7539C225.551 52.0664 225.395 52.4336 225.293 52.8555C225.191 53.2773 225.141 53.7305 225.141 54.2148ZM232.688 53.8281L231.48 53.9805C231.48 53.1523 231.582 52.3828 231.785 51.6719C231.996 50.9609 232.305 50.3359 232.711 49.7969C233.125 49.2578 233.637 48.8398 234.246 48.543C234.855 48.2383 235.559 48.0859 236.355 48.0859C236.965 48.0859 237.52 48.1758 238.02 48.3555C238.52 48.5273 238.945 48.8047 239.297 49.1875C239.656 49.5625 239.93 50.0547 240.117 50.6641C240.312 51.2734 240.41 52.0195 240.41 52.9023V61H237.023V52.9023C237.023 52.3164 236.945 51.8711 236.789 51.5664C236.641 51.2539 236.422 51.0391 236.133 50.9219C235.852 50.7969 235.516 50.7344 235.125 50.7344C234.719 50.7344 234.363 50.8164 234.059 50.9805C233.754 51.1367 233.5 51.3555 233.297 51.6367C233.094 51.918 232.941 52.2461 232.84 52.6211C232.738 52.9883 232.688 53.3906 232.688 53.8281ZM242.484 54.7891V54.543C242.484 53.6133 242.617 52.7578 242.883 51.9766C243.148 51.1875 243.535 50.5039 244.043 49.9258C244.551 49.3477 245.176 48.8984 245.918 48.5781C246.66 48.25 247.512 48.0859 248.473 48.0859C249.434 48.0859 250.289 48.25 251.039 48.5781C251.789 48.8984 252.418 49.3477 252.926 49.9258C253.441 50.5039 253.832 51.1875 254.098 51.9766C254.363 52.7578 254.496 53.6133 254.496 54.543V54.7891C254.496 55.7109 254.363 56.5664 254.098 57.3555C253.832 58.1367 253.441 58.8203 252.926 59.4062C252.418 59.9844 251.793 60.4336 251.051 60.7539C250.309 61.0742 249.457 61.2344 248.496 61.2344C247.535 61.2344 246.68 61.0742 245.93 60.7539C245.188 60.4336 244.559 59.9844 244.043 59.4062C243.535 58.8203 243.148 58.1367 242.883 57.3555C242.617 56.5664 242.484 55.7109 242.484 54.7891ZM245.859 54.543V54.7891C245.859 55.3203 245.906 55.8164 246 56.2773C246.094 56.7383 246.242 57.1445 246.445 57.4961C246.656 57.8398 246.93 58.1094 247.266 58.3047C247.602 58.5 248.012 58.5977 248.496 58.5977C248.965 58.5977 249.367 58.5 249.703 58.3047C250.039 58.1094 250.309 57.8398 250.512 57.4961C250.715 57.1445 250.863 56.7383 250.957 56.2773C251.059 55.8164 251.109 55.3203 251.109 54.7891V54.543C251.109 54.0273 251.059 53.543 250.957 53.0898C250.863 52.6289 250.711 52.2227 250.5 51.8711C250.297 51.5117 250.027 51.2305 249.691 51.0273C249.355 50.8242 248.949 50.7227 248.473 50.7227C247.996 50.7227 247.59 50.8242 247.254 51.0273C246.926 51.2305 246.656 51.5117 246.445 51.8711C246.242 52.2227 246.094 52.6289 246 53.0898C245.906 53.543 245.859 54.0273 245.859 54.543ZM262.781 48.3203V50.7109H255.398V48.3203H262.781ZM257.227 45.1914H260.602V57.1797C260.602 57.5469 260.648 57.8281 260.742 58.0234C260.844 58.2188 260.992 58.3555 261.188 58.4336C261.383 58.5039 261.629 58.5391 261.926 58.5391C262.137 58.5391 262.324 58.5312 262.488 58.5156C262.66 58.4922 262.805 58.4688 262.922 58.4453L262.934 60.9297C262.645 61.0234 262.332 61.0977 261.996 61.1523C261.66 61.207 261.289 61.2344 260.883 61.2344C260.141 61.2344 259.492 61.1133 258.938 60.8711C258.391 60.6211 257.969 60.2227 257.672 59.6758C257.375 59.1289 257.227 58.4102 257.227 57.5195V45.1914ZM270.539 61.2344C269.555 61.2344 268.672 61.0781 267.891 60.7656C267.109 60.4453 266.445 60.0039 265.898 59.4414C265.359 58.8789 264.945 58.2266 264.656 57.4844C264.367 56.7344 264.223 55.9375 264.223 55.0938V54.625C264.223 53.6641 264.359 52.7852 264.633 51.9883C264.906 51.1914 265.297 50.5 265.805 49.9141C266.32 49.3281 266.945 48.8789 267.68 48.5664C268.414 48.2461 269.242 48.0859 270.164 48.0859C271.062 48.0859 271.859 48.2344 272.555 48.5312C273.25 48.8281 273.832 49.25 274.301 49.7969C274.777 50.3438 275.137 51 275.379 51.7656C275.621 52.5234 275.742 53.3672 275.742 54.2969V55.7031H265.664V53.4531H272.426V53.1953C272.426 52.7266 272.34 52.3086 272.168 51.9414C272.004 51.5664 271.754 51.2695 271.418 51.0508C271.082 50.832 270.652 50.7227 270.129 50.7227C269.684 50.7227 269.301 50.8203 268.98 51.0156C268.66 51.2109 268.398 51.4844 268.195 51.8359C268 52.1875 267.852 52.6016 267.75 53.0781C267.656 53.5469 267.609 54.0625 267.609 54.625V55.0938C267.609 55.6016 267.68 56.0703 267.82 56.5C267.969 56.9297 268.176 57.3008 268.441 57.6133C268.715 57.9258 269.043 58.168 269.426 58.3398C269.816 58.5117 270.258 58.5977 270.75 58.5977C271.359 58.5977 271.926 58.4805 272.449 58.2461C272.98 58.0039 273.438 57.6406 273.82 57.1562L275.461 58.9375C275.195 59.3203 274.832 59.6875 274.371 60.0391C273.918 60.3906 273.371 60.6797 272.73 60.9062C272.09 61.125 271.359 61.2344 270.539 61.2344ZM290.004 57.4375L294.023 43.9375H297.938L291.996 61H289.418L290.004 57.4375ZM286.301 43.9375L290.309 57.4375L290.918 61H288.316L282.41 43.9375H286.301ZM298.242 54.7891V54.543C298.242 53.6133 298.375 52.7578 298.641 51.9766C298.906 51.1875 299.293 50.5039 299.801 49.9258C300.309 49.3477 300.934 48.8984 301.676 48.5781C302.418 48.25 303.27 48.0859 304.23 48.0859C305.191 48.0859 306.047 48.25 306.797 48.5781C307.547 48.8984 308.176 49.3477 308.684 49.9258C309.199 50.5039 309.59 51.1875 309.855 51.9766C310.121 52.7578 310.254 53.6133 310.254 54.543V54.7891C310.254 55.7109 310.121 56.5664 309.855 57.3555C309.59 58.1367 309.199 58.8203 308.684 59.4062C308.176 59.9844 307.551 60.4336 306.809 60.7539C306.066 61.0742 305.215 61.2344 304.254 61.2344C303.293 61.2344 302.438 61.0742 301.688 60.7539C300.945 60.4336 300.316 59.9844 299.801 59.4062C299.293 58.8203 298.906 58.1367 298.641 57.3555C298.375 56.5664 298.242 55.7109 298.242 54.7891ZM301.617 54.543V54.7891C301.617 55.3203 301.664 55.8164 301.758 56.2773C301.852 56.7383 302 57.1445 302.203 57.4961C302.414 57.8398 302.688 58.1094 303.023 58.3047C303.359 58.5 303.77 58.5977 304.254 58.5977C304.723 58.5977 305.125 58.5 305.461 58.3047C305.797 58.1094 306.066 57.8398 306.27 57.4961C306.473 57.1445 306.621 56.7383 306.715 56.2773C306.816 55.8164 306.867 55.3203 306.867 54.7891V54.543C306.867 54.0273 306.816 53.543 306.715 53.0898C306.621 52.6289 306.469 52.2227 306.258 51.8711C306.055 51.5117 305.785 51.2305 305.449 51.0273C305.113 50.8242 304.707 50.7227 304.23 50.7227C303.754 50.7227 303.348 50.8242 303.012 51.0273C302.684 51.2305 302.414 51.5117 302.203 51.8711C302 52.2227 301.852 52.6289 301.758 53.0898C301.664 53.543 301.617 54.0273 301.617 54.543ZM318.539 48.3203V50.7109H311.156V48.3203H318.539ZM312.984 45.1914H316.359V57.1797C316.359 57.5469 316.406 57.8281 316.5 58.0234C316.602 58.2188 316.75 58.3555 316.945 58.4336C317.141 58.5039 317.387 58.5391 317.684 58.5391C317.895 58.5391 318.082 58.5312 318.246 58.5156C318.418 58.4922 318.562 58.4688 318.68 58.4453L318.691 60.9297C318.402 61.0234 318.09 61.0977 317.754 61.1523C317.418 61.207 317.047 61.2344 316.641 61.2344C315.898 61.2344 315.25 61.1133 314.695 60.8711C314.148 60.6211 313.727 60.2227 313.43 59.6758C313.133 59.1289 312.984 58.4102 312.984 57.5195V45.1914ZM324.023 48.3203V61H320.637V48.3203H324.023ZM320.426 45.0156C320.426 44.5234 320.598 44.1172 320.941 43.7969C321.285 43.4766 321.746 43.3164 322.324 43.3164C322.895 43.3164 323.352 43.4766 323.695 43.7969C324.047 44.1172 324.223 44.5234 324.223 45.0156C324.223 45.5078 324.047 45.9141 323.695 46.2344C323.352 46.5547 322.895 46.7148 322.324 46.7148C321.746 46.7148 321.285 46.5547 320.941 46.2344C320.598 45.9141 320.426 45.5078 320.426 45.0156ZM330.117 51.0273V61H326.742V48.3203H329.906L330.117 51.0273ZM329.625 54.2148H328.711C328.711 53.2773 328.832 52.4336 329.074 51.6836C329.316 50.9258 329.656 50.2812 330.094 49.75C330.531 49.2109 331.051 48.8008 331.652 48.5195C332.262 48.2305 332.941 48.0859 333.691 48.0859C334.285 48.0859 334.828 48.1719 335.32 48.3438C335.812 48.5156 336.234 48.7891 336.586 49.1641C336.945 49.5391 337.219 50.0352 337.406 50.6523C337.602 51.2695 337.699 52.0234 337.699 52.9141V61H334.301V52.9023C334.301 52.3398 334.223 51.9023 334.066 51.5898C333.91 51.2773 333.68 51.0586 333.375 50.9336C333.078 50.8008 332.711 50.7344 332.273 50.7344C331.82 50.7344 331.426 50.8242 331.09 51.0039C330.762 51.1836 330.488 51.4336 330.27 51.7539C330.059 52.0664 329.898 52.4336 329.789 52.8555C329.68 53.2773 329.625 53.7305 329.625 54.2148ZM348.293 48.3203H351.352V60.5781C351.352 61.7344 351.094 62.7148 350.578 63.5195C350.07 64.332 349.359 64.9453 348.445 65.3594C347.531 65.7812 346.469 65.9922 345.258 65.9922C344.727 65.9922 344.164 65.9219 343.57 65.7812C342.984 65.6406 342.422 65.4219 341.883 65.125C341.352 64.8281 340.906 64.4531 340.547 64L342.035 62.0078C342.426 62.4609 342.879 62.8125 343.395 63.0625C343.91 63.3203 344.48 63.4492 345.105 63.4492C345.715 63.4492 346.23 63.3359 346.652 63.1094C347.074 62.8906 347.398 62.5664 347.625 62.1367C347.852 61.7148 347.965 61.2031 347.965 60.6016V51.25L348.293 48.3203ZM339.762 54.8125V54.5664C339.762 53.5977 339.879 52.7188 340.113 51.9297C340.355 51.1328 340.695 50.4492 341.133 49.8789C341.578 49.3086 342.117 48.8672 342.75 48.5547C343.383 48.2422 344.098 48.0859 344.895 48.0859C345.738 48.0859 346.445 48.2422 347.016 48.5547C347.586 48.8672 348.055 49.3125 348.422 49.8906C348.789 50.4609 349.074 51.1367 349.277 51.918C349.488 52.6914 349.652 53.5391 349.77 54.4609V55C349.652 55.8828 349.477 56.7031 349.242 57.4609C349.008 58.2188 348.699 58.8828 348.316 59.4531C347.934 60.0156 347.457 60.4531 346.887 60.7656C346.324 61.0781 345.652 61.2344 344.871 61.2344C344.09 61.2344 343.383 61.0742 342.75 60.7539C342.125 60.4336 341.59 59.9844 341.145 59.4062C340.699 58.8281 340.355 58.1484 340.113 57.3672C339.879 56.5859 339.762 55.7344 339.762 54.8125ZM343.137 54.5664V54.8125C343.137 55.3359 343.188 55.8242 343.289 56.2773C343.391 56.7305 343.547 57.1328 343.758 57.4844C343.977 57.8281 344.246 58.0977 344.566 58.293C344.895 58.4805 345.281 58.5742 345.727 58.5742C346.344 58.5742 346.848 58.4453 347.238 58.1875C347.629 57.9219 347.922 57.5586 348.117 57.0977C348.312 56.6367 348.426 56.1055 348.457 55.5039V53.9688C348.441 53.4766 348.375 53.0352 348.258 52.6445C348.141 52.2461 347.977 51.9062 347.766 51.625C347.555 51.3438 347.281 51.125 346.945 50.9688C346.609 50.8125 346.211 50.7344 345.75 50.7344C345.305 50.7344 344.918 50.8359 344.59 51.0391C344.27 51.2344 344 51.5039 343.781 51.8477C343.57 52.1914 343.41 52.5977 343.301 53.0664C343.191 53.5273 343.137 54.0273 343.137 54.5664Z" fill="#888888"/>
<path d="M112.125 84.875V119H103.898V84.875H112.125ZM122.391 84.875V91.2266H93.8672V84.875H122.391ZM135.68 119.469C133.617 119.469 131.773 119.148 130.148 118.508C128.523 117.852 127.148 116.953 126.023 115.812C124.914 114.672 124.062 113.359 123.469 111.875C122.891 110.391 122.602 108.82 122.602 107.164V106.273C122.602 104.414 122.859 102.695 123.375 101.117C123.891 99.5234 124.656 98.1328 125.672 96.9453C126.688 95.7578 127.961 94.8359 129.492 94.1797C131.023 93.5078 132.805 93.1719 134.836 93.1719C136.633 93.1719 138.242 93.4609 139.664 94.0391C141.086 94.6172 142.289 95.4453 143.273 96.5234C144.273 97.6016 145.031 98.9062 145.547 100.438C146.078 101.969 146.344 103.688 146.344 105.594V108.805H125.625V103.859H138.633V103.25C138.648 102.406 138.5 101.688 138.188 101.094C137.891 100.5 137.453 100.047 136.875 99.7344C136.297 99.4219 135.594 99.2656 134.766 99.2656C133.906 99.2656 133.195 99.4531 132.633 99.8281C132.086 100.203 131.656 100.719 131.344 101.375C131.047 102.016 130.836 102.758 130.711 103.602C130.586 104.445 130.523 105.336 130.523 106.273V107.164C130.523 108.102 130.648 108.953 130.898 109.719C131.164 110.484 131.539 111.141 132.023 111.688C132.523 112.219 133.117 112.633 133.805 112.93C134.508 113.227 135.305 113.375 136.195 113.375C137.273 113.375 138.336 113.172 139.383 112.766C140.43 112.359 141.328 111.688 142.078 110.75L145.664 115.016C145.148 115.75 144.414 116.461 143.461 117.148C142.523 117.836 141.398 118.398 140.086 118.836C138.773 119.258 137.305 119.469 135.68 119.469ZM160.266 113.375C161 113.375 161.625 113.242 162.141 112.977C162.672 112.695 163.07 112.305 163.336 111.805C163.617 111.289 163.75 110.672 163.734 109.953H171.164C171.18 111.859 170.711 113.531 169.758 114.969C168.82 116.391 167.539 117.5 165.914 118.297C164.305 119.078 162.484 119.469 160.453 119.469C158.469 119.469 156.734 119.148 155.25 118.508C153.766 117.852 152.523 116.945 151.523 115.789C150.539 114.617 149.797 113.25 149.297 111.688C148.812 110.125 148.57 108.43 148.57 106.602V106.062C148.57 104.234 148.812 102.539 149.297 100.977C149.797 99.3984 150.539 98.0312 151.523 96.875C152.523 95.7031 153.758 94.7969 155.227 94.1562C156.711 93.5 158.438 93.1719 160.406 93.1719C162.516 93.1719 164.375 93.5703 165.984 94.3672C167.609 95.1641 168.883 96.3203 169.805 97.8359C170.727 99.3516 171.18 101.188 171.164 103.344H163.734C163.75 102.578 163.633 101.891 163.383 101.281C163.133 100.672 162.742 100.188 162.211 99.8281C161.695 99.4531 161.031 99.2656 160.219 99.2656C159.406 99.2656 158.75 99.4453 158.25 99.8047C157.75 100.164 157.367 100.664 157.102 101.305C156.852 101.93 156.68 102.648 156.586 103.461C156.508 104.273 156.469 105.141 156.469 106.062V106.602C156.469 107.539 156.508 108.422 156.586 109.25C156.68 110.062 156.859 110.781 157.125 111.406C157.391 112.016 157.773 112.5 158.273 112.859C158.773 113.203 159.438 113.375 160.266 113.375ZM182.273 83V119H174.375V83H182.273ZM181.336 105.453L179.484 105.5C179.484 103.719 179.703 102.078 180.141 100.578C180.578 99.0781 181.203 97.7734 182.016 96.6641C182.828 95.5547 183.805 94.6953 184.945 94.0859C186.086 93.4766 187.352 93.1719 188.742 93.1719C189.992 93.1719 191.133 93.3516 192.164 93.7109C193.211 94.0703 194.109 94.6484 194.859 95.4453C195.625 96.2422 196.211 97.2812 196.617 98.5625C197.039 99.8438 197.25 101.406 197.25 103.25V119H189.305V103.203C189.305 102.172 189.156 101.375 188.859 100.812C188.578 100.234 188.172 99.8359 187.641 99.6172C187.109 99.3828 186.461 99.2656 185.695 99.2656C184.773 99.2656 184.023 99.4219 183.445 99.7344C182.867 100.047 182.422 100.484 182.109 101.047C181.812 101.594 181.609 102.242 181.5 102.992C181.391 103.742 181.336 104.562 181.336 105.453ZM231.539 109.93C231.539 109.398 231.461 108.922 231.305 108.5C231.148 108.062 230.859 107.656 230.438 107.281C230.016 106.906 229.406 106.531 228.609 106.156C227.828 105.766 226.797 105.359 225.516 104.938C224.016 104.438 222.57 103.875 221.18 103.25C219.789 102.609 218.547 101.867 217.453 101.023C216.359 100.164 215.492 99.1641 214.852 98.0234C214.211 96.8672 213.891 95.5234 213.891 93.9922C213.891 92.5234 214.219 91.2031 214.875 90.0312C215.531 88.8438 216.445 87.8359 217.617 87.0078C218.805 86.1641 220.195 85.5234 221.789 85.0859C223.383 84.6328 225.125 84.4062 227.016 84.4062C229.516 84.4062 231.719 84.8438 233.625 85.7188C235.547 86.5781 237.047 87.8047 238.125 89.3984C239.219 90.9766 239.766 92.8438 239.766 95H231.586C231.586 94.1406 231.406 93.3828 231.047 92.7266C230.703 92.0703 230.18 91.5547 229.477 91.1797C228.773 90.8047 227.891 90.6172 226.828 90.6172C225.797 90.6172 224.93 90.7734 224.227 91.0859C223.523 91.3984 222.992 91.8203 222.633 92.3516C222.273 92.8672 222.094 93.4375 222.094 94.0625C222.094 94.5781 222.234 95.0469 222.516 95.4688C222.812 95.875 223.227 96.2578 223.758 96.6172C224.305 96.9766 224.961 97.3203 225.727 97.6484C226.508 97.9766 227.383 98.2969 228.352 98.6094C230.164 99.1875 231.773 99.8359 233.18 100.555C234.602 101.258 235.797 102.062 236.766 102.969C237.75 103.859 238.492 104.875 238.992 106.016C239.508 107.156 239.766 108.445 239.766 109.883C239.766 111.414 239.469 112.773 238.875 113.961C238.281 115.148 237.43 116.156 236.32 116.984C235.211 117.797 233.883 118.414 232.336 118.836C230.789 119.258 229.062 119.469 227.156 119.469C225.406 119.469 223.68 119.25 221.977 118.812C220.289 118.359 218.758 117.672 217.383 116.75C216.008 115.812 214.906 114.617 214.078 113.164C213.266 111.695 212.859 109.953 212.859 107.938H221.109C221.109 108.938 221.242 109.781 221.508 110.469C221.773 111.156 222.164 111.711 222.68 112.133C223.195 112.539 223.828 112.836 224.578 113.023C225.328 113.195 226.188 113.281 227.156 113.281C228.203 113.281 229.047 113.133 229.688 112.836C230.328 112.523 230.797 112.117 231.094 111.617C231.391 111.102 231.539 110.539 231.539 109.93ZM256.992 93.6406V99.125H241.711V93.6406H256.992ZM244.922 87.3359H252.82V110.727C252.82 111.398 252.898 111.922 253.055 112.297C253.211 112.656 253.477 112.914 253.852 113.07C254.242 113.211 254.758 113.281 255.398 113.281C255.852 113.281 256.227 113.273 256.523 113.258C256.82 113.227 257.102 113.188 257.367 113.141V118.789C256.695 119.008 255.992 119.172 255.258 119.281C254.523 119.406 253.742 119.469 252.914 119.469C251.227 119.469 249.781 119.203 248.578 118.672C247.391 118.141 246.484 117.305 245.859 116.164C245.234 115.023 244.922 113.539 244.922 111.711V87.3359ZM273.305 112.625V102.172C273.305 101.453 273.203 100.836 273 100.32C272.797 99.8047 272.477 99.4062 272.039 99.125C271.602 98.8281 271.016 98.6797 270.281 98.6797C269.688 98.6797 269.18 98.7812 268.758 98.9844C268.336 99.1875 268.016 99.4922 267.797 99.8984C267.578 100.305 267.469 100.82 267.469 101.445H259.57C259.57 100.273 259.828 99.1875 260.344 98.1875C260.875 97.1719 261.625 96.2891 262.594 95.5391C263.578 94.7891 264.75 94.2109 266.109 93.8047C267.484 93.3828 269.016 93.1719 270.703 93.1719C272.719 93.1719 274.516 93.5078 276.094 94.1797C277.688 94.8516 278.945 95.8594 279.867 97.2031C280.789 98.5312 281.25 100.203 281.25 102.219V112.602C281.25 114.258 281.344 115.516 281.531 116.375C281.719 117.219 281.984 117.961 282.328 118.602V119H274.406C274.031 118.219 273.75 117.266 273.562 116.141C273.391 115 273.305 113.828 273.305 112.625ZM274.266 103.508L274.312 107.727H270.82C270.086 107.727 269.461 107.828 268.945 108.031C268.445 108.234 268.039 108.516 267.727 108.875C267.43 109.219 267.211 109.609 267.07 110.047C266.945 110.484 266.883 110.945 266.883 111.43C266.883 111.898 266.992 112.32 267.211 112.695C267.445 113.055 267.758 113.336 268.148 113.539C268.539 113.742 268.977 113.844 269.461 113.844C270.336 113.844 271.078 113.68 271.688 113.352C272.312 113.008 272.789 112.594 273.117 112.109C273.445 111.625 273.609 111.172 273.609 110.75L275.344 113.984C275.031 114.609 274.672 115.242 274.266 115.883C273.875 116.523 273.383 117.117 272.789 117.664C272.211 118.195 271.5 118.633 270.656 118.977C269.812 119.305 268.789 119.469 267.586 119.469C266.023 119.469 264.586 119.148 263.273 118.508C261.977 117.867 260.938 116.977 260.156 115.836C259.375 114.68 258.984 113.352 258.984 111.852C258.984 110.539 259.219 109.367 259.688 108.336C260.172 107.305 260.898 106.43 261.867 105.711C262.836 104.992 264.07 104.445 265.57 104.07C267.07 103.695 268.836 103.508 270.867 103.508H274.266ZM296.344 113.375C297.078 113.375 297.703 113.242 298.219 112.977C298.75 112.695 299.148 112.305 299.414 111.805C299.695 111.289 299.828 110.672 299.812 109.953H307.242C307.258 111.859 306.789 113.531 305.836 114.969C304.898 116.391 303.617 117.5 301.992 118.297C300.383 119.078 298.562 119.469 296.531 119.469C294.547 119.469 292.812 119.148 291.328 118.508C289.844 117.852 288.602 116.945 287.602 115.789C286.617 114.617 285.875 113.25 285.375 111.688C284.891 110.125 284.648 108.43 284.648 106.602V106.062C284.648 104.234 284.891 102.539 285.375 100.977C285.875 99.3984 286.617 98.0312 287.602 96.875C288.602 95.7031 289.836 94.7969 291.305 94.1562C292.789 93.5 294.516 93.1719 296.484 93.1719C298.594 93.1719 300.453 93.5703 302.062 94.3672C303.688 95.1641 304.961 96.3203 305.883 97.8359C306.805 99.3516 307.258 101.188 307.242 103.344H299.812C299.828 102.578 299.711 101.891 299.461 101.281C299.211 100.672 298.82 100.188 298.289 99.8281C297.773 99.4531 297.109 99.2656 296.297 99.2656C295.484 99.2656 294.828 99.4453 294.328 99.8047C293.828 100.164 293.445 100.664 293.18 101.305C292.93 101.93 292.758 102.648 292.664 103.461C292.586 104.273 292.547 105.141 292.547 106.062V106.602C292.547 107.539 292.586 108.422 292.664 109.25C292.758 110.062 292.938 110.781 293.203 111.406C293.469 112.016 293.852 112.5 294.352 112.859C294.852 113.203 295.516 113.375 296.344 113.375ZM318.586 82.9766V119H310.688V82.9766H318.586ZM334.805 93.6406L323.789 106.555L318.023 112.32L314.578 107.305L319.383 101.047L325.336 93.6406H334.805ZM326.344 119L319.57 107.445L325.406 103.297L335.391 119H326.344ZM350.156 111.875C350.156 111.438 350.008 111.062 349.711 110.75C349.43 110.422 348.93 110.125 348.211 109.859C347.492 109.578 346.484 109.297 345.188 109.016C343.953 108.75 342.789 108.398 341.695 107.961C340.617 107.523 339.672 106.992 338.859 106.367C338.047 105.742 337.406 105 336.938 104.141C336.484 103.281 336.258 102.297 336.258 101.188C336.258 100.109 336.484 99.0938 336.938 98.1406C337.406 97.1719 338.086 96.3203 338.977 95.5859C339.883 94.8359 340.984 94.25 342.281 93.8281C343.578 93.3906 345.055 93.1719 346.711 93.1719C348.992 93.1719 350.961 93.5234 352.617 94.2266C354.273 94.9141 355.547 95.8828 356.438 97.1328C357.344 98.3672 357.797 99.7969 357.797 101.422H349.898C349.898 100.781 349.789 100.234 349.57 99.7812C349.367 99.3281 349.031 98.9844 348.562 98.75C348.094 98.5 347.469 98.375 346.688 98.375C346.141 98.375 345.641 98.4766 345.188 98.6797C344.75 98.8828 344.398 99.1641 344.133 99.5234C343.867 99.8828 343.734 100.305 343.734 100.789C343.734 101.133 343.812 101.445 343.969 101.727C344.141 101.992 344.398 102.242 344.742 102.477C345.086 102.695 345.523 102.898 346.055 103.086C346.586 103.258 347.227 103.414 347.977 103.555C349.68 103.867 351.273 104.312 352.758 104.891C354.242 105.469 355.445 106.289 356.367 107.352C357.305 108.414 357.773 109.844 357.773 111.641C357.773 112.766 357.516 113.805 357 114.758C356.484 115.695 355.742 116.523 354.773 117.242C353.805 117.945 352.641 118.492 351.281 118.883C349.922 119.273 348.391 119.469 346.688 119.469C344.266 119.469 342.219 119.039 340.547 118.18C338.875 117.305 337.609 116.211 336.75 114.898C335.906 113.57 335.484 112.227 335.484 110.867H342.844C342.875 111.648 343.062 112.289 343.406 112.789C343.766 113.289 344.242 113.656 344.836 113.891C345.43 114.125 346.117 114.242 346.898 114.242C347.617 114.242 348.211 114.141 348.68 113.938C349.164 113.734 349.531 113.461 349.781 113.117C350.031 112.758 350.156 112.344 350.156 111.875Z" fill="black"/>
<path d="M1134 0H1348C1356.28 0 1363 6.71573 1363 15V148C1363 156.284 1356.28 163 1348 163H1134V0Z" fill="#1B2D98"/>
<path fill-rule="evenodd" clip-rule="evenodd" d="M1219.98 53C1219.85 53 1219.73 53.0527 1219.64 53.1464C1219.55 53.2402 1219.5 53.3674 1219.5 53.5V109.5C1219.5 109.633 1219.55 109.76 1219.64 109.854C1219.73 109.947 1219.85 110 1219.98 110H1277.02C1277.15 110 1277.27 109.947 1277.36 109.854C1277.45 109.76 1277.5 109.633 1277.5 109.5V64C1277.5 63.8674 1277.45 63.7402 1277.36 63.6464C1277.27 63.5527 1277.15 63.5 1277.02 63.5H1248.5C1247.65 63.5 1246.84 63.1045 1246.29 62.4206L1238.77 53H1219.98ZM1215.58 48.9038C1216.74 47.6848 1218.33 47 1219.98 47H1240.11C1240.97 47 1241.77 47.3955 1242.32 48.0794L1249.85 57.5H1277.02C1278.67 57.5 1280.26 58.1848 1281.42 59.4038C1282.59 60.6228 1283.25 62.2761 1283.25 64V109.5C1283.25 111.224 1282.59 112.877 1281.42 114.096C1280.26 115.315 1278.67 116 1277.02 116H1219.98C1218.33 116 1216.74 115.315 1215.58 114.096C1214.41 112.877 1213.75 111.224 1213.75 109.5V53.5C1213.75 51.7761 1214.41 50.1228 1215.58 48.9038Z" fill="white"/>
<path fill-rule="evenodd" clip-rule="evenodd" d="M1244.16 75.5251C1245.47 76.892 1245.47 79.108 1244.16 80.4749L1238.15 86.75L1244.16 93.0251C1245.47 94.392 1245.47 96.608 1244.16 97.9749C1242.85 99.3417 1240.73 99.3417 1239.42 97.9749L1231.03 89.2249C1229.72 87.858 1229.72 85.642 1231.03 84.2751L1239.42 75.5251C1240.73 74.1583 1242.85 74.1583 1244.16 75.5251Z" fill="white"/>
<path fill-rule="evenodd" clip-rule="evenodd" d="M1252.12 97.9749C1250.81 96.608 1250.81 94.392 1252.12 93.0251L1258.13 86.75L1252.12 80.4749C1250.81 79.108 1250.81 76.892 1252.12 75.5251C1253.43 74.1583 1255.55 74.1583 1256.86 75.5251L1265.25 84.2751C1266.56 85.642 1266.56 87.858 1265.25 89.2249L1256.86 97.9749C1255.55 99.3417 1253.43 99.3417 1252.12 97.9749Z" fill="white"/>
</svg>
