<svg width="1363" height="163" viewBox="0 0 1363 163" fill="none" xmlns="http://www.w3.org/2000/svg">
<path d="M0 15C0 6.71573 6.71573 0 15 0H37V163H15C6.71573 163 0 156.284 0 148V15Z" fill="#424242"/>
<rect width="1097" height="163" transform="translate(37)" fill="#F0F0F0"/>
<path d="M101.906 53.9219L94.3945 51.2383V48.0859L104.602 52.375V54.6367L101.906 53.9219ZM94.3945 56.1719L101.918 53.4297L104.602 52.7852V55.0352L94.3945 59.3242V56.1719ZM121.781 56.5352C121.781 56.2305 121.734 55.957 121.641 55.7148C121.555 55.4648 121.391 55.2383 121.148 55.0352C120.906 54.8242 120.566 54.6172 120.129 54.4141C119.691 54.2109 119.125 54 118.43 53.7812C117.656 53.5312 116.922 53.25 116.227 52.9375C115.539 52.625 114.93 52.2617 114.398 51.8477C113.875 51.4258 113.461 50.9375 113.156 50.3828C112.859 49.8281 112.711 49.1836 112.711 48.4492C112.711 47.7383 112.867 47.0938 113.18 46.5156C113.492 45.9297 113.93 45.4297 114.492 45.0156C115.055 44.5938 115.719 44.2695 116.484 44.043C117.258 43.8164 118.105 43.7031 119.027 43.7031C120.285 43.7031 121.383 43.9297 122.32 44.3828C123.258 44.8359 123.984 45.457 124.5 46.2461C125.023 47.0352 125.285 47.9375 125.285 48.9531H121.793C121.793 48.4531 121.688 48.0156 121.477 47.6406C121.273 47.2578 120.961 46.957 120.539 46.7383C120.125 46.5195 119.602 46.4102 118.969 46.4102C118.359 46.4102 117.852 46.5039 117.445 46.6914C117.039 46.8711 116.734 47.1172 116.531 47.4297C116.328 47.7344 116.227 48.0781 116.227 48.4609C116.227 48.75 116.297 49.0117 116.438 49.2461C116.586 49.4805 116.805 49.6992 117.094 49.9023C117.383 50.1055 117.738 50.2969 118.16 50.4766C118.582 50.6562 119.07 50.832 119.625 51.0039C120.555 51.2852 121.371 51.6016 122.074 51.9531C122.785 52.3047 123.379 52.6992 123.855 53.1367C124.332 53.5742 124.691 54.0703 124.934 54.625C125.176 55.1797 125.297 55.8086 125.297 56.5117C125.297 57.2539 125.152 57.918 124.863 58.5039C124.574 59.0898 124.156 59.5859 123.609 59.9922C123.062 60.3984 122.41 60.707 121.652 60.918C120.895 61.1289 120.047 61.2344 119.109 61.2344C118.266 61.2344 117.434 61.125 116.613 60.9062C115.793 60.6797 115.047 60.3398 114.375 59.8867C113.711 59.4336 113.18 58.8555 112.781 58.1523C112.383 57.4492 112.184 56.6172 112.184 55.6562H115.711C115.711 56.1875 115.793 56.6367 115.957 57.0039C116.121 57.3711 116.352 57.668 116.648 57.8945C116.953 58.1211 117.312 58.2852 117.727 58.3867C118.148 58.4883 118.609 58.5391 119.109 58.5391C119.719 58.5391 120.219 58.4531 120.609 58.2812C121.008 58.1094 121.301 57.8711 121.488 57.5664C121.684 57.2617 121.781 56.918 121.781 56.5352ZM133.312 61.2344C132.328 61.2344 131.445 61.0781 130.664 60.7656C129.883 60.4453 129.219 60.0039 128.672 59.4414C128.133 58.8789 127.719 58.2266 127.43 57.4844C127.141 56.7344 126.996 55.9375 126.996 55.0938V54.625C126.996 53.6641 127.133 52.7852 127.406 51.9883C127.68 51.1914 128.07 50.5 128.578 49.9141C129.094 49.3281 129.719 48.8789 130.453 48.5664C131.188 48.2461 132.016 48.0859 132.938 48.0859C133.836 48.0859 134.633 48.2344 135.328 48.5312C136.023 48.8281 136.605 49.25 137.074 49.7969C137.551 50.3438 137.91 51 138.152 51.7656C138.395 52.5234 138.516 53.3672 138.516 54.2969V55.7031H128.438V53.4531H135.199V53.1953C135.199 52.7266 135.113 52.3086 134.941 51.9414C134.777 51.5664 134.527 51.2695 134.191 51.0508C133.855 50.832 133.426 50.7227 132.902 50.7227C132.457 50.7227 132.074 50.8203 131.754 51.0156C131.434 51.2109 131.172 51.4844 130.969 51.8359C130.773 52.1875 130.625 52.6016 130.523 53.0781C130.43 53.5469 130.383 54.0625 130.383 54.625V55.0938C130.383 55.6016 130.453 56.0703 130.594 56.5C130.742 56.9297 130.949 57.3008 131.215 57.6133C131.488 57.9258 131.816 58.168 132.199 58.3398C132.59 58.5117 133.031 58.5977 133.523 58.5977C134.133 58.5977 134.699 58.4805 135.223 58.2461C135.754 58.0039 136.211 57.6406 136.594 57.1562L138.234 58.9375C137.969 59.3203 137.605 59.6875 137.145 60.0391C136.691 60.3906 136.145 60.6797 135.504 60.9062C134.863 61.125 134.133 61.2344 133.312 61.2344ZM145.676 58.5977C146.09 58.5977 146.457 58.5195 146.777 58.3633C147.098 58.1992 147.348 57.9727 147.527 57.6836C147.715 57.3867 147.812 57.0391 147.82 56.6406H150.996C150.988 57.5312 150.75 58.3242 150.281 59.0195C149.812 59.707 149.184 60.25 148.395 60.6484C147.605 61.0391 146.723 61.2344 145.746 61.2344C144.762 61.2344 143.902 61.0703 143.168 60.7422C142.441 60.4141 141.836 59.9609 141.352 59.3828C140.867 58.7969 140.504 58.1172 140.262 57.3438C140.02 56.5625 139.898 55.7266 139.898 54.8359V54.4961C139.898 53.5977 140.02 52.7617 140.262 51.9883C140.504 51.207 140.867 50.5273 141.352 49.9492C141.836 49.3633 142.441 48.9062 143.168 48.5781C143.895 48.25 144.746 48.0859 145.723 48.0859C146.762 48.0859 147.672 48.2852 148.453 48.6836C149.242 49.082 149.859 49.6523 150.305 50.3945C150.758 51.1289 150.988 52 150.996 53.0078H147.82C147.812 52.5859 147.723 52.2031 147.551 51.8594C147.387 51.5156 147.145 51.2422 146.824 51.0391C146.512 50.8281 146.125 50.7227 145.664 50.7227C145.172 50.7227 144.77 50.8281 144.457 51.0391C144.145 51.2422 143.902 51.5234 143.73 51.8828C143.559 52.2344 143.438 52.6367 143.367 53.0898C143.305 53.5352 143.273 54.0039 143.273 54.4961V54.8359C143.273 55.3281 143.305 55.8008 143.367 56.2539C143.43 56.707 143.547 57.1094 143.719 57.4609C143.898 57.8125 144.145 58.0898 144.457 58.293C144.77 58.4961 145.176 58.5977 145.676 58.5977ZM160.453 57.9648V48.3203H163.828V61H160.652L160.453 57.9648ZM160.828 55.3633L161.824 55.3398C161.824 56.1836 161.727 56.9688 161.531 57.6953C161.336 58.4141 161.043 59.0391 160.652 59.5703C160.262 60.0938 159.77 60.5039 159.176 60.8008C158.582 61.0898 157.883 61.2344 157.078 61.2344C156.461 61.2344 155.891 61.1484 155.367 60.9766C154.852 60.7969 154.406 60.5195 154.031 60.1445C153.664 59.7617 153.375 59.2734 153.164 58.6797C152.961 58.0781 152.859 57.3555 152.859 56.5117V48.3203H156.234V56.5352C156.234 56.9102 156.277 57.2266 156.363 57.4844C156.457 57.7422 156.586 57.9531 156.75 58.1172C156.914 58.2812 157.105 58.3984 157.324 58.4688C157.551 58.5391 157.801 58.5742 158.074 58.5742C158.77 58.5742 159.316 58.4336 159.715 58.1523C160.121 57.8711 160.406 57.4883 160.57 57.0039C160.742 56.5117 160.828 55.9648 160.828 55.3633ZM169.781 51.0859V61H166.406V48.3203H169.582L169.781 51.0859ZM173.602 48.2383L173.543 51.3672C173.379 51.3438 173.18 51.3242 172.945 51.3086C172.719 51.2852 172.512 51.2734 172.324 51.2734C171.848 51.2734 171.434 51.3359 171.082 51.4609C170.738 51.5781 170.449 51.7539 170.215 51.9883C169.988 52.2227 169.816 52.5078 169.699 52.8438C169.59 53.1797 169.527 53.5625 169.512 53.9922L168.832 53.7812C168.832 52.9609 168.914 52.207 169.078 51.5195C169.242 50.8242 169.48 50.2188 169.793 49.7031C170.113 49.1875 170.504 48.7891 170.965 48.5078C171.426 48.2266 171.953 48.0859 172.547 48.0859C172.734 48.0859 172.926 48.1016 173.121 48.1328C173.316 48.1562 173.477 48.1914 173.602 48.2383ZM180.797 61.2344C179.812 61.2344 178.93 61.0781 178.148 60.7656C177.367 60.4453 176.703 60.0039 176.156 59.4414C175.617 58.8789 175.203 58.2266 174.914 57.4844C174.625 56.7344 174.48 55.9375 174.48 55.0938V54.625C174.48 53.6641 174.617 52.7852 174.891 51.9883C175.164 51.1914 175.555 50.5 176.062 49.9141C176.578 49.3281 177.203 48.8789 177.938 48.5664C178.672 48.2461 179.5 48.0859 180.422 48.0859C181.32 48.0859 182.117 48.2344 182.812 48.5312C183.508 48.8281 184.09 49.25 184.559 49.7969C185.035 50.3438 185.395 51 185.637 51.7656C185.879 52.5234 186 53.3672 186 54.2969V55.7031H175.922V53.4531H182.684V53.1953C182.684 52.7266 182.598 52.3086 182.426 51.9414C182.262 51.5664 182.012 51.2695 181.676 51.0508C181.34 50.832 180.91 50.7227 180.387 50.7227C179.941 50.7227 179.559 50.8203 179.238 51.0156C178.918 51.2109 178.656 51.4844 178.453 51.8359C178.258 52.1875 178.109 52.6016 178.008 53.0781C177.914 53.5469 177.867 54.0625 177.867 54.625V55.0938C177.867 55.6016 177.938 56.0703 178.078 56.5C178.227 56.9297 178.434 57.3008 178.699 57.6133C178.973 57.9258 179.301 58.168 179.684 58.3398C180.074 58.5117 180.516 58.5977 181.008 58.5977C181.617 58.5977 182.184 58.4805 182.707 58.2461C183.238 58.0039 183.695 57.6406 184.078 57.1562L185.719 58.9375C185.453 59.3203 185.09 59.6875 184.629 60.0391C184.176 60.3906 183.629 60.6797 182.988 60.9062C182.348 61.125 181.617 61.2344 180.797 61.2344ZM194.109 43.9375H200.473C201.777 43.9375 202.898 44.1328 203.836 44.5234C204.781 44.9141 205.508 45.4922 206.016 46.2578C206.523 47.0234 206.777 47.9648 206.777 49.082C206.777 49.9961 206.621 50.7812 206.309 51.4375C206.004 52.0859 205.57 52.6289 205.008 53.0664C204.453 53.4961 203.801 53.8398 203.051 54.0977L201.938 54.6836H196.406L196.383 51.9414H200.496C201.113 51.9414 201.625 51.832 202.031 51.6133C202.438 51.3945 202.742 51.0898 202.945 50.6992C203.156 50.3086 203.262 49.8555 203.262 49.3398C203.262 48.793 203.16 48.3203 202.957 47.9219C202.754 47.5234 202.445 47.2188 202.031 47.0078C201.617 46.7969 201.098 46.6914 200.473 46.6914H197.625V61H194.109V43.9375ZM203.648 61L199.758 53.3945L203.473 53.3711L207.41 60.8359V61H203.648ZM215.109 61.2344C214.125 61.2344 213.242 61.0781 212.461 60.7656C211.68 60.4453 211.016 60.0039 210.469 59.4414C209.93 58.8789 209.516 58.2266 209.227 57.4844C208.938 56.7344 208.793 55.9375 208.793 55.0938V54.625C208.793 53.6641 208.93 52.7852 209.203 51.9883C209.477 51.1914 209.867 50.5 210.375 49.9141C210.891 49.3281 211.516 48.8789 212.25 48.5664C212.984 48.2461 213.812 48.0859 214.734 48.0859C215.633 48.0859 216.43 48.2344 217.125 48.5312C217.82 48.8281 218.402 49.25 218.871 49.7969C219.348 50.3438 219.707 51 219.949 51.7656C220.191 52.5234 220.312 53.3672 220.312 54.2969V55.7031H210.234V53.4531H216.996V53.1953C216.996 52.7266 216.91 52.3086 216.738 51.9414C216.574 51.5664 216.324 51.2695 215.988 51.0508C215.652 50.832 215.223 50.7227 214.699 50.7227C214.254 50.7227 213.871 50.8203 213.551 51.0156C213.23 51.2109 212.969 51.4844 212.766 51.8359C212.57 52.1875 212.422 52.6016 212.32 53.0781C212.227 53.5469 212.18 54.0625 212.18 54.625V55.0938C212.18 55.6016 212.25 56.0703 212.391 56.5C212.539 56.9297 212.746 57.3008 213.012 57.6133C213.285 57.9258 213.613 58.168 213.996 58.3398C214.387 58.5117 214.828 58.5977 215.32 58.5977C215.93 58.5977 216.496 58.4805 217.02 58.2461C217.551 58.0039 218.008 57.6406 218.391 57.1562L220.031 58.9375C219.766 59.3203 219.402 59.6875 218.941 60.0391C218.488 60.3906 217.941 60.6797 217.301 60.9062C216.66 61.125 215.93 61.2344 215.109 61.2344ZM225.609 50.9453V61H222.223V48.3203H225.398L225.609 50.9453ZM225.141 54.2148H224.203C224.203 53.332 224.309 52.5195 224.52 51.7773C224.738 51.0273 225.055 50.3789 225.469 49.832C225.891 49.2773 226.41 48.8477 227.027 48.543C227.645 48.2383 228.359 48.0859 229.172 48.0859C229.734 48.0859 230.25 48.1719 230.719 48.3438C231.188 48.5078 231.59 48.7695 231.926 49.1289C232.27 49.4805 232.535 49.9414 232.723 50.5117C232.91 51.0742 233.004 51.75 233.004 52.5391V61H229.629V52.9141C229.629 52.3359 229.551 51.8906 229.395 51.5781C229.238 51.2656 229.016 51.0469 228.727 50.9219C228.445 50.7969 228.105 50.7344 227.707 50.7344C227.27 50.7344 226.887 50.8242 226.559 51.0039C226.238 51.1836 225.973 51.4336 225.762 51.7539C225.551 52.0664 225.395 52.4336 225.293 52.8555C225.191 53.2773 225.141 53.7305 225.141 54.2148ZM232.688 53.8281L231.48 53.9805C231.48 53.1523 231.582 52.3828 231.785 51.6719C231.996 50.9609 232.305 50.3359 232.711 49.7969C233.125 49.2578 233.637 48.8398 234.246 48.543C234.855 48.2383 235.559 48.0859 236.355 48.0859C236.965 48.0859 237.52 48.1758 238.02 48.3555C238.52 48.5273 238.945 48.8047 239.297 49.1875C239.656 49.5625 239.93 50.0547 240.117 50.6641C240.312 51.2734 240.41 52.0195 240.41 52.9023V61H237.023V52.9023C237.023 52.3164 236.945 51.8711 236.789 51.5664C236.641 51.2539 236.422 51.0391 236.133 50.9219C235.852 50.7969 235.516 50.7344 235.125 50.7344C234.719 50.7344 234.363 50.8164 234.059 50.9805C233.754 51.1367 233.5 51.3555 233.297 51.6367C233.094 51.918 232.941 52.2461 232.84 52.6211C232.738 52.9883 232.688 53.3906 232.688 53.8281ZM242.484 54.7891V54.543C242.484 53.6133 242.617 52.7578 242.883 51.9766C243.148 51.1875 243.535 50.5039 244.043 49.9258C244.551 49.3477 245.176 48.8984 245.918 48.5781C246.66 48.25 247.512 48.0859 248.473 48.0859C249.434 48.0859 250.289 48.25 251.039 48.5781C251.789 48.8984 252.418 49.3477 252.926 49.9258C253.441 50.5039 253.832 51.1875 254.098 51.9766C254.363 52.7578 254.496 53.6133 254.496 54.543V54.7891C254.496 55.7109 254.363 56.5664 254.098 57.3555C253.832 58.1367 253.441 58.8203 252.926 59.4062C252.418 59.9844 251.793 60.4336 251.051 60.7539C250.309 61.0742 249.457 61.2344 248.496 61.2344C247.535 61.2344 246.68 61.0742 245.93 60.7539C245.188 60.4336 244.559 59.9844 244.043 59.4062C243.535 58.8203 243.148 58.1367 242.883 57.3555C242.617 56.5664 242.484 55.7109 242.484 54.7891ZM245.859 54.543V54.7891C245.859 55.3203 245.906 55.8164 246 56.2773C246.094 56.7383 246.242 57.1445 246.445 57.4961C246.656 57.8398 246.93 58.1094 247.266 58.3047C247.602 58.5 248.012 58.5977 248.496 58.5977C248.965 58.5977 249.367 58.5 249.703 58.3047C250.039 58.1094 250.309 57.8398 250.512 57.4961C250.715 57.1445 250.863 56.7383 250.957 56.2773C251.059 55.8164 251.109 55.3203 251.109 54.7891V54.543C251.109 54.0273 251.059 53.543 250.957 53.0898C250.863 52.6289 250.711 52.2227 250.5 51.8711C250.297 51.5117 250.027 51.2305 249.691 51.0273C249.355 50.8242 248.949 50.7227 248.473 50.7227C247.996 50.7227 247.59 50.8242 247.254 51.0273C246.926 51.2305 246.656 51.5117 246.445 51.8711C246.242 52.2227 246.094 52.6289 246 53.0898C245.906 53.543 245.859 54.0273 245.859 54.543ZM262.781 48.3203V50.7109H255.398V48.3203H262.781ZM257.227 45.1914H260.602V57.1797C260.602 57.5469 260.648 57.8281 260.742 58.0234C260.844 58.2188 260.992 58.3555 261.188 58.4336C261.383 58.5039 261.629 58.5391 261.926 58.5391C262.137 58.5391 262.324 58.5312 262.488 58.5156C262.66 58.4922 262.805 58.4688 262.922 58.4453L262.934 60.9297C262.645 61.0234 262.332 61.0977 261.996 61.1523C261.66 61.207 261.289 61.2344 260.883 61.2344C260.141 61.2344 259.492 61.1133 258.938 60.8711C258.391 60.6211 257.969 60.2227 257.672 59.6758C257.375 59.1289 257.227 58.4102 257.227 57.5195V45.1914ZM270.539 61.2344C269.555 61.2344 268.672 61.0781 267.891 60.7656C267.109 60.4453 266.445 60.0039 265.898 59.4414C265.359 58.8789 264.945 58.2266 264.656 57.4844C264.367 56.7344 264.223 55.9375 264.223 55.0938V54.625C264.223 53.6641 264.359 52.7852 264.633 51.9883C264.906 51.1914 265.297 50.5 265.805 49.9141C266.32 49.3281 266.945 48.8789 267.68 48.5664C268.414 48.2461 269.242 48.0859 270.164 48.0859C271.062 48.0859 271.859 48.2344 272.555 48.5312C273.25 48.8281 273.832 49.25 274.301 49.7969C274.777 50.3438 275.137 51 275.379 51.7656C275.621 52.5234 275.742 53.3672 275.742 54.2969V55.7031H265.664V53.4531H272.426V53.1953C272.426 52.7266 272.34 52.3086 272.168 51.9414C272.004 51.5664 271.754 51.2695 271.418 51.0508C271.082 50.832 270.652 50.7227 270.129 50.7227C269.684 50.7227 269.301 50.8203 268.98 51.0156C268.66 51.2109 268.398 51.4844 268.195 51.8359C268 52.1875 267.852 52.6016 267.75 53.0781C267.656 53.5469 267.609 54.0625 267.609 54.625V55.0938C267.609 55.6016 267.68 56.0703 267.82 56.5C267.969 56.9297 268.176 57.3008 268.441 57.6133C268.715 57.9258 269.043 58.168 269.426 58.3398C269.816 58.5117 270.258 58.5977 270.75 58.5977C271.359 58.5977 271.926 58.4805 272.449 58.2461C272.98 58.0039 273.438 57.6406 273.82 57.1562L275.461 58.9375C275.195 59.3203 274.832 59.6875 274.371 60.0391C273.918 60.3906 273.371 60.6797 272.73 60.9062C272.09 61.125 271.359 61.2344 270.539 61.2344ZM290.004 57.4375L294.023 43.9375H297.938L291.996 61H289.418L290.004 57.4375ZM286.301 43.9375L290.309 57.4375L290.918 61H288.316L282.41 43.9375H286.301ZM298.242 54.7891V54.543C298.242 53.6133 298.375 52.7578 298.641 51.9766C298.906 51.1875 299.293 50.5039 299.801 49.9258C300.309 49.3477 300.934 48.8984 301.676 48.5781C302.418 48.25 303.27 48.0859 304.23 48.0859C305.191 48.0859 306.047 48.25 306.797 48.5781C307.547 48.8984 308.176 49.3477 308.684 49.9258C309.199 50.5039 309.59 51.1875 309.855 51.9766C310.121 52.7578 310.254 53.6133 310.254 54.543V54.7891C310.254 55.7109 310.121 56.5664 309.855 57.3555C309.59 58.1367 309.199 58.8203 308.684 59.4062C308.176 59.9844 307.551 60.4336 306.809 60.7539C306.066 61.0742 305.215 61.2344 304.254 61.2344C303.293 61.2344 302.438 61.0742 301.688 60.7539C300.945 60.4336 300.316 59.9844 299.801 59.4062C299.293 58.8203 298.906 58.1367 298.641 57.3555C298.375 56.5664 298.242 55.7109 298.242 54.7891ZM301.617 54.543V54.7891C301.617 55.3203 301.664 55.8164 301.758 56.2773C301.852 56.7383 302 57.1445 302.203 57.4961C302.414 57.8398 302.688 58.1094 303.023 58.3047C303.359 58.5 303.77 58.5977 304.254 58.5977C304.723 58.5977 305.125 58.5 305.461 58.3047C305.797 58.1094 306.066 57.8398 306.27 57.4961C306.473 57.1445 306.621 56.7383 306.715 56.2773C306.816 55.8164 306.867 55.3203 306.867 54.7891V54.543C306.867 54.0273 306.816 53.543 306.715 53.0898C306.621 52.6289 306.469 52.2227 306.258 51.8711C306.055 51.5117 305.785 51.2305 305.449 51.0273C305.113 50.8242 304.707 50.7227 304.23 50.7227C303.754 50.7227 303.348 50.8242 303.012 51.0273C302.684 51.2305 302.414 51.5117 302.203 51.8711C302 52.2227 301.852 52.6289 301.758 53.0898C301.664 53.543 301.617 54.0273 301.617 54.543ZM318.539 48.3203V50.7109H311.156V48.3203H318.539ZM312.984 45.1914H316.359V57.1797C316.359 57.5469 316.406 57.8281 316.5 58.0234C316.602 58.2188 316.75 58.3555 316.945 58.4336C317.141 58.5039 317.387 58.5391 317.684 58.5391C317.895 58.5391 318.082 58.5312 318.246 58.5156C318.418 58.4922 318.562 58.4688 318.68 58.4453L318.691 60.9297C318.402 61.0234 318.09 61.0977 317.754 61.1523C317.418 61.207 317.047 61.2344 316.641 61.2344C315.898 61.2344 315.25 61.1133 314.695 60.8711C314.148 60.6211 313.727 60.2227 313.43 59.6758C313.133 59.1289 312.984 58.4102 312.984 57.5195V45.1914ZM324.023 48.3203V61H320.637V48.3203H324.023ZM320.426 45.0156C320.426 44.5234 320.598 44.1172 320.941 43.7969C321.285 43.4766 321.746 43.3164 322.324 43.3164C322.895 43.3164 323.352 43.4766 323.695 43.7969C324.047 44.1172 324.223 44.5234 324.223 45.0156C324.223 45.5078 324.047 45.9141 323.695 46.2344C323.352 46.5547 322.895 46.7148 322.324 46.7148C321.746 46.7148 321.285 46.5547 320.941 46.2344C320.598 45.9141 320.426 45.5078 320.426 45.0156ZM330.117 51.0273V61H326.742V48.3203H329.906L330.117 51.0273ZM329.625 54.2148H328.711C328.711 53.2773 328.832 52.4336 329.074 51.6836C329.316 50.9258 329.656 50.2812 330.094 49.75C330.531 49.2109 331.051 48.8008 331.652 48.5195C332.262 48.2305 332.941 48.0859 333.691 48.0859C334.285 48.0859 334.828 48.1719 335.32 48.3438C335.812 48.5156 336.234 48.7891 336.586 49.1641C336.945 49.5391 337.219 50.0352 337.406 50.6523C337.602 51.2695 337.699 52.0234 337.699 52.9141V61H334.301V52.9023C334.301 52.3398 334.223 51.9023 334.066 51.5898C333.91 51.2773 333.68 51.0586 333.375 50.9336C333.078 50.8008 332.711 50.7344 332.273 50.7344C331.82 50.7344 331.426 50.8242 331.09 51.0039C330.762 51.1836 330.488 51.4336 330.27 51.7539C330.059 52.0664 329.898 52.4336 329.789 52.8555C329.68 53.2773 329.625 53.7305 329.625 54.2148ZM348.293 48.3203H351.352V60.5781C351.352 61.7344 351.094 62.7148 350.578 63.5195C350.07 64.332 349.359 64.9453 348.445 65.3594C347.531 65.7812 346.469 65.9922 345.258 65.9922C344.727 65.9922 344.164 65.9219 343.57 65.7812C342.984 65.6406 342.422 65.4219 341.883 65.125C341.352 64.8281 340.906 64.4531 340.547 64L342.035 62.0078C342.426 62.4609 342.879 62.8125 343.395 63.0625C343.91 63.3203 344.48 63.4492 345.105 63.4492C345.715 63.4492 346.23 63.3359 346.652 63.1094C347.074 62.8906 347.398 62.5664 347.625 62.1367C347.852 61.7148 347.965 61.2031 347.965 60.6016V51.25L348.293 48.3203ZM339.762 54.8125V54.5664C339.762 53.5977 339.879 52.7188 340.113 51.9297C340.355 51.1328 340.695 50.4492 341.133 49.8789C341.578 49.3086 342.117 48.8672 342.75 48.5547C343.383 48.2422 344.098 48.0859 344.895 48.0859C345.738 48.0859 346.445 48.2422 347.016 48.5547C347.586 48.8672 348.055 49.3125 348.422 49.8906C348.789 50.4609 349.074 51.1367 349.277 51.918C349.488 52.6914 349.652 53.5391 349.77 54.4609V55C349.652 55.8828 349.477 56.7031 349.242 57.4609C349.008 58.2188 348.699 58.8828 348.316 59.4531C347.934 60.0156 347.457 60.4531 346.887 60.7656C346.324 61.0781 345.652 61.2344 344.871 61.2344C344.09 61.2344 343.383 61.0742 342.75 60.7539C342.125 60.4336 341.59 59.9844 341.145 59.4062C340.699 58.8281 340.355 58.1484 340.113 57.3672C339.879 56.5859 339.762 55.7344 339.762 54.8125ZM343.137 54.5664V54.8125C343.137 55.3359 343.188 55.8242 343.289 56.2773C343.391 56.7305 343.547 57.1328 343.758 57.4844C343.977 57.8281 344.246 58.0977 344.566 58.293C344.895 58.4805 345.281 58.5742 345.727 58.5742C346.344 58.5742 346.848 58.4453 347.238 58.1875C347.629 57.9219 347.922 57.5586 348.117 57.0977C348.312 56.6367 348.426 56.1055 348.457 55.5039V53.9688C348.441 53.4766 348.375 53.0352 348.258 52.6445C348.141 52.2461 347.977 51.9062 347.766 51.625C347.555 51.3438 347.281 51.125 346.945 50.9688C346.609 50.8125 346.211 50.7344 345.75 50.7344C345.305 50.7344 344.918 50.8359 344.59 51.0391C344.27 51.2344 344 51.5039 343.781 51.8477C343.57 52.1914 343.41 52.5977 343.301 53.0664C343.191 53.5273 343.137 54.0273 343.137 54.5664Z" fill="#888888"/>
<path d="M114.117 84.875H122.344V107.164C122.344 109.82 121.789 112.07 120.68 113.914C119.57 115.742 118.016 117.125 116.016 118.062C114.016 119 111.664 119.469 108.961 119.469C106.289 119.469 103.938 119 101.906 118.062C99.8906 117.125 98.3125 115.742 97.1719 113.914C96.0469 112.07 95.4844 109.82 95.4844 107.164V84.875H103.734V107.164C103.734 108.57 103.938 109.719 104.344 110.609C104.75 111.484 105.344 112.125 106.125 112.531C106.906 112.938 107.852 113.141 108.961 113.141C110.086 113.141 111.031 112.938 111.797 112.531C112.562 112.125 113.141 111.484 113.531 110.609C113.922 109.719 114.117 108.57 114.117 107.164V84.875ZM136.266 84.875V119H128.062V84.875H136.266ZM172.523 84.875H180.75V107.164C180.75 109.82 180.195 112.07 179.086 113.914C177.977 115.742 176.422 117.125 174.422 118.062C172.422 119 170.07 119.469 167.367 119.469C164.695 119.469 162.344 119 160.312 118.062C158.297 117.125 156.719 115.742 155.578 113.914C154.453 112.07 153.891 109.82 153.891 107.164V84.875H162.141V107.164C162.141 108.57 162.344 109.719 162.75 110.609C163.156 111.484 163.75 112.125 164.531 112.531C165.312 112.938 166.258 113.141 167.367 113.141C168.492 113.141 169.438 112.938 170.203 112.531C170.969 112.125 171.547 111.484 171.938 110.609C172.328 109.719 172.523 108.57 172.523 107.164V84.875ZM193.078 84.875L198.656 96.2188L204.234 84.875H213.609L204.094 101.797L213.867 119H204.398L198.656 107.445L192.914 119H183.422L193.219 101.797L183.68 84.875H193.078Z" fill="black"/>
<path d="M1134 0H1348C1356.28 0 1363 6.71573 1363 15V148C1363 156.284 1356.28 163 1348 163H1134V0Z" fill="#1B2D98"/>
<path d="M1248.5 111.917C1244.51 111.917 1240.55 111.13 1236.86 109.601C1233.17 108.073 1229.82 105.832 1226.99 103.008C1221.29 97.3036 1218.08 89.567 1218.08 81.5C1218.08 73.433 1221.29 65.6964 1226.99 59.9922C1232.7 54.2879 1240.43 51.0833 1248.5 51.0833C1265.23 51.0833 1278.92 63.25 1278.92 78.4583C1278.92 83.2985 1276.99 87.9405 1273.57 91.363C1270.15 94.7856 1265.51 96.7083 1260.67 96.7083H1255.19C1254.28 96.7083 1253.67 97.3167 1253.67 98.2292C1253.67 98.5333 1253.97 98.8375 1253.97 99.1417C1255.19 100.662 1255.8 102.487 1255.8 104.312C1256.1 108.571 1252.76 111.917 1248.5 111.917ZM1248.5 57.1667C1242.05 57.1667 1235.86 59.7303 1231.29 64.2937C1226.73 68.8571 1224.17 75.0464 1224.17 81.5C1224.17 87.9536 1226.73 94.1429 1231.29 98.7063C1235.86 103.27 1242.05 105.833 1248.5 105.833C1249.41 105.833 1250.02 105.225 1250.02 104.312C1250.02 103.704 1249.72 103.4 1249.72 103.096C1248.5 101.575 1247.89 100.054 1247.89 98.2292C1247.89 93.9708 1251.24 90.625 1255.5 90.625H1260.67C1263.89 90.625 1266.99 89.3432 1269.27 87.0615C1271.55 84.7798 1272.83 81.6851 1272.83 78.4583C1272.83 66.5958 1261.88 57.1667 1248.5 57.1667ZM1231.77 75.4167C1234.2 75.4167 1236.33 77.5458 1236.33 79.9792C1236.33 82.4125 1234.2 84.5417 1231.77 84.5417C1229.34 84.5417 1227.21 82.4125 1227.21 79.9792C1227.21 77.5458 1229.34 75.4167 1231.77 75.4167ZM1240.9 63.25C1243.33 63.25 1245.46 65.3792 1245.46 67.8125C1245.46 70.2458 1243.33 72.375 1240.9 72.375C1238.46 72.375 1236.33 70.2458 1236.33 67.8125C1236.33 65.3792 1238.46 63.25 1240.9 63.25ZM1256.1 63.25C1258.54 63.25 1260.67 65.3792 1260.67 67.8125C1260.67 70.2458 1258.54 72.375 1256.1 72.375C1253.67 72.375 1251.54 70.2458 1251.54 67.8125C1251.54 65.3792 1253.67 63.25 1256.1 63.25ZM1265.23 75.4167C1267.66 75.4167 1269.79 77.5458 1269.79 79.9792C1269.79 82.4125 1267.66 84.5417 1265.23 84.5417C1262.8 84.5417 1260.67 82.4125 1260.67 79.9792C1260.67 77.5458 1262.8 75.4167 1265.23 75.4167Z" fill="white"/>
</svg>
