<svg width="1363" height="297" viewBox="0 0 1363 297" fill="none" xmlns="http://www.w3.org/2000/svg">
<path d="M0 15C0 6.71573 6.71573 0 15 0H37V297H15C6.71573 297 0 290.284 0 282V15Z" fill="#1B2D98"/>
<path d="M37 0H1066V297H37V0Z" fill="#F0F0F0"/>
<path d="M112.354 59.8301V63.9434H98.9941V59.8301H112.354ZM100.559 49.4062V75H95.2852V49.4062H100.559ZM116.115 49.4062V75H110.859V49.4062H116.115ZM119.578 65.6836V65.3145C119.578 63.9199 119.777 62.6367 120.176 61.4648C120.574 60.2812 121.154 59.2559 121.916 58.3887C122.678 57.5215 123.615 56.8477 124.729 56.3672C125.842 55.875 127.119 55.6289 128.561 55.6289C130.002 55.6289 131.285 55.875 132.41 56.3672C133.535 56.8477 134.479 57.5215 135.24 58.3887C136.014 59.2559 136.6 60.2812 136.998 61.4648C137.396 62.6367 137.596 63.9199 137.596 65.3145V65.6836C137.596 67.0664 137.396 68.3496 136.998 69.5332C136.6 70.7051 136.014 71.7305 135.24 72.6094C134.479 73.4766 133.541 74.1504 132.428 74.6309C131.314 75.1113 130.037 75.3516 128.596 75.3516C127.154 75.3516 125.871 75.1113 124.746 74.6309C123.633 74.1504 122.689 73.4766 121.916 72.6094C121.154 71.7305 120.574 70.7051 120.176 69.5332C119.777 68.3496 119.578 67.0664 119.578 65.6836ZM124.641 65.3145V65.6836C124.641 66.4805 124.711 67.2246 124.852 67.916C124.992 68.6074 125.215 69.2168 125.52 69.7441C125.836 70.2598 126.246 70.6641 126.75 70.957C127.254 71.25 127.869 71.3965 128.596 71.3965C129.299 71.3965 129.902 71.25 130.406 70.957C130.91 70.6641 131.314 70.2598 131.619 69.7441C131.924 69.2168 132.146 68.6074 132.287 67.916C132.439 67.2246 132.516 66.4805 132.516 65.6836V65.3145C132.516 64.541 132.439 63.8145 132.287 63.1348C132.146 62.4434 131.918 61.834 131.602 61.3066C131.297 60.7676 130.893 60.3457 130.389 60.041C129.885 59.7363 129.275 59.584 128.561 59.584C127.846 59.584 127.236 59.7363 126.732 60.041C126.24 60.3457 125.836 60.7676 125.52 61.3066C125.215 61.834 124.992 62.4434 124.852 63.1348C124.711 63.8145 124.641 64.541 124.641 65.3145ZM151.957 70.4473V55.9805H157.02V75H152.256L151.957 70.4473ZM152.52 66.5449L154.014 66.5098C154.014 67.7754 153.867 68.9531 153.574 70.043C153.281 71.1211 152.842 72.0586 152.256 72.8555C151.67 73.6406 150.932 74.2559 150.041 74.7012C149.15 75.1348 148.102 75.3516 146.895 75.3516C145.969 75.3516 145.113 75.2227 144.328 74.9648C143.555 74.6953 142.887 74.2793 142.324 73.7168C141.773 73.1426 141.34 72.4102 141.023 71.5195C140.719 70.6172 140.566 69.5332 140.566 68.2676V55.9805H145.629V68.3027C145.629 68.8652 145.693 69.3398 145.822 69.7266C145.963 70.1133 146.156 70.4297 146.402 70.6758C146.648 70.9219 146.936 71.0977 147.264 71.2031C147.604 71.3086 147.979 71.3613 148.389 71.3613C149.432 71.3613 150.252 71.1504 150.85 70.7285C151.459 70.3066 151.887 69.7324 152.133 69.0059C152.391 68.2676 152.52 67.4473 152.52 66.5449ZM171.17 69.7441C171.17 69.3809 171.064 69.0527 170.854 68.7598C170.643 68.4668 170.25 68.1973 169.676 67.9512C169.113 67.6934 168.299 67.459 167.232 67.248C166.271 67.0371 165.375 66.7734 164.543 66.457C163.723 66.1289 163.008 65.7363 162.398 65.2793C161.801 64.8223 161.332 64.2832 160.992 63.6621C160.652 63.0293 160.482 62.3086 160.482 61.5C160.482 60.7031 160.652 59.9531 160.992 59.25C161.344 58.5469 161.842 57.9258 162.486 57.3867C163.143 56.8359 163.939 56.4082 164.877 56.1035C165.826 55.7871 166.893 55.6289 168.076 55.6289C169.729 55.6289 171.146 55.8926 172.33 56.4199C173.525 56.9473 174.439 57.6738 175.072 58.5996C175.717 59.5137 176.039 60.5566 176.039 61.7285H170.977C170.977 61.2363 170.871 60.7969 170.66 60.4102C170.461 60.0117 170.145 59.7012 169.711 59.4785C169.289 59.2441 168.738 59.127 168.059 59.127C167.496 59.127 167.01 59.2266 166.6 59.4258C166.189 59.6133 165.873 59.8711 165.65 60.1992C165.439 60.5156 165.334 60.8672 165.334 61.2539C165.334 61.5469 165.393 61.8105 165.51 62.0449C165.639 62.2676 165.844 62.4727 166.125 62.6602C166.406 62.8477 166.77 63.0234 167.215 63.1875C167.672 63.3398 168.234 63.4805 168.902 63.6094C170.273 63.8906 171.498 64.2598 172.576 64.7168C173.654 65.1621 174.51 65.7715 175.143 66.5449C175.775 67.3066 176.092 68.3086 176.092 69.5508C176.092 70.3945 175.904 71.168 175.529 71.8711C175.154 72.5742 174.615 73.1895 173.912 73.7168C173.209 74.2324 172.365 74.6367 171.381 74.9297C170.408 75.2109 169.312 75.3516 168.094 75.3516C166.324 75.3516 164.824 75.0352 163.594 74.4023C162.375 73.7695 161.449 72.9668 160.816 71.9941C160.195 71.0098 159.885 70.002 159.885 68.9707H164.684C164.707 69.6621 164.883 70.2188 165.211 70.6406C165.551 71.0625 165.979 71.3672 166.494 71.5547C167.021 71.7422 167.59 71.8359 168.199 71.8359C168.855 71.8359 169.4 71.748 169.834 71.5723C170.268 71.3848 170.596 71.1387 170.818 70.834C171.053 70.5176 171.17 70.1543 171.17 69.7441ZM189.662 69.7441C189.662 69.3809 189.557 69.0527 189.346 68.7598C189.135 68.4668 188.742 68.1973 188.168 67.9512C187.605 67.6934 186.791 67.459 185.725 67.248C184.764 67.0371 183.867 66.7734 183.035 66.457C182.215 66.1289 181.5 65.7363 180.891 65.2793C180.293 64.8223 179.824 64.2832 179.484 63.6621C179.145 63.0293 178.975 62.3086 178.975 61.5C178.975 60.7031 179.145 59.9531 179.484 59.25C179.836 58.5469 180.334 57.9258 180.979 57.3867C181.635 56.8359 182.432 56.4082 183.369 56.1035C184.318 55.7871 185.385 55.6289 186.568 55.6289C188.221 55.6289 189.639 55.8926 190.822 56.4199C192.018 56.9473 192.932 57.6738 193.564 58.5996C194.209 59.5137 194.531 60.5566 194.531 61.7285H189.469C189.469 61.2363 189.363 60.7969 189.152 60.4102C188.953 60.0117 188.637 59.7012 188.203 59.4785C187.781 59.2441 187.23 59.127 186.551 59.127C185.988 59.127 185.502 59.2266 185.092 59.4258C184.682 59.6133 184.365 59.8711 184.143 60.1992C183.932 60.5156 183.826 60.8672 183.826 61.2539C183.826 61.5469 183.885 61.8105 184.002 62.0449C184.131 62.2676 184.336 62.4727 184.617 62.6602C184.898 62.8477 185.262 63.0234 185.707 63.1875C186.164 63.3398 186.727 63.4805 187.395 63.6094C188.766 63.8906 189.99 64.2598 191.068 64.7168C192.146 65.1621 193.002 65.7715 193.635 66.5449C194.268 67.3066 194.584 68.3086 194.584 69.5508C194.584 70.3945 194.396 71.168 194.021 71.8711C193.646 72.5742 193.107 73.1895 192.404 73.7168C191.701 74.2324 190.857 74.6367 189.873 74.9297C188.9 75.2109 187.805 75.3516 186.586 75.3516C184.816 75.3516 183.316 75.0352 182.086 74.4023C180.867 73.7695 179.941 72.9668 179.309 71.9941C178.688 71.0098 178.377 70.002 178.377 68.9707H183.176C183.199 69.6621 183.375 70.2188 183.703 70.6406C184.043 71.0625 184.471 71.3672 184.986 71.5547C185.514 71.7422 186.082 71.8359 186.691 71.8359C187.348 71.8359 187.893 71.748 188.326 71.5723C188.76 71.3848 189.088 71.1387 189.311 70.834C189.545 70.5176 189.662 70.1543 189.662 69.7441ZM203.215 55.9805V75H198.135V55.9805H203.215ZM197.818 51.0234C197.818 50.2852 198.076 49.6758 198.592 49.1953C199.107 48.7148 199.799 48.4746 200.666 48.4746C201.521 48.4746 202.207 48.7148 202.723 49.1953C203.25 49.6758 203.514 50.2852 203.514 51.0234C203.514 51.7617 203.25 52.3711 202.723 52.8516C202.207 53.332 201.521 53.5723 200.666 53.5723C199.799 53.5723 199.107 53.332 198.592 52.8516C198.076 52.3711 197.818 51.7617 197.818 51.0234ZM216.152 75.3516C214.676 75.3516 213.352 75.1172 212.18 74.6484C211.008 74.168 210.012 73.5059 209.191 72.6621C208.383 71.8184 207.762 70.8398 207.328 69.7266C206.895 68.6016 206.678 67.4062 206.678 66.1406V65.4375C206.678 63.9961 206.883 62.6777 207.293 61.4824C207.703 60.2871 208.289 59.25 209.051 58.3711C209.824 57.4922 210.762 56.8184 211.863 56.3496C212.965 55.8691 214.207 55.6289 215.59 55.6289C216.938 55.6289 218.133 55.8516 219.176 56.2969C220.219 56.7422 221.092 57.375 221.795 58.1953C222.51 59.0156 223.049 60 223.412 61.1484C223.775 62.2852 223.957 63.5508 223.957 64.9453V67.0547H208.84V63.6797H218.982V63.293C218.982 62.5898 218.854 61.9629 218.596 61.4121C218.35 60.8496 217.975 60.4043 217.471 60.0762C216.967 59.748 216.322 59.584 215.537 59.584C214.869 59.584 214.295 59.7305 213.814 60.0234C213.334 60.3164 212.941 60.7266 212.637 61.2539C212.344 61.7812 212.121 62.4023 211.969 63.1172C211.828 63.8203 211.758 64.5938 211.758 65.4375V66.1406C211.758 66.9023 211.863 67.6055 212.074 68.25C212.297 68.8945 212.607 69.4512 213.006 69.9199C213.416 70.3887 213.908 70.752 214.482 71.0098C215.068 71.2676 215.73 71.3965 216.469 71.3965C217.383 71.3965 218.232 71.2207 219.018 70.8691C219.814 70.5059 220.5 69.9609 221.074 69.2344L223.535 71.9062C223.137 72.4805 222.592 73.0312 221.9 73.5586C221.221 74.0859 220.4 74.5195 219.439 74.8594C218.479 75.1875 217.383 75.3516 216.152 75.3516ZM231.797 60.041V75H226.734V55.9805H231.48L231.797 60.041ZM231.059 64.8223H229.688C229.688 63.416 229.869 62.1504 230.232 61.0254C230.596 59.8887 231.105 58.9219 231.762 58.125C232.418 57.3164 233.197 56.7012 234.1 56.2793C235.014 55.8457 236.033 55.6289 237.158 55.6289C238.049 55.6289 238.863 55.7578 239.602 56.0156C240.34 56.2734 240.973 56.6836 241.5 57.2461C242.039 57.8086 242.449 58.5527 242.73 59.4785C243.023 60.4043 243.17 61.5352 243.17 62.8711V75H238.072V62.8535C238.072 62.0098 237.955 61.3535 237.721 60.8848C237.486 60.416 237.141 60.0879 236.684 59.9004C236.238 59.7012 235.688 59.6016 235.031 59.6016C234.352 59.6016 233.76 59.7363 233.256 60.0059C232.764 60.2754 232.354 60.6504 232.025 61.1309C231.709 61.5996 231.469 62.1504 231.305 62.7832C231.141 63.416 231.059 64.0957 231.059 64.8223ZM274.811 70.8867V75H256.67V70.8867H274.811ZM274.547 52.3418L259.008 75H255.299V71.9766L270.961 49.4062H274.547V52.3418ZM272.736 49.4062V53.5371H255.316V49.4062H272.736ZM286.219 75.3516C284.742 75.3516 283.418 75.1172 282.246 74.6484C281.074 74.168 280.078 73.5059 279.258 72.6621C278.449 71.8184 277.828 70.8398 277.395 69.7266C276.961 68.6016 276.744 67.4062 276.744 66.1406V65.4375C276.744 63.9961 276.949 62.6777 277.359 61.4824C277.77 60.2871 278.355 59.25 279.117 58.3711C279.891 57.4922 280.828 56.8184 281.93 56.3496C283.031 55.8691 284.273 55.6289 285.656 55.6289C287.004 55.6289 288.199 55.8516 289.242 56.2969C290.285 56.7422 291.158 57.375 291.861 58.1953C292.576 59.0156 293.115 60 293.479 61.1484C293.842 62.2852 294.023 63.5508 294.023 64.9453V67.0547H278.906V63.6797H289.049V63.293C289.049 62.5898 288.92 61.9629 288.662 61.4121C288.416 60.8496 288.041 60.4043 287.537 60.0762C287.033 59.748 286.389 59.584 285.604 59.584C284.936 59.584 284.361 59.7305 283.881 60.0234C283.4 60.3164 283.008 60.7266 282.703 61.2539C282.41 61.7812 282.188 62.4023 282.035 63.1172C281.895 63.8203 281.824 64.5938 281.824 65.4375V66.1406C281.824 66.9023 281.93 67.6055 282.141 68.25C282.363 68.8945 282.674 69.4512 283.072 69.9199C283.482 70.3887 283.975 70.752 284.549 71.0098C285.135 71.2676 285.797 71.3965 286.535 71.3965C287.449 71.3965 288.299 71.2207 289.084 70.8691C289.881 70.5059 290.566 69.9609 291.141 69.2344L293.602 71.9062C293.203 72.4805 292.658 73.0312 291.967 73.5586C291.287 74.0859 290.467 74.5195 289.506 74.8594C288.545 75.1875 287.449 75.3516 286.219 75.3516ZM302.25 55.9805V75H297.17V55.9805H302.25ZM296.854 51.0234C296.854 50.2852 297.111 49.6758 297.627 49.1953C298.143 48.7148 298.834 48.4746 299.701 48.4746C300.557 48.4746 301.242 48.7148 301.758 49.1953C302.285 49.6758 302.549 50.2852 302.549 51.0234C302.549 51.7617 302.285 52.3711 301.758 52.8516C301.242 53.332 300.557 53.5723 299.701 53.5723C298.834 53.5723 298.143 53.332 297.627 52.8516C297.111 52.3711 296.854 51.7617 296.854 51.0234ZM311.391 60.041V75H306.328V55.9805H311.074L311.391 60.041ZM310.652 64.8223H309.281C309.281 63.416 309.463 62.1504 309.826 61.0254C310.189 59.8887 310.699 58.9219 311.355 58.125C312.012 57.3164 312.791 56.7012 313.693 56.2793C314.607 55.8457 315.627 55.6289 316.752 55.6289C317.643 55.6289 318.457 55.7578 319.195 56.0156C319.934 56.2734 320.566 56.6836 321.094 57.2461C321.633 57.8086 322.043 58.5527 322.324 59.4785C322.617 60.4043 322.764 61.5352 322.764 62.8711V75H317.666V62.8535C317.666 62.0098 317.549 61.3535 317.314 60.8848C317.08 60.416 316.734 60.0879 316.277 59.9004C315.832 59.7012 315.281 59.6016 314.625 59.6016C313.945 59.6016 313.354 59.7363 312.85 60.0059C312.357 60.2754 311.947 60.6504 311.619 61.1309C311.303 61.5996 311.062 62.1504 310.898 62.7832C310.734 63.416 310.652 64.0957 310.652 64.8223ZM335.367 75.3516C333.891 75.3516 332.566 75.1172 331.395 74.6484C330.223 74.168 329.227 73.5059 328.406 72.6621C327.598 71.8184 326.977 70.8398 326.543 69.7266C326.109 68.6016 325.893 67.4062 325.893 66.1406V65.4375C325.893 63.9961 326.098 62.6777 326.508 61.4824C326.918 60.2871 327.504 59.25 328.266 58.3711C329.039 57.4922 329.977 56.8184 331.078 56.3496C332.18 55.8691 333.422 55.6289 334.805 55.6289C336.152 55.6289 337.348 55.8516 338.391 56.2969C339.434 56.7422 340.307 57.375 341.01 58.1953C341.725 59.0156 342.264 60 342.627 61.1484C342.99 62.2852 343.172 63.5508 343.172 64.9453V67.0547H328.055V63.6797H338.197V63.293C338.197 62.5898 338.068 61.9629 337.811 61.4121C337.564 60.8496 337.189 60.4043 336.686 60.0762C336.182 59.748 335.537 59.584 334.752 59.584C334.084 59.584 333.51 59.7305 333.029 60.0234C332.549 60.3164 332.156 60.7266 331.852 61.2539C331.559 61.7812 331.336 62.4023 331.184 63.1172C331.043 63.8203 330.973 64.5938 330.973 65.4375V66.1406C330.973 66.9023 331.078 67.6055 331.289 68.25C331.512 68.8945 331.822 69.4512 332.221 69.9199C332.631 70.3887 333.123 70.752 333.697 71.0098C334.283 71.2676 334.945 71.3965 335.684 71.3965C336.598 71.3965 337.447 71.2207 338.232 70.8691C339.029 70.5059 339.715 69.9609 340.289 69.2344L342.75 71.9062C342.352 72.4805 341.807 73.0312 341.115 73.5586C340.436 74.0859 339.615 74.5195 338.654 74.8594C337.693 75.1875 336.598 75.3516 335.367 75.3516ZM357.287 70.8516V48H362.385V75H357.797L357.287 70.8516ZM345.264 65.7188V65.3496C345.264 63.8965 345.428 62.5781 345.756 61.3945C346.084 60.1992 346.564 59.1738 347.197 58.3184C347.83 57.4629 348.609 56.8008 349.535 56.332C350.461 55.8633 351.516 55.6289 352.699 55.6289C353.812 55.6289 354.785 55.8633 355.617 56.332C356.461 56.8008 357.176 57.4688 357.762 58.3359C358.359 59.1914 358.84 60.2051 359.203 61.377C359.566 62.5371 359.83 63.8086 359.994 65.1914V66C359.83 67.3242 359.566 68.5547 359.203 69.6914C358.84 70.8281 358.359 71.8242 357.762 72.6797C357.176 73.5234 356.461 74.1797 355.617 74.6484C354.773 75.1172 353.789 75.3516 352.664 75.3516C351.48 75.3516 350.426 75.1113 349.5 74.6309C348.586 74.1504 347.812 73.4766 347.18 72.6094C346.559 71.7422 346.084 70.7227 345.756 69.5508C345.428 68.3789 345.264 67.1016 345.264 65.7188ZM350.326 65.3496V65.7188C350.326 66.5039 350.385 67.2363 350.502 67.916C350.631 68.5957 350.836 69.1992 351.117 69.7266C351.41 70.2422 351.785 70.6465 352.242 70.9395C352.711 71.2207 353.279 71.3613 353.947 71.3613C354.814 71.3613 355.529 71.168 356.092 70.7812C356.654 70.3828 357.082 69.8379 357.375 69.1465C357.68 68.4551 357.855 67.6582 357.902 66.7559V64.4531C357.867 63.7148 357.762 63.0527 357.586 62.4668C357.422 61.8691 357.176 61.3594 356.848 60.9375C356.531 60.5156 356.133 60.1875 355.652 59.9531C355.184 59.7188 354.627 59.6016 353.982 59.6016C353.326 59.6016 352.764 59.7539 352.295 60.0586C351.826 60.3516 351.445 60.7559 351.152 61.2715C350.871 61.7871 350.66 62.3965 350.52 63.0996C350.391 63.791 350.326 64.541 350.326 65.3496ZM377.572 70.8516V48H382.67V75H378.082L377.572 70.8516ZM365.549 65.7188V65.3496C365.549 63.8965 365.713 62.5781 366.041 61.3945C366.369 60.1992 366.85 59.1738 367.482 58.3184C368.115 57.4629 368.895 56.8008 369.82 56.332C370.746 55.8633 371.801 55.6289 372.984 55.6289C374.098 55.6289 375.07 55.8633 375.902 56.332C376.746 56.8008 377.461 57.4688 378.047 58.3359C378.645 59.1914 379.125 60.2051 379.488 61.377C379.852 62.5371 380.115 63.8086 380.279 65.1914V66C380.115 67.3242 379.852 68.5547 379.488 69.6914C379.125 70.8281 378.645 71.8242 378.047 72.6797C377.461 73.5234 376.746 74.1797 375.902 74.6484C375.059 75.1172 374.074 75.3516 372.949 75.3516C371.766 75.3516 370.711 75.1113 369.785 74.6309C368.871 74.1504 368.098 73.4766 367.465 72.6094C366.844 71.7422 366.369 70.7227 366.041 69.5508C365.713 68.3789 365.549 67.1016 365.549 65.7188ZM370.611 65.3496V65.7188C370.611 66.5039 370.67 67.2363 370.787 67.916C370.916 68.5957 371.121 69.1992 371.402 69.7266C371.695 70.2422 372.07 70.6465 372.527 70.9395C372.996 71.2207 373.564 71.3613 374.232 71.3613C375.1 71.3613 375.814 71.168 376.377 70.7812C376.939 70.3828 377.367 69.8379 377.66 69.1465C377.965 68.4551 378.141 67.6582 378.188 66.7559V64.4531C378.152 63.7148 378.047 63.0527 377.871 62.4668C377.707 61.8691 377.461 61.3594 377.133 60.9375C376.816 60.5156 376.418 60.1875 375.938 59.9531C375.469 59.7188 374.912 59.6016 374.268 59.6016C373.611 59.6016 373.049 59.7539 372.58 60.0586C372.111 60.3516 371.73 60.7559 371.438 61.2715C371.156 61.7871 370.945 62.3965 370.805 63.0996C370.676 63.791 370.611 64.541 370.611 65.3496ZM391.969 55.9805V75H386.889V55.9805H391.969ZM386.572 51.0234C386.572 50.2852 386.83 49.6758 387.346 49.1953C387.861 48.7148 388.553 48.4746 389.42 48.4746C390.275 48.4746 390.961 48.7148 391.477 49.1953C392.004 49.6758 392.268 50.2852 392.268 51.0234C392.268 51.7617 392.004 52.3711 391.477 52.8516C390.961 53.332 390.275 53.5723 389.42 53.5723C388.553 53.5723 387.861 53.332 387.346 52.8516C386.83 52.3711 386.572 51.7617 386.572 51.0234ZM401.109 60.041V75H396.047V55.9805H400.793L401.109 60.041ZM400.371 64.8223H399C399 63.416 399.182 62.1504 399.545 61.0254C399.908 59.8887 400.418 58.9219 401.074 58.125C401.73 57.3164 402.51 56.7012 403.412 56.2793C404.326 55.8457 405.346 55.6289 406.471 55.6289C407.361 55.6289 408.176 55.7578 408.914 56.0156C409.652 56.2734 410.285 56.6836 410.812 57.2461C411.352 57.8086 411.762 58.5527 412.043 59.4785C412.336 60.4043 412.482 61.5352 412.482 62.8711V75H407.385V62.8535C407.385 62.0098 407.268 61.3535 407.033 60.8848C406.799 60.416 406.453 60.0879 405.996 59.9004C405.551 59.7012 405 59.6016 404.344 59.6016C403.664 59.6016 403.072 59.7363 402.568 60.0059C402.076 60.2754 401.666 60.6504 401.338 61.1309C401.021 61.5996 400.781 62.1504 400.617 62.7832C400.453 63.416 400.371 64.0957 400.371 64.8223ZM425.086 75.3516C423.609 75.3516 422.285 75.1172 421.113 74.6484C419.941 74.168 418.945 73.5059 418.125 72.6621C417.316 71.8184 416.695 70.8398 416.262 69.7266C415.828 68.6016 415.611 67.4062 415.611 66.1406V65.4375C415.611 63.9961 415.816 62.6777 416.227 61.4824C416.637 60.2871 417.223 59.25 417.984 58.3711C418.758 57.4922 419.695 56.8184 420.797 56.3496C421.898 55.8691 423.141 55.6289 424.523 55.6289C425.871 55.6289 427.066 55.8516 428.109 56.2969C429.152 56.7422 430.025 57.375 430.729 58.1953C431.443 59.0156 431.982 60 432.346 61.1484C432.709 62.2852 432.891 63.5508 432.891 64.9453V67.0547H417.773V63.6797H427.916V63.293C427.916 62.5898 427.787 61.9629 427.529 61.4121C427.283 60.8496 426.908 60.4043 426.404 60.0762C425.9 59.748 425.256 59.584 424.471 59.584C423.803 59.584 423.229 59.7305 422.748 60.0234C422.268 60.3164 421.875 60.7266 421.57 61.2539C421.277 61.7812 421.055 62.4023 420.902 63.1172C420.762 63.8203 420.691 64.5938 420.691 65.4375V66.1406C420.691 66.9023 420.797 67.6055 421.008 68.25C421.23 68.8945 421.541 69.4512 421.939 69.9199C422.35 70.3887 422.842 70.752 423.416 71.0098C424.002 71.2676 424.664 71.3965 425.402 71.3965C426.316 71.3965 427.166 71.2207 427.951 70.8691C428.748 70.5059 429.434 69.9609 430.008 69.2344L432.469 71.9062C432.07 72.4805 431.525 73.0312 430.834 73.5586C430.154 74.0859 429.334 74.5195 428.373 74.8594C427.412 75.1875 426.316 75.3516 425.086 75.3516Z" fill="#888888"/>
<path d="M116.543 129.418C116.543 128.798 116.452 128.242 116.27 127.75C116.087 127.24 115.75 126.766 115.258 126.328C114.766 125.891 114.055 125.453 113.125 125.016C112.214 124.56 111.01 124.086 109.516 123.594C107.766 123.01 106.079 122.354 104.457 121.625C102.835 120.878 101.385 120.012 100.109 119.027C98.8333 118.025 97.8216 116.858 97.0742 115.527C96.3268 114.178 95.9531 112.611 95.9531 110.824C95.9531 109.111 96.3359 107.57 97.1016 106.203C97.8672 104.818 98.9336 103.642 100.301 102.676C101.686 101.691 103.309 100.944 105.168 100.434C107.027 99.9049 109.06 99.6406 111.266 99.6406C114.182 99.6406 116.753 100.151 118.977 101.172C121.219 102.174 122.969 103.605 124.227 105.465C125.503 107.306 126.141 109.484 126.141 112H116.598C116.598 110.997 116.388 110.113 115.969 109.348C115.568 108.582 114.957 107.98 114.137 107.543C113.316 107.105 112.286 106.887 111.047 106.887C109.844 106.887 108.832 107.069 108.012 107.434C107.191 107.798 106.572 108.29 106.152 108.91C105.733 109.512 105.523 110.177 105.523 110.906C105.523 111.508 105.688 112.055 106.016 112.547C106.362 113.021 106.845 113.467 107.465 113.887C108.103 114.306 108.868 114.707 109.762 115.09C110.673 115.473 111.694 115.846 112.824 116.211C114.939 116.885 116.816 117.642 118.457 118.48C120.116 119.301 121.51 120.24 122.641 121.297C123.789 122.336 124.655 123.521 125.238 124.852C125.84 126.182 126.141 127.686 126.141 129.363C126.141 131.15 125.794 132.736 125.102 134.121C124.409 135.507 123.415 136.682 122.121 137.648C120.827 138.596 119.277 139.316 117.473 139.809C115.668 140.301 113.654 140.547 111.43 140.547C109.388 140.547 107.374 140.292 105.387 139.781C103.418 139.253 101.632 138.451 100.027 137.375C98.4232 136.281 97.138 134.887 96.1719 133.191C95.224 131.478 94.75 129.445 94.75 127.094H104.375C104.375 128.26 104.53 129.245 104.84 130.047C105.15 130.849 105.605 131.496 106.207 131.988C106.809 132.462 107.547 132.809 108.422 133.027C109.297 133.228 110.299 133.328 111.43 133.328C112.651 133.328 113.635 133.155 114.383 132.809C115.13 132.444 115.677 131.97 116.023 131.387C116.37 130.785 116.543 130.129 116.543 129.418ZM144.98 140.547C142.574 140.547 140.423 140.173 138.527 139.426C136.632 138.66 135.027 137.612 133.715 136.281C132.421 134.951 131.427 133.419 130.734 131.688C130.06 129.956 129.723 128.124 129.723 126.191V125.152C129.723 122.983 130.023 120.978 130.625 119.137C131.227 117.277 132.12 115.655 133.305 114.27C134.49 112.884 135.975 111.809 137.762 111.043C139.548 110.259 141.626 109.867 143.996 109.867C146.092 109.867 147.97 110.204 149.629 110.879C151.288 111.553 152.691 112.52 153.84 113.777C155.007 115.035 155.891 116.557 156.492 118.344C157.112 120.13 157.422 122.135 157.422 124.359V128.105H133.25V122.336H148.426V121.625C148.444 120.641 148.271 119.802 147.906 119.109C147.56 118.417 147.049 117.888 146.375 117.523C145.701 117.159 144.88 116.977 143.914 116.977C142.911 116.977 142.082 117.195 141.426 117.633C140.788 118.07 140.286 118.672 139.922 119.438C139.576 120.185 139.329 121.051 139.184 122.035C139.038 123.02 138.965 124.059 138.965 125.152V126.191C138.965 127.285 139.111 128.279 139.402 129.172C139.712 130.065 140.15 130.831 140.715 131.469C141.298 132.089 141.991 132.572 142.793 132.918C143.613 133.264 144.543 133.438 145.582 133.438C146.84 133.438 148.079 133.201 149.301 132.727C150.522 132.253 151.57 131.469 152.445 130.375L156.629 135.352C156.027 136.208 155.171 137.038 154.059 137.84C152.965 138.642 151.652 139.298 150.121 139.809C148.59 140.301 146.876 140.547 144.98 140.547ZM173.664 133.438C174.521 133.438 175.25 133.283 175.852 132.973C176.471 132.645 176.936 132.189 177.246 131.605C177.574 131.004 177.729 130.284 177.711 129.445H186.379C186.397 131.669 185.85 133.62 184.738 135.297C183.645 136.956 182.15 138.25 180.254 139.18C178.376 140.091 176.253 140.547 173.883 140.547C171.568 140.547 169.544 140.173 167.812 139.426C166.081 138.66 164.632 137.603 163.465 136.254C162.316 134.887 161.451 133.292 160.867 131.469C160.302 129.646 160.02 127.668 160.02 125.535V124.906C160.02 122.773 160.302 120.796 160.867 118.973C161.451 117.132 162.316 115.536 163.465 114.188C164.632 112.82 166.072 111.763 167.785 111.016C169.517 110.25 171.531 109.867 173.828 109.867C176.289 109.867 178.458 110.332 180.336 111.262C182.232 112.191 183.717 113.54 184.793 115.309C185.868 117.077 186.397 119.219 186.379 121.734H177.711C177.729 120.841 177.592 120.039 177.301 119.328C177.009 118.617 176.553 118.052 175.934 117.633C175.332 117.195 174.557 116.977 173.609 116.977C172.661 116.977 171.896 117.186 171.312 117.605C170.729 118.025 170.283 118.608 169.973 119.355C169.681 120.085 169.48 120.923 169.371 121.871C169.28 122.819 169.234 123.831 169.234 124.906V125.535C169.234 126.629 169.28 127.659 169.371 128.625C169.48 129.573 169.69 130.411 170 131.141C170.31 131.852 170.757 132.417 171.34 132.836C171.923 133.237 172.698 133.438 173.664 133.438ZM207.598 132.809V110.414H216.84V140H208.199L207.598 132.809ZM208.473 126.793L210.879 126.738C210.879 128.725 210.642 130.566 210.168 132.262C209.694 133.939 208.992 135.397 208.062 136.637C207.151 137.876 206.021 138.842 204.672 139.535C203.341 140.21 201.801 140.547 200.051 140.547C198.592 140.547 197.253 140.346 196.031 139.945C194.828 139.526 193.789 138.879 192.914 138.004C192.039 137.111 191.355 135.971 190.863 134.586C190.389 133.182 190.152 131.505 190.152 129.555V110.414H199.367V129.609C199.367 130.266 199.449 130.831 199.613 131.305C199.777 131.779 200.014 132.18 200.324 132.508C200.634 132.818 201.017 133.055 201.473 133.219C201.947 133.365 202.484 133.438 203.086 133.438C204.471 133.438 205.556 133.146 206.34 132.562C207.124 131.979 207.671 131.186 207.98 130.184C208.309 129.181 208.473 128.051 208.473 126.793ZM231.223 117.742V140H222.008V110.414H230.621L231.223 117.742ZM239.973 110.195L239.809 118.754C239.444 118.717 238.952 118.672 238.332 118.617C237.712 118.562 237.193 118.535 236.773 118.535C235.698 118.535 234.768 118.663 233.984 118.918C233.219 119.155 232.581 119.52 232.07 120.012C231.578 120.486 231.214 121.087 230.977 121.816C230.758 122.546 230.658 123.393 230.676 124.359L229.008 123.266C229.008 121.279 229.199 119.474 229.582 117.852C229.983 116.211 230.548 114.798 231.277 113.613C232.007 112.41 232.891 111.49 233.93 110.852C234.969 110.195 236.135 109.867 237.43 109.867C237.885 109.867 238.332 109.895 238.77 109.949C239.225 110.004 239.626 110.086 239.973 110.195ZM256.926 140.547C254.52 140.547 252.368 140.173 250.473 139.426C248.577 138.66 246.973 137.612 245.66 136.281C244.366 134.951 243.372 133.419 242.68 131.688C242.005 129.956 241.668 128.124 241.668 126.191V125.152C241.668 122.983 241.969 120.978 242.57 119.137C243.172 117.277 244.065 115.655 245.25 114.27C246.435 112.884 247.921 111.809 249.707 111.043C251.493 110.259 253.572 109.867 255.941 109.867C258.038 109.867 259.915 110.204 261.574 110.879C263.233 111.553 264.637 112.52 265.785 113.777C266.952 115.035 267.836 116.557 268.438 118.344C269.057 120.13 269.367 122.135 269.367 124.359V128.105H245.195V122.336H260.371V121.625C260.389 120.641 260.216 119.802 259.852 119.109C259.505 118.417 258.995 117.888 258.32 117.523C257.646 117.159 256.826 116.977 255.859 116.977C254.857 116.977 254.027 117.195 253.371 117.633C252.733 118.07 252.232 118.672 251.867 119.438C251.521 120.185 251.275 121.051 251.129 122.035C250.983 123.02 250.91 124.059 250.91 125.152V126.191C250.91 127.285 251.056 128.279 251.348 129.172C251.658 130.065 252.095 130.831 252.66 131.469C253.243 132.089 253.936 132.572 254.738 132.918C255.559 133.264 256.488 133.438 257.527 133.438C258.785 133.438 260.025 133.201 261.246 132.727C262.467 132.253 263.516 131.469 264.391 130.375L268.574 135.352C267.973 136.208 267.116 137.038 266.004 137.84C264.91 138.642 263.598 139.298 262.066 139.809C260.535 140.301 258.822 140.547 256.926 140.547ZM287.496 100.188H303.164C306.227 100.188 308.888 100.643 311.148 101.555C313.409 102.466 315.15 103.815 316.371 105.602C317.611 107.388 318.23 109.594 318.23 112.219C318.23 114.497 317.875 116.402 317.164 117.934C316.453 119.465 315.46 120.732 314.184 121.734C312.926 122.719 311.458 123.53 309.781 124.168L306.637 125.945H293.484L293.43 118.535H303.164C304.385 118.535 305.397 118.316 306.199 117.879C307.001 117.441 307.603 116.822 308.004 116.02C308.423 115.199 308.633 114.224 308.633 113.094C308.633 111.945 308.423 110.961 308.004 110.141C307.585 109.32 306.965 108.691 306.145 108.254C305.342 107.816 304.349 107.598 303.164 107.598H297.094V140H287.496V100.188ZM309.289 140L300.484 122.391L310.656 122.336L319.57 139.59V140H309.289ZM337.918 140.547C335.512 140.547 333.361 140.173 331.465 139.426C329.569 138.66 327.965 137.612 326.652 136.281C325.358 134.951 324.365 133.419 323.672 131.688C322.997 129.956 322.66 128.124 322.66 126.191V125.152C322.66 122.983 322.961 120.978 323.562 119.137C324.164 117.277 325.057 115.655 326.242 114.27C327.427 112.884 328.913 111.809 330.699 111.043C332.486 110.259 334.564 109.867 336.934 109.867C339.03 109.867 340.908 110.204 342.566 110.879C344.225 111.553 345.629 112.52 346.777 113.777C347.944 115.035 348.828 116.557 349.43 118.344C350.049 120.13 350.359 122.135 350.359 124.359V128.105H326.188V122.336H341.363V121.625C341.382 120.641 341.208 119.802 340.844 119.109C340.497 118.417 339.987 117.888 339.312 117.523C338.638 117.159 337.818 116.977 336.852 116.977C335.849 116.977 335.02 117.195 334.363 117.633C333.725 118.07 333.224 118.672 332.859 119.438C332.513 120.185 332.267 121.051 332.121 122.035C331.975 123.02 331.902 124.059 331.902 125.152V126.191C331.902 127.285 332.048 128.279 332.34 129.172C332.65 130.065 333.087 130.831 333.652 131.469C334.236 132.089 334.928 132.572 335.73 132.918C336.551 133.264 337.48 133.438 338.52 133.438C339.777 133.438 341.017 133.201 342.238 132.727C343.46 132.253 344.508 131.469 345.383 130.375L349.566 135.352C348.965 136.208 348.108 137.038 346.996 137.84C345.902 138.642 344.59 139.298 343.059 139.809C341.527 140.301 339.814 140.547 337.918 140.547ZM363.402 116.676V140H354.188V110.414H362.828L363.402 116.676ZM362.281 124.195L360.176 124.25C360.176 122.172 360.422 120.258 360.914 118.508C361.406 116.758 362.135 115.236 363.102 113.941C364.068 112.647 365.253 111.645 366.656 110.934C368.078 110.223 369.719 109.867 371.578 109.867C372.872 109.867 374.048 110.068 375.105 110.469C376.163 110.852 377.074 111.462 377.84 112.301C378.605 113.121 379.189 114.197 379.59 115.527C380.009 116.84 380.219 118.417 380.219 120.258V140H371.004V121.434C371.004 120.176 370.858 119.228 370.566 118.59C370.293 117.952 369.892 117.523 369.363 117.305C368.835 117.086 368.188 116.977 367.422 116.977C366.62 116.977 365.9 117.159 365.262 117.523C364.624 117.888 364.077 118.398 363.621 119.055C363.184 119.693 362.846 120.449 362.609 121.324C362.391 122.199 362.281 123.156 362.281 124.195ZM379.18 124.195L376.609 124.25C376.609 122.172 376.837 120.258 377.293 118.508C377.767 116.758 378.469 115.236 379.398 113.941C380.346 112.647 381.522 111.645 382.926 110.934C384.329 110.223 385.961 109.867 387.82 109.867C389.169 109.867 390.409 110.068 391.539 110.469C392.669 110.87 393.645 111.517 394.465 112.41C395.285 113.303 395.923 114.488 396.379 115.965C396.835 117.423 397.062 119.228 397.062 121.379V140H387.82V121.379C387.82 120.158 387.674 119.237 387.383 118.617C387.109 117.979 386.708 117.551 386.18 117.332C385.651 117.095 385.022 116.977 384.293 116.977C383.418 116.977 382.661 117.159 382.023 117.523C381.385 117.888 380.848 118.398 380.41 119.055C379.991 119.693 379.681 120.449 379.48 121.324C379.28 122.199 379.18 123.156 379.18 124.195ZM401.191 125.508V124.934C401.191 122.764 401.501 120.768 402.121 118.945C402.741 117.104 403.652 115.509 404.855 114.16C406.059 112.811 407.544 111.763 409.312 111.016C411.081 110.25 413.122 109.867 415.438 109.867C417.771 109.867 419.822 110.25 421.59 111.016C423.376 111.763 424.871 112.811 426.074 114.16C427.277 115.509 428.189 117.104 428.809 118.945C429.428 120.768 429.738 122.764 429.738 124.934V125.508C429.738 127.659 429.428 129.655 428.809 131.496C428.189 133.319 427.277 134.914 426.074 136.281C424.871 137.63 423.385 138.678 421.617 139.426C419.849 140.173 417.807 140.547 415.492 140.547C413.177 140.547 411.126 140.173 409.34 139.426C407.553 138.678 406.059 137.63 404.855 136.281C403.652 134.914 402.741 133.319 402.121 131.496C401.501 129.655 401.191 127.659 401.191 125.508ZM410.406 124.934V125.508C410.406 126.62 410.488 127.659 410.652 128.625C410.816 129.591 411.09 130.439 411.473 131.168C411.855 131.879 412.375 132.435 413.031 132.836C413.688 133.237 414.508 133.438 415.492 133.438C416.458 133.438 417.26 133.237 417.898 132.836C418.555 132.435 419.074 131.879 419.457 131.168C419.84 130.439 420.113 129.591 420.277 128.625C420.441 127.659 420.523 126.62 420.523 125.508V124.934C420.523 123.858 420.441 122.846 420.277 121.898C420.113 120.932 419.84 120.085 419.457 119.355C419.074 118.608 418.555 118.025 417.898 117.605C417.242 117.186 416.422 116.977 415.438 116.977C414.471 116.977 413.66 117.186 413.004 117.605C412.366 118.025 411.855 118.608 411.473 119.355C411.09 120.085 410.816 120.932 410.652 121.898C410.488 122.846 410.406 123.858 410.406 124.934ZM449.426 110.414V116.812H431.598V110.414H449.426ZM435.344 103.059H444.559V130.348C444.559 131.132 444.65 131.742 444.832 132.18C445.014 132.599 445.324 132.9 445.762 133.082C446.217 133.246 446.819 133.328 447.566 133.328C448.095 133.328 448.533 133.319 448.879 133.301C449.225 133.264 449.553 133.219 449.863 133.164V139.754C449.079 140.009 448.259 140.201 447.402 140.328C446.546 140.474 445.634 140.547 444.668 140.547C442.699 140.547 441.013 140.237 439.609 139.617C438.224 138.997 437.167 138.022 436.438 136.691C435.708 135.361 435.344 133.629 435.344 131.496V103.059ZM467.418 140.547C465.012 140.547 462.861 140.173 460.965 139.426C459.069 138.66 457.465 137.612 456.152 136.281C454.858 134.951 453.865 133.419 453.172 131.688C452.497 129.956 452.16 128.124 452.16 126.191V125.152C452.16 122.983 452.461 120.978 453.062 119.137C453.664 117.277 454.557 115.655 455.742 114.27C456.927 112.884 458.413 111.809 460.199 111.043C461.986 110.259 464.064 109.867 466.434 109.867C468.53 109.867 470.408 110.204 472.066 110.879C473.725 111.553 475.129 112.52 476.277 113.777C477.444 115.035 478.328 116.557 478.93 118.344C479.549 120.13 479.859 122.135 479.859 124.359V128.105H455.688V122.336H470.863V121.625C470.882 120.641 470.708 119.802 470.344 119.109C469.997 118.417 469.487 117.888 468.812 117.523C468.138 117.159 467.318 116.977 466.352 116.977C465.349 116.977 464.52 117.195 463.863 117.633C463.225 118.07 462.724 118.672 462.359 119.438C462.013 120.185 461.767 121.051 461.621 122.035C461.475 123.02 461.402 124.059 461.402 125.152V126.191C461.402 127.285 461.548 128.279 461.84 129.172C462.15 130.065 462.587 130.831 463.152 131.469C463.736 132.089 464.428 132.572 465.23 132.918C466.051 133.264 466.98 133.438 468.02 133.438C469.277 133.438 470.517 133.201 471.738 132.727C472.96 132.253 474.008 131.469 474.883 130.375L479.066 135.352C478.465 136.208 477.608 137.038 476.496 137.84C475.402 138.642 474.09 139.298 472.559 139.809C471.027 140.301 469.314 140.547 467.418 140.547ZM513.055 130.621L521.34 100.188H532.086L518.66 140H511.715L513.055 130.621ZM505.535 100.188L513.82 130.621L515.215 140H508.188L494.844 100.188H505.535ZM532.168 125.508V124.934C532.168 122.764 532.478 120.768 533.098 118.945C533.717 117.104 534.629 115.509 535.832 114.16C537.035 112.811 538.521 111.763 540.289 111.016C542.057 110.25 544.099 109.867 546.414 109.867C548.747 109.867 550.798 110.25 552.566 111.016C554.353 111.763 555.848 112.811 557.051 114.16C558.254 115.509 559.165 117.104 559.785 118.945C560.405 120.768 560.715 122.764 560.715 124.934V125.508C560.715 127.659 560.405 129.655 559.785 131.496C559.165 133.319 558.254 134.914 557.051 136.281C555.848 137.63 554.362 138.678 552.594 139.426C550.826 140.173 548.784 140.547 546.469 140.547C544.154 140.547 542.103 140.173 540.316 139.426C538.53 138.678 537.035 137.63 535.832 136.281C534.629 134.914 533.717 133.319 533.098 131.496C532.478 129.655 532.168 127.659 532.168 125.508ZM541.383 124.934V125.508C541.383 126.62 541.465 127.659 541.629 128.625C541.793 129.591 542.066 130.439 542.449 131.168C542.832 131.879 543.352 132.435 544.008 132.836C544.664 133.237 545.484 133.438 546.469 133.438C547.435 133.438 548.237 133.237 548.875 132.836C549.531 132.435 550.051 131.879 550.434 131.168C550.816 130.439 551.09 129.591 551.254 128.625C551.418 127.659 551.5 126.62 551.5 125.508V124.934C551.5 123.858 551.418 122.846 551.254 121.898C551.09 120.932 550.816 120.085 550.434 119.355C550.051 118.608 549.531 118.025 548.875 117.605C548.219 117.186 547.398 116.977 546.414 116.977C545.448 116.977 544.637 117.186 543.98 117.605C543.342 118.025 542.832 118.608 542.449 119.355C542.066 120.085 541.793 120.932 541.629 121.898C541.465 122.846 541.383 123.858 541.383 124.934ZM580.402 110.414V116.812H562.574V110.414H580.402ZM566.32 103.059H575.535V130.348C575.535 131.132 575.626 131.742 575.809 132.18C575.991 132.599 576.301 132.9 576.738 133.082C577.194 133.246 577.796 133.328 578.543 133.328C579.072 133.328 579.509 133.319 579.855 133.301C580.202 133.264 580.53 133.219 580.84 133.164V139.754C580.056 140.009 579.236 140.201 578.379 140.328C577.522 140.474 576.611 140.547 575.645 140.547C573.676 140.547 571.99 140.237 570.586 139.617C569.201 138.997 568.143 138.022 567.414 136.691C566.685 135.361 566.32 133.629 566.32 131.496V103.059ZM593.801 110.414V140H584.559V110.414H593.801ZM584.012 102.785C584.012 101.473 584.486 100.397 585.434 99.5586C586.382 98.7201 587.612 98.3008 589.125 98.3008C590.638 98.3008 591.868 98.7201 592.816 99.5586C593.764 100.397 594.238 101.473 594.238 102.785C594.238 104.098 593.764 105.173 592.816 106.012C591.868 106.85 590.638 107.27 589.125 107.27C587.612 107.27 586.382 106.85 585.434 106.012C584.486 105.173 584.012 104.098 584.012 102.785ZM608.539 116.73V140H599.324V110.414H607.965L608.539 116.73ZM607.445 124.195L605.285 124.25C605.285 121.99 605.559 119.975 606.105 118.207C606.652 116.421 607.427 114.908 608.43 113.668C609.432 112.428 610.626 111.49 612.012 110.852C613.415 110.195 614.974 109.867 616.688 109.867C618.055 109.867 619.303 110.068 620.434 110.469C621.582 110.87 622.566 111.517 623.387 112.41C624.225 113.303 624.863 114.488 625.301 115.965C625.757 117.423 625.984 119.228 625.984 121.379V140H616.715V121.352C616.715 120.167 616.551 119.264 616.223 118.645C615.895 118.007 615.421 117.569 614.801 117.332C614.181 117.095 613.424 116.977 612.531 116.977C611.583 116.977 610.781 117.159 610.125 117.523C609.469 117.888 608.94 118.398 608.539 119.055C608.156 119.693 607.874 120.449 607.691 121.324C607.527 122.199 607.445 123.156 607.445 124.195ZM649.691 110.414H658.059V138.852C658.059 141.586 657.43 143.901 656.172 145.797C654.914 147.711 653.155 149.16 650.895 150.145C648.652 151.147 646.027 151.648 643.02 151.648C641.689 151.648 640.331 151.475 638.945 151.129C637.56 150.801 636.266 150.309 635.062 149.652C633.859 148.996 632.848 148.185 632.027 147.219L635.883 141.805C636.63 142.643 637.569 143.354 638.699 143.938C639.829 144.539 641.16 144.84 642.691 144.84C644.022 144.84 645.134 144.603 646.027 144.129C646.939 143.655 647.632 142.962 648.105 142.051C648.579 141.158 648.816 140.073 648.816 138.797V117.414L649.691 110.414ZM630.031 125.562V124.988C630.031 122.746 630.305 120.704 630.852 118.863C631.417 117.004 632.219 115.409 633.258 114.078C634.315 112.729 635.591 111.69 637.086 110.961C638.581 110.232 640.267 109.867 642.145 109.867C644.168 109.867 645.827 110.259 647.121 111.043C648.434 111.809 649.482 112.884 650.266 114.27C651.068 115.655 651.688 117.277 652.125 119.137C652.581 120.978 652.964 122.965 653.273 125.098V125.781C652.964 127.786 652.535 129.682 651.988 131.469C651.46 133.237 650.767 134.805 649.91 136.172C649.053 137.539 647.978 138.615 646.684 139.398C645.408 140.164 643.876 140.547 642.09 140.547C640.23 140.547 638.553 140.173 637.059 139.426C635.582 138.678 634.315 137.63 633.258 136.281C632.219 134.932 631.417 133.346 630.852 131.523C630.305 129.701 630.031 127.714 630.031 125.562ZM639.246 124.988V125.562C639.246 126.674 639.346 127.704 639.547 128.652C639.766 129.6 640.094 130.439 640.531 131.168C640.969 131.879 641.507 132.435 642.145 132.836C642.801 133.237 643.566 133.438 644.441 133.438C645.772 133.438 646.848 133.155 647.668 132.59C648.488 132.025 649.081 131.223 649.445 130.184C649.81 129.145 649.965 127.923 649.91 126.52V124.359C649.947 123.156 649.865 122.099 649.664 121.188C649.464 120.258 649.145 119.483 648.707 118.863C648.288 118.243 647.723 117.779 647.012 117.469C646.319 117.141 645.48 116.977 644.496 116.977C643.639 116.977 642.883 117.177 642.227 117.578C641.57 117.979 641.023 118.544 640.586 119.273C640.148 119.984 639.811 120.832 639.574 121.816C639.355 122.783 639.246 123.84 639.246 124.988Z" fill="black"/>
<rect x="93" y="178" width="917" height="77" rx="10" fill="#D3D3D3"/>
<rect x="111" y="196" width="117" height="41" rx="3" fill="#424242"/>
<rect x="111" y="196" width="117" height="41" rx="3" stroke="#424242" stroke-width="4"/>
<path d="M134.203 210.203H139.239C140.224 210.203 141.079 210.35 141.806 210.643C142.532 210.936 143.092 211.369 143.484 211.943C143.883 212.518 144.082 213.227 144.082 214.07C144.082 214.803 143.968 215.415 143.739 215.907C143.511 216.399 143.191 216.807 142.781 217.129C142.377 217.445 141.905 217.706 141.366 217.911L140.355 218.482H136.128L136.11 216.101H139.239C139.632 216.101 139.957 216.03 140.215 215.89C140.473 215.749 140.666 215.55 140.795 215.292C140.93 215.028 140.997 214.715 140.997 214.352C140.997 213.982 140.93 213.666 140.795 213.402C140.66 213.139 140.461 212.937 140.197 212.796C139.939 212.655 139.62 212.585 139.239 212.585H137.288V223H134.203V210.203ZM141.208 223L138.378 217.34L141.647 217.322L144.513 222.868V223H141.208ZM150.41 223.176C149.637 223.176 148.945 223.056 148.336 222.815C147.727 222.569 147.211 222.232 146.789 221.805C146.373 221.377 146.054 220.885 145.831 220.328C145.614 219.771 145.506 219.183 145.506 218.562V218.228C145.506 217.53 145.603 216.886 145.796 216.294C145.989 215.696 146.276 215.175 146.657 214.729C147.038 214.284 147.516 213.938 148.09 213.692C148.664 213.44 149.332 213.314 150.094 213.314C150.768 213.314 151.371 213.423 151.904 213.64C152.438 213.856 152.889 214.167 153.258 214.571C153.633 214.976 153.917 215.465 154.11 216.039C154.31 216.613 154.409 217.258 154.409 217.973V219.177H146.64V217.322H151.518V217.094C151.523 216.777 151.468 216.508 151.351 216.285C151.239 216.062 151.075 215.893 150.858 215.775C150.642 215.658 150.378 215.6 150.067 215.6C149.745 215.6 149.479 215.67 149.268 215.811C149.062 215.951 148.901 216.145 148.784 216.391C148.673 216.631 148.594 216.909 148.547 217.226C148.5 217.542 148.477 217.876 148.477 218.228V218.562C148.477 218.913 148.523 219.232 148.617 219.52C148.717 219.807 148.857 220.053 149.039 220.258C149.227 220.457 149.449 220.612 149.707 220.724C149.971 220.835 150.27 220.891 150.604 220.891C151.008 220.891 151.406 220.814 151.799 220.662C152.191 220.51 152.528 220.258 152.81 219.906L154.154 221.506C153.961 221.781 153.686 222.048 153.328 222.306C152.977 222.563 152.555 222.774 152.062 222.938C151.57 223.097 151.02 223.176 150.41 223.176ZM160.553 220.609V216.689C160.553 216.42 160.515 216.188 160.438 215.995C160.362 215.802 160.242 215.652 160.078 215.547C159.914 215.436 159.694 215.38 159.419 215.38C159.196 215.38 159.006 215.418 158.848 215.494C158.689 215.57 158.569 215.685 158.487 215.837C158.405 215.989 158.364 216.183 158.364 216.417H155.402C155.402 215.978 155.499 215.57 155.692 215.195C155.892 214.814 156.173 214.483 156.536 214.202C156.905 213.921 157.345 213.704 157.854 213.552C158.37 213.394 158.944 213.314 159.577 213.314C160.333 213.314 161.007 213.44 161.599 213.692C162.196 213.944 162.668 214.322 163.014 214.826C163.359 215.324 163.532 215.951 163.532 216.707V220.601C163.532 221.222 163.567 221.693 163.638 222.016C163.708 222.332 163.808 222.61 163.937 222.851V223H160.966C160.825 222.707 160.72 222.35 160.649 221.928C160.585 221.5 160.553 221.061 160.553 220.609ZM160.913 217.19L160.931 218.772H159.621C159.346 218.772 159.111 218.811 158.918 218.887C158.73 218.963 158.578 219.068 158.461 219.203C158.35 219.332 158.268 219.479 158.215 219.643C158.168 219.807 158.145 219.979 158.145 220.161C158.145 220.337 158.186 220.495 158.268 220.636C158.355 220.771 158.473 220.876 158.619 220.952C158.766 221.028 158.93 221.066 159.111 221.066C159.439 221.066 159.718 221.005 159.946 220.882C160.181 220.753 160.359 220.598 160.482 220.416C160.605 220.234 160.667 220.064 160.667 219.906L161.317 221.119C161.2 221.354 161.065 221.591 160.913 221.831C160.767 222.071 160.582 222.294 160.359 222.499C160.143 222.698 159.876 222.862 159.56 222.991C159.243 223.114 158.859 223.176 158.408 223.176C157.822 223.176 157.283 223.056 156.791 222.815C156.305 222.575 155.915 222.241 155.622 221.813C155.329 221.38 155.183 220.882 155.183 220.319C155.183 219.827 155.271 219.388 155.446 219.001C155.628 218.614 155.9 218.286 156.264 218.017C156.627 217.747 157.09 217.542 157.652 217.401C158.215 217.261 158.877 217.19 159.639 217.19H160.913ZM169.192 220.891C169.468 220.891 169.702 220.841 169.896 220.741C170.095 220.636 170.244 220.489 170.344 220.302C170.449 220.108 170.499 219.877 170.493 219.607H173.279C173.285 220.322 173.109 220.949 172.752 221.488C172.4 222.021 171.92 222.438 171.311 222.736C170.707 223.029 170.024 223.176 169.263 223.176C168.519 223.176 167.868 223.056 167.312 222.815C166.755 222.569 166.289 222.229 165.914 221.796C165.545 221.356 165.267 220.844 165.079 220.258C164.897 219.672 164.807 219.036 164.807 218.351V218.148C164.807 217.463 164.897 216.827 165.079 216.241C165.267 215.649 165.545 215.137 165.914 214.703C166.289 214.264 166.752 213.924 167.303 213.684C167.859 213.438 168.507 213.314 169.245 213.314C170.036 213.314 170.733 213.464 171.337 213.763C171.946 214.062 172.424 214.495 172.77 215.063C173.115 215.632 173.285 216.32 173.279 217.129H170.493C170.499 216.842 170.455 216.584 170.361 216.355C170.268 216.127 170.121 215.945 169.922 215.811C169.729 215.67 169.479 215.6 169.175 215.6C168.87 215.6 168.624 215.667 168.437 215.802C168.249 215.937 168.105 216.124 168.006 216.364C167.912 216.599 167.848 216.868 167.812 217.173C167.783 217.478 167.769 217.803 167.769 218.148V218.351C167.769 218.702 167.783 219.033 167.812 219.344C167.848 219.648 167.915 219.918 168.015 220.152C168.114 220.381 168.258 220.562 168.445 220.697C168.633 220.826 168.882 220.891 169.192 220.891ZM179.555 213.49V215.547H173.824V213.49H179.555ZM175.028 211.126H177.99V219.897C177.99 220.149 178.02 220.346 178.078 220.486C178.137 220.621 178.236 220.718 178.377 220.776C178.523 220.829 178.717 220.855 178.957 220.855C179.127 220.855 179.268 220.853 179.379 220.847C179.49 220.835 179.596 220.82 179.695 220.803V222.921C179.443 223.003 179.18 223.064 178.904 223.105C178.629 223.152 178.336 223.176 178.025 223.176C177.393 223.176 176.851 223.076 176.399 222.877C175.954 222.678 175.614 222.364 175.38 221.937C175.146 221.509 175.028 220.952 175.028 220.267V211.126ZM190.444 218.983V210.203H193.521V218.983C193.521 219.839 193.324 220.58 192.932 221.207C192.545 221.834 192.018 222.32 191.35 222.666C190.688 223.006 189.943 223.176 189.117 223.176C188.262 223.176 187.5 223.032 186.832 222.745C186.17 222.458 185.648 222.016 185.268 221.418C184.893 220.82 184.705 220.059 184.705 219.133H187.799C187.799 219.566 187.849 219.906 187.948 220.152C188.048 220.393 188.194 220.562 188.388 220.662C188.587 220.756 188.83 220.803 189.117 220.803C189.398 220.803 189.636 220.732 189.829 220.592C190.028 220.445 190.181 220.237 190.286 219.968C190.392 219.692 190.444 219.364 190.444 218.983ZM202.072 219.599C202.072 219.399 202.043 219.221 201.984 219.062C201.926 218.898 201.817 218.746 201.659 218.605C201.501 218.465 201.272 218.324 200.974 218.184C200.681 218.037 200.294 217.885 199.813 217.727C199.251 217.539 198.709 217.328 198.188 217.094C197.666 216.854 197.2 216.575 196.79 216.259C196.38 215.937 196.055 215.562 195.814 215.134C195.574 214.7 195.454 214.196 195.454 213.622C195.454 213.071 195.577 212.576 195.823 212.137C196.069 211.691 196.412 211.313 196.852 211.003C197.297 210.687 197.818 210.446 198.416 210.282C199.014 210.112 199.667 210.027 200.376 210.027C201.313 210.027 202.14 210.191 202.854 210.52C203.575 210.842 204.138 211.302 204.542 211.899C204.952 212.491 205.157 213.191 205.157 214H202.09C202.09 213.678 202.022 213.394 201.888 213.147C201.759 212.901 201.562 212.708 201.299 212.567C201.035 212.427 200.704 212.356 200.306 212.356C199.919 212.356 199.594 212.415 199.33 212.532C199.066 212.649 198.867 212.808 198.732 213.007C198.598 213.2 198.53 213.414 198.53 213.648C198.53 213.842 198.583 214.018 198.688 214.176C198.8 214.328 198.955 214.472 199.154 214.606C199.359 214.741 199.605 214.87 199.893 214.993C200.186 215.116 200.514 215.236 200.877 215.354C201.557 215.57 202.16 215.813 202.688 216.083C203.221 216.347 203.669 216.648 204.032 216.988C204.401 217.322 204.68 217.703 204.867 218.131C205.061 218.559 205.157 219.042 205.157 219.581C205.157 220.155 205.046 220.665 204.823 221.11C204.601 221.556 204.281 221.934 203.865 222.244C203.449 222.549 202.951 222.78 202.371 222.938C201.791 223.097 201.144 223.176 200.429 223.176C199.772 223.176 199.125 223.094 198.486 222.93C197.854 222.76 197.279 222.502 196.764 222.156C196.248 221.805 195.835 221.356 195.524 220.812C195.22 220.261 195.067 219.607 195.067 218.852H198.161C198.161 219.227 198.211 219.543 198.311 219.801C198.41 220.059 198.557 220.267 198.75 220.425C198.943 220.577 199.181 220.688 199.462 220.759C199.743 220.823 200.065 220.855 200.429 220.855C200.821 220.855 201.138 220.8 201.378 220.688C201.618 220.571 201.794 220.419 201.905 220.231C202.017 220.038 202.072 219.827 202.072 219.599Z" fill="white"/>
<rect x="248" y="196" width="104" height="41" rx="3" fill="#424242"/>
<rect x="248" y="196" width="104" height="41" rx="3" stroke="#424242" stroke-width="4"/>
<path d="M279.812 220.627V223H273.343V220.627H279.812ZM274.441 210.203V223H271.356V210.203H274.441ZM285.911 220.609V216.689C285.911 216.42 285.873 216.188 285.797 215.995C285.721 215.802 285.601 215.652 285.437 215.547C285.272 215.436 285.053 215.38 284.777 215.38C284.555 215.38 284.364 215.418 284.206 215.494C284.048 215.57 283.928 215.685 283.846 215.837C283.764 215.989 283.723 216.183 283.723 216.417H280.761C280.761 215.978 280.857 215.57 281.051 215.195C281.25 214.814 281.531 214.483 281.895 214.202C282.264 213.921 282.703 213.704 283.213 213.552C283.729 213.394 284.303 213.314 284.936 213.314C285.691 213.314 286.365 213.44 286.957 213.692C287.555 213.944 288.026 214.322 288.372 214.826C288.718 215.324 288.891 215.951 288.891 216.707V220.601C288.891 221.222 288.926 221.693 288.996 222.016C289.066 222.332 289.166 222.61 289.295 222.851V223H286.324C286.184 222.707 286.078 222.35 286.008 221.928C285.943 221.5 285.911 221.061 285.911 220.609ZM286.271 217.19L286.289 218.772H284.979C284.704 218.772 284.47 218.811 284.276 218.887C284.089 218.963 283.937 219.068 283.819 219.203C283.708 219.332 283.626 219.479 283.573 219.643C283.526 219.807 283.503 219.979 283.503 220.161C283.503 220.337 283.544 220.495 283.626 220.636C283.714 220.771 283.831 220.876 283.978 220.952C284.124 221.028 284.288 221.066 284.47 221.066C284.798 221.066 285.076 221.005 285.305 220.882C285.539 220.753 285.718 220.598 285.841 220.416C285.964 220.234 286.025 220.064 286.025 219.906L286.676 221.119C286.559 221.354 286.424 221.591 286.271 221.831C286.125 222.071 285.94 222.294 285.718 222.499C285.501 222.698 285.234 222.862 284.918 222.991C284.602 223.114 284.218 223.176 283.767 223.176C283.181 223.176 282.642 223.056 282.149 222.815C281.663 222.575 281.273 222.241 280.98 221.813C280.688 221.38 280.541 220.882 280.541 220.319C280.541 219.827 280.629 219.388 280.805 219.001C280.986 218.614 281.259 218.286 281.622 218.017C281.985 217.747 282.448 217.542 283.011 217.401C283.573 217.261 284.235 217.19 284.997 217.19H286.271ZM293.522 215.846V223H290.561V213.49H293.329L293.522 215.846ZM296.335 213.42L296.282 216.171C296.165 216.159 296.007 216.145 295.808 216.127C295.608 216.109 295.441 216.101 295.307 216.101C294.961 216.101 294.662 216.142 294.41 216.224C294.164 216.3 293.959 216.417 293.795 216.575C293.637 216.728 293.52 216.921 293.443 217.155C293.373 217.39 293.341 217.662 293.347 217.973L292.811 217.621C292.811 216.982 292.872 216.402 292.995 215.881C293.124 215.354 293.306 214.899 293.54 214.519C293.774 214.132 294.059 213.836 294.393 213.631C294.727 213.42 295.102 213.314 295.518 213.314C295.664 213.314 295.808 213.323 295.948 213.341C296.095 213.358 296.224 213.385 296.335 213.42ZM302.03 220.609V216.689C302.03 216.42 301.992 216.188 301.916 215.995C301.84 215.802 301.72 215.652 301.556 215.547C301.392 215.436 301.172 215.38 300.896 215.38C300.674 215.38 300.483 215.418 300.325 215.494C300.167 215.57 300.047 215.685 299.965 215.837C299.883 215.989 299.842 216.183 299.842 216.417H296.88C296.88 215.978 296.977 215.57 297.17 215.195C297.369 214.814 297.65 214.483 298.014 214.202C298.383 213.921 298.822 213.704 299.332 213.552C299.848 213.394 300.422 213.314 301.055 213.314C301.811 213.314 302.484 213.44 303.076 213.692C303.674 213.944 304.146 214.322 304.491 214.826C304.837 215.324 305.01 215.951 305.01 216.707V220.601C305.01 221.222 305.045 221.693 305.115 222.016C305.186 222.332 305.285 222.61 305.414 222.851V223H302.443C302.303 222.707 302.197 222.35 302.127 221.928C302.062 221.5 302.03 221.061 302.03 220.609ZM302.391 217.19L302.408 218.772H301.099C300.823 218.772 300.589 218.811 300.396 218.887C300.208 218.963 300.056 219.068 299.938 219.203C299.827 219.332 299.745 219.479 299.692 219.643C299.646 219.807 299.622 219.979 299.622 220.161C299.622 220.337 299.663 220.495 299.745 220.636C299.833 220.771 299.95 220.876 300.097 220.952C300.243 221.028 300.407 221.066 300.589 221.066C300.917 221.066 301.195 221.005 301.424 220.882C301.658 220.753 301.837 220.598 301.96 220.416C302.083 220.234 302.145 220.064 302.145 219.906L302.795 221.119C302.678 221.354 302.543 221.591 302.391 221.831C302.244 222.071 302.06 222.294 301.837 222.499C301.62 222.698 301.354 222.862 301.037 222.991C300.721 223.114 300.337 223.176 299.886 223.176C299.3 223.176 298.761 223.056 298.269 222.815C297.782 222.575 297.393 222.241 297.1 221.813C296.807 221.38 296.66 220.882 296.66 220.319C296.66 219.827 296.748 219.388 296.924 219.001C297.105 218.614 297.378 218.286 297.741 218.017C298.104 217.747 298.567 217.542 299.13 217.401C299.692 217.261 300.354 217.19 301.116 217.19H302.391ZM309.94 220.97L311.812 213.49H314.933L311.821 223H309.976L309.94 220.97ZM308.833 213.49L310.679 220.97L310.661 223H308.807L305.704 213.49H308.833ZM320.294 223.176C319.521 223.176 318.829 223.056 318.22 222.815C317.61 222.569 317.095 222.232 316.673 221.805C316.257 221.377 315.938 220.885 315.715 220.328C315.498 219.771 315.39 219.183 315.39 218.562V218.228C315.39 217.53 315.486 216.886 315.68 216.294C315.873 215.696 316.16 215.175 316.541 214.729C316.922 214.284 317.399 213.938 317.974 213.692C318.548 213.44 319.216 213.314 319.978 213.314C320.651 213.314 321.255 213.423 321.788 213.64C322.321 213.856 322.772 214.167 323.142 214.571C323.517 214.976 323.801 215.465 323.994 216.039C324.193 216.613 324.293 217.258 324.293 217.973V219.177H316.523V217.322H321.401V217.094C321.407 216.777 321.352 216.508 321.234 216.285C321.123 216.062 320.959 215.893 320.742 215.775C320.525 215.658 320.262 215.6 319.951 215.6C319.629 215.6 319.362 215.67 319.151 215.811C318.946 215.951 318.785 216.145 318.668 216.391C318.557 216.631 318.478 216.909 318.431 217.226C318.384 217.542 318.36 217.876 318.36 218.228V218.562C318.36 218.913 318.407 219.232 318.501 219.52C318.601 219.807 318.741 220.053 318.923 220.258C319.11 220.457 319.333 220.612 319.591 220.724C319.854 220.835 320.153 220.891 320.487 220.891C320.892 220.891 321.29 220.814 321.683 220.662C322.075 220.51 322.412 220.258 322.693 219.906L324.038 221.506C323.845 221.781 323.569 222.048 323.212 222.306C322.86 222.563 322.438 222.774 321.946 222.938C321.454 223.097 320.903 223.176 320.294 223.176ZM328.626 209.5V223H325.655V209.5H328.626Z" fill="white"/>
<rect x="372" y="196" width="103" height="41" rx="3" fill="#424242"/>
<rect x="372" y="196" width="103" height="41" rx="3" stroke="#424242" stroke-width="4"/>
<path d="M396.72 210.203H399.233L402.09 219.106L404.946 210.203H407.46L403.109 223H401.07L396.72 210.203ZM395.19 210.203H397.792L398.275 220.012V223H395.19V210.203ZM406.388 210.203H408.998V223H405.904V220.012L406.388 210.203ZM413.753 221.884L416.214 213.49H419.396L415.572 224.415C415.49 224.655 415.382 224.913 415.247 225.188C415.112 225.47 414.928 225.736 414.693 225.988C414.459 226.24 414.157 226.445 413.788 226.604C413.425 226.762 412.974 226.841 412.435 226.841C412.147 226.841 411.937 226.826 411.802 226.797C411.673 226.773 411.474 226.729 411.204 226.665V224.547C411.28 224.547 411.345 224.547 411.397 224.547C411.456 224.547 411.521 224.547 411.591 224.547C411.907 224.547 412.159 224.515 412.347 224.45C412.54 224.386 412.687 224.292 412.786 224.169C412.892 224.046 412.974 223.896 413.032 223.721L413.753 221.884ZM413.129 213.49L415.001 220.144L415.326 223.281H413.34L409.956 213.49H413.129ZM426.901 219.599C426.901 219.399 426.872 219.221 426.813 219.062C426.755 218.898 426.646 218.746 426.488 218.605C426.33 218.465 426.102 218.324 425.803 218.184C425.51 218.037 425.123 217.885 424.643 217.727C424.08 217.539 423.538 217.328 423.017 217.094C422.495 216.854 422.029 216.575 421.619 216.259C421.209 215.937 420.884 215.562 420.644 215.134C420.403 214.7 420.283 214.196 420.283 213.622C420.283 213.071 420.406 212.576 420.652 212.137C420.898 211.691 421.241 211.313 421.681 211.003C422.126 210.687 422.647 210.446 423.245 210.282C423.843 210.112 424.496 210.027 425.205 210.027C426.143 210.027 426.969 210.191 427.684 210.52C428.404 210.842 428.967 211.302 429.371 211.899C429.781 212.491 429.986 213.191 429.986 214H426.919C426.919 213.678 426.852 213.394 426.717 213.147C426.588 212.901 426.392 212.708 426.128 212.567C425.864 212.427 425.533 212.356 425.135 212.356C424.748 212.356 424.423 212.415 424.159 212.532C423.896 212.649 423.696 212.808 423.562 213.007C423.427 213.2 423.359 213.414 423.359 213.648C423.359 213.842 423.412 214.018 423.518 214.176C423.629 214.328 423.784 214.472 423.983 214.606C424.188 214.741 424.435 214.87 424.722 214.993C425.015 215.116 425.343 215.236 425.706 215.354C426.386 215.57 426.989 215.813 427.517 216.083C428.05 216.347 428.498 216.648 428.861 216.988C429.23 217.322 429.509 217.703 429.696 218.131C429.89 218.559 429.986 219.042 429.986 219.581C429.986 220.155 429.875 220.665 429.652 221.11C429.43 221.556 429.11 221.934 428.694 222.244C428.278 222.549 427.78 222.78 427.2 222.938C426.62 223.097 425.973 223.176 425.258 223.176C424.602 223.176 423.954 223.094 423.315 222.93C422.683 222.76 422.108 222.502 421.593 222.156C421.077 221.805 420.664 221.356 420.354 220.812C420.049 220.261 419.896 219.607 419.896 218.852H422.99C422.99 219.227 423.04 219.543 423.14 219.801C423.239 220.059 423.386 220.267 423.579 220.425C423.772 220.577 424.01 220.688 424.291 220.759C424.572 220.823 424.895 220.855 425.258 220.855C425.65 220.855 425.967 220.8 426.207 220.688C426.447 220.571 426.623 220.419 426.734 220.231C426.846 220.038 426.901 219.827 426.901 219.599ZM438.714 220.891L442.282 223.721L440.366 225.338L436.859 222.508L438.714 220.891ZM442.432 216.347V216.865C442.432 217.844 442.294 218.723 442.019 219.502C441.749 220.275 441.362 220.938 440.858 221.488C440.36 222.033 439.771 222.452 439.092 222.745C438.412 223.032 437.662 223.176 436.842 223.176C436.016 223.176 435.26 223.032 434.574 222.745C433.895 222.452 433.303 222.033 432.799 221.488C432.301 220.938 431.914 220.275 431.639 219.502C431.369 218.723 431.234 217.844 431.234 216.865V216.347C431.234 215.368 431.369 214.489 431.639 213.71C431.914 212.931 432.298 212.269 432.79 211.724C433.288 211.173 433.877 210.754 434.557 210.467C435.242 210.174 435.998 210.027 436.824 210.027C437.645 210.027 438.395 210.174 439.074 210.467C439.76 210.754 440.352 211.173 440.85 211.724C441.354 212.269 441.743 212.931 442.019 213.71C442.294 214.489 442.432 215.368 442.432 216.347ZM439.294 216.865V216.329C439.294 215.696 439.238 215.14 439.127 214.659C439.021 214.173 438.863 213.766 438.652 213.438C438.441 213.109 438.181 212.863 437.87 212.699C437.565 212.529 437.217 212.444 436.824 212.444C436.414 212.444 436.057 212.529 435.752 212.699C435.447 212.863 435.192 213.109 434.987 213.438C434.782 213.766 434.627 214.173 434.521 214.659C434.422 215.14 434.372 215.696 434.372 216.329V216.865C434.372 217.492 434.422 218.049 434.521 218.535C434.627 219.016 434.782 219.423 434.987 219.757C435.198 220.091 435.456 220.343 435.761 220.513C436.071 220.683 436.432 220.768 436.842 220.768C437.234 220.768 437.583 220.683 437.888 220.513C438.192 220.343 438.447 220.091 438.652 219.757C438.863 219.423 439.021 219.016 439.127 218.535C439.238 218.049 439.294 217.492 439.294 216.865ZM452.46 220.627V223H445.991V220.627H452.46ZM447.09 210.203V223H444.005V210.203H447.09Z" fill="white"/>
<path d="M1066 0H1348C1356.28 0 1363 6.71573 1363 15V282C1363 290.284 1356.28 297 1348 297H1066V0Z" fill="white"/>
<rect x="1114.5" y="48.5" width="200" height="200" rx="100" fill="#1B4798"/>
<path d="M1212.72 70.668C1208.87 71.8984 1207 76.2344 1208.74 79.8086C1209.38 81.0977 1210.55 82.3477 1211.61 82.8359L1212.33 83.168L1212.35 85.0625V86.9766H1211.49C1208.72 86.9766 1203.07 88.7148 1199.83 90.5898C1194.87 93.4219 1192.06 96.1562 1188.82 101.332C1188.68 101.547 1188.04 101.918 1187.37 102.172C1183.02 103.832 1180.52 108.539 1181.57 113.031C1181.98 114.77 1182.88 116.43 1184.03 117.621C1184.91 118.5 1184.99 118.656 1185.2 120.102C1185.61 122.719 1186.71 126.137 1187.88 128.363C1188.13 128.832 1188.31 129.242 1188.29 129.281C1188.25 129.301 1187.74 129.535 1187.14 129.809C1181.53 132.27 1177.33 137.895 1175.81 144.926C1175.5 146.469 1175.38 147.758 1175.32 151.527C1175.22 155.98 1175.24 156.254 1175.61 156.84C1176.06 157.543 1176.92 157.816 1178.07 157.602C1179.46 157.328 1179.48 157.25 1179.6 151.762C1179.73 145.277 1180.16 143.441 1182.37 139.594C1183.39 137.836 1185.91 135.297 1187.55 134.379C1189.62 133.246 1189.42 133.051 1189.56 136.234C1189.91 144.594 1191.94 151.469 1195.89 157.562C1199.29 162.816 1204.93 167.602 1211.67 170.941C1214.3 172.23 1214.85 172.23 1217.62 170.863C1225.79 166.84 1231.34 161.488 1235.09 154.008C1236.39 151.41 1236.94 150.004 1237.72 147.172C1238.8 143.441 1239.5 138.656 1239.5 135.277C1239.5 134.066 1239.58 133.461 1239.71 133.461C1240.07 133.461 1242.04 134.613 1243.02 135.375C1244.91 136.859 1246.43 138.832 1247.59 141.273C1249.07 144.457 1249.46 146.82 1249.46 152.836C1249.46 156.332 1249.48 156.508 1249.91 156.996C1250.28 157.426 1250.52 157.504 1251.59 157.543C1252.72 157.562 1252.86 157.523 1253.31 156.996L1253.8 156.43L1253.7 151.449C1253.6 146.176 1253.48 145.316 1252.47 142.172C1251.39 138.812 1249.21 135.297 1246.77 133.031C1245.44 131.82 1243.17 130.277 1241.86 129.691C1241.37 129.477 1240.95 129.281 1240.91 129.262C1240.87 129.223 1241.1 128.676 1241.43 128.012C1242.64 125.629 1243.43 123.168 1243.91 120.219C1244.17 118.656 1244.23 118.539 1245.22 117.465C1246.94 115.59 1247.68 113.656 1247.7 110.98C1247.7 106.977 1245.22 103.422 1241.49 102.094C1240.63 101.781 1240.42 101.586 1239.7 100.414C1236.34 94.9648 1230.71 90.6094 1224.27 88.4609C1221.88 87.6797 1219.13 87.0742 1217.23 86.9375L1216.55 86.8789L1216.49 85.1016L1216.43 83.3242L1217.06 83.0703C1220.11 81.8008 1221.75 77.7969 1220.54 74.5742C1220.03 73.1875 1218.6 71.6836 1217.16 70.9805C1215.96 70.3945 1213.99 70.2578 1212.72 70.668ZM1215.55 75.0625C1217.08 75.6289 1217.06 78.2461 1215.52 78.9492C1214.03 79.6523 1212.35 78.5977 1212.35 76.9766C1212.37 75.3359 1213.87 74.418 1215.55 75.0625ZM1219.19 91.5859C1228.5 93.1875 1235.98 99.6133 1238.7 108.363C1239.91 112.27 1240.16 115.98 1239.5 119.848C1238.93 123.187 1237.18 127.992 1236.53 127.992C1236.02 127.992 1227.55 125.668 1224.85 124.789C1222.94 124.184 1219.19 122.758 1216.79 121.762C1215.75 121.312 1214.7 120.961 1214.46 120.961C1214.23 120.961 1212.06 121.742 1209.64 122.699C1207.21 123.656 1204.11 124.789 1202.74 125.238C1200.54 125.941 1193.02 127.992 1192.61 127.992C1192.37 127.992 1191.22 125.629 1190.67 124.086C1189.4 120.355 1188.97 115.492 1189.6 111.762C1190.54 106.156 1193.19 101.312 1197.49 97.4648C1203.21 92.3477 1211.1 90.2187 1219.19 91.5859ZM1216.8 126.352C1221.18 128.246 1226.98 130.141 1232.86 131.605C1234.05 131.898 1235.01 132.25 1235.16 132.445C1235.44 132.797 1235.4 134.066 1234.99 138.734C1234.66 142.465 1233.56 146.879 1232.18 150.16C1229.17 157.27 1224.3 162.465 1217.02 166.352C1215.89 166.957 1214.75 167.445 1214.5 167.445C1213.95 167.445 1211.06 165.922 1208.91 164.496C1206.1 162.641 1204.11 160.922 1202.12 158.676C1201.06 157.484 1200.75 157.074 1199.13 154.652C1197.16 151.762 1195.24 146.605 1194.5 142.191C1193.99 139.262 1193.5 133.324 1193.7 132.68C1193.82 132.289 1193.91 132.25 1196.82 131.527C1202.84 130.043 1208.48 128.109 1213.33 125.863C1213.82 125.648 1214.32 125.453 1214.46 125.453C1214.6 125.453 1215.65 125.863 1216.8 126.352Z" fill="white"/>
<path d="M1201.41 101.02C1199.64 101.586 1198.64 102.211 1197.31 103.559C1195.42 105.492 1194.58 107.504 1194.58 110.102C1194.6 115.141 1199.13 119.418 1204.4 119.398C1205.89 119.379 1206.94 119.105 1209.03 118.129C1213.27 116.156 1215.73 116.156 1219.97 118.129C1222.12 119.125 1223.11 119.379 1224.75 119.398C1227.25 119.398 1229.66 118.441 1231.55 116.664C1233.86 114.516 1234.93 111.547 1234.44 108.617C1233.88 105.121 1231.53 102.367 1228.09 101.117L1226.79 100.648L1214.64 100.668C1203.54 100.668 1202.39 100.707 1201.41 101.02ZM1206.3 106.605C1206.57 106.742 1207.02 107.113 1207.31 107.426C1208.82 109.008 1208.5 111.879 1206.67 113.09C1205.96 113.559 1205.63 113.637 1204.54 113.637C1203.45 113.637 1203.11 113.559 1202.41 113.09C1201.02 112.172 1200.42 110.023 1201.1 108.402C1201.41 107.621 1202.61 106.547 1203.33 106.391C1203.62 106.332 1203.95 106.254 1204.05 106.215C1204.38 106.117 1205.79 106.352 1206.3 106.605ZM1226.22 106.605C1226.88 106.957 1227.72 107.855 1227.96 108.52C1228.46 109.867 1228.04 111.918 1227.06 112.797C1226.45 113.344 1225.32 113.734 1224.3 113.734C1221.06 113.734 1219.48 109.418 1221.92 107.211C1222.35 106.84 1222.94 106.469 1223.23 106.391C1223.54 106.332 1223.88 106.254 1223.97 106.215C1224.3 106.117 1225.71 106.352 1226.22 106.605Z" fill="white"/>
<path d="M1218.6 142.152C1215.01 145.746 1211.96 148.695 1211.86 148.695C1211.77 148.695 1210.2 147.23 1208.41 145.453C1205.14 142.191 1205.14 142.191 1204.4 142.309C1203.84 142.406 1203.45 142.66 1202.74 143.422C1201.94 144.281 1201.8 144.535 1201.8 145.238C1201.8 146.039 1201.86 146.117 1206.45 150.688C1210.69 154.926 1211.16 155.336 1211.77 155.336C1212.37 155.336 1213.04 154.73 1220.38 147.387C1224.77 143.031 1228.45 139.203 1228.58 138.891C1228.89 138.148 1228.56 137.406 1227.47 136.391C1226.79 135.766 1226.47 135.609 1225.89 135.609C1225.18 135.609 1224.87 135.902 1218.6 142.152Z" fill="white"/>
<path d="M1152.86 178.91C1151.77 179.398 1151.34 179.75 1150.95 180.473C1150.22 181.898 1150.81 184.027 1152.16 184.77C1152.55 185.004 1153.46 185.336 1154.17 185.512C1154.89 185.688 1155.75 186 1156.08 186.215C1156.59 186.527 1156.69 186.703 1156.69 187.348C1156.69 188.324 1156.18 188.734 1154.97 188.734C1153.88 188.734 1153.07 188.305 1152.82 187.562C1152.63 186.996 1152.55 186.977 1151.49 186.977H1150.38L1150.5 187.738C1150.63 188.773 1151.12 189.438 1152.18 190.062C1152.94 190.512 1153.29 190.59 1154.66 190.59C1157.57 190.59 1159.11 189.398 1159.09 187.133C1159.07 185.141 1158.11 184.203 1155.5 183.559C1153.7 183.109 1152.98 182.641 1152.98 181.918C1152.98 180.629 1155.03 180.023 1156 181.02C1156.28 181.273 1156.49 181.625 1156.49 181.801C1156.49 182.035 1156.75 182.094 1157.66 182.094C1159.01 182.094 1159.09 181.957 1158.43 180.59C1157.86 179.418 1156.79 178.812 1155.03 178.676C1153.97 178.598 1153.46 178.656 1152.86 178.91Z" fill="white"/>
<path d="M1174.13 178.773C1171.39 179.34 1169.77 181.508 1169.77 184.613C1169.77 186.43 1170.2 187.719 1171.16 188.812C1172.39 190.199 1173.25 190.57 1175.24 190.59C1176.75 190.59 1177 190.531 1177.98 189.984C1179.11 189.34 1180.32 187.875 1180.32 187.094C1180.32 186.703 1180.24 186.684 1179.17 186.781C1178.09 186.879 1177.96 186.937 1177.55 187.562C1176.69 188.832 1174.71 189.066 1173.48 188.012C1172.51 187.211 1172.23 186.488 1172.23 184.73C1172.21 182.895 1172.62 181.879 1173.68 181.156C1174.97 180.297 1177 180.746 1177.68 182.094C1177.98 182.641 1178.05 182.68 1179.19 182.68H1180.38L1180.24 182.035C1179.81 179.809 1176.82 178.207 1174.13 178.773Z" fill="white"/>
<path d="M1232.64 178.793C1231.32 179.086 1229.95 180.219 1229.25 181.605C1228.7 182.66 1228.66 182.914 1228.66 184.711C1228.66 186.43 1228.72 186.82 1229.15 187.641C1230.22 189.75 1231.67 190.59 1234.23 190.59C1235.71 190.59 1236 190.531 1236.96 190.004C1239.38 188.656 1240.5 185.551 1239.6 182.523C1238.76 179.711 1235.77 178.109 1232.64 178.793ZM1235.2 181.02C1235.87 181.215 1236.77 182.055 1237.08 182.816C1237.51 183.832 1237.43 185.766 1236.92 186.781C1236.28 188.031 1235.61 188.441 1234.23 188.441C1232.82 188.422 1232.18 188.031 1231.55 186.781C1231.02 185.766 1230.95 183.891 1231.38 182.855C1231.75 181.977 1232.61 181.195 1233.45 180.961C1234.13 180.766 1234.29 180.766 1235.2 181.02Z" fill="white"/>
<path d="M1272.51 178.793C1271.22 179.008 1270.67 179.262 1269.77 180.062C1266.8 182.738 1267.39 188.324 1270.81 190.004C1272.82 190.98 1275.36 190.824 1276.98 189.633C1278.17 188.754 1278.37 188.266 1278.37 186.137V184.242H1275.91H1273.46L1273.52 185.16L1273.58 186.078L1274.91 186.02L1276.22 185.98V186.566C1276.22 187.934 1274.34 188.988 1272.72 188.539C1271.92 188.324 1270.89 187.367 1270.57 186.527C1270.18 185.531 1270.32 183.441 1270.81 182.484C1271.45 181.215 1272.1 180.824 1273.54 180.824C1274.85 180.824 1275.61 181.195 1276 182.035C1276.18 182.426 1276.36 182.484 1277.31 182.484H1278.43L1278.29 181.84C1277.86 179.652 1275.32 178.324 1272.51 178.793Z" fill="white"/>
<path d="M1160.98 184.672V190.492H1164.7H1168.41V189.516V188.539H1165.87H1163.33V187.074V185.609H1165.48H1167.62V184.633V183.656H1165.48H1163.33V182.289V180.922H1165.77H1168.21V179.887V178.871H1164.6H1160.98V184.672Z" fill="white"/>
<path d="M1183 178.93L1181.84 178.988L1181.92 183.324C1181.98 187.094 1182.02 187.758 1182.35 188.344C1183.23 190.023 1184.27 190.551 1186.57 190.57C1187.92 190.59 1188.41 190.512 1189.13 190.141C1191.08 189.184 1191.24 188.656 1191.26 183.168V178.871L1190.09 178.93L1188.91 179.008V182.895C1188.91 188.051 1188.72 188.539 1186.63 188.539C1185.61 188.539 1184.97 188.207 1184.58 187.504C1184.42 187.23 1184.3 185.629 1184.23 182.973L1184.13 178.871L1183 178.93Z" fill="white"/>
<path d="M1193.6 184.672V190.492H1194.77H1195.95V188.344V186.195H1196.88H1197.82L1198.88 188.344L1199.93 190.492H1201.28H1202.62L1202.08 189.555C1201.26 188.129 1200.07 185.922 1200.05 185.805C1200.05 185.746 1200.3 185.551 1200.61 185.355C1201.9 184.594 1202.37 182.328 1201.57 180.727C1200.83 179.281 1200.26 179.086 1196.67 178.969L1193.6 178.871V184.672ZM1199.32 181.527C1199.62 181.938 1199.68 182.211 1199.56 182.855C1199.38 183.891 1198.76 184.242 1197.08 184.242H1195.85L1195.91 182.582L1195.96 180.902L1197.45 180.961C1198.8 181.02 1198.97 181.078 1199.32 181.527Z" fill="white"/>
<path d="M1217.23 178.91C1217.23 178.93 1217.9 180.863 1218.72 183.207C1219.54 185.551 1220.42 188.148 1220.69 188.969L1221.2 190.492H1222.51H1223.82L1224.7 188.09C1225.18 186.781 1226.08 184.262 1226.71 182.484C1227.33 180.707 1227.88 179.164 1227.92 179.066C1227.98 178.91 1226.9 178.852 1225.59 178.949C1225.5 178.969 1225.44 179.066 1225.44 179.203C1225.44 179.32 1224.81 181.352 1224.03 183.734L1222.62 188.031L1222.2 186.684C1221.98 185.922 1221.34 183.91 1220.81 182.191L1219.83 179.066L1218.52 178.969C1217.82 178.91 1217.23 178.891 1217.23 178.91Z" fill="white"/>
<path d="M1245.32 178.91L1240.87 178.969V179.945V180.922H1242.53H1244.19V185.707V190.492H1245.36H1246.53V185.707V180.922H1248.19H1249.85V179.848C1249.85 179.262 1249.83 178.793 1249.81 178.812C1249.77 178.852 1247.76 178.891 1245.32 178.91Z" fill="white"/>
<path d="M1257.23 178.93L1256.1 178.988V184.73V190.492H1257.29H1258.46L1258.41 186.684C1258.37 184.594 1258.41 182.895 1258.48 182.914C1258.56 182.953 1259.64 184.457 1260.91 186.293C1262.16 188.109 1263.33 189.809 1263.5 190.043C1263.76 190.395 1264.01 190.473 1264.89 190.492H1265.96V184.73V178.969H1264.85H1263.72V182.797V186.645L1261.43 183.227C1258.29 178.559 1258.58 178.852 1257.23 178.93Z" fill="white"/>
<path d="M1204.34 184.73V190.492H1208.04H1211.73V189.516L1211.75 188.539H1209.23C1206.34 188.539 1206.41 188.578 1206.53 186.664L1206.59 185.707L1208.8 185.648L1210.98 185.59V184.633V183.676L1208.8 183.617L1206.59 183.559L1206.63 182.289L1206.65 181.02L1209.11 180.961L1211.57 180.902V179.945V178.969H1207.96H1204.34V184.73Z" fill="white"/>
<path d="M1251.41 184.73V190.492H1252.59H1253.76V184.73V178.969H1252.59H1251.41V184.73Z" fill="white"/>
<path d="M1186.75 194.984C1185.57 195.18 1184.75 195.609 1184.32 196.293C1183.52 197.504 1183.6 199.457 1184.48 200.414C1185.07 201.059 1185.77 201.391 1187.59 201.918C1189.32 202.426 1189.89 202.816 1189.89 203.559C1189.89 204.477 1189.23 204.945 1187.94 204.945C1186.88 204.945 1186.08 204.516 1185.83 203.793C1185.63 203.246 1185.57 203.207 1184.52 203.207H1183.41L1183.5 203.891C1183.68 204.965 1184.34 205.844 1185.36 206.352C1186.69 207.016 1189.25 206.977 1190.46 206.293C1191.82 205.551 1192.14 204.965 1192.14 203.285C1192.14 202.035 1192.08 201.781 1191.65 201.332C1190.98 200.629 1190.4 200.336 1188.58 199.848C1186.57 199.301 1186.18 199.047 1186.18 198.227C1186.18 197.836 1186.34 197.445 1186.57 197.23C1187.37 196.508 1189.5 196.996 1189.5 197.914C1189.5 198.266 1189.64 198.305 1190.67 198.305C1191.77 198.305 1191.84 198.266 1191.84 197.855C1191.84 197.621 1191.63 197.074 1191.39 196.645C1190.63 195.297 1188.82 194.652 1186.75 194.984Z" fill="white"/>
<path d="M1205.85 195.062C1203.95 195.57 1202.88 197.309 1203.35 199.086C1203.74 200.551 1204.64 201.195 1207.31 201.898C1208.02 202.094 1208.78 202.406 1209.01 202.621C1209.48 203.051 1209.54 203.91 1209.17 204.438C1208.88 204.828 1207.41 205.082 1206.61 204.867C1206.02 204.73 1205.32 204.027 1205.32 203.578C1205.32 203.344 1205.07 203.266 1204.15 203.227C1203.04 203.168 1202.98 203.188 1202.98 203.617C1203 204.516 1203.7 205.688 1204.58 206.254C1205.34 206.742 1205.59 206.781 1207.18 206.801C1208.66 206.801 1209.09 206.723 1209.91 206.312C1210.46 206.039 1211.08 205.531 1211.34 205.141C1211.73 204.555 1211.79 204.262 1211.73 203.148C1211.67 201.957 1211.59 201.762 1210.98 201.137C1210.36 200.492 1209.6 200.16 1207.14 199.496C1206.12 199.223 1205.71 198.832 1205.71 198.129C1205.71 197.055 1207.04 196.488 1208.31 196.996C1208.78 197.211 1209.05 197.465 1209.15 197.797C1209.27 198.266 1209.34 198.305 1210.42 198.305H1211.57L1211.45 197.758C1211.08 196.273 1210.13 195.316 1208.64 195.004C1207.41 194.73 1207.04 194.75 1205.85 195.062Z" fill="white"/>
<path d="M1192.82 195.707C1193.05 196.117 1193.91 197.582 1194.71 198.988C1195.54 200.375 1196.26 201.605 1196.36 201.723C1196.45 201.82 1196.53 202.973 1196.53 204.301V206.703H1197.7H1198.88V204.398V202.094L1199.62 200.824C1202.41 196.156 1202.98 195.18 1202.98 195.082C1202.98 195.023 1202.47 194.984 1201.84 194.984H1200.73L1199.29 197.523L1197.84 200.063L1197.31 199.145C1197.02 198.617 1196.39 197.504 1195.91 196.645L1195.03 195.082L1193.7 195.023L1192.37 194.965L1192.82 195.707Z" fill="white"/>
<path d="M1212.55 196.059V197.133H1214.21H1215.87V201.918V206.723L1217.1 206.664L1218.31 206.605V201.879V197.133H1219.93H1221.53V196.059V194.984H1217.04H1212.55V196.059Z" fill="white"/>
<path d="M1223.09 200.844V206.703H1226.8H1230.52V205.629V204.555H1227.98H1225.44V203.188V201.82H1227.68H1229.93V200.844V199.867H1227.68H1225.44V198.5V197.133H1227.98H1230.52V196.059V194.984H1226.8H1223.09V200.844Z" fill="white"/>
<path d="M1232.47 200.844V206.703H1233.66H1234.83L1234.77 202.309C1234.73 199.887 1234.77 197.914 1234.87 197.914C1234.95 197.914 1235.01 198.031 1235.01 198.148C1235.01 198.285 1235.61 199.848 1236.36 201.625L1237.7 204.848H1238.62C1239.52 204.848 1239.54 204.828 1239.87 203.969C1240.07 203.48 1240.4 202.699 1240.63 202.211C1240.85 201.723 1241.36 200.59 1241.75 199.672C1242.14 198.754 1242.51 197.973 1242.57 197.914C1242.62 197.855 1242.62 199.789 1242.61 202.211L1242.53 206.605L1243.66 206.664L1244.77 206.723V200.844V194.984H1243.27H1241.75L1241.26 196.117C1241 196.723 1240.38 198.109 1239.87 199.184C1239.38 200.258 1238.91 201.313 1238.84 201.508C1238.66 201.996 1238.5 201.781 1237.96 200.355C1237.7 199.711 1237.1 198.246 1236.63 197.074L1235.75 194.984H1234.11H1232.47V200.844Z" fill="white"/>
</svg>
