<svg width="1363" height="163" viewBox="0 0 1363 163" fill="none" xmlns="http://www.w3.org/2000/svg">
<path d="M0 15C0 6.71573 6.71573 0 15 0H37V163H15C6.71573 163 0 156.284 0 148V15Z" fill="#424242"/>
<rect width="1097" height="163" transform="translate(37)" fill="#F0F0F0"/>
<path d="M101.906 53.9219L94.3945 51.2383V48.0859L104.602 52.375V54.6367L101.906 53.9219ZM94.3945 56.1719L101.918 53.4297L104.602 52.7852V55.0352L94.3945 59.3242V56.1719ZM121.781 56.5352C121.781 56.2305 121.734 55.957 121.641 55.7148C121.555 55.4648 121.391 55.2383 121.148 55.0352C120.906 54.8242 120.566 54.6172 120.129 54.4141C119.691 54.2109 119.125 54 118.43 53.7812C117.656 53.5312 116.922 53.25 116.227 52.9375C115.539 52.625 114.93 52.2617 114.398 51.8477C113.875 51.4258 113.461 50.9375 113.156 50.3828C112.859 49.8281 112.711 49.1836 112.711 48.4492C112.711 47.7383 112.867 47.0938 113.18 46.5156C113.492 45.9297 113.93 45.4297 114.492 45.0156C115.055 44.5938 115.719 44.2695 116.484 44.043C117.258 43.8164 118.105 43.7031 119.027 43.7031C120.285 43.7031 121.383 43.9297 122.32 44.3828C123.258 44.8359 123.984 45.457 124.5 46.2461C125.023 47.0352 125.285 47.9375 125.285 48.9531H121.793C121.793 48.4531 121.688 48.0156 121.477 47.6406C121.273 47.2578 120.961 46.957 120.539 46.7383C120.125 46.5195 119.602 46.4102 118.969 46.4102C118.359 46.4102 117.852 46.5039 117.445 46.6914C117.039 46.8711 116.734 47.1172 116.531 47.4297C116.328 47.7344 116.227 48.0781 116.227 48.4609C116.227 48.75 116.297 49.0117 116.438 49.2461C116.586 49.4805 116.805 49.6992 117.094 49.9023C117.383 50.1055 117.738 50.2969 118.16 50.4766C118.582 50.6562 119.07 50.832 119.625 51.0039C120.555 51.2852 121.371 51.6016 122.074 51.9531C122.785 52.3047 123.379 52.6992 123.855 53.1367C124.332 53.5742 124.691 54.0703 124.934 54.625C125.176 55.1797 125.297 55.8086 125.297 56.5117C125.297 57.2539 125.152 57.918 124.863 58.5039C124.574 59.0898 124.156 59.5859 123.609 59.9922C123.062 60.3984 122.41 60.707 121.652 60.918C120.895 61.1289 120.047 61.2344 119.109 61.2344C118.266 61.2344 117.434 61.125 116.613 60.9062C115.793 60.6797 115.047 60.3398 114.375 59.8867C113.711 59.4336 113.18 58.8555 112.781 58.1523C112.383 57.4492 112.184 56.6172 112.184 55.6562H115.711C115.711 56.1875 115.793 56.6367 115.957 57.0039C116.121 57.3711 116.352 57.668 116.648 57.8945C116.953 58.1211 117.312 58.2852 117.727 58.3867C118.148 58.4883 118.609 58.5391 119.109 58.5391C119.719 58.5391 120.219 58.4531 120.609 58.2812C121.008 58.1094 121.301 57.8711 121.488 57.5664C121.684 57.2617 121.781 56.918 121.781 56.5352ZM133.312 61.2344C132.328 61.2344 131.445 61.0781 130.664 60.7656C129.883 60.4453 129.219 60.0039 128.672 59.4414C128.133 58.8789 127.719 58.2266 127.43 57.4844C127.141 56.7344 126.996 55.9375 126.996 55.0938V54.625C126.996 53.6641 127.133 52.7852 127.406 51.9883C127.68 51.1914 128.07 50.5 128.578 49.9141C129.094 49.3281 129.719 48.8789 130.453 48.5664C131.188 48.2461 132.016 48.0859 132.938 48.0859C133.836 48.0859 134.633 48.2344 135.328 48.5312C136.023 48.8281 136.605 49.25 137.074 49.7969C137.551 50.3438 137.91 51 138.152 51.7656C138.395 52.5234 138.516 53.3672 138.516 54.2969V55.7031H128.438V53.4531H135.199V53.1953C135.199 52.7266 135.113 52.3086 134.941 51.9414C134.777 51.5664 134.527 51.2695 134.191 51.0508C133.855 50.832 133.426 50.7227 132.902 50.7227C132.457 50.7227 132.074 50.8203 131.754 51.0156C131.434 51.2109 131.172 51.4844 130.969 51.8359C130.773 52.1875 130.625 52.6016 130.523 53.0781C130.43 53.5469 130.383 54.0625 130.383 54.625V55.0938C130.383 55.6016 130.453 56.0703 130.594 56.5C130.742 56.9297 130.949 57.3008 131.215 57.6133C131.488 57.9258 131.816 58.168 132.199 58.3398C132.59 58.5117 133.031 58.5977 133.523 58.5977C134.133 58.5977 134.699 58.4805 135.223 58.2461C135.754 58.0039 136.211 57.6406 136.594 57.1562L138.234 58.9375C137.969 59.3203 137.605 59.6875 137.145 60.0391C136.691 60.3906 136.145 60.6797 135.504 60.9062C134.863 61.125 134.133 61.2344 133.312 61.2344ZM145.676 58.5977C146.09 58.5977 146.457 58.5195 146.777 58.3633C147.098 58.1992 147.348 57.9727 147.527 57.6836C147.715 57.3867 147.812 57.0391 147.82 56.6406H150.996C150.988 57.5312 150.75 58.3242 150.281 59.0195C149.812 59.707 149.184 60.25 148.395 60.6484C147.605 61.0391 146.723 61.2344 145.746 61.2344C144.762 61.2344 143.902 61.0703 143.168 60.7422C142.441 60.4141 141.836 59.9609 141.352 59.3828C140.867 58.7969 140.504 58.1172 140.262 57.3438C140.02 56.5625 139.898 55.7266 139.898 54.8359V54.4961C139.898 53.5977 140.02 52.7617 140.262 51.9883C140.504 51.207 140.867 50.5273 141.352 49.9492C141.836 49.3633 142.441 48.9062 143.168 48.5781C143.895 48.25 144.746 48.0859 145.723 48.0859C146.762 48.0859 147.672 48.2852 148.453 48.6836C149.242 49.082 149.859 49.6523 150.305 50.3945C150.758 51.1289 150.988 52 150.996 53.0078H147.82C147.812 52.5859 147.723 52.2031 147.551 51.8594C147.387 51.5156 147.145 51.2422 146.824 51.0391C146.512 50.8281 146.125 50.7227 145.664 50.7227C145.172 50.7227 144.77 50.8281 144.457 51.0391C144.145 51.2422 143.902 51.5234 143.73 51.8828C143.559 52.2344 143.438 52.6367 143.367 53.0898C143.305 53.5352 143.273 54.0039 143.273 54.4961V54.8359C143.273 55.3281 143.305 55.8008 143.367 56.2539C143.43 56.707 143.547 57.1094 143.719 57.4609C143.898 57.8125 144.145 58.0898 144.457 58.293C144.77 58.4961 145.176 58.5977 145.676 58.5977ZM160.453 57.9648V48.3203H163.828V61H160.652L160.453 57.9648ZM160.828 55.3633L161.824 55.3398C161.824 56.1836 161.727 56.9688 161.531 57.6953C161.336 58.4141 161.043 59.0391 160.652 59.5703C160.262 60.0938 159.77 60.5039 159.176 60.8008C158.582 61.0898 157.883 61.2344 157.078 61.2344C156.461 61.2344 155.891 61.1484 155.367 60.9766C154.852 60.7969 154.406 60.5195 154.031 60.1445C153.664 59.7617 153.375 59.2734 153.164 58.6797C152.961 58.0781 152.859 57.3555 152.859 56.5117V48.3203H156.234V56.5352C156.234 56.9102 156.277 57.2266 156.363 57.4844C156.457 57.7422 156.586 57.9531 156.75 58.1172C156.914 58.2812 157.105 58.3984 157.324 58.4688C157.551 58.5391 157.801 58.5742 158.074 58.5742C158.77 58.5742 159.316 58.4336 159.715 58.1523C160.121 57.8711 160.406 57.4883 160.57 57.0039C160.742 56.5117 160.828 55.9648 160.828 55.3633ZM169.781 51.0859V61H166.406V48.3203H169.582L169.781 51.0859ZM173.602 48.2383L173.543 51.3672C173.379 51.3438 173.18 51.3242 172.945 51.3086C172.719 51.2852 172.512 51.2734 172.324 51.2734C171.848 51.2734 171.434 51.3359 171.082 51.4609C170.738 51.5781 170.449 51.7539 170.215 51.9883C169.988 52.2227 169.816 52.5078 169.699 52.8438C169.59 53.1797 169.527 53.5625 169.512 53.9922L168.832 53.7812C168.832 52.9609 168.914 52.207 169.078 51.5195C169.242 50.8242 169.48 50.2188 169.793 49.7031C170.113 49.1875 170.504 48.7891 170.965 48.5078C171.426 48.2266 171.953 48.0859 172.547 48.0859C172.734 48.0859 172.926 48.1016 173.121 48.1328C173.316 48.1562 173.477 48.1914 173.602 48.2383ZM180.797 61.2344C179.812 61.2344 178.93 61.0781 178.148 60.7656C177.367 60.4453 176.703 60.0039 176.156 59.4414C175.617 58.8789 175.203 58.2266 174.914 57.4844C174.625 56.7344 174.48 55.9375 174.48 55.0938V54.625C174.48 53.6641 174.617 52.7852 174.891 51.9883C175.164 51.1914 175.555 50.5 176.062 49.9141C176.578 49.3281 177.203 48.8789 177.938 48.5664C178.672 48.2461 179.5 48.0859 180.422 48.0859C181.32 48.0859 182.117 48.2344 182.812 48.5312C183.508 48.8281 184.09 49.25 184.559 49.7969C185.035 50.3438 185.395 51 185.637 51.7656C185.879 52.5234 186 53.3672 186 54.2969V55.7031H175.922V53.4531H182.684V53.1953C182.684 52.7266 182.598 52.3086 182.426 51.9414C182.262 51.5664 182.012 51.2695 181.676 51.0508C181.34 50.832 180.91 50.7227 180.387 50.7227C179.941 50.7227 179.559 50.8203 179.238 51.0156C178.918 51.2109 178.656 51.4844 178.453 51.8359C178.258 52.1875 178.109 52.6016 178.008 53.0781C177.914 53.5469 177.867 54.0625 177.867 54.625V55.0938C177.867 55.6016 177.938 56.0703 178.078 56.5C178.227 56.9297 178.434 57.3008 178.699 57.6133C178.973 57.9258 179.301 58.168 179.684 58.3398C180.074 58.5117 180.516 58.5977 181.008 58.5977C181.617 58.5977 182.184 58.4805 182.707 58.2461C183.238 58.0039 183.695 57.6406 184.078 57.1562L185.719 58.9375C185.453 59.3203 185.09 59.6875 184.629 60.0391C184.176 60.3906 183.629 60.6797 182.988 60.9062C182.348 61.125 181.617 61.2344 180.797 61.2344ZM194.109 43.9375H200.473C201.777 43.9375 202.898 44.1328 203.836 44.5234C204.781 44.9141 205.508 45.4922 206.016 46.2578C206.523 47.0234 206.777 47.9648 206.777 49.082C206.777 49.9961 206.621 50.7812 206.309 51.4375C206.004 52.0859 205.57 52.6289 205.008 53.0664C204.453 53.4961 203.801 53.8398 203.051 54.0977L201.938 54.6836H196.406L196.383 51.9414H200.496C201.113 51.9414 201.625 51.832 202.031 51.6133C202.438 51.3945 202.742 51.0898 202.945 50.6992C203.156 50.3086 203.262 49.8555 203.262 49.3398C203.262 48.793 203.16 48.3203 202.957 47.9219C202.754 47.5234 202.445 47.2188 202.031 47.0078C201.617 46.7969 201.098 46.6914 200.473 46.6914H197.625V61H194.109V43.9375ZM203.648 61L199.758 53.3945L203.473 53.3711L207.41 60.8359V61H203.648ZM215.109 61.2344C214.125 61.2344 213.242 61.0781 212.461 60.7656C211.68 60.4453 211.016 60.0039 210.469 59.4414C209.93 58.8789 209.516 58.2266 209.227 57.4844C208.938 56.7344 208.793 55.9375 208.793 55.0938V54.625C208.793 53.6641 208.93 52.7852 209.203 51.9883C209.477 51.1914 209.867 50.5 210.375 49.9141C210.891 49.3281 211.516 48.8789 212.25 48.5664C212.984 48.2461 213.812 48.0859 214.734 48.0859C215.633 48.0859 216.43 48.2344 217.125 48.5312C217.82 48.8281 218.402 49.25 218.871 49.7969C219.348 50.3438 219.707 51 219.949 51.7656C220.191 52.5234 220.312 53.3672 220.312 54.2969V55.7031H210.234V53.4531H216.996V53.1953C216.996 52.7266 216.91 52.3086 216.738 51.9414C216.574 51.5664 216.324 51.2695 215.988 51.0508C215.652 50.832 215.223 50.7227 214.699 50.7227C214.254 50.7227 213.871 50.8203 213.551 51.0156C213.23 51.2109 212.969 51.4844 212.766 51.8359C212.57 52.1875 212.422 52.6016 212.32 53.0781C212.227 53.5469 212.18 54.0625 212.18 54.625V55.0938C212.18 55.6016 212.25 56.0703 212.391 56.5C212.539 56.9297 212.746 57.3008 213.012 57.6133C213.285 57.9258 213.613 58.168 213.996 58.3398C214.387 58.5117 214.828 58.5977 215.32 58.5977C215.93 58.5977 216.496 58.4805 217.02 58.2461C217.551 58.0039 218.008 57.6406 218.391 57.1562L220.031 58.9375C219.766 59.3203 219.402 59.6875 218.941 60.0391C218.488 60.3906 217.941 60.6797 217.301 60.9062C216.66 61.125 215.93 61.2344 215.109 61.2344ZM225.609 50.9453V61H222.223V48.3203H225.398L225.609 50.9453ZM225.141 54.2148H224.203C224.203 53.332 224.309 52.5195 224.52 51.7773C224.738 51.0273 225.055 50.3789 225.469 49.832C225.891 49.2773 226.41 48.8477 227.027 48.543C227.645 48.2383 228.359 48.0859 229.172 48.0859C229.734 48.0859 230.25 48.1719 230.719 48.3438C231.188 48.5078 231.59 48.7695 231.926 49.1289C232.27 49.4805 232.535 49.9414 232.723 50.5117C232.91 51.0742 233.004 51.75 233.004 52.5391V61H229.629V52.9141C229.629 52.3359 229.551 51.8906 229.395 51.5781C229.238 51.2656 229.016 51.0469 228.727 50.9219C228.445 50.7969 228.105 50.7344 227.707 50.7344C227.27 50.7344 226.887 50.8242 226.559 51.0039C226.238 51.1836 225.973 51.4336 225.762 51.7539C225.551 52.0664 225.395 52.4336 225.293 52.8555C225.191 53.2773 225.141 53.7305 225.141 54.2148ZM232.688 53.8281L231.48 53.9805C231.48 53.1523 231.582 52.3828 231.785 51.6719C231.996 50.9609 232.305 50.3359 232.711 49.7969C233.125 49.2578 233.637 48.8398 234.246 48.543C234.855 48.2383 235.559 48.0859 236.355 48.0859C236.965 48.0859 237.52 48.1758 238.02 48.3555C238.52 48.5273 238.945 48.8047 239.297 49.1875C239.656 49.5625 239.93 50.0547 240.117 50.6641C240.312 51.2734 240.41 52.0195 240.41 52.9023V61H237.023V52.9023C237.023 52.3164 236.945 51.8711 236.789 51.5664C236.641 51.2539 236.422 51.0391 236.133 50.9219C235.852 50.7969 235.516 50.7344 235.125 50.7344C234.719 50.7344 234.363 50.8164 234.059 50.9805C233.754 51.1367 233.5 51.3555 233.297 51.6367C233.094 51.918 232.941 52.2461 232.84 52.6211C232.738 52.9883 232.688 53.3906 232.688 53.8281ZM242.484 54.7891V54.543C242.484 53.6133 242.617 52.7578 242.883 51.9766C243.148 51.1875 243.535 50.5039 244.043 49.9258C244.551 49.3477 245.176 48.8984 245.918 48.5781C246.66 48.25 247.512 48.0859 248.473 48.0859C249.434 48.0859 250.289 48.25 251.039 48.5781C251.789 48.8984 252.418 49.3477 252.926 49.9258C253.441 50.5039 253.832 51.1875 254.098 51.9766C254.363 52.7578 254.496 53.6133 254.496 54.543V54.7891C254.496 55.7109 254.363 56.5664 254.098 57.3555C253.832 58.1367 253.441 58.8203 252.926 59.4062C252.418 59.9844 251.793 60.4336 251.051 60.7539C250.309 61.0742 249.457 61.2344 248.496 61.2344C247.535 61.2344 246.68 61.0742 245.93 60.7539C245.188 60.4336 244.559 59.9844 244.043 59.4062C243.535 58.8203 243.148 58.1367 242.883 57.3555C242.617 56.5664 242.484 55.7109 242.484 54.7891ZM245.859 54.543V54.7891C245.859 55.3203 245.906 55.8164 246 56.2773C246.094 56.7383 246.242 57.1445 246.445 57.4961C246.656 57.8398 246.93 58.1094 247.266 58.3047C247.602 58.5 248.012 58.5977 248.496 58.5977C248.965 58.5977 249.367 58.5 249.703 58.3047C250.039 58.1094 250.309 57.8398 250.512 57.4961C250.715 57.1445 250.863 56.7383 250.957 56.2773C251.059 55.8164 251.109 55.3203 251.109 54.7891V54.543C251.109 54.0273 251.059 53.543 250.957 53.0898C250.863 52.6289 250.711 52.2227 250.5 51.8711C250.297 51.5117 250.027 51.2305 249.691 51.0273C249.355 50.8242 248.949 50.7227 248.473 50.7227C247.996 50.7227 247.59 50.8242 247.254 51.0273C246.926 51.2305 246.656 51.5117 246.445 51.8711C246.242 52.2227 246.094 52.6289 246 53.0898C245.906 53.543 245.859 54.0273 245.859 54.543ZM262.781 48.3203V50.7109H255.398V48.3203H262.781ZM257.227 45.1914H260.602V57.1797C260.602 57.5469 260.648 57.8281 260.742 58.0234C260.844 58.2188 260.992 58.3555 261.188 58.4336C261.383 58.5039 261.629 58.5391 261.926 58.5391C262.137 58.5391 262.324 58.5312 262.488 58.5156C262.66 58.4922 262.805 58.4688 262.922 58.4453L262.934 60.9297C262.645 61.0234 262.332 61.0977 261.996 61.1523C261.66 61.207 261.289 61.2344 260.883 61.2344C260.141 61.2344 259.492 61.1133 258.938 60.8711C258.391 60.6211 257.969 60.2227 257.672 59.6758C257.375 59.1289 257.227 58.4102 257.227 57.5195V45.1914ZM270.539 61.2344C269.555 61.2344 268.672 61.0781 267.891 60.7656C267.109 60.4453 266.445 60.0039 265.898 59.4414C265.359 58.8789 264.945 58.2266 264.656 57.4844C264.367 56.7344 264.223 55.9375 264.223 55.0938V54.625C264.223 53.6641 264.359 52.7852 264.633 51.9883C264.906 51.1914 265.297 50.5 265.805 49.9141C266.32 49.3281 266.945 48.8789 267.68 48.5664C268.414 48.2461 269.242 48.0859 270.164 48.0859C271.062 48.0859 271.859 48.2344 272.555 48.5312C273.25 48.8281 273.832 49.25 274.301 49.7969C274.777 50.3438 275.137 51 275.379 51.7656C275.621 52.5234 275.742 53.3672 275.742 54.2969V55.7031H265.664V53.4531H272.426V53.1953C272.426 52.7266 272.34 52.3086 272.168 51.9414C272.004 51.5664 271.754 51.2695 271.418 51.0508C271.082 50.832 270.652 50.7227 270.129 50.7227C269.684 50.7227 269.301 50.8203 268.98 51.0156C268.66 51.2109 268.398 51.4844 268.195 51.8359C268 52.1875 267.852 52.6016 267.75 53.0781C267.656 53.5469 267.609 54.0625 267.609 54.625V55.0938C267.609 55.6016 267.68 56.0703 267.82 56.5C267.969 56.9297 268.176 57.3008 268.441 57.6133C268.715 57.9258 269.043 58.168 269.426 58.3398C269.816 58.5117 270.258 58.5977 270.75 58.5977C271.359 58.5977 271.926 58.4805 272.449 58.2461C272.98 58.0039 273.438 57.6406 273.82 57.1562L275.461 58.9375C275.195 59.3203 274.832 59.6875 274.371 60.0391C273.918 60.3906 273.371 60.6797 272.73 60.9062C272.09 61.125 271.359 61.2344 270.539 61.2344ZM290.004 57.4375L294.023 43.9375H297.938L291.996 61H289.418L290.004 57.4375ZM286.301 43.9375L290.309 57.4375L290.918 61H288.316L282.41 43.9375H286.301ZM298.242 54.7891V54.543C298.242 53.6133 298.375 52.7578 298.641 51.9766C298.906 51.1875 299.293 50.5039 299.801 49.9258C300.309 49.3477 300.934 48.8984 301.676 48.5781C302.418 48.25 303.27 48.0859 304.23 48.0859C305.191 48.0859 306.047 48.25 306.797 48.5781C307.547 48.8984 308.176 49.3477 308.684 49.9258C309.199 50.5039 309.59 51.1875 309.855 51.9766C310.121 52.7578 310.254 53.6133 310.254 54.543V54.7891C310.254 55.7109 310.121 56.5664 309.855 57.3555C309.59 58.1367 309.199 58.8203 308.684 59.4062C308.176 59.9844 307.551 60.4336 306.809 60.7539C306.066 61.0742 305.215 61.2344 304.254 61.2344C303.293 61.2344 302.438 61.0742 301.688 60.7539C300.945 60.4336 300.316 59.9844 299.801 59.4062C299.293 58.8203 298.906 58.1367 298.641 57.3555C298.375 56.5664 298.242 55.7109 298.242 54.7891ZM301.617 54.543V54.7891C301.617 55.3203 301.664 55.8164 301.758 56.2773C301.852 56.7383 302 57.1445 302.203 57.4961C302.414 57.8398 302.688 58.1094 303.023 58.3047C303.359 58.5 303.77 58.5977 304.254 58.5977C304.723 58.5977 305.125 58.5 305.461 58.3047C305.797 58.1094 306.066 57.8398 306.27 57.4961C306.473 57.1445 306.621 56.7383 306.715 56.2773C306.816 55.8164 306.867 55.3203 306.867 54.7891V54.543C306.867 54.0273 306.816 53.543 306.715 53.0898C306.621 52.6289 306.469 52.2227 306.258 51.8711C306.055 51.5117 305.785 51.2305 305.449 51.0273C305.113 50.8242 304.707 50.7227 304.23 50.7227C303.754 50.7227 303.348 50.8242 303.012 51.0273C302.684 51.2305 302.414 51.5117 302.203 51.8711C302 52.2227 301.852 52.6289 301.758 53.0898C301.664 53.543 301.617 54.0273 301.617 54.543ZM318.539 48.3203V50.7109H311.156V48.3203H318.539ZM312.984 45.1914H316.359V57.1797C316.359 57.5469 316.406 57.8281 316.5 58.0234C316.602 58.2188 316.75 58.3555 316.945 58.4336C317.141 58.5039 317.387 58.5391 317.684 58.5391C317.895 58.5391 318.082 58.5312 318.246 58.5156C318.418 58.4922 318.562 58.4688 318.68 58.4453L318.691 60.9297C318.402 61.0234 318.09 61.0977 317.754 61.1523C317.418 61.207 317.047 61.2344 316.641 61.2344C315.898 61.2344 315.25 61.1133 314.695 60.8711C314.148 60.6211 313.727 60.2227 313.43 59.6758C313.133 59.1289 312.984 58.4102 312.984 57.5195V45.1914ZM324.023 48.3203V61H320.637V48.3203H324.023ZM320.426 45.0156C320.426 44.5234 320.598 44.1172 320.941 43.7969C321.285 43.4766 321.746 43.3164 322.324 43.3164C322.895 43.3164 323.352 43.4766 323.695 43.7969C324.047 44.1172 324.223 44.5234 324.223 45.0156C324.223 45.5078 324.047 45.9141 323.695 46.2344C323.352 46.5547 322.895 46.7148 322.324 46.7148C321.746 46.7148 321.285 46.5547 320.941 46.2344C320.598 45.9141 320.426 45.5078 320.426 45.0156ZM330.117 51.0273V61H326.742V48.3203H329.906L330.117 51.0273ZM329.625 54.2148H328.711C328.711 53.2773 328.832 52.4336 329.074 51.6836C329.316 50.9258 329.656 50.2812 330.094 49.75C330.531 49.2109 331.051 48.8008 331.652 48.5195C332.262 48.2305 332.941 48.0859 333.691 48.0859C334.285 48.0859 334.828 48.1719 335.32 48.3438C335.812 48.5156 336.234 48.7891 336.586 49.1641C336.945 49.5391 337.219 50.0352 337.406 50.6523C337.602 51.2695 337.699 52.0234 337.699 52.9141V61H334.301V52.9023C334.301 52.3398 334.223 51.9023 334.066 51.5898C333.91 51.2773 333.68 51.0586 333.375 50.9336C333.078 50.8008 332.711 50.7344 332.273 50.7344C331.82 50.7344 331.426 50.8242 331.09 51.0039C330.762 51.1836 330.488 51.4336 330.27 51.7539C330.059 52.0664 329.898 52.4336 329.789 52.8555C329.68 53.2773 329.625 53.7305 329.625 54.2148ZM348.293 48.3203H351.352V60.5781C351.352 61.7344 351.094 62.7148 350.578 63.5195C350.07 64.332 349.359 64.9453 348.445 65.3594C347.531 65.7812 346.469 65.9922 345.258 65.9922C344.727 65.9922 344.164 65.9219 343.57 65.7812C342.984 65.6406 342.422 65.4219 341.883 65.125C341.352 64.8281 340.906 64.4531 340.547 64L342.035 62.0078C342.426 62.4609 342.879 62.8125 343.395 63.0625C343.91 63.3203 344.48 63.4492 345.105 63.4492C345.715 63.4492 346.23 63.3359 346.652 63.1094C347.074 62.8906 347.398 62.5664 347.625 62.1367C347.852 61.7148 347.965 61.2031 347.965 60.6016V51.25L348.293 48.3203ZM339.762 54.8125V54.5664C339.762 53.5977 339.879 52.7188 340.113 51.9297C340.355 51.1328 340.695 50.4492 341.133 49.8789C341.578 49.3086 342.117 48.8672 342.75 48.5547C343.383 48.2422 344.098 48.0859 344.895 48.0859C345.738 48.0859 346.445 48.2422 347.016 48.5547C347.586 48.8672 348.055 49.3125 348.422 49.8906C348.789 50.4609 349.074 51.1367 349.277 51.918C349.488 52.6914 349.652 53.5391 349.77 54.4609V55C349.652 55.8828 349.477 56.7031 349.242 57.4609C349.008 58.2188 348.699 58.8828 348.316 59.4531C347.934 60.0156 347.457 60.4531 346.887 60.7656C346.324 61.0781 345.652 61.2344 344.871 61.2344C344.09 61.2344 343.383 61.0742 342.75 60.7539C342.125 60.4336 341.59 59.9844 341.145 59.4062C340.699 58.8281 340.355 58.1484 340.113 57.3672C339.879 56.5859 339.762 55.7344 339.762 54.8125ZM343.137 54.5664V54.8125C343.137 55.3359 343.188 55.8242 343.289 56.2773C343.391 56.7305 343.547 57.1328 343.758 57.4844C343.977 57.8281 344.246 58.0977 344.566 58.293C344.895 58.4805 345.281 58.5742 345.727 58.5742C346.344 58.5742 346.848 58.4453 347.238 58.1875C347.629 57.9219 347.922 57.5586 348.117 57.0977C348.312 56.6367 348.426 56.1055 348.457 55.5039V53.9688C348.441 53.4766 348.375 53.0352 348.258 52.6445C348.141 52.2461 347.977 51.9062 347.766 51.625C347.555 51.3438 347.281 51.125 346.945 50.9688C346.609 50.8125 346.211 50.7344 345.75 50.7344C345.305 50.7344 344.918 50.8359 344.59 51.0391C344.27 51.2344 344 51.5039 343.781 51.8477C343.57 52.1914 343.41 52.5977 343.301 53.0664C343.191 53.5273 343.137 54.0273 343.137 54.5664ZM369.047 56.5352C369.047 56.2305 369 55.957 368.906 55.7148C368.82 55.4648 368.656 55.2383 368.414 55.0352C368.172 54.8242 367.832 54.6172 367.395 54.4141C366.957 54.2109 366.391 54 365.695 53.7812C364.922 53.5312 364.188 53.25 363.492 52.9375C362.805 52.625 362.195 52.2617 361.664 51.8477C361.141 51.4258 360.727 50.9375 360.422 50.3828C360.125 49.8281 359.977 49.1836 359.977 48.4492C359.977 47.7383 360.133 47.0938 360.445 46.5156C360.758 45.9297 361.195 45.4297 361.758 45.0156C362.32 44.5938 362.984 44.2695 363.75 44.043C364.523 43.8164 365.371 43.7031 366.293 43.7031C367.551 43.7031 368.648 43.9297 369.586 44.3828C370.523 44.8359 371.25 45.457 371.766 46.2461C372.289 47.0352 372.551 47.9375 372.551 48.9531H369.059C369.059 48.4531 368.953 48.0156 368.742 47.6406C368.539 47.2578 368.227 46.957 367.805 46.7383C367.391 46.5195 366.867 46.4102 366.234 46.4102C365.625 46.4102 365.117 46.5039 364.711 46.6914C364.305 46.8711 364 47.1172 363.797 47.4297C363.594 47.7344 363.492 48.0781 363.492 48.4609C363.492 48.75 363.562 49.0117 363.703 49.2461C363.852 49.4805 364.07 49.6992 364.359 49.9023C364.648 50.1055 365.004 50.2969 365.426 50.4766C365.848 50.6562 366.336 50.832 366.891 51.0039C367.82 51.2852 368.637 51.6016 369.34 51.9531C370.051 52.3047 370.645 52.6992 371.121 53.1367C371.598 53.5742 371.957 54.0703 372.199 54.625C372.441 55.1797 372.562 55.8086 372.562 56.5117C372.562 57.2539 372.418 57.918 372.129 58.5039C371.84 59.0898 371.422 59.5859 370.875 59.9922C370.328 60.3984 369.676 60.707 368.918 60.918C368.16 61.1289 367.312 61.2344 366.375 61.2344C365.531 61.2344 364.699 61.125 363.879 60.9062C363.059 60.6797 362.312 60.3398 361.641 59.8867C360.977 59.4336 360.445 58.8555 360.047 58.1523C359.648 57.4492 359.449 56.6172 359.449 55.6562H362.977C362.977 56.1875 363.059 56.6367 363.223 57.0039C363.387 57.3711 363.617 57.668 363.914 57.8945C364.219 58.1211 364.578 58.2852 364.992 58.3867C365.414 58.4883 365.875 58.5391 366.375 58.5391C366.984 58.5391 367.484 58.4531 367.875 58.2812C368.273 58.1094 368.566 57.8711 368.754 57.5664C368.949 57.2617 369.047 56.918 369.047 56.5352ZM378.504 59.5703L381.867 48.3203H385.488L380.391 62.9102C380.281 63.2305 380.133 63.5742 379.945 63.9414C379.766 64.3086 379.52 64.6562 379.207 64.9844C378.902 65.3203 378.516 65.5938 378.047 65.8047C377.586 66.0156 377.02 66.1211 376.348 66.1211C376.027 66.1211 375.766 66.1016 375.562 66.0625C375.359 66.0234 375.117 65.9688 374.836 65.8984V63.4258C374.922 63.4258 375.012 63.4258 375.105 63.4258C375.199 63.4336 375.289 63.4375 375.375 63.4375C375.82 63.4375 376.184 63.3867 376.465 63.2852C376.746 63.1836 376.973 63.0273 377.145 62.8164C377.316 62.6133 377.453 62.3477 377.555 62.0195L378.504 59.5703ZM377.098 48.3203L379.852 57.5078L380.332 61.082L378.035 61.3281L373.477 48.3203H377.098ZM393.691 57.4961C393.691 57.2539 393.621 57.0352 393.48 56.8398C393.34 56.6445 393.078 56.4648 392.695 56.3008C392.32 56.1289 391.777 55.9727 391.066 55.832C390.426 55.6914 389.828 55.5156 389.273 55.3047C388.727 55.0859 388.25 54.8242 387.844 54.5195C387.445 54.2148 387.133 53.8555 386.906 53.4414C386.68 53.0195 386.566 52.5391 386.566 52C386.566 51.4688 386.68 50.9688 386.906 50.5C387.141 50.0312 387.473 49.6172 387.902 49.2578C388.34 48.8906 388.871 48.6055 389.496 48.4023C390.129 48.1914 390.84 48.0859 391.629 48.0859C392.73 48.0859 393.676 48.2617 394.465 48.6133C395.262 48.9648 395.871 49.4492 396.293 50.0664C396.723 50.6758 396.938 51.3711 396.938 52.1523H393.562C393.562 51.8242 393.492 51.5312 393.352 51.2734C393.219 51.0078 393.008 50.8008 392.719 50.6523C392.438 50.4961 392.07 50.418 391.617 50.418C391.242 50.418 390.918 50.4844 390.645 50.6172C390.371 50.7422 390.16 50.9141 390.012 51.1328C389.871 51.3438 389.801 51.5781 389.801 51.8359C389.801 52.0312 389.84 52.207 389.918 52.3633C390.004 52.5117 390.141 52.6484 390.328 52.7734C390.516 52.8984 390.758 53.0156 391.055 53.125C391.359 53.2266 391.734 53.3203 392.18 53.4062C393.094 53.5938 393.91 53.8398 394.629 54.1445C395.348 54.4414 395.918 54.8477 396.34 55.3633C396.762 55.8711 396.973 56.5391 396.973 57.3672C396.973 57.9297 396.848 58.4453 396.598 58.9141C396.348 59.3828 395.988 59.793 395.52 60.1445C395.051 60.4883 394.488 60.7578 393.832 60.9531C393.184 61.1406 392.453 61.2344 391.641 61.2344C390.461 61.2344 389.461 61.0234 388.641 60.6016C387.828 60.1797 387.211 59.6445 386.789 58.9961C386.375 58.3398 386.168 57.668 386.168 56.9805H389.367C389.383 57.4414 389.5 57.8125 389.719 58.0938C389.945 58.375 390.23 58.5781 390.574 58.7031C390.926 58.8281 391.305 58.8906 391.711 58.8906C392.148 58.8906 392.512 58.832 392.801 58.7148C393.09 58.5898 393.309 58.4258 393.457 58.2227C393.613 58.0117 393.691 57.7695 393.691 57.4961ZM405.375 48.3203V50.7109H397.992V48.3203H405.375ZM399.82 45.1914H403.195V57.1797C403.195 57.5469 403.242 57.8281 403.336 58.0234C403.438 58.2188 403.586 58.3555 403.781 58.4336C403.977 58.5039 404.223 58.5391 404.52 58.5391C404.73 58.5391 404.918 58.5312 405.082 58.5156C405.254 58.4922 405.398 58.4688 405.516 58.4453L405.527 60.9297C405.238 61.0234 404.926 61.0977 404.59 61.1523C404.254 61.207 403.883 61.2344 403.477 61.2344C402.734 61.2344 402.086 61.1133 401.531 60.8711C400.984 60.6211 400.562 60.2227 400.266 59.6758C399.969 59.1289 399.82 58.4102 399.82 57.5195V45.1914ZM413.133 61.2344C412.148 61.2344 411.266 61.0781 410.484 60.7656C409.703 60.4453 409.039 60.0039 408.492 59.4414C407.953 58.8789 407.539 58.2266 407.25 57.4844C406.961 56.7344 406.816 55.9375 406.816 55.0938V54.625C406.816 53.6641 406.953 52.7852 407.227 51.9883C407.5 51.1914 407.891 50.5 408.398 49.9141C408.914 49.3281 409.539 48.8789 410.273 48.5664C411.008 48.2461 411.836 48.0859 412.758 48.0859C413.656 48.0859 414.453 48.2344 415.148 48.5312C415.844 48.8281 416.426 49.25 416.895 49.7969C417.371 50.3438 417.73 51 417.973 51.7656C418.215 52.5234 418.336 53.3672 418.336 54.2969V55.7031H408.258V53.4531H415.02V53.1953C415.02 52.7266 414.934 52.3086 414.762 51.9414C414.598 51.5664 414.348 51.2695 414.012 51.0508C413.676 50.832 413.246 50.7227 412.723 50.7227C412.277 50.7227 411.895 50.8203 411.574 51.0156C411.254 51.2109 410.992 51.4844 410.789 51.8359C410.594 52.1875 410.445 52.6016 410.344 53.0781C410.25 53.5469 410.203 54.0625 410.203 54.625V55.0938C410.203 55.6016 410.273 56.0703 410.414 56.5C410.562 56.9297 410.77 57.3008 411.035 57.6133C411.309 57.9258 411.637 58.168 412.02 58.3398C412.41 58.5117 412.852 58.5977 413.344 58.5977C413.953 58.5977 414.52 58.4805 415.043 58.2461C415.574 58.0039 416.031 57.6406 416.414 57.1562L418.055 58.9375C417.789 59.3203 417.426 59.6875 416.965 60.0391C416.512 60.3906 415.965 60.6797 415.324 60.9062C414.684 61.125 413.953 61.2344 413.133 61.2344ZM423.633 50.9453V61H420.246V48.3203H423.422L423.633 50.9453ZM423.164 54.2148H422.227C422.227 53.332 422.332 52.5195 422.543 51.7773C422.762 51.0273 423.078 50.3789 423.492 49.832C423.914 49.2773 424.434 48.8477 425.051 48.543C425.668 48.2383 426.383 48.0859 427.195 48.0859C427.758 48.0859 428.273 48.1719 428.742 48.3438C429.211 48.5078 429.613 48.7695 429.949 49.1289C430.293 49.4805 430.559 49.9414 430.746 50.5117C430.934 51.0742 431.027 51.75 431.027 52.5391V61H427.652V52.9141C427.652 52.3359 427.574 51.8906 427.418 51.5781C427.262 51.2656 427.039 51.0469 426.75 50.9219C426.469 50.7969 426.129 50.7344 425.73 50.7344C425.293 50.7344 424.91 50.8242 424.582 51.0039C424.262 51.1836 423.996 51.4336 423.785 51.7539C423.574 52.0664 423.418 52.4336 423.316 52.8555C423.215 53.2773 423.164 53.7305 423.164 54.2148ZM430.711 53.8281L429.504 53.9805C429.504 53.1523 429.605 52.3828 429.809 51.6719C430.02 50.9609 430.328 50.3359 430.734 49.7969C431.148 49.2578 431.66 48.8398 432.27 48.543C432.879 48.2383 433.582 48.0859 434.379 48.0859C434.988 48.0859 435.543 48.1758 436.043 48.3555C436.543 48.5273 436.969 48.8047 437.32 49.1875C437.68 49.5625 437.953 50.0547 438.141 50.6641C438.336 51.2734 438.434 52.0195 438.434 52.9023V61H435.047V52.9023C435.047 52.3164 434.969 51.8711 434.812 51.5664C434.664 51.2539 434.445 51.0391 434.156 50.9219C433.875 50.7969 433.539 50.7344 433.148 50.7344C432.742 50.7344 432.387 50.8164 432.082 50.9805C431.777 51.1367 431.523 51.3555 431.32 51.6367C431.117 51.918 430.965 52.2461 430.863 52.6211C430.762 52.9883 430.711 53.3906 430.711 53.8281Z" fill="#888888"/>
<path d="M109.219 107.422H100.734V101.07H109.219C110.375 101.07 111.312 100.875 112.031 100.484C112.75 100.094 113.273 99.5547 113.602 98.8672C113.945 98.1641 114.117 97.375 114.117 96.5C114.117 95.5625 113.945 94.6953 113.602 93.8984C113.273 93.1016 112.75 92.4609 112.031 91.9766C111.312 91.4766 110.375 91.2266 109.219 91.2266H103.828V119H95.6016V84.875H109.219C111.953 84.875 114.305 85.375 116.273 86.375C118.258 87.375 119.781 88.75 120.844 90.5C121.906 92.2344 122.438 94.2188 122.438 96.4531C122.438 98.6562 121.906 100.578 120.844 102.219C119.781 103.859 118.258 105.141 116.273 106.062C114.305 106.969 111.953 107.422 109.219 107.422ZM134.461 99.9219V119H126.562V93.6406H133.945L134.461 99.9219ZM141.961 93.4531L141.82 100.789C141.508 100.758 141.086 100.719 140.555 100.672C140.023 100.625 139.578 100.602 139.219 100.602C138.297 100.602 137.5 100.711 136.828 100.93C136.172 101.133 135.625 101.445 135.188 101.867C134.766 102.273 134.453 102.789 134.25 103.414C134.062 104.039 133.977 104.766 133.992 105.594L132.562 104.656C132.562 102.953 132.727 101.406 133.055 100.016C133.398 98.6094 133.883 97.3984 134.508 96.3828C135.133 95.3516 135.891 94.5625 136.781 94.0156C137.672 93.4531 138.672 93.1719 139.781 93.1719C140.172 93.1719 140.555 93.1953 140.93 93.2422C141.32 93.2891 141.664 93.3594 141.961 93.4531ZM142.852 106.578V106.086C142.852 104.227 143.117 102.516 143.648 100.953C144.18 99.375 144.961 98.0078 145.992 96.8516C147.023 95.6953 148.297 94.7969 149.812 94.1562C151.328 93.5 153.078 93.1719 155.062 93.1719C157.062 93.1719 158.82 93.5 160.336 94.1562C161.867 94.7969 163.148 95.6953 164.18 96.8516C165.211 98.0078 165.992 99.375 166.523 100.953C167.055 102.516 167.32 104.227 167.32 106.086V106.578C167.32 108.422 167.055 110.133 166.523 111.711C165.992 113.273 165.211 114.641 164.18 115.812C163.148 116.969 161.875 117.867 160.359 118.508C158.844 119.148 157.094 119.469 155.109 119.469C153.125 119.469 151.367 119.148 149.836 118.508C148.305 117.867 147.023 116.969 145.992 115.812C144.961 114.641 144.18 113.273 143.648 111.711C143.117 110.133 142.852 108.422 142.852 106.578ZM150.75 106.086V106.578C150.75 107.531 150.82 108.422 150.961 109.25C151.102 110.078 151.336 110.805 151.664 111.43C151.992 112.039 152.438 112.516 153 112.859C153.562 113.203 154.266 113.375 155.109 113.375C155.938 113.375 156.625 113.203 157.172 112.859C157.734 112.516 158.18 112.039 158.508 111.43C158.836 110.805 159.07 110.078 159.211 109.25C159.352 108.422 159.422 107.531 159.422 106.578V106.086C159.422 105.164 159.352 104.297 159.211 103.484C159.07 102.656 158.836 101.93 158.508 101.305C158.18 100.664 157.734 100.164 157.172 99.8047C156.609 99.4453 155.906 99.2656 155.062 99.2656C154.234 99.2656 153.539 99.4453 152.977 99.8047C152.43 100.164 151.992 100.664 151.664 101.305C151.336 101.93 151.102 102.656 150.961 103.484C150.82 104.297 150.75 105.164 150.75 106.086ZM171.422 93.6406H179.344V119.82C179.344 121.852 178.953 123.562 178.172 124.953C177.391 126.359 176.273 127.422 174.82 128.141C173.367 128.875 171.633 129.242 169.617 129.242C168.945 129.242 168.328 129.211 167.766 129.148C167.188 129.102 166.555 129 165.867 128.844V122.867C166.273 122.93 166.648 122.977 166.992 123.008C167.336 123.055 167.711 123.078 168.117 123.078C168.836 123.078 169.438 122.961 169.922 122.727C170.406 122.492 170.773 122.133 171.023 121.648C171.289 121.164 171.422 120.555 171.422 119.82V93.6406ZM170.836 87.1016C170.836 85.9766 171.242 85.0547 172.055 84.3359C172.867 83.6172 173.922 83.2578 175.219 83.2578C176.516 83.2578 177.57 83.6172 178.383 84.3359C179.195 85.0547 179.602 85.9766 179.602 87.1016C179.602 88.2266 179.195 89.1484 178.383 89.8672C177.57 90.5859 176.516 90.9453 175.219 90.9453C173.922 90.9453 172.867 90.5859 172.055 89.8672C171.242 89.1484 170.836 88.2266 170.836 87.1016ZM196.102 119.469C194.039 119.469 192.195 119.148 190.57 118.508C188.945 117.852 187.57 116.953 186.445 115.812C185.336 114.672 184.484 113.359 183.891 111.875C183.312 110.391 183.023 108.82 183.023 107.164V106.273C183.023 104.414 183.281 102.695 183.797 101.117C184.312 99.5234 185.078 98.1328 186.094 96.9453C187.109 95.7578 188.383 94.8359 189.914 94.1797C191.445 93.5078 193.227 93.1719 195.258 93.1719C197.055 93.1719 198.664 93.4609 200.086 94.0391C201.508 94.6172 202.711 95.4453 203.695 96.5234C204.695 97.6016 205.453 98.9062 205.969 100.438C206.5 101.969 206.766 103.688 206.766 105.594V108.805H186.047V103.859H199.055V103.25C199.07 102.406 198.922 101.688 198.609 101.094C198.312 100.5 197.875 100.047 197.297 99.7344C196.719 99.4219 196.016 99.2656 195.188 99.2656C194.328 99.2656 193.617 99.4531 193.055 99.8281C192.508 100.203 192.078 100.719 191.766 101.375C191.469 102.016 191.258 102.758 191.133 103.602C191.008 104.445 190.945 105.336 190.945 106.273V107.164C190.945 108.102 191.07 108.953 191.32 109.719C191.586 110.484 191.961 111.141 192.445 111.688C192.945 112.219 193.539 112.633 194.227 112.93C194.93 113.227 195.727 113.375 196.617 113.375C197.695 113.375 198.758 113.172 199.805 112.766C200.852 112.359 201.75 111.688 202.5 110.75L206.086 115.016C205.57 115.75 204.836 116.461 203.883 117.148C202.945 117.836 201.82 118.398 200.508 118.836C199.195 119.258 197.727 119.469 196.102 119.469ZM220.688 113.375C221.422 113.375 222.047 113.242 222.562 112.977C223.094 112.695 223.492 112.305 223.758 111.805C224.039 111.289 224.172 110.672 224.156 109.953H231.586C231.602 111.859 231.133 113.531 230.18 114.969C229.242 116.391 227.961 117.5 226.336 118.297C224.727 119.078 222.906 119.469 220.875 119.469C218.891 119.469 217.156 119.148 215.672 118.508C214.188 117.852 212.945 116.945 211.945 115.789C210.961 114.617 210.219 113.25 209.719 111.688C209.234 110.125 208.992 108.43 208.992 106.602V106.062C208.992 104.234 209.234 102.539 209.719 100.977C210.219 99.3984 210.961 98.0312 211.945 96.875C212.945 95.7031 214.18 94.7969 215.648 94.1562C217.133 93.5 218.859 93.1719 220.828 93.1719C222.938 93.1719 224.797 93.5703 226.406 94.3672C228.031 95.1641 229.305 96.3203 230.227 97.8359C231.148 99.3516 231.602 101.188 231.586 103.344H224.156C224.172 102.578 224.055 101.891 223.805 101.281C223.555 100.672 223.164 100.188 222.633 99.8281C222.117 99.4531 221.453 99.2656 220.641 99.2656C219.828 99.2656 219.172 99.4453 218.672 99.8047C218.172 100.164 217.789 100.664 217.523 101.305C217.273 101.93 217.102 102.648 217.008 103.461C216.93 104.273 216.891 105.141 216.891 106.062V106.602C216.891 107.539 216.93 108.422 217.008 109.25C217.102 110.062 217.281 110.781 217.547 111.406C217.812 112.016 218.195 112.5 218.695 112.859C219.195 113.203 219.859 113.375 220.688 113.375ZM248.32 93.6406V99.125H233.039V93.6406H248.32ZM236.25 87.3359H244.148V110.727C244.148 111.398 244.227 111.922 244.383 112.297C244.539 112.656 244.805 112.914 245.18 113.07C245.57 113.211 246.086 113.281 246.727 113.281C247.18 113.281 247.555 113.273 247.852 113.258C248.148 113.227 248.43 113.188 248.695 113.141V118.789C248.023 119.008 247.32 119.172 246.586 119.281C245.852 119.406 245.07 119.469 244.242 119.469C242.555 119.469 241.109 119.203 239.906 118.672C238.719 118.141 237.812 117.305 237.188 116.164C236.562 115.023 236.25 113.539 236.25 111.711V87.3359ZM286.781 98.4219V104.75H269.273V98.4219H286.781ZM272.016 84.875V119H263.789V84.875H272.016ZM292.312 84.875V119H284.109V84.875H292.312ZM305.508 93.6406V119H297.586V93.6406H305.508ZM297.117 87.1016C297.117 85.9766 297.523 85.0547 298.336 84.3359C299.148 83.6172 300.203 83.2578 301.5 83.2578C302.797 83.2578 303.852 83.6172 304.664 84.3359C305.477 85.0547 305.883 85.9766 305.883 87.1016C305.883 88.2266 305.477 89.1484 304.664 89.8672C303.852 90.5859 302.797 90.9453 301.5 90.9453C300.203 90.9453 299.148 90.5859 298.336 89.8672C297.523 89.1484 297.117 88.2266 297.117 87.1016ZM326.32 93.6406H333.492V118.016C333.492 120.359 332.953 122.344 331.875 123.969C330.797 125.609 329.289 126.852 327.352 127.695C325.43 128.555 323.18 128.984 320.602 128.984C319.461 128.984 318.297 128.836 317.109 128.539C315.922 128.258 314.812 127.836 313.781 127.273C312.75 126.711 311.883 126.016 311.18 125.188L314.484 120.547C315.125 121.266 315.93 121.875 316.898 122.375C317.867 122.891 319.008 123.148 320.32 123.148C321.461 123.148 322.414 122.945 323.18 122.539C323.961 122.133 324.555 121.539 324.961 120.758C325.367 119.992 325.57 119.062 325.57 117.969V99.6406L326.32 93.6406ZM309.469 106.625V106.133C309.469 104.211 309.703 102.461 310.172 100.883C310.656 99.2891 311.344 97.9219 312.234 96.7812C313.141 95.625 314.234 94.7344 315.516 94.1094C316.797 93.4844 318.242 93.1719 319.852 93.1719C321.586 93.1719 323.008 93.5078 324.117 94.1797C325.242 94.8359 326.141 95.7578 326.812 96.9453C327.5 98.1328 328.031 99.5234 328.406 101.117C328.797 102.695 329.125 104.398 329.391 106.227V106.812C329.125 108.531 328.758 110.156 328.289 111.688C327.836 113.203 327.242 114.547 326.508 115.719C325.773 116.891 324.852 117.812 323.742 118.484C322.648 119.141 321.336 119.469 319.805 119.469C318.211 119.469 316.773 119.148 315.492 118.508C314.227 117.867 313.141 116.969 312.234 115.812C311.344 114.656 310.656 113.297 310.172 111.734C309.703 110.172 309.469 108.469 309.469 106.625ZM317.367 106.133V106.625C317.367 107.578 317.453 108.461 317.625 109.273C317.812 110.086 318.094 110.805 318.469 111.43C318.844 112.039 319.305 112.516 319.852 112.859C320.414 113.203 321.07 113.375 321.82 113.375C322.961 113.375 323.883 113.133 324.586 112.648C325.289 112.164 325.797 111.477 326.109 110.586C326.422 109.695 326.555 108.648 326.508 107.445V105.594C326.539 104.562 326.469 103.656 326.297 102.875C326.125 102.078 325.852 101.414 325.477 100.883C325.117 100.352 324.633 99.9531 324.023 99.6875C323.43 99.4062 322.711 99.2656 321.867 99.2656C321.133 99.2656 320.484 99.4375 319.922 99.7812C319.359 100.125 318.891 100.609 318.516 101.234C318.141 101.844 317.852 102.57 317.648 103.414C317.461 104.242 317.367 105.148 317.367 106.133ZM345.773 83V119H337.875V83H345.773ZM344.836 105.453L342.984 105.5C342.984 103.719 343.203 102.078 343.641 100.578C344.078 99.0781 344.703 97.7734 345.516 96.6641C346.328 95.5547 347.305 94.6953 348.445 94.0859C349.586 93.4766 350.852 93.1719 352.242 93.1719C353.492 93.1719 354.633 93.3516 355.664 93.7109C356.711 94.0703 357.609 94.6484 358.359 95.4453C359.125 96.2422 359.711 97.2812 360.117 98.5625C360.539 99.8438 360.75 101.406 360.75 103.25V119H352.805V103.203C352.805 102.172 352.656 101.375 352.359 100.812C352.078 100.234 351.672 99.8359 351.141 99.6172C350.609 99.3828 349.961 99.2656 349.195 99.2656C348.273 99.2656 347.523 99.4219 346.945 99.7344C346.367 100.047 345.922 100.484 345.609 101.047C345.312 101.594 345.109 102.242 345 102.992C344.891 103.742 344.836 104.562 344.836 105.453ZM373.477 83V119H365.555V83H373.477ZM386.695 93.6406V119H378.773V93.6406H386.695ZM378.305 87.1016C378.305 85.9766 378.711 85.0547 379.523 84.3359C380.336 83.6172 381.391 83.2578 382.688 83.2578C383.984 83.2578 385.039 83.6172 385.852 84.3359C386.664 85.0547 387.07 85.9766 387.07 87.1016C387.07 88.2266 386.664 89.1484 385.852 89.8672C385.039 90.5859 383.984 90.9453 382.688 90.9453C381.391 90.9453 380.336 90.5859 379.523 89.8672C378.711 89.1484 378.305 88.2266 378.305 87.1016ZM407.508 93.6406H414.68V118.016C414.68 120.359 414.141 122.344 413.062 123.969C411.984 125.609 410.477 126.852 408.539 127.695C406.617 128.555 404.367 128.984 401.789 128.984C400.648 128.984 399.484 128.836 398.297 128.539C397.109 128.258 396 127.836 394.969 127.273C393.938 126.711 393.07 126.016 392.367 125.188L395.672 120.547C396.312 121.266 397.117 121.875 398.086 122.375C399.055 122.891 400.195 123.148 401.508 123.148C402.648 123.148 403.602 122.945 404.367 122.539C405.148 122.133 405.742 121.539 406.148 120.758C406.555 119.992 406.758 119.062 406.758 117.969V99.6406L407.508 93.6406ZM390.656 106.625V106.133C390.656 104.211 390.891 102.461 391.359 100.883C391.844 99.2891 392.531 97.9219 393.422 96.7812C394.328 95.625 395.422 94.7344 396.703 94.1094C397.984 93.4844 399.43 93.1719 401.039 93.1719C402.773 93.1719 404.195 93.5078 405.305 94.1797C406.43 94.8359 407.328 95.7578 408 96.9453C408.688 98.1328 409.219 99.5234 409.594 101.117C409.984 102.695 410.312 104.398 410.578 106.227V106.812C410.312 108.531 409.945 110.156 409.477 111.688C409.023 113.203 408.43 114.547 407.695 115.719C406.961 116.891 406.039 117.812 404.93 118.484C403.836 119.141 402.523 119.469 400.992 119.469C399.398 119.469 397.961 119.148 396.68 118.508C395.414 117.867 394.328 116.969 393.422 115.812C392.531 114.656 391.844 113.297 391.359 111.734C390.891 110.172 390.656 108.469 390.656 106.625ZM398.555 106.133V106.625C398.555 107.578 398.641 108.461 398.812 109.273C399 110.086 399.281 110.805 399.656 111.43C400.031 112.039 400.492 112.516 401.039 112.859C401.602 113.203 402.258 113.375 403.008 113.375C404.148 113.375 405.07 113.133 405.773 112.648C406.477 112.164 406.984 111.477 407.297 110.586C407.609 109.695 407.742 108.648 407.695 107.445V105.594C407.727 104.562 407.656 103.656 407.484 102.875C407.312 102.078 407.039 101.414 406.664 100.883C406.305 100.352 405.82 99.9531 405.211 99.6875C404.617 99.4062 403.898 99.2656 403.055 99.2656C402.32 99.2656 401.672 99.4375 401.109 99.7812C400.547 100.125 400.078 100.609 399.703 101.234C399.328 101.844 399.039 102.57 398.836 103.414C398.648 104.242 398.555 105.148 398.555 106.133ZM426.961 83V119H419.062V83H426.961ZM426.023 105.453L424.172 105.5C424.172 103.719 424.391 102.078 424.828 100.578C425.266 99.0781 425.891 97.7734 426.703 96.6641C427.516 95.5547 428.492 94.6953 429.633 94.0859C430.773 93.4766 432.039 93.1719 433.43 93.1719C434.68 93.1719 435.82 93.3516 436.852 93.7109C437.898 94.0703 438.797 94.6484 439.547 95.4453C440.312 96.2422 440.898 97.2812 441.305 98.5625C441.727 99.8438 441.938 101.406 441.938 103.25V119H433.992V103.203C433.992 102.172 433.844 101.375 433.547 100.812C433.266 100.234 432.859 99.8359 432.328 99.6172C431.797 99.3828 431.148 99.2656 430.383 99.2656C429.461 99.2656 428.711 99.4219 428.133 99.7344C427.555 100.047 427.109 100.484 426.797 101.047C426.5 101.594 426.297 102.242 426.188 102.992C426.078 103.742 426.023 104.562 426.023 105.453ZM459.68 93.6406V99.125H444.398V93.6406H459.68ZM447.609 87.3359H455.508V110.727C455.508 111.398 455.586 111.922 455.742 112.297C455.898 112.656 456.164 112.914 456.539 113.07C456.93 113.211 457.445 113.281 458.086 113.281C458.539 113.281 458.914 113.273 459.211 113.258C459.508 113.227 459.789 113.188 460.055 113.141V118.789C459.383 119.008 458.68 119.172 457.945 119.281C457.211 119.406 456.43 119.469 455.602 119.469C453.914 119.469 452.469 119.203 451.266 118.672C450.078 118.141 449.172 117.305 448.547 116.164C447.922 115.023 447.609 113.539 447.609 111.711V87.3359ZM476.109 111.875C476.109 111.438 475.961 111.062 475.664 110.75C475.383 110.422 474.883 110.125 474.164 109.859C473.445 109.578 472.438 109.297 471.141 109.016C469.906 108.75 468.742 108.398 467.648 107.961C466.57 107.523 465.625 106.992 464.812 106.367C464 105.742 463.359 105 462.891 104.141C462.438 103.281 462.211 102.297 462.211 101.188C462.211 100.109 462.438 99.0938 462.891 98.1406C463.359 97.1719 464.039 96.3203 464.93 95.5859C465.836 94.8359 466.938 94.25 468.234 93.8281C469.531 93.3906 471.008 93.1719 472.664 93.1719C474.945 93.1719 476.914 93.5234 478.57 94.2266C480.227 94.9141 481.5 95.8828 482.391 97.1328C483.297 98.3672 483.75 99.7969 483.75 101.422H475.852C475.852 100.781 475.742 100.234 475.523 99.7812C475.32 99.3281 474.984 98.9844 474.516 98.75C474.047 98.5 473.422 98.375 472.641 98.375C472.094 98.375 471.594 98.4766 471.141 98.6797C470.703 98.8828 470.352 99.1641 470.086 99.5234C469.82 99.8828 469.688 100.305 469.688 100.789C469.688 101.133 469.766 101.445 469.922 101.727C470.094 101.992 470.352 102.242 470.695 102.477C471.039 102.695 471.477 102.898 472.008 103.086C472.539 103.258 473.18 103.414 473.93 103.555C475.633 103.867 477.227 104.312 478.711 104.891C480.195 105.469 481.398 106.289 482.32 107.352C483.258 108.414 483.727 109.844 483.727 111.641C483.727 112.766 483.469 113.805 482.953 114.758C482.438 115.695 481.695 116.523 480.727 117.242C479.758 117.945 478.594 118.492 477.234 118.883C475.875 119.273 474.344 119.469 472.641 119.469C470.219 119.469 468.172 119.039 466.5 118.18C464.828 117.305 463.562 116.211 462.703 114.898C461.859 113.57 461.438 112.227 461.438 110.867H468.797C468.828 111.648 469.016 112.289 469.359 112.789C469.719 113.289 470.195 113.656 470.789 113.891C471.383 114.125 472.07 114.242 472.852 114.242C473.57 114.242 474.164 114.141 474.633 113.938C475.117 113.734 475.484 113.461 475.734 113.117C475.984 112.758 476.109 112.344 476.109 111.875Z" fill="black"/>
<path d="M1134 0H1348C1356.28 0 1363 6.71573 1363 15V148C1363 156.284 1356.28 163 1348 163H1134V0Z" fill="#1B2D98"/>
<mask id="path-5-outside-1_3_82" maskUnits="userSpaceOnUse" x="1212.5" y="43.5" width="72" height="76" fill="black">
<rect fill="white" x="1212.5" y="43.5" width="72" height="76"/>
<path d="M1257.78 110.795L1258.17 117.033C1258.2 117.55 1257.82 118.005 1257.3 118.082C1255.41 118.359 1253.48 118.5 1251.56 118.5C1249.65 118.5 1247.72 118.359 1245.83 118.082C1245.3 118.005 1244.93 117.55 1244.96 117.033L1245.29 111.677C1241.26 110.891 1237.48 109.371 1234.05 107.148L1230.39 111.163C1230.04 111.55 1229.44 111.612 1229.01 111.305C1225.91 109.088 1223.19 106.436 1220.9 103.423C1220.59 103.006 1220.65 102.425 1221.05 102.081L1225.18 98.5235C1222.89 95.1861 1221.33 91.5191 1220.52 87.5987L1215.01 87.921C1214.48 87.9525 1214.01 87.5844 1213.93 87.0723C1213.64 85.2408 1213.5 83.3658 1213.5 81.4989C1213.5 79.6323 1213.64 77.7573 1213.93 75.9255C1214.01 75.4134 1214.48 75.037 1215.01 75.0768L1220.52 75.3991C1221.33 71.48 1222.89 67.8127 1225.18 64.4753L1221.05 60.9166C1220.65 60.5732 1220.59 59.9915 1220.9 59.5751C1223.18 56.565 1225.91 53.9132 1229.01 51.6928C1229.44 51.3858 1230.04 51.448 1230.39 51.8344L1234.05 55.8498C1237.51 53.619 1241.42 52.0541 1245.48 51.2839L1245.04 45.9743C1245 45.4495 1245.38 44.9818 1245.92 44.9043C1249.64 44.3652 1253.49 44.3652 1257.21 44.9043C1257.75 44.9818 1258.13 45.4496 1258.09 45.9743L1257.57 52.1893C1257.52 52.7401 1257.02 53.1503 1256.46 53.105C1255.89 53.0601 1255.47 52.5776 1255.52 52.0273L1255.96 46.7572C1253.05 46.4128 1250.08 46.4128 1247.17 46.7572L1247.61 52.0268C1247.66 52.546 1247.28 53.0109 1246.75 53.0949C1242.36 53.7915 1238.12 55.4843 1234.48 57.9899C1234.05 58.2849 1233.46 58.2181 1233.11 57.8373L1229.48 53.8537C1227.1 55.6511 1224.97 57.7247 1223.12 60.034L1227.22 63.565C1227.61 63.9035 1227.68 64.4749 1227.38 64.8912C1224.81 68.4236 1223.12 72.3693 1222.38 76.6188C1222.29 77.1218 1221.82 77.4795 1221.3 77.4485L1215.84 77.1288C1215.65 78.5723 1215.56 80.0384 1215.56 81.499C1215.56 82.9599 1215.65 84.4259 1215.84 85.8692L1221.3 85.5495C1221.82 85.5157 1222.29 85.8767 1222.38 86.3793C1223.12 90.6301 1224.81 94.5761 1227.38 98.1078C1227.68 98.5242 1227.61 99.0954 1227.22 99.434L1223.12 102.964C1224.97 105.276 1227.11 107.349 1229.48 109.144L1233.11 105.161C1233.46 104.779 1234.05 104.713 1234.48 105.008C1238.11 107.508 1242.17 109.143 1246.54 109.869C1247.06 109.955 1247.43 110.406 1247.4 110.915L1247.07 116.229C1250.04 116.589 1253.09 116.589 1256.06 116.229L1255.73 110.915C1255.7 110.363 1256.13 109.89 1256.7 109.857C1257.26 109.827 1257.75 110.244 1257.78 110.795ZM1279.87 67.5195C1281.52 67.5195 1282.86 68.8234 1282.86 70.4259C1282.86 72.0285 1281.52 73.3323 1279.87 73.3323C1279.49 73.3323 1279.13 73.2564 1278.8 73.131L1276 75.947C1275.8 76.142 1275.54 76.2524 1275.26 76.2524H1260.97C1260.4 76.2524 1259.94 75.8048 1259.94 75.2524C1259.94 74.7 1260.4 74.2524 1260.97 74.2524H1274.82L1277.25 71.8052C1277.02 71.3928 1276.88 70.9277 1276.88 70.4261C1276.88 68.8232 1278.22 67.5195 1279.87 67.5195ZM1278.93 70.4259C1278.93 70.9256 1279.35 71.3321 1279.87 71.3321C1280.38 71.3321 1280.8 70.9256 1280.8 70.4259C1280.8 69.9263 1280.38 69.5197 1279.87 69.5197C1279.35 69.5196 1278.93 69.9261 1278.93 70.4259ZM1268.7 64.8892L1272.51 59.5583C1272.12 59.0691 1271.89 58.4651 1271.89 57.8029C1271.89 56.2003 1273.23 54.8965 1274.87 54.8965C1276.52 54.8965 1277.86 56.2003 1277.86 57.8029C1277.86 59.4054 1276.52 60.7092 1274.87 60.7092C1274.66 60.7092 1274.45 60.6835 1274.24 60.6403L1270.08 66.4604C1269.89 66.729 1269.57 66.8895 1269.23 66.8895H1257.92C1257.35 66.8895 1256.89 66.4419 1256.89 65.8895C1256.89 65.3371 1257.35 64.8895 1257.92 64.8895L1268.7 64.8892ZM1273.94 57.8029C1273.94 58.3025 1274.36 58.7091 1274.87 58.7091C1275.39 58.7091 1275.81 58.3025 1275.81 57.8029C1275.81 57.3032 1275.39 56.8967 1274.87 56.8967C1274.36 56.8965 1273.94 57.3031 1273.94 57.8029ZM1277.62 105.196C1277.62 106.798 1276.28 108.102 1274.63 108.102C1272.98 108.102 1271.64 106.798 1271.64 105.196C1271.64 104.412 1271.96 103.703 1272.48 103.179L1268.69 97.8852H1257.92C1257.35 97.8852 1256.89 97.4376 1256.89 96.8852C1256.89 96.3328 1257.35 95.8852 1257.92 95.8852H1269.23C1269.57 95.8852 1269.89 96.0456 1270.08 96.3143L1274.37 102.315C1274.46 102.307 1274.54 102.289 1274.63 102.289C1276.28 102.289 1277.62 103.593 1277.62 105.196ZM1275.56 105.196C1275.56 104.696 1275.14 104.289 1274.63 104.289C1274.11 104.289 1273.69 104.696 1273.69 105.196C1273.69 105.695 1274.11 106.102 1274.63 106.102C1275.14 106.102 1275.56 105.695 1275.56 105.196ZM1282.61 92.8506C1282.61 94.4532 1281.27 95.757 1279.62 95.757C1277.97 95.757 1276.63 94.4532 1276.63 92.8506C1276.63 92.2267 1276.84 91.6518 1277.18 91.1777L1274.82 88.8004H1260.97C1260.4 88.8004 1259.94 88.3528 1259.94 87.8004C1259.94 87.248 1260.4 86.8004 1260.97 86.8004H1275.26C1275.54 86.8004 1275.8 86.9109 1276 87.1058L1278.91 90.0363C1279.14 89.9817 1279.37 89.9444 1279.62 89.9444C1281.27 89.9443 1282.61 91.2479 1282.61 92.8506ZM1280.55 92.8506C1280.55 92.351 1280.13 91.9444 1279.62 91.9444C1279.11 91.9444 1278.69 92.351 1278.69 92.8506C1278.69 93.3503 1279.11 93.7569 1279.62 93.7569C1280.13 93.7569 1280.55 93.3503 1280.55 92.8506ZM1283.5 81.5261C1283.5 83.1286 1282.16 84.4324 1280.51 84.4324C1279.22 84.4324 1278.14 83.6352 1277.71 82.5258H1255.16V100.204C1255.16 103.826 1252.13 106.773 1248.41 106.773C1245.68 106.773 1243.27 105.218 1242.21 102.835C1242.17 102.836 1242.13 102.837 1242.08 102.837C1238.36 102.837 1235.33 99.8896 1235.33 96.2674C1235.33 96.0939 1235.33 95.9203 1235.35 95.7475C1233.74 95.4353 1232.22 94.6326 1230.98 93.4249C1229.39 91.8756 1228.51 89.8161 1228.51 87.6253C1228.51 85.4345 1229.39 83.3749 1230.98 81.826C1231.1 81.7098 1231.23 81.6079 1231.36 81.4992C1231.23 81.3903 1231.1 81.2884 1230.98 81.1724C1229.39 79.6232 1228.51 77.5636 1228.51 75.3731C1228.51 73.1823 1229.39 71.1227 1230.98 69.5735C1232.22 68.3658 1233.74 67.563 1235.35 67.2509C1235.33 67.078 1235.33 66.9046 1235.33 66.731C1235.33 63.1085 1238.36 60.1615 1242.08 60.1615C1242.13 60.1615 1242.17 60.1618 1242.21 60.1628C1243.27 57.7799 1245.68 56.2252 1248.41 56.2252C1252.13 56.2252 1255.16 59.1721 1255.16 62.7944V80.5259H1277.71C1278.14 79.4168 1279.22 78.62 1280.51 78.62C1282.16 78.6198 1283.5 79.9235 1283.5 81.5261ZM1232.44 79.7581C1232.72 80.0356 1233.05 80.2792 1233.39 80.499H1253.11V62.7941C1253.11 60.2745 1251 58.225 1248.41 58.225C1246.68 58.225 1245.14 59.1203 1244.32 60.5297C1245.15 60.813 1245.92 61.2544 1246.59 61.8364C1246.6 61.8432 1246.6 61.8529 1246.61 61.8598C1246.99 61.6858 1247.42 61.5815 1247.87 61.5815C1249.51 61.5815 1250.86 62.8853 1250.86 64.4874C1250.86 66.09 1249.51 67.3938 1247.87 67.3938C1246.22 67.3938 1244.88 66.09 1244.88 64.4874C1244.88 64.0541 1244.98 63.6465 1245.16 63.2768C1244.3 62.5582 1243.22 62.1612 1242.08 62.1612C1239.49 62.1612 1237.38 64.2111 1237.38 66.7307C1237.38 66.8749 1237.4 67.0183 1237.41 67.1615C1238.63 67.284 1239.8 67.6579 1240.85 68.27C1241.31 67.9875 1241.85 67.8176 1242.43 67.8176C1244.08 67.8176 1245.42 69.1214 1245.42 70.7239C1245.42 72.3262 1244.08 73.6299 1242.43 73.6299C1240.78 73.6299 1239.44 72.3261 1239.44 70.7239C1239.44 70.43 1239.5 70.1516 1239.58 69.8839C1238.66 69.388 1237.63 69.1172 1236.55 69.1139C1235.06 69.1935 1233.6 69.857 1232.44 70.9873C1231.23 72.1588 1230.57 73.7162 1230.57 75.3728C1230.57 77.0293 1231.23 78.5866 1232.44 79.7581ZM1241.5 70.7241C1241.5 71.2237 1241.92 71.63 1242.43 71.63C1242.95 71.63 1243.36 71.2237 1243.36 70.7241C1243.36 70.2244 1242.95 69.8179 1242.43 69.8179C1241.92 69.8177 1241.5 70.2243 1241.5 70.7241ZM1247.87 65.3938C1248.38 65.3938 1248.8 64.9872 1248.8 64.4876C1248.8 63.9879 1248.38 63.5816 1247.87 63.5816C1247.35 63.5816 1246.93 63.9879 1246.93 64.4876C1246.93 64.9872 1247.35 65.3938 1247.87 65.3938ZM1253.11 100.204V82.499H1233.37C1233.03 82.7166 1232.72 82.9651 1232.44 83.2399C1231.23 84.4112 1230.57 85.9685 1230.57 87.6251C1230.57 89.2817 1231.23 90.8391 1232.44 92.0106C1233.6 93.1409 1235.06 93.8044 1236.55 93.884C1237.61 93.8807 1238.63 93.62 1239.54 93.1388C1239.48 92.9112 1239.44 92.6768 1239.44 92.4315C1239.44 90.8289 1240.78 89.5251 1242.43 89.5251C1244.08 89.5251 1245.42 90.8289 1245.42 92.4315C1245.42 94.0341 1244.08 95.3379 1242.43 95.3379C1241.79 95.3379 1241.2 95.1364 1240.71 94.8008C1239.7 95.3682 1238.58 95.7192 1237.41 95.8365C1237.4 95.9797 1237.38 96.1231 1237.38 96.2674C1237.38 98.787 1239.49 100.836 1242.08 100.836C1243.19 100.836 1244.26 100.455 1245.1 99.7652C1244.96 99.4261 1244.88 99.0564 1244.88 98.6677C1244.88 97.0652 1246.22 95.7614 1247.87 95.7614C1249.51 95.7614 1250.86 97.0652 1250.86 98.6677C1250.86 100.27 1249.51 101.574 1247.87 101.574C1247.37 101.574 1246.91 101.445 1246.5 101.236C1245.85 101.779 1245.11 102.198 1244.32 102.468C1245.14 103.878 1246.68 104.773 1248.41 104.773C1251 104.773 1253.11 102.724 1253.11 100.204ZM1247.87 99.5741C1248.38 99.5741 1248.8 99.1675 1248.8 98.6679C1248.8 98.1682 1248.38 97.7617 1247.87 97.7617C1247.35 97.7617 1246.93 98.1682 1246.93 98.6679C1246.93 99.1675 1247.35 99.5741 1247.87 99.5741ZM1242.43 93.3379C1242.95 93.3379 1243.36 92.9313 1243.36 92.4316C1243.36 91.932 1242.95 91.5254 1242.43 91.5254C1241.92 91.5254 1241.5 91.932 1241.5 92.4316C1241.5 92.5993 1241.55 92.7544 1241.63 92.8892C1241.65 92.9087 1241.67 92.9252 1241.68 92.9463C1241.7 92.9687 1241.71 92.9933 1241.73 93.0166C1241.9 93.2114 1242.15 93.3379 1242.43 93.3379ZM1281.44 81.5261C1281.44 81.0264 1281.02 80.6198 1280.51 80.6198C1280 80.6198 1279.58 81.0264 1279.58 81.5261C1279.58 82.0257 1280 82.4323 1280.51 82.4323C1281.02 82.4323 1281.44 82.0257 1281.44 81.5261Z"/>
</mask>
<path d="M1257.78 110.795L1258.17 117.033C1258.2 117.55 1257.82 118.005 1257.3 118.082C1255.41 118.359 1253.48 118.5 1251.56 118.5C1249.65 118.5 1247.72 118.359 1245.83 118.082C1245.3 118.005 1244.93 117.55 1244.96 117.033L1245.29 111.677C1241.26 110.891 1237.48 109.371 1234.05 107.148L1230.39 111.163C1230.04 111.55 1229.44 111.612 1229.01 111.305C1225.91 109.088 1223.19 106.436 1220.9 103.423C1220.59 103.006 1220.65 102.425 1221.05 102.081L1225.18 98.5235C1222.89 95.1861 1221.33 91.5191 1220.52 87.5987L1215.01 87.921C1214.48 87.9525 1214.01 87.5844 1213.93 87.0723C1213.64 85.2408 1213.5 83.3658 1213.5 81.4989C1213.5 79.6323 1213.64 77.7573 1213.93 75.9255C1214.01 75.4134 1214.48 75.037 1215.01 75.0768L1220.52 75.3991C1221.33 71.48 1222.89 67.8127 1225.18 64.4753L1221.05 60.9166C1220.65 60.5732 1220.59 59.9915 1220.9 59.5751C1223.18 56.565 1225.91 53.9132 1229.01 51.6928C1229.44 51.3858 1230.04 51.448 1230.39 51.8344L1234.05 55.8498C1237.51 53.619 1241.42 52.0541 1245.48 51.2839L1245.04 45.9743C1245 45.4495 1245.38 44.9818 1245.92 44.9043C1249.64 44.3652 1253.49 44.3652 1257.21 44.9043C1257.75 44.9818 1258.13 45.4496 1258.09 45.9743L1257.57 52.1893C1257.52 52.7401 1257.02 53.1503 1256.46 53.105C1255.89 53.0601 1255.47 52.5776 1255.52 52.0273L1255.96 46.7572C1253.05 46.4128 1250.08 46.4128 1247.17 46.7572L1247.61 52.0268C1247.66 52.546 1247.28 53.0109 1246.75 53.0949C1242.36 53.7915 1238.12 55.4843 1234.48 57.9899C1234.05 58.2849 1233.46 58.2181 1233.11 57.8373L1229.48 53.8537C1227.1 55.6511 1224.97 57.7247 1223.12 60.034L1227.22 63.565C1227.61 63.9035 1227.68 64.4749 1227.38 64.8912C1224.81 68.4236 1223.12 72.3693 1222.38 76.6188C1222.29 77.1218 1221.82 77.4795 1221.3 77.4485L1215.84 77.1288C1215.65 78.5723 1215.56 80.0384 1215.56 81.499C1215.56 82.9599 1215.65 84.4259 1215.84 85.8692L1221.3 85.5495C1221.82 85.5157 1222.29 85.8767 1222.38 86.3793C1223.12 90.6301 1224.81 94.5761 1227.38 98.1078C1227.68 98.5242 1227.61 99.0954 1227.22 99.434L1223.12 102.964C1224.97 105.276 1227.11 107.349 1229.48 109.144L1233.11 105.161C1233.46 104.779 1234.05 104.713 1234.48 105.008C1238.11 107.508 1242.17 109.143 1246.54 109.869C1247.06 109.955 1247.43 110.406 1247.4 110.915L1247.07 116.229C1250.04 116.589 1253.09 116.589 1256.06 116.229L1255.73 110.915C1255.7 110.363 1256.13 109.89 1256.7 109.857C1257.26 109.827 1257.75 110.244 1257.78 110.795ZM1279.87 67.5195C1281.52 67.5195 1282.86 68.8234 1282.86 70.4259C1282.86 72.0285 1281.52 73.3323 1279.87 73.3323C1279.49 73.3323 1279.13 73.2564 1278.8 73.131L1276 75.947C1275.8 76.142 1275.54 76.2524 1275.26 76.2524H1260.97C1260.4 76.2524 1259.94 75.8048 1259.94 75.2524C1259.94 74.7 1260.4 74.2524 1260.97 74.2524H1274.82L1277.25 71.8052C1277.02 71.3928 1276.88 70.9277 1276.88 70.4261C1276.88 68.8232 1278.22 67.5195 1279.87 67.5195ZM1278.93 70.4259C1278.93 70.9256 1279.35 71.3321 1279.87 71.3321C1280.38 71.3321 1280.8 70.9256 1280.8 70.4259C1280.8 69.9263 1280.38 69.5197 1279.87 69.5197C1279.35 69.5196 1278.93 69.9261 1278.93 70.4259ZM1268.7 64.8892L1272.51 59.5583C1272.12 59.0691 1271.89 58.4651 1271.89 57.8029C1271.89 56.2003 1273.23 54.8965 1274.87 54.8965C1276.52 54.8965 1277.86 56.2003 1277.86 57.8029C1277.86 59.4054 1276.52 60.7092 1274.87 60.7092C1274.66 60.7092 1274.45 60.6835 1274.24 60.6403L1270.08 66.4604C1269.89 66.729 1269.57 66.8895 1269.23 66.8895H1257.92C1257.35 66.8895 1256.89 66.4419 1256.89 65.8895C1256.89 65.3371 1257.35 64.8895 1257.92 64.8895L1268.7 64.8892ZM1273.94 57.8029C1273.94 58.3025 1274.36 58.7091 1274.87 58.7091C1275.39 58.7091 1275.81 58.3025 1275.81 57.8029C1275.81 57.3032 1275.39 56.8967 1274.87 56.8967C1274.36 56.8965 1273.94 57.3031 1273.94 57.8029ZM1277.62 105.196C1277.62 106.798 1276.28 108.102 1274.63 108.102C1272.98 108.102 1271.64 106.798 1271.64 105.196C1271.64 104.412 1271.96 103.703 1272.48 103.179L1268.69 97.8852H1257.92C1257.35 97.8852 1256.89 97.4376 1256.89 96.8852C1256.89 96.3328 1257.35 95.8852 1257.92 95.8852H1269.23C1269.57 95.8852 1269.89 96.0456 1270.08 96.3143L1274.37 102.315C1274.46 102.307 1274.54 102.289 1274.63 102.289C1276.28 102.289 1277.62 103.593 1277.62 105.196ZM1275.56 105.196C1275.56 104.696 1275.14 104.289 1274.63 104.289C1274.11 104.289 1273.69 104.696 1273.69 105.196C1273.69 105.695 1274.11 106.102 1274.63 106.102C1275.14 106.102 1275.56 105.695 1275.56 105.196ZM1282.61 92.8506C1282.61 94.4532 1281.27 95.757 1279.62 95.757C1277.97 95.757 1276.63 94.4532 1276.63 92.8506C1276.63 92.2267 1276.84 91.6518 1277.18 91.1777L1274.82 88.8004H1260.97C1260.4 88.8004 1259.94 88.3528 1259.94 87.8004C1259.94 87.248 1260.4 86.8004 1260.97 86.8004H1275.26C1275.54 86.8004 1275.8 86.9109 1276 87.1058L1278.91 90.0363C1279.14 89.9817 1279.37 89.9444 1279.62 89.9444C1281.27 89.9443 1282.61 91.2479 1282.61 92.8506ZM1280.55 92.8506C1280.55 92.351 1280.13 91.9444 1279.62 91.9444C1279.11 91.9444 1278.69 92.351 1278.69 92.8506C1278.69 93.3503 1279.11 93.7569 1279.62 93.7569C1280.13 93.7569 1280.55 93.3503 1280.55 92.8506ZM1283.5 81.5261C1283.5 83.1286 1282.16 84.4324 1280.51 84.4324C1279.22 84.4324 1278.14 83.6352 1277.71 82.5258H1255.16V100.204C1255.16 103.826 1252.13 106.773 1248.41 106.773C1245.68 106.773 1243.27 105.218 1242.21 102.835C1242.17 102.836 1242.13 102.837 1242.08 102.837C1238.36 102.837 1235.33 99.8896 1235.33 96.2674C1235.33 96.0939 1235.33 95.9203 1235.35 95.7475C1233.74 95.4353 1232.22 94.6326 1230.98 93.4249C1229.39 91.8756 1228.51 89.8161 1228.51 87.6253C1228.51 85.4345 1229.39 83.3749 1230.98 81.826C1231.1 81.7098 1231.23 81.6079 1231.36 81.4992C1231.23 81.3903 1231.1 81.2884 1230.98 81.1724C1229.39 79.6232 1228.51 77.5636 1228.51 75.3731C1228.51 73.1823 1229.39 71.1227 1230.98 69.5735C1232.22 68.3658 1233.74 67.563 1235.35 67.2509C1235.33 67.078 1235.33 66.9046 1235.33 66.731C1235.33 63.1085 1238.36 60.1615 1242.08 60.1615C1242.13 60.1615 1242.17 60.1618 1242.21 60.1628C1243.27 57.7799 1245.68 56.2252 1248.41 56.2252C1252.13 56.2252 1255.16 59.1721 1255.16 62.7944V80.5259H1277.71C1278.14 79.4168 1279.22 78.62 1280.51 78.62C1282.16 78.6198 1283.5 79.9235 1283.5 81.5261ZM1232.44 79.7581C1232.72 80.0356 1233.05 80.2792 1233.39 80.499H1253.11V62.7941C1253.11 60.2745 1251 58.225 1248.41 58.225C1246.68 58.225 1245.14 59.1203 1244.32 60.5297C1245.15 60.813 1245.92 61.2544 1246.59 61.8364C1246.6 61.8432 1246.6 61.8529 1246.61 61.8598C1246.99 61.6858 1247.42 61.5815 1247.87 61.5815C1249.51 61.5815 1250.86 62.8853 1250.86 64.4874C1250.86 66.09 1249.51 67.3938 1247.87 67.3938C1246.22 67.3938 1244.88 66.09 1244.88 64.4874C1244.88 64.0541 1244.98 63.6465 1245.16 63.2768C1244.3 62.5582 1243.22 62.1612 1242.08 62.1612C1239.49 62.1612 1237.38 64.2111 1237.38 66.7307C1237.38 66.8749 1237.4 67.0183 1237.41 67.1615C1238.63 67.284 1239.8 67.6579 1240.85 68.27C1241.31 67.9875 1241.85 67.8176 1242.43 67.8176C1244.08 67.8176 1245.42 69.1214 1245.42 70.7239C1245.42 72.3262 1244.08 73.6299 1242.43 73.6299C1240.78 73.6299 1239.44 72.3261 1239.44 70.7239C1239.44 70.43 1239.5 70.1516 1239.58 69.8839C1238.66 69.388 1237.63 69.1172 1236.55 69.1139C1235.06 69.1935 1233.6 69.857 1232.44 70.9873C1231.23 72.1588 1230.57 73.7162 1230.57 75.3728C1230.57 77.0293 1231.23 78.5866 1232.44 79.7581ZM1241.5 70.7241C1241.5 71.2237 1241.92 71.63 1242.43 71.63C1242.95 71.63 1243.36 71.2237 1243.36 70.7241C1243.36 70.2244 1242.95 69.8179 1242.43 69.8179C1241.92 69.8177 1241.5 70.2243 1241.5 70.7241ZM1247.87 65.3938C1248.38 65.3938 1248.8 64.9872 1248.8 64.4876C1248.8 63.9879 1248.38 63.5816 1247.87 63.5816C1247.35 63.5816 1246.93 63.9879 1246.93 64.4876C1246.93 64.9872 1247.35 65.3938 1247.87 65.3938ZM1253.11 100.204V82.499H1233.37C1233.03 82.7166 1232.72 82.9651 1232.44 83.2399C1231.23 84.4112 1230.57 85.9685 1230.57 87.6251C1230.57 89.2817 1231.23 90.8391 1232.44 92.0106C1233.6 93.1409 1235.06 93.8044 1236.55 93.884C1237.61 93.8807 1238.63 93.62 1239.54 93.1388C1239.48 92.9112 1239.44 92.6768 1239.44 92.4315C1239.44 90.8289 1240.78 89.5251 1242.43 89.5251C1244.08 89.5251 1245.42 90.8289 1245.42 92.4315C1245.42 94.0341 1244.08 95.3379 1242.43 95.3379C1241.79 95.3379 1241.2 95.1364 1240.71 94.8008C1239.7 95.3682 1238.58 95.7192 1237.41 95.8365C1237.4 95.9797 1237.38 96.1231 1237.38 96.2674C1237.38 98.787 1239.49 100.836 1242.08 100.836C1243.19 100.836 1244.26 100.455 1245.1 99.7652C1244.96 99.4261 1244.88 99.0564 1244.88 98.6677C1244.88 97.0652 1246.22 95.7614 1247.87 95.7614C1249.51 95.7614 1250.86 97.0652 1250.86 98.6677C1250.86 100.27 1249.51 101.574 1247.87 101.574C1247.37 101.574 1246.91 101.445 1246.5 101.236C1245.85 101.779 1245.11 102.198 1244.32 102.468C1245.14 103.878 1246.68 104.773 1248.41 104.773C1251 104.773 1253.11 102.724 1253.11 100.204ZM1247.87 99.5741C1248.38 99.5741 1248.8 99.1675 1248.8 98.6679C1248.8 98.1682 1248.38 97.7617 1247.87 97.7617C1247.35 97.7617 1246.93 98.1682 1246.93 98.6679C1246.93 99.1675 1247.35 99.5741 1247.87 99.5741ZM1242.43 93.3379C1242.95 93.3379 1243.36 92.9313 1243.36 92.4316C1243.36 91.932 1242.95 91.5254 1242.43 91.5254C1241.92 91.5254 1241.5 91.932 1241.5 92.4316C1241.5 92.5993 1241.55 92.7544 1241.63 92.8892C1241.65 92.9087 1241.67 92.9252 1241.68 92.9463C1241.7 92.9687 1241.71 92.9933 1241.73 93.0166C1241.9 93.2114 1242.15 93.3379 1242.43 93.3379ZM1281.44 81.5261C1281.44 81.0264 1281.02 80.6198 1280.51 80.6198C1280 80.6198 1279.58 81.0264 1279.58 81.5261C1279.58 82.0257 1280 82.4323 1280.51 82.4323C1281.02 82.4323 1281.44 82.0257 1281.44 81.5261Z" fill="white"/>
<path d="M1257.78 110.795L1258.17 117.033C1258.2 117.55 1257.82 118.005 1257.3 118.082C1255.41 118.359 1253.48 118.5 1251.56 118.5C1249.65 118.5 1247.72 118.359 1245.83 118.082C1245.3 118.005 1244.93 117.55 1244.96 117.033L1245.29 111.677C1241.26 110.891 1237.48 109.371 1234.05 107.148L1230.39 111.163C1230.04 111.55 1229.44 111.612 1229.01 111.305C1225.91 109.088 1223.19 106.436 1220.9 103.423C1220.59 103.006 1220.65 102.425 1221.05 102.081L1225.18 98.5235C1222.89 95.1861 1221.33 91.5191 1220.52 87.5987L1215.01 87.921C1214.48 87.9525 1214.01 87.5844 1213.93 87.0723C1213.64 85.2408 1213.5 83.3658 1213.5 81.4989C1213.5 79.6323 1213.64 77.7573 1213.93 75.9255C1214.01 75.4134 1214.48 75.037 1215.01 75.0768L1220.52 75.3991C1221.33 71.48 1222.89 67.8127 1225.18 64.4753L1221.05 60.9166C1220.65 60.5732 1220.59 59.9915 1220.9 59.5751C1223.18 56.565 1225.91 53.9132 1229.01 51.6928C1229.44 51.3858 1230.04 51.448 1230.39 51.8344L1234.05 55.8498C1237.51 53.619 1241.42 52.0541 1245.48 51.2839L1245.04 45.9743C1245 45.4495 1245.38 44.9818 1245.92 44.9043C1249.64 44.3652 1253.49 44.3652 1257.21 44.9043C1257.75 44.9818 1258.13 45.4496 1258.09 45.9743L1257.57 52.1893C1257.52 52.7401 1257.02 53.1503 1256.46 53.105C1255.89 53.0601 1255.47 52.5776 1255.52 52.0273L1255.96 46.7572C1253.05 46.4128 1250.08 46.4128 1247.17 46.7572L1247.61 52.0268C1247.66 52.546 1247.28 53.0109 1246.75 53.0949C1242.36 53.7915 1238.12 55.4843 1234.48 57.9899C1234.05 58.2849 1233.46 58.2181 1233.11 57.8373L1229.48 53.8537C1227.1 55.6511 1224.97 57.7247 1223.12 60.034L1227.22 63.565C1227.61 63.9035 1227.68 64.4749 1227.38 64.8912C1224.81 68.4236 1223.12 72.3693 1222.38 76.6188C1222.29 77.1218 1221.82 77.4795 1221.3 77.4485L1215.84 77.1288C1215.65 78.5723 1215.56 80.0384 1215.56 81.499C1215.56 82.9599 1215.65 84.4259 1215.84 85.8692L1221.3 85.5495C1221.82 85.5157 1222.29 85.8767 1222.38 86.3793C1223.12 90.6301 1224.81 94.5761 1227.38 98.1078C1227.68 98.5242 1227.61 99.0954 1227.22 99.434L1223.12 102.964C1224.97 105.276 1227.11 107.349 1229.48 109.144L1233.11 105.161C1233.46 104.779 1234.05 104.713 1234.48 105.008C1238.11 107.508 1242.17 109.143 1246.54 109.869C1247.06 109.955 1247.43 110.406 1247.4 110.915L1247.07 116.229C1250.04 116.589 1253.09 116.589 1256.06 116.229L1255.73 110.915C1255.7 110.363 1256.13 109.89 1256.7 109.857C1257.26 109.827 1257.75 110.244 1257.78 110.795ZM1279.87 67.5195C1281.52 67.5195 1282.86 68.8234 1282.86 70.4259C1282.86 72.0285 1281.52 73.3323 1279.87 73.3323C1279.49 73.3323 1279.13 73.2564 1278.8 73.131L1276 75.947C1275.8 76.142 1275.54 76.2524 1275.26 76.2524H1260.97C1260.4 76.2524 1259.94 75.8048 1259.94 75.2524C1259.94 74.7 1260.4 74.2524 1260.97 74.2524H1274.82L1277.25 71.8052C1277.02 71.3928 1276.88 70.9277 1276.88 70.4261C1276.88 68.8232 1278.22 67.5195 1279.87 67.5195ZM1278.93 70.4259C1278.93 70.9256 1279.35 71.3321 1279.87 71.3321C1280.38 71.3321 1280.8 70.9256 1280.8 70.4259C1280.8 69.9263 1280.38 69.5197 1279.87 69.5197C1279.35 69.5196 1278.93 69.9261 1278.93 70.4259ZM1268.7 64.8892L1272.51 59.5583C1272.12 59.0691 1271.89 58.4651 1271.89 57.8029C1271.89 56.2003 1273.23 54.8965 1274.87 54.8965C1276.52 54.8965 1277.86 56.2003 1277.86 57.8029C1277.86 59.4054 1276.52 60.7092 1274.87 60.7092C1274.66 60.7092 1274.45 60.6835 1274.24 60.6403L1270.08 66.4604C1269.89 66.729 1269.57 66.8895 1269.23 66.8895H1257.92C1257.35 66.8895 1256.89 66.4419 1256.89 65.8895C1256.89 65.3371 1257.35 64.8895 1257.92 64.8895L1268.7 64.8892ZM1273.94 57.8029C1273.94 58.3025 1274.36 58.7091 1274.87 58.7091C1275.39 58.7091 1275.81 58.3025 1275.81 57.8029C1275.81 57.3032 1275.39 56.8967 1274.87 56.8967C1274.36 56.8965 1273.94 57.3031 1273.94 57.8029ZM1277.62 105.196C1277.62 106.798 1276.28 108.102 1274.63 108.102C1272.98 108.102 1271.64 106.798 1271.64 105.196C1271.64 104.412 1271.96 103.703 1272.48 103.179L1268.69 97.8852H1257.92C1257.35 97.8852 1256.89 97.4376 1256.89 96.8852C1256.89 96.3328 1257.35 95.8852 1257.92 95.8852H1269.23C1269.57 95.8852 1269.89 96.0456 1270.08 96.3143L1274.37 102.315C1274.46 102.307 1274.54 102.289 1274.63 102.289C1276.28 102.289 1277.62 103.593 1277.62 105.196ZM1275.56 105.196C1275.56 104.696 1275.14 104.289 1274.63 104.289C1274.11 104.289 1273.69 104.696 1273.69 105.196C1273.69 105.695 1274.11 106.102 1274.63 106.102C1275.14 106.102 1275.56 105.695 1275.56 105.196ZM1282.61 92.8506C1282.61 94.4532 1281.27 95.757 1279.62 95.757C1277.97 95.757 1276.63 94.4532 1276.63 92.8506C1276.63 92.2267 1276.84 91.6518 1277.18 91.1777L1274.82 88.8004H1260.97C1260.4 88.8004 1259.94 88.3528 1259.94 87.8004C1259.94 87.248 1260.4 86.8004 1260.97 86.8004H1275.26C1275.54 86.8004 1275.8 86.9109 1276 87.1058L1278.91 90.0363C1279.14 89.9817 1279.37 89.9444 1279.62 89.9444C1281.27 89.9443 1282.61 91.2479 1282.61 92.8506ZM1280.55 92.8506C1280.55 92.351 1280.13 91.9444 1279.62 91.9444C1279.11 91.9444 1278.69 92.351 1278.69 92.8506C1278.69 93.3503 1279.11 93.7569 1279.62 93.7569C1280.13 93.7569 1280.55 93.3503 1280.55 92.8506ZM1283.5 81.5261C1283.5 83.1286 1282.16 84.4324 1280.51 84.4324C1279.22 84.4324 1278.14 83.6352 1277.71 82.5258H1255.16V100.204C1255.16 103.826 1252.13 106.773 1248.41 106.773C1245.68 106.773 1243.27 105.218 1242.21 102.835C1242.17 102.836 1242.13 102.837 1242.08 102.837C1238.36 102.837 1235.33 99.8896 1235.33 96.2674C1235.33 96.0939 1235.33 95.9203 1235.35 95.7475C1233.74 95.4353 1232.22 94.6326 1230.98 93.4249C1229.39 91.8756 1228.51 89.8161 1228.51 87.6253C1228.51 85.4345 1229.39 83.3749 1230.98 81.826C1231.1 81.7098 1231.23 81.6079 1231.36 81.4992C1231.23 81.3903 1231.1 81.2884 1230.98 81.1724C1229.39 79.6232 1228.51 77.5636 1228.51 75.3731C1228.51 73.1823 1229.39 71.1227 1230.98 69.5735C1232.22 68.3658 1233.74 67.563 1235.35 67.2509C1235.33 67.078 1235.33 66.9046 1235.33 66.731C1235.33 63.1085 1238.36 60.1615 1242.08 60.1615C1242.13 60.1615 1242.17 60.1618 1242.21 60.1628C1243.27 57.7799 1245.68 56.2252 1248.41 56.2252C1252.13 56.2252 1255.16 59.1721 1255.16 62.7944V80.5259H1277.71C1278.14 79.4168 1279.22 78.62 1280.51 78.62C1282.16 78.6198 1283.5 79.9235 1283.5 81.5261ZM1232.44 79.7581C1232.72 80.0356 1233.05 80.2792 1233.39 80.499H1253.11V62.7941C1253.11 60.2745 1251 58.225 1248.41 58.225C1246.68 58.225 1245.14 59.1203 1244.32 60.5297C1245.15 60.813 1245.92 61.2544 1246.59 61.8364C1246.6 61.8432 1246.6 61.8529 1246.61 61.8598C1246.99 61.6858 1247.42 61.5815 1247.87 61.5815C1249.51 61.5815 1250.86 62.8853 1250.86 64.4874C1250.86 66.09 1249.51 67.3938 1247.87 67.3938C1246.22 67.3938 1244.88 66.09 1244.88 64.4874C1244.88 64.0541 1244.98 63.6465 1245.16 63.2768C1244.3 62.5582 1243.22 62.1612 1242.08 62.1612C1239.49 62.1612 1237.38 64.2111 1237.38 66.7307C1237.38 66.8749 1237.4 67.0183 1237.41 67.1615C1238.63 67.284 1239.8 67.6579 1240.85 68.27C1241.31 67.9875 1241.85 67.8176 1242.43 67.8176C1244.08 67.8176 1245.42 69.1214 1245.42 70.7239C1245.42 72.3262 1244.08 73.6299 1242.43 73.6299C1240.78 73.6299 1239.44 72.3261 1239.44 70.7239C1239.44 70.43 1239.5 70.1516 1239.58 69.8839C1238.66 69.388 1237.63 69.1172 1236.55 69.1139C1235.06 69.1935 1233.6 69.857 1232.44 70.9873C1231.23 72.1588 1230.57 73.7162 1230.57 75.3728C1230.57 77.0293 1231.23 78.5866 1232.44 79.7581ZM1241.5 70.7241C1241.5 71.2237 1241.92 71.63 1242.43 71.63C1242.95 71.63 1243.36 71.2237 1243.36 70.7241C1243.36 70.2244 1242.95 69.8179 1242.43 69.8179C1241.92 69.8177 1241.5 70.2243 1241.5 70.7241ZM1247.87 65.3938C1248.38 65.3938 1248.8 64.9872 1248.8 64.4876C1248.8 63.9879 1248.38 63.5816 1247.87 63.5816C1247.35 63.5816 1246.93 63.9879 1246.93 64.4876C1246.93 64.9872 1247.35 65.3938 1247.87 65.3938ZM1253.11 100.204V82.499H1233.37C1233.03 82.7166 1232.72 82.9651 1232.44 83.2399C1231.23 84.4112 1230.57 85.9685 1230.57 87.6251C1230.57 89.2817 1231.23 90.8391 1232.44 92.0106C1233.6 93.1409 1235.06 93.8044 1236.55 93.884C1237.61 93.8807 1238.63 93.62 1239.54 93.1388C1239.48 92.9112 1239.44 92.6768 1239.44 92.4315C1239.44 90.8289 1240.78 89.5251 1242.43 89.5251C1244.08 89.5251 1245.42 90.8289 1245.42 92.4315C1245.42 94.0341 1244.08 95.3379 1242.43 95.3379C1241.79 95.3379 1241.2 95.1364 1240.71 94.8008C1239.7 95.3682 1238.58 95.7192 1237.41 95.8365C1237.4 95.9797 1237.38 96.1231 1237.38 96.2674C1237.38 98.787 1239.49 100.836 1242.08 100.836C1243.19 100.836 1244.26 100.455 1245.1 99.7652C1244.96 99.4261 1244.88 99.0564 1244.88 98.6677C1244.88 97.0652 1246.22 95.7614 1247.87 95.7614C1249.51 95.7614 1250.86 97.0652 1250.86 98.6677C1250.86 100.27 1249.51 101.574 1247.87 101.574C1247.37 101.574 1246.91 101.445 1246.5 101.236C1245.85 101.779 1245.11 102.198 1244.32 102.468C1245.14 103.878 1246.68 104.773 1248.41 104.773C1251 104.773 1253.11 102.724 1253.11 100.204ZM1247.87 99.5741C1248.38 99.5741 1248.8 99.1675 1248.8 98.6679C1248.8 98.1682 1248.38 97.7617 1247.87 97.7617C1247.35 97.7617 1246.93 98.1682 1246.93 98.6679C1246.93 99.1675 1247.35 99.5741 1247.87 99.5741ZM1242.43 93.3379C1242.95 93.3379 1243.36 92.9313 1243.36 92.4316C1243.36 91.932 1242.95 91.5254 1242.43 91.5254C1241.92 91.5254 1241.5 91.932 1241.5 92.4316C1241.5 92.5993 1241.55 92.7544 1241.63 92.8892C1241.65 92.9087 1241.67 92.9252 1241.68 92.9463C1241.7 92.9687 1241.71 92.9933 1241.73 93.0166C1241.9 93.2114 1242.15 93.3379 1242.43 93.3379ZM1281.44 81.5261C1281.44 81.0264 1281.02 80.6198 1280.51 80.6198C1280 80.6198 1279.58 81.0264 1279.58 81.5261C1279.58 82.0257 1280 82.4323 1280.51 82.4323C1281.02 82.4323 1281.44 82.0257 1281.44 81.5261Z" stroke="white" mask="url(#path-5-outside-1_3_82)"/>
</svg>
