<svg width="1363" height="163" viewBox="0 0 1363 163" fill="none" xmlns="http://www.w3.org/2000/svg">
<g clip-path="url(#clip0_475_354)">
<path d="M0 15C0 6.71573 6.71573 0 15 0H37V163H15C6.71573 163 0 156.284 0 148V15Z" fill="#424242"/>
<path d="M1134 0H37V163H1134V0Z" fill="#F0F0F0"/>
<path d="M101.906 55.9219L94.3945 53.2383V50.0859L104.602 54.375V56.6367L101.906 55.9219ZM94.3945 58.1719L101.918 55.4297L104.602 54.7852V57.0352L94.3945 61.3242V58.1719ZM121.781 58.5352C121.781 58.2305 121.734 57.957 121.641 57.7148C121.555 57.4648 121.391 57.2383 121.148 57.0352C120.906 56.8242 120.566 56.6172 120.129 56.4141C119.691 56.2109 119.125 56 118.43 55.7812C117.656 55.5312 116.922 55.25 116.227 54.9375C115.539 54.625 114.93 54.2617 114.398 53.8477C113.875 53.4258 113.461 52.9375 113.156 52.3828C112.859 51.8281 112.711 51.1836 112.711 50.4492C112.711 49.7383 112.867 49.0938 113.18 48.5156C113.492 47.9297 113.93 47.4297 114.492 47.0156C115.055 46.5938 115.719 46.2695 116.484 46.043C117.258 45.8164 118.105 45.7031 119.027 45.7031C120.285 45.7031 121.383 45.9297 122.32 46.3828C123.258 46.8359 123.984 47.457 124.5 48.2461C125.023 49.0352 125.285 49.9375 125.285 50.9531H121.793C121.793 50.4531 121.688 50.0156 121.477 49.6406C121.273 49.2578 120.961 48.957 120.539 48.7383C120.125 48.5195 119.602 48.4102 118.969 48.4102C118.359 48.4102 117.852 48.5039 117.445 48.6914C117.039 48.8711 116.734 49.1172 116.531 49.4297C116.328 49.7344 116.227 50.0781 116.227 50.4609C116.227 50.75 116.297 51.0117 116.438 51.2461C116.586 51.4805 116.805 51.6992 117.094 51.9023C117.383 52.1055 117.738 52.2969 118.16 52.4766C118.582 52.6562 119.07 52.832 119.625 53.0039C120.555 53.2852 121.371 53.6016 122.074 53.9531C122.785 54.3047 123.379 54.6992 123.855 55.1367C124.332 55.5742 124.691 56.0703 124.934 56.625C125.176 57.1797 125.297 57.8086 125.297 58.5117C125.297 59.2539 125.152 59.918 124.863 60.5039C124.574 61.0898 124.156 61.5859 123.609 61.9922C123.062 62.3984 122.41 62.707 121.652 62.918C120.895 63.1289 120.047 63.2344 119.109 63.2344C118.266 63.2344 117.434 63.125 116.613 62.9062C115.793 62.6797 115.047 62.3398 114.375 61.8867C113.711 61.4336 113.18 60.8555 112.781 60.1523C112.383 59.4492 112.184 58.6172 112.184 57.6562H115.711C115.711 58.1875 115.793 58.6367 115.957 59.0039C116.121 59.3711 116.352 59.668 116.648 59.8945C116.953 60.1211 117.312 60.2852 117.727 60.3867C118.148 60.4883 118.609 60.5391 119.109 60.5391C119.719 60.5391 120.219 60.4531 120.609 60.2812C121.008 60.1094 121.301 59.8711 121.488 59.5664C121.684 59.2617 121.781 58.918 121.781 58.5352ZM133.312 63.2344C132.328 63.2344 131.445 63.0781 130.664 62.7656C129.883 62.4453 129.219 62.0039 128.672 61.4414C128.133 60.8789 127.719 60.2266 127.43 59.4844C127.141 58.7344 126.996 57.9375 126.996 57.0938V56.625C126.996 55.6641 127.133 54.7852 127.406 53.9883C127.68 53.1914 128.07 52.5 128.578 51.9141C129.094 51.3281 129.719 50.8789 130.453 50.5664C131.188 50.2461 132.016 50.0859 132.938 50.0859C133.836 50.0859 134.633 50.2344 135.328 50.5312C136.023 50.8281 136.605 51.25 137.074 51.7969C137.551 52.3438 137.91 53 138.152 53.7656C138.395 54.5234 138.516 55.3672 138.516 56.2969V57.7031H128.438V55.4531H135.199V55.1953C135.199 54.7266 135.113 54.3086 134.941 53.9414C134.777 53.5664 134.527 53.2695 134.191 53.0508C133.855 52.832 133.426 52.7227 132.902 52.7227C132.457 52.7227 132.074 52.8203 131.754 53.0156C131.434 53.2109 131.172 53.4844 130.969 53.8359C130.773 54.1875 130.625 54.6016 130.523 55.0781C130.43 55.5469 130.383 56.0625 130.383 56.625V57.0938C130.383 57.6016 130.453 58.0703 130.594 58.5C130.742 58.9297 130.949 59.3008 131.215 59.6133C131.488 59.9258 131.816 60.168 132.199 60.3398C132.59 60.5117 133.031 60.5977 133.523 60.5977C134.133 60.5977 134.699 60.4805 135.223 60.2461C135.754 60.0039 136.211 59.6406 136.594 59.1562L138.234 60.9375C137.969 61.3203 137.605 61.6875 137.145 62.0391C136.691 62.3906 136.145 62.6797 135.504 62.9062C134.863 63.125 134.133 63.2344 133.312 63.2344ZM145.676 60.5977C146.09 60.5977 146.457 60.5195 146.777 60.3633C147.098 60.1992 147.348 59.9727 147.527 59.6836C147.715 59.3867 147.812 59.0391 147.82 58.6406H150.996C150.988 59.5312 150.75 60.3242 150.281 61.0195C149.812 61.707 149.184 62.25 148.395 62.6484C147.605 63.0391 146.723 63.2344 145.746 63.2344C144.762 63.2344 143.902 63.0703 143.168 62.7422C142.441 62.4141 141.836 61.9609 141.352 61.3828C140.867 60.7969 140.504 60.1172 140.262 59.3438C140.02 58.5625 139.898 57.7266 139.898 56.8359V56.4961C139.898 55.5977 140.02 54.7617 140.262 53.9883C140.504 53.207 140.867 52.5273 141.352 51.9492C141.836 51.3633 142.441 50.9062 143.168 50.5781C143.895 50.25 144.746 50.0859 145.723 50.0859C146.762 50.0859 147.672 50.2852 148.453 50.6836C149.242 51.082 149.859 51.6523 150.305 52.3945C150.758 53.1289 150.988 54 150.996 55.0078H147.82C147.812 54.5859 147.723 54.2031 147.551 53.8594C147.387 53.5156 147.145 53.2422 146.824 53.0391C146.512 52.8281 146.125 52.7227 145.664 52.7227C145.172 52.7227 144.77 52.8281 144.457 53.0391C144.145 53.2422 143.902 53.5234 143.73 53.8828C143.559 54.2344 143.438 54.6367 143.367 55.0898C143.305 55.5352 143.273 56.0039 143.273 56.4961V56.8359C143.273 57.3281 143.305 57.8008 143.367 58.2539C143.43 58.707 143.547 59.1094 143.719 59.4609C143.898 59.8125 144.145 60.0898 144.457 60.293C144.77 60.4961 145.176 60.5977 145.676 60.5977ZM160.453 59.9648V50.3203H163.828V63H160.652L160.453 59.9648ZM160.828 57.3633L161.824 57.3398C161.824 58.1836 161.727 58.9688 161.531 59.6953C161.336 60.4141 161.043 61.0391 160.652 61.5703C160.262 62.0938 159.77 62.5039 159.176 62.8008C158.582 63.0898 157.883 63.2344 157.078 63.2344C156.461 63.2344 155.891 63.1484 155.367 62.9766C154.852 62.7969 154.406 62.5195 154.031 62.1445C153.664 61.7617 153.375 61.2734 153.164 60.6797C152.961 60.0781 152.859 59.3555 152.859 58.5117V50.3203H156.234V58.5352C156.234 58.9102 156.277 59.2266 156.363 59.4844C156.457 59.7422 156.586 59.9531 156.75 60.1172C156.914 60.2812 157.105 60.3984 157.324 60.4688C157.551 60.5391 157.801 60.5742 158.074 60.5742C158.77 60.5742 159.316 60.4336 159.715 60.1523C160.121 59.8711 160.406 59.4883 160.57 59.0039C160.742 58.5117 160.828 57.9648 160.828 57.3633ZM169.781 53.0859V63H166.406V50.3203H169.582L169.781 53.0859ZM173.602 50.2383L173.543 53.3672C173.379 53.3438 173.18 53.3242 172.945 53.3086C172.719 53.2852 172.512 53.2734 172.324 53.2734C171.848 53.2734 171.434 53.3359 171.082 53.4609C170.738 53.5781 170.449 53.7539 170.215 53.9883C169.988 54.2227 169.816 54.5078 169.699 54.8438C169.59 55.1797 169.527 55.5625 169.512 55.9922L168.832 55.7812C168.832 54.9609 168.914 54.207 169.078 53.5195C169.242 52.8242 169.48 52.2188 169.793 51.7031C170.113 51.1875 170.504 50.7891 170.965 50.5078C171.426 50.2266 171.953 50.0859 172.547 50.0859C172.734 50.0859 172.926 50.1016 173.121 50.1328C173.316 50.1562 173.477 50.1914 173.602 50.2383ZM180.797 63.2344C179.812 63.2344 178.93 63.0781 178.148 62.7656C177.367 62.4453 176.703 62.0039 176.156 61.4414C175.617 60.8789 175.203 60.2266 174.914 59.4844C174.625 58.7344 174.48 57.9375 174.48 57.0938V56.625C174.48 55.6641 174.617 54.7852 174.891 53.9883C175.164 53.1914 175.555 52.5 176.062 51.9141C176.578 51.3281 177.203 50.8789 177.938 50.5664C178.672 50.2461 179.5 50.0859 180.422 50.0859C181.32 50.0859 182.117 50.2344 182.812 50.5312C183.508 50.8281 184.09 51.25 184.559 51.7969C185.035 52.3438 185.395 53 185.637 53.7656C185.879 54.5234 186 55.3672 186 56.2969V57.7031H175.922V55.4531H182.684V55.1953C182.684 54.7266 182.598 54.3086 182.426 53.9414C182.262 53.5664 182.012 53.2695 181.676 53.0508C181.34 52.832 180.91 52.7227 180.387 52.7227C179.941 52.7227 179.559 52.8203 179.238 53.0156C178.918 53.2109 178.656 53.4844 178.453 53.8359C178.258 54.1875 178.109 54.6016 178.008 55.0781C177.914 55.5469 177.867 56.0625 177.867 56.625V57.0938C177.867 57.6016 177.938 58.0703 178.078 58.5C178.227 58.9297 178.434 59.3008 178.699 59.6133C178.973 59.9258 179.301 60.168 179.684 60.3398C180.074 60.5117 180.516 60.5977 181.008 60.5977C181.617 60.5977 182.184 60.4805 182.707 60.2461C183.238 60.0039 183.695 59.6406 184.078 59.1562L185.719 60.9375C185.453 61.3203 185.09 61.6875 184.629 62.0391C184.176 62.3906 183.629 62.6797 182.988 62.9062C182.348 63.125 181.617 63.2344 180.797 63.2344ZM194.109 45.9375H200.473C201.777 45.9375 202.898 46.1328 203.836 46.5234C204.781 46.9141 205.508 47.4922 206.016 48.2578C206.523 49.0234 206.777 49.9648 206.777 51.082C206.777 51.9961 206.621 52.7812 206.309 53.4375C206.004 54.0859 205.57 54.6289 205.008 55.0664C204.453 55.4961 203.801 55.8398 203.051 56.0977L201.938 56.6836H196.406L196.383 53.9414H200.496C201.113 53.9414 201.625 53.832 202.031 53.6133C202.438 53.3945 202.742 53.0898 202.945 52.6992C203.156 52.3086 203.262 51.8555 203.262 51.3398C203.262 50.793 203.16 50.3203 202.957 49.9219C202.754 49.5234 202.445 49.2188 202.031 49.0078C201.617 48.7969 201.098 48.6914 200.473 48.6914H197.625V63H194.109V45.9375ZM203.648 63L199.758 55.3945L203.473 55.3711L207.41 62.8359V63H203.648ZM215.109 63.2344C214.125 63.2344 213.242 63.0781 212.461 62.7656C211.68 62.4453 211.016 62.0039 210.469 61.4414C209.93 60.8789 209.516 60.2266 209.227 59.4844C208.938 58.7344 208.793 57.9375 208.793 57.0938V56.625C208.793 55.6641 208.93 54.7852 209.203 53.9883C209.477 53.1914 209.867 52.5 210.375 51.9141C210.891 51.3281 211.516 50.8789 212.25 50.5664C212.984 50.2461 213.812 50.0859 214.734 50.0859C215.633 50.0859 216.43 50.2344 217.125 50.5312C217.82 50.8281 218.402 51.25 218.871 51.7969C219.348 52.3438 219.707 53 219.949 53.7656C220.191 54.5234 220.312 55.3672 220.312 56.2969V57.7031H210.234V55.4531H216.996V55.1953C216.996 54.7266 216.91 54.3086 216.738 53.9414C216.574 53.5664 216.324 53.2695 215.988 53.0508C215.652 52.832 215.223 52.7227 214.699 52.7227C214.254 52.7227 213.871 52.8203 213.551 53.0156C213.23 53.2109 212.969 53.4844 212.766 53.8359C212.57 54.1875 212.422 54.6016 212.32 55.0781C212.227 55.5469 212.18 56.0625 212.18 56.625V57.0938C212.18 57.6016 212.25 58.0703 212.391 58.5C212.539 58.9297 212.746 59.3008 213.012 59.6133C213.285 59.9258 213.613 60.168 213.996 60.3398C214.387 60.5117 214.828 60.5977 215.32 60.5977C215.93 60.5977 216.496 60.4805 217.02 60.2461C217.551 60.0039 218.008 59.6406 218.391 59.1562L220.031 60.9375C219.766 61.3203 219.402 61.6875 218.941 62.0391C218.488 62.3906 217.941 62.6797 217.301 62.9062C216.66 63.125 215.93 63.2344 215.109 63.2344ZM225.609 52.9453V63H222.223V50.3203H225.398L225.609 52.9453ZM225.141 56.2148H224.203C224.203 55.332 224.309 54.5195 224.52 53.7773C224.738 53.0273 225.055 52.3789 225.469 51.832C225.891 51.2773 226.41 50.8477 227.027 50.543C227.645 50.2383 228.359 50.0859 229.172 50.0859C229.734 50.0859 230.25 50.1719 230.719 50.3438C231.188 50.5078 231.59 50.7695 231.926 51.1289C232.27 51.4805 232.535 51.9414 232.723 52.5117C232.91 53.0742 233.004 53.75 233.004 54.5391V63H229.629V54.9141C229.629 54.3359 229.551 53.8906 229.395 53.5781C229.238 53.2656 229.016 53.0469 228.727 52.9219C228.445 52.7969 228.105 52.7344 227.707 52.7344C227.27 52.7344 226.887 52.8242 226.559 53.0039C226.238 53.1836 225.973 53.4336 225.762 53.7539C225.551 54.0664 225.395 54.4336 225.293 54.8555C225.191 55.2773 225.141 55.7305 225.141 56.2148ZM232.688 55.8281L231.48 55.9805C231.48 55.1523 231.582 54.3828 231.785 53.6719C231.996 52.9609 232.305 52.3359 232.711 51.7969C233.125 51.2578 233.637 50.8398 234.246 50.543C234.855 50.2383 235.559 50.0859 236.355 50.0859C236.965 50.0859 237.52 50.1758 238.02 50.3555C238.52 50.5273 238.945 50.8047 239.297 51.1875C239.656 51.5625 239.93 52.0547 240.117 52.6641C240.312 53.2734 240.41 54.0195 240.41 54.9023V63H237.023V54.9023C237.023 54.3164 236.945 53.8711 236.789 53.5664C236.641 53.2539 236.422 53.0391 236.133 52.9219C235.852 52.7969 235.516 52.7344 235.125 52.7344C234.719 52.7344 234.363 52.8164 234.059 52.9805C233.754 53.1367 233.5 53.3555 233.297 53.6367C233.094 53.918 232.941 54.2461 232.84 54.6211C232.738 54.9883 232.688 55.3906 232.688 55.8281ZM242.484 56.7891V56.543C242.484 55.6133 242.617 54.7578 242.883 53.9766C243.148 53.1875 243.535 52.5039 244.043 51.9258C244.551 51.3477 245.176 50.8984 245.918 50.5781C246.66 50.25 247.512 50.0859 248.473 50.0859C249.434 50.0859 250.289 50.25 251.039 50.5781C251.789 50.8984 252.418 51.3477 252.926 51.9258C253.441 52.5039 253.832 53.1875 254.098 53.9766C254.363 54.7578 254.496 55.6133 254.496 56.543V56.7891C254.496 57.7109 254.363 58.5664 254.098 59.3555C253.832 60.1367 253.441 60.8203 252.926 61.4062C252.418 61.9844 251.793 62.4336 251.051 62.7539C250.309 63.0742 249.457 63.2344 248.496 63.2344C247.535 63.2344 246.68 63.0742 245.93 62.7539C245.188 62.4336 244.559 61.9844 244.043 61.4062C243.535 60.8203 243.148 60.1367 242.883 59.3555C242.617 58.5664 242.484 57.7109 242.484 56.7891ZM245.859 56.543V56.7891C245.859 57.3203 245.906 57.8164 246 58.2773C246.094 58.7383 246.242 59.1445 246.445 59.4961C246.656 59.8398 246.93 60.1094 247.266 60.3047C247.602 60.5 248.012 60.5977 248.496 60.5977C248.965 60.5977 249.367 60.5 249.703 60.3047C250.039 60.1094 250.309 59.8398 250.512 59.4961C250.715 59.1445 250.863 58.7383 250.957 58.2773C251.059 57.8164 251.109 57.3203 251.109 56.7891V56.543C251.109 56.0273 251.059 55.543 250.957 55.0898C250.863 54.6289 250.711 54.2227 250.5 53.8711C250.297 53.5117 250.027 53.2305 249.691 53.0273C249.355 52.8242 248.949 52.7227 248.473 52.7227C247.996 52.7227 247.59 52.8242 247.254 53.0273C246.926 53.2305 246.656 53.5117 246.445 53.8711C246.242 54.2227 246.094 54.6289 246 55.0898C245.906 55.543 245.859 56.0273 245.859 56.543ZM262.781 50.3203V52.7109H255.398V50.3203H262.781ZM257.227 47.1914H260.602V59.1797C260.602 59.5469 260.648 59.8281 260.742 60.0234C260.844 60.2188 260.992 60.3555 261.188 60.4336C261.383 60.5039 261.629 60.5391 261.926 60.5391C262.137 60.5391 262.324 60.5312 262.488 60.5156C262.66 60.4922 262.805 60.4688 262.922 60.4453L262.934 62.9297C262.645 63.0234 262.332 63.0977 261.996 63.1523C261.66 63.207 261.289 63.2344 260.883 63.2344C260.141 63.2344 259.492 63.1133 258.938 62.8711C258.391 62.6211 257.969 62.2227 257.672 61.6758C257.375 61.1289 257.227 60.4102 257.227 59.5195V47.1914ZM270.539 63.2344C269.555 63.2344 268.672 63.0781 267.891 62.7656C267.109 62.4453 266.445 62.0039 265.898 61.4414C265.359 60.8789 264.945 60.2266 264.656 59.4844C264.367 58.7344 264.223 57.9375 264.223 57.0938V56.625C264.223 55.6641 264.359 54.7852 264.633 53.9883C264.906 53.1914 265.297 52.5 265.805 51.9141C266.32 51.3281 266.945 50.8789 267.68 50.5664C268.414 50.2461 269.242 50.0859 270.164 50.0859C271.062 50.0859 271.859 50.2344 272.555 50.5312C273.25 50.8281 273.832 51.25 274.301 51.7969C274.777 52.3438 275.137 53 275.379 53.7656C275.621 54.5234 275.742 55.3672 275.742 56.2969V57.7031H265.664V55.4531H272.426V55.1953C272.426 54.7266 272.34 54.3086 272.168 53.9414C272.004 53.5664 271.754 53.2695 271.418 53.0508C271.082 52.832 270.652 52.7227 270.129 52.7227C269.684 52.7227 269.301 52.8203 268.98 53.0156C268.66 53.2109 268.398 53.4844 268.195 53.8359C268 54.1875 267.852 54.6016 267.75 55.0781C267.656 55.5469 267.609 56.0625 267.609 56.625V57.0938C267.609 57.6016 267.68 58.0703 267.82 58.5C267.969 58.9297 268.176 59.3008 268.441 59.6133C268.715 59.9258 269.043 60.168 269.426 60.3398C269.816 60.5117 270.258 60.5977 270.75 60.5977C271.359 60.5977 271.926 60.4805 272.449 60.2461C272.98 60.0039 273.438 59.6406 273.82 59.1562L275.461 60.9375C275.195 61.3203 274.832 61.6875 274.371 62.0391C273.918 62.3906 273.371 62.6797 272.73 62.9062C272.09 63.125 271.359 63.2344 270.539 63.2344ZM290.004 59.4375L294.023 45.9375H297.938L291.996 63H289.418L290.004 59.4375ZM286.301 45.9375L290.309 59.4375L290.918 63H288.316L282.41 45.9375H286.301ZM298.242 56.7891V56.543C298.242 55.6133 298.375 54.7578 298.641 53.9766C298.906 53.1875 299.293 52.5039 299.801 51.9258C300.309 51.3477 300.934 50.8984 301.676 50.5781C302.418 50.25 303.27 50.0859 304.23 50.0859C305.191 50.0859 306.047 50.25 306.797 50.5781C307.547 50.8984 308.176 51.3477 308.684 51.9258C309.199 52.5039 309.59 53.1875 309.855 53.9766C310.121 54.7578 310.254 55.6133 310.254 56.543V56.7891C310.254 57.7109 310.121 58.5664 309.855 59.3555C309.59 60.1367 309.199 60.8203 308.684 61.4062C308.176 61.9844 307.551 62.4336 306.809 62.7539C306.066 63.0742 305.215 63.2344 304.254 63.2344C303.293 63.2344 302.438 63.0742 301.688 62.7539C300.945 62.4336 300.316 61.9844 299.801 61.4062C299.293 60.8203 298.906 60.1367 298.641 59.3555C298.375 58.5664 298.242 57.7109 298.242 56.7891ZM301.617 56.543V56.7891C301.617 57.3203 301.664 57.8164 301.758 58.2773C301.852 58.7383 302 59.1445 302.203 59.4961C302.414 59.8398 302.688 60.1094 303.023 60.3047C303.359 60.5 303.77 60.5977 304.254 60.5977C304.723 60.5977 305.125 60.5 305.461 60.3047C305.797 60.1094 306.066 59.8398 306.27 59.4961C306.473 59.1445 306.621 58.7383 306.715 58.2773C306.816 57.8164 306.867 57.3203 306.867 56.7891V56.543C306.867 56.0273 306.816 55.543 306.715 55.0898C306.621 54.6289 306.469 54.2227 306.258 53.8711C306.055 53.5117 305.785 53.2305 305.449 53.0273C305.113 52.8242 304.707 52.7227 304.23 52.7227C303.754 52.7227 303.348 52.8242 303.012 53.0273C302.684 53.2305 302.414 53.5117 302.203 53.8711C302 54.2227 301.852 54.6289 301.758 55.0898C301.664 55.543 301.617 56.0273 301.617 56.543ZM318.539 50.3203V52.7109H311.156V50.3203H318.539ZM312.984 47.1914H316.359V59.1797C316.359 59.5469 316.406 59.8281 316.5 60.0234C316.602 60.2188 316.75 60.3555 316.945 60.4336C317.141 60.5039 317.387 60.5391 317.684 60.5391C317.895 60.5391 318.082 60.5312 318.246 60.5156C318.418 60.4922 318.562 60.4688 318.68 60.4453L318.691 62.9297C318.402 63.0234 318.09 63.0977 317.754 63.1523C317.418 63.207 317.047 63.2344 316.641 63.2344C315.898 63.2344 315.25 63.1133 314.695 62.8711C314.148 62.6211 313.727 62.2227 313.43 61.6758C313.133 61.1289 312.984 60.4102 312.984 59.5195V47.1914ZM324.023 50.3203V63H320.637V50.3203H324.023ZM320.426 47.0156C320.426 46.5234 320.598 46.1172 320.941 45.7969C321.285 45.4766 321.746 45.3164 322.324 45.3164C322.895 45.3164 323.352 45.4766 323.695 45.7969C324.047 46.1172 324.223 46.5234 324.223 47.0156C324.223 47.5078 324.047 47.9141 323.695 48.2344C323.352 48.5547 322.895 48.7148 322.324 48.7148C321.746 48.7148 321.285 48.5547 320.941 48.2344C320.598 47.9141 320.426 47.5078 320.426 47.0156ZM330.117 53.0273V63H326.742V50.3203H329.906L330.117 53.0273ZM329.625 56.2148H328.711C328.711 55.2773 328.832 54.4336 329.074 53.6836C329.316 52.9258 329.656 52.2812 330.094 51.75C330.531 51.2109 331.051 50.8008 331.652 50.5195C332.262 50.2305 332.941 50.0859 333.691 50.0859C334.285 50.0859 334.828 50.1719 335.32 50.3438C335.812 50.5156 336.234 50.7891 336.586 51.1641C336.945 51.5391 337.219 52.0352 337.406 52.6523C337.602 53.2695 337.699 54.0234 337.699 54.9141V63H334.301V54.9023C334.301 54.3398 334.223 53.9023 334.066 53.5898C333.91 53.2773 333.68 53.0586 333.375 52.9336C333.078 52.8008 332.711 52.7344 332.273 52.7344C331.82 52.7344 331.426 52.8242 331.09 53.0039C330.762 53.1836 330.488 53.4336 330.27 53.7539C330.059 54.0664 329.898 54.4336 329.789 54.8555C329.68 55.2773 329.625 55.7305 329.625 56.2148ZM348.293 50.3203H351.352V62.5781C351.352 63.7344 351.094 64.7148 350.578 65.5195C350.07 66.332 349.359 66.9453 348.445 67.3594C347.531 67.7812 346.469 67.9922 345.258 67.9922C344.727 67.9922 344.164 67.9219 343.57 67.7812C342.984 67.6406 342.422 67.4219 341.883 67.125C341.352 66.8281 340.906 66.4531 340.547 66L342.035 64.0078C342.426 64.4609 342.879 64.8125 343.395 65.0625C343.91 65.3203 344.48 65.4492 345.105 65.4492C345.715 65.4492 346.23 65.3359 346.652 65.1094C347.074 64.8906 347.398 64.5664 347.625 64.1367C347.852 63.7148 347.965 63.2031 347.965 62.6016V53.25L348.293 50.3203ZM339.762 56.8125V56.5664C339.762 55.5977 339.879 54.7188 340.113 53.9297C340.355 53.1328 340.695 52.4492 341.133 51.8789C341.578 51.3086 342.117 50.8672 342.75 50.5547C343.383 50.2422 344.098 50.0859 344.895 50.0859C345.738 50.0859 346.445 50.2422 347.016 50.5547C347.586 50.8672 348.055 51.3125 348.422 51.8906C348.789 52.4609 349.074 53.1367 349.277 53.918C349.488 54.6914 349.652 55.5391 349.77 56.4609V57C349.652 57.8828 349.477 58.7031 349.242 59.4609C349.008 60.2188 348.699 60.8828 348.316 61.4531C347.934 62.0156 347.457 62.4531 346.887 62.7656C346.324 63.0781 345.652 63.2344 344.871 63.2344C344.09 63.2344 343.383 63.0742 342.75 62.7539C342.125 62.4336 341.59 61.9844 341.145 61.4062C340.699 60.8281 340.355 60.1484 340.113 59.3672C339.879 58.5859 339.762 57.7344 339.762 56.8125ZM343.137 56.5664V56.8125C343.137 57.3359 343.188 57.8242 343.289 58.2773C343.391 58.7305 343.547 59.1328 343.758 59.4844C343.977 59.8281 344.246 60.0977 344.566 60.293C344.895 60.4805 345.281 60.5742 345.727 60.5742C346.344 60.5742 346.848 60.4453 347.238 60.1875C347.629 59.9219 347.922 59.5586 348.117 59.0977C348.312 58.6367 348.426 58.1055 348.457 57.5039V55.9688C348.441 55.4766 348.375 55.0352 348.258 54.6445C348.141 54.2461 347.977 53.9062 347.766 53.625C347.555 53.3438 347.281 53.125 346.945 52.9688C346.609 52.8125 346.211 52.7344 345.75 52.7344C345.305 52.7344 344.918 52.8359 344.59 53.0391C344.27 53.2344 344 53.5039 343.781 53.8477C343.57 54.1914 343.41 54.5977 343.301 55.0664C343.191 55.5273 343.137 56.0273 343.137 56.5664ZM369.047 58.5352C369.047 58.2305 369 57.957 368.906 57.7148C368.82 57.4648 368.656 57.2383 368.414 57.0352C368.172 56.8242 367.832 56.6172 367.395 56.4141C366.957 56.2109 366.391 56 365.695 55.7812C364.922 55.5312 364.188 55.25 363.492 54.9375C362.805 54.625 362.195 54.2617 361.664 53.8477C361.141 53.4258 360.727 52.9375 360.422 52.3828C360.125 51.8281 359.977 51.1836 359.977 50.4492C359.977 49.7383 360.133 49.0938 360.445 48.5156C360.758 47.9297 361.195 47.4297 361.758 47.0156C362.32 46.5938 362.984 46.2695 363.75 46.043C364.523 45.8164 365.371 45.7031 366.293 45.7031C367.551 45.7031 368.648 45.9297 369.586 46.3828C370.523 46.8359 371.25 47.457 371.766 48.2461C372.289 49.0352 372.551 49.9375 372.551 50.9531H369.059C369.059 50.4531 368.953 50.0156 368.742 49.6406C368.539 49.2578 368.227 48.957 367.805 48.7383C367.391 48.5195 366.867 48.4102 366.234 48.4102C365.625 48.4102 365.117 48.5039 364.711 48.6914C364.305 48.8711 364 49.1172 363.797 49.4297C363.594 49.7344 363.492 50.0781 363.492 50.4609C363.492 50.75 363.562 51.0117 363.703 51.2461C363.852 51.4805 364.07 51.6992 364.359 51.9023C364.648 52.1055 365.004 52.2969 365.426 52.4766C365.848 52.6562 366.336 52.832 366.891 53.0039C367.82 53.2852 368.637 53.6016 369.34 53.9531C370.051 54.3047 370.645 54.6992 371.121 55.1367C371.598 55.5742 371.957 56.0703 372.199 56.625C372.441 57.1797 372.562 57.8086 372.562 58.5117C372.562 59.2539 372.418 59.918 372.129 60.5039C371.84 61.0898 371.422 61.5859 370.875 61.9922C370.328 62.3984 369.676 62.707 368.918 62.918C368.16 63.1289 367.312 63.2344 366.375 63.2344C365.531 63.2344 364.699 63.125 363.879 62.9062C363.059 62.6797 362.312 62.3398 361.641 61.8867C360.977 61.4336 360.445 60.8555 360.047 60.1523C359.648 59.4492 359.449 58.6172 359.449 57.6562H362.977C362.977 58.1875 363.059 58.6367 363.223 59.0039C363.387 59.3711 363.617 59.668 363.914 59.8945C364.219 60.1211 364.578 60.2852 364.992 60.3867C365.414 60.4883 365.875 60.5391 366.375 60.5391C366.984 60.5391 367.484 60.4531 367.875 60.2812C368.273 60.1094 368.566 59.8711 368.754 59.5664C368.949 59.2617 369.047 58.918 369.047 58.5352ZM378.504 61.5703L381.867 50.3203H385.488L380.391 64.9102C380.281 65.2305 380.133 65.5742 379.945 65.9414C379.766 66.3086 379.52 66.6562 379.207 66.9844C378.902 67.3203 378.516 67.5938 378.047 67.8047C377.586 68.0156 377.02 68.1211 376.348 68.1211C376.027 68.1211 375.766 68.1016 375.562 68.0625C375.359 68.0234 375.117 67.9688 374.836 67.8984V65.4258C374.922 65.4258 375.012 65.4258 375.105 65.4258C375.199 65.4336 375.289 65.4375 375.375 65.4375C375.82 65.4375 376.184 65.3867 376.465 65.2852C376.746 65.1836 376.973 65.0273 377.145 64.8164C377.316 64.6133 377.453 64.3477 377.555 64.0195L378.504 61.5703ZM377.098 50.3203L379.852 59.5078L380.332 63.082L378.035 63.3281L373.477 50.3203H377.098ZM393.691 59.4961C393.691 59.2539 393.621 59.0352 393.48 58.8398C393.34 58.6445 393.078 58.4648 392.695 58.3008C392.32 58.1289 391.777 57.9727 391.066 57.832C390.426 57.6914 389.828 57.5156 389.273 57.3047C388.727 57.0859 388.25 56.8242 387.844 56.5195C387.445 56.2148 387.133 55.8555 386.906 55.4414C386.68 55.0195 386.566 54.5391 386.566 54C386.566 53.4688 386.68 52.9688 386.906 52.5C387.141 52.0312 387.473 51.6172 387.902 51.2578C388.34 50.8906 388.871 50.6055 389.496 50.4023C390.129 50.1914 390.84 50.0859 391.629 50.0859C392.73 50.0859 393.676 50.2617 394.465 50.6133C395.262 50.9648 395.871 51.4492 396.293 52.0664C396.723 52.6758 396.938 53.3711 396.938 54.1523H393.562C393.562 53.8242 393.492 53.5312 393.352 53.2734C393.219 53.0078 393.008 52.8008 392.719 52.6523C392.438 52.4961 392.07 52.418 391.617 52.418C391.242 52.418 390.918 52.4844 390.645 52.6172C390.371 52.7422 390.16 52.9141 390.012 53.1328C389.871 53.3438 389.801 53.5781 389.801 53.8359C389.801 54.0312 389.84 54.207 389.918 54.3633C390.004 54.5117 390.141 54.6484 390.328 54.7734C390.516 54.8984 390.758 55.0156 391.055 55.125C391.359 55.2266 391.734 55.3203 392.18 55.4062C393.094 55.5938 393.91 55.8398 394.629 56.1445C395.348 56.4414 395.918 56.8477 396.34 57.3633C396.762 57.8711 396.973 58.5391 396.973 59.3672C396.973 59.9297 396.848 60.4453 396.598 60.9141C396.348 61.3828 395.988 61.793 395.52 62.1445C395.051 62.4883 394.488 62.7578 393.832 62.9531C393.184 63.1406 392.453 63.2344 391.641 63.2344C390.461 63.2344 389.461 63.0234 388.641 62.6016C387.828 62.1797 387.211 61.6445 386.789 60.9961C386.375 60.3398 386.168 59.668 386.168 58.9805H389.367C389.383 59.4414 389.5 59.8125 389.719 60.0938C389.945 60.375 390.23 60.5781 390.574 60.7031C390.926 60.8281 391.305 60.8906 391.711 60.8906C392.148 60.8906 392.512 60.832 392.801 60.7148C393.09 60.5898 393.309 60.4258 393.457 60.2227C393.613 60.0117 393.691 59.7695 393.691 59.4961ZM405.375 50.3203V52.7109H397.992V50.3203H405.375ZM399.82 47.1914H403.195V59.1797C403.195 59.5469 403.242 59.8281 403.336 60.0234C403.438 60.2188 403.586 60.3555 403.781 60.4336C403.977 60.5039 404.223 60.5391 404.52 60.5391C404.73 60.5391 404.918 60.5312 405.082 60.5156C405.254 60.4922 405.398 60.4688 405.516 60.4453L405.527 62.9297C405.238 63.0234 404.926 63.0977 404.59 63.1523C404.254 63.207 403.883 63.2344 403.477 63.2344C402.734 63.2344 402.086 63.1133 401.531 62.8711C400.984 62.6211 400.562 62.2227 400.266 61.6758C399.969 61.1289 399.82 60.4102 399.82 59.5195V47.1914ZM413.133 63.2344C412.148 63.2344 411.266 63.0781 410.484 62.7656C409.703 62.4453 409.039 62.0039 408.492 61.4414C407.953 60.8789 407.539 60.2266 407.25 59.4844C406.961 58.7344 406.816 57.9375 406.816 57.0938V56.625C406.816 55.6641 406.953 54.7852 407.227 53.9883C407.5 53.1914 407.891 52.5 408.398 51.9141C408.914 51.3281 409.539 50.8789 410.273 50.5664C411.008 50.2461 411.836 50.0859 412.758 50.0859C413.656 50.0859 414.453 50.2344 415.148 50.5312C415.844 50.8281 416.426 51.25 416.895 51.7969C417.371 52.3438 417.73 53 417.973 53.7656C418.215 54.5234 418.336 55.3672 418.336 56.2969V57.7031H408.258V55.4531H415.02V55.1953C415.02 54.7266 414.934 54.3086 414.762 53.9414C414.598 53.5664 414.348 53.2695 414.012 53.0508C413.676 52.832 413.246 52.7227 412.723 52.7227C412.277 52.7227 411.895 52.8203 411.574 53.0156C411.254 53.2109 410.992 53.4844 410.789 53.8359C410.594 54.1875 410.445 54.6016 410.344 55.0781C410.25 55.5469 410.203 56.0625 410.203 56.625V57.0938C410.203 57.6016 410.273 58.0703 410.414 58.5C410.562 58.9297 410.77 59.3008 411.035 59.6133C411.309 59.9258 411.637 60.168 412.02 60.3398C412.41 60.5117 412.852 60.5977 413.344 60.5977C413.953 60.5977 414.52 60.4805 415.043 60.2461C415.574 60.0039 416.031 59.6406 416.414 59.1562L418.055 60.9375C417.789 61.3203 417.426 61.6875 416.965 62.0391C416.512 62.3906 415.965 62.6797 415.324 62.9062C414.684 63.125 413.953 63.2344 413.133 63.2344ZM423.633 52.9453V63H420.246V50.3203H423.422L423.633 52.9453ZM423.164 56.2148H422.227C422.227 55.332 422.332 54.5195 422.543 53.7773C422.762 53.0273 423.078 52.3789 423.492 51.832C423.914 51.2773 424.434 50.8477 425.051 50.543C425.668 50.2383 426.383 50.0859 427.195 50.0859C427.758 50.0859 428.273 50.1719 428.742 50.3438C429.211 50.5078 429.613 50.7695 429.949 51.1289C430.293 51.4805 430.559 51.9414 430.746 52.5117C430.934 53.0742 431.027 53.75 431.027 54.5391V63H427.652V54.9141C427.652 54.3359 427.574 53.8906 427.418 53.5781C427.262 53.2656 427.039 53.0469 426.75 52.9219C426.469 52.7969 426.129 52.7344 425.73 52.7344C425.293 52.7344 424.91 52.8242 424.582 53.0039C424.262 53.1836 423.996 53.4336 423.785 53.7539C423.574 54.0664 423.418 54.4336 423.316 54.8555C423.215 55.2773 423.164 55.7305 423.164 56.2148ZM430.711 55.8281L429.504 55.9805C429.504 55.1523 429.605 54.3828 429.809 53.6719C430.02 52.9609 430.328 52.3359 430.734 51.7969C431.148 51.2578 431.66 50.8398 432.27 50.543C432.879 50.2383 433.582 50.0859 434.379 50.0859C434.988 50.0859 435.543 50.1758 436.043 50.3555C436.543 50.5273 436.969 50.8047 437.32 51.1875C437.68 51.5625 437.953 52.0547 438.141 52.6641C438.336 53.2734 438.434 54.0195 438.434 54.9023V63H435.047V54.9023C435.047 54.3164 434.969 53.8711 434.812 53.5664C434.664 53.2539 434.445 53.0391 434.156 52.9219C433.875 52.7969 433.539 52.7344 433.148 52.7344C432.742 52.7344 432.387 52.8164 432.082 52.9805C431.777 53.1367 431.523 53.3555 431.32 53.6367C431.117 53.918 430.965 54.2461 430.863 54.6211C430.762 54.9883 430.711 55.3906 430.711 55.8281Z" fill="#888888"/>
<path d="M110.062 92.0469L101.742 119H92.9062L105.445 84.875H111.047L110.062 92.0469ZM116.953 119L108.609 92.0469L107.531 84.875H113.203L125.812 119H116.953ZM116.625 106.273V112.625H99.1173V106.273H116.625ZM137.062 84.875V119H128.859V84.875H137.062ZM157.898 101.234V107.352H143.812V101.234H157.898ZM178.078 107.422H169.594V101.07H178.078C179.234 101.07 180.172 100.875 180.891 100.484C181.609 100.094 182.133 99.5547 182.461 98.8672C182.805 98.1641 182.977 97.375 182.977 96.5C182.977 95.5625 182.805 94.6953 182.461 93.8984C182.133 93.1016 181.609 92.4609 180.891 91.9766C180.172 91.4766 179.234 91.2266 178.078 91.2266H172.688V119H164.461V84.875H178.078C180.812 84.875 183.164 85.375 185.133 86.375C187.117 87.375 188.641 88.75 189.703 90.5C190.766 92.2344 191.297 94.2188 191.297 96.4531C191.297 98.6562 190.766 100.578 189.703 102.219C188.641 103.859 187.117 105.141 185.133 106.062C183.164 106.969 180.812 107.422 178.078 107.422ZM194.039 106.578V106.086C194.039 104.227 194.305 102.516 194.836 100.953C195.367 99.375 196.148 98.0078 197.18 96.8516C198.211 95.6953 199.484 94.7969 201 94.1562C202.516 93.5 204.266 93.1719 206.25 93.1719C208.25 93.1719 210.008 93.5 211.523 94.1562C213.055 94.7969 214.336 95.6953 215.367 96.8516C216.398 98.0078 217.18 99.375 217.711 100.953C218.242 102.516 218.508 104.227 218.508 106.086V106.578C218.508 108.422 218.242 110.133 217.711 111.711C217.18 113.273 216.398 114.641 215.367 115.812C214.336 116.969 213.062 117.867 211.547 118.508C210.031 119.148 208.281 119.469 206.297 119.469C204.312 119.469 202.555 119.148 201.023 118.508C199.492 117.867 198.211 116.969 197.18 115.812C196.148 114.641 195.367 113.273 194.836 111.711C194.305 110.133 194.039 108.422 194.039 106.578ZM201.938 106.086V106.578C201.938 107.531 202.008 108.422 202.148 109.25C202.289 110.078 202.523 110.805 202.852 111.43C203.18 112.039 203.625 112.516 204.188 112.859C204.75 113.203 205.453 113.375 206.297 113.375C207.125 113.375 207.812 113.203 208.359 112.859C208.922 112.516 209.367 112.039 209.695 111.43C210.023 110.805 210.258 110.078 210.398 109.25C210.539 108.422 210.609 107.531 210.609 106.578V106.086C210.609 105.164 210.539 104.297 210.398 103.484C210.258 102.656 210.023 101.93 209.695 101.305C209.367 100.664 208.922 100.164 208.359 99.8047C207.797 99.4453 207.094 99.2656 206.25 99.2656C205.422 99.2656 204.727 99.4453 204.164 99.8047C203.617 100.164 203.18 100.664 202.852 101.305C202.523 101.93 202.289 102.656 202.148 103.484C202.008 104.297 201.938 105.164 201.938 106.086ZM229.734 111.453L234.422 93.6406H239.367L237.609 102.57L232.969 119H229.008L229.734 111.453ZM227.883 93.6406L230.789 111.312L231.117 119H226.312L220.312 93.6406H227.883ZM243.539 110.938L246.469 93.6406H254.039L248.086 119H243.281L243.539 110.938ZM239.93 93.6406L244.664 111.406L245.391 119H241.383L236.836 102.617L235.148 93.6406H239.93ZM269.18 119.469C267.117 119.469 265.273 119.148 263.648 118.508C262.023 117.852 260.648 116.953 259.523 115.812C258.414 114.672 257.562 113.359 256.969 111.875C256.391 110.391 256.102 108.82 256.102 107.164V106.273C256.102 104.414 256.359 102.695 256.875 101.117C257.391 99.5234 258.156 98.1328 259.172 96.9453C260.188 95.7578 261.461 94.8359 262.992 94.1797C264.523 93.5078 266.305 93.1719 268.336 93.1719C270.133 93.1719 271.742 93.4609 273.164 94.0391C274.586 94.6172 275.789 95.4453 276.773 96.5234C277.773 97.6016 278.531 98.9062 279.047 100.438C279.578 101.969 279.844 103.688 279.844 105.594V108.805H259.125V103.859H272.133V103.25C272.148 102.406 272 101.688 271.688 101.094C271.391 100.5 270.953 100.047 270.375 99.7344C269.797 99.4219 269.094 99.2656 268.266 99.2656C267.406 99.2656 266.695 99.4531 266.133 99.8281C265.586 100.203 265.156 100.719 264.844 101.375C264.547 102.016 264.336 102.758 264.211 103.602C264.086 104.445 264.023 105.336 264.023 106.273V107.164C264.023 108.102 264.148 108.953 264.398 109.719C264.664 110.484 265.039 111.141 265.523 111.688C266.023 112.219 266.617 112.633 267.305 112.93C268.008 113.227 268.805 113.375 269.695 113.375C270.773 113.375 271.836 113.172 272.883 112.766C273.93 112.359 274.828 111.688 275.578 110.75L279.164 115.016C278.648 115.75 277.914 116.461 276.961 117.148C276.023 117.836 274.898 118.398 273.586 118.836C272.273 119.258 270.805 119.469 269.18 119.469ZM291.023 99.9219V119H283.125V93.6406H290.508L291.023 99.9219ZM298.523 93.4531L298.383 100.789C298.07 100.758 297.648 100.719 297.117 100.672C296.586 100.625 296.141 100.602 295.781 100.602C294.859 100.602 294.062 100.711 293.391 100.93C292.734 101.133 292.188 101.445 291.75 101.867C291.328 102.273 291.016 102.789 290.812 103.414C290.625 104.039 290.539 104.766 290.555 105.594L289.125 104.656C289.125 102.953 289.289 101.406 289.617 100.016C289.961 98.6094 290.445 97.3984 291.07 96.3828C291.695 95.3516 292.453 94.5625 293.344 94.0156C294.234 93.4531 295.234 93.1719 296.344 93.1719C296.734 93.1719 297.117 93.1953 297.492 93.2422C297.883 93.2891 298.227 93.3594 298.523 93.4531ZM313.055 119.469C310.992 119.469 309.148 119.148 307.523 118.508C305.898 117.852 304.523 116.953 303.398 115.812C302.289 114.672 301.438 113.359 300.844 111.875C300.266 110.391 299.977 108.82 299.977 107.164V106.273C299.977 104.414 300.234 102.695 300.75 101.117C301.266 99.5234 302.031 98.1328 303.047 96.9453C304.062 95.7578 305.336 94.8359 306.867 94.1797C308.398 93.5078 310.18 93.1719 312.211 93.1719C314.008 93.1719 315.617 93.4609 317.039 94.0391C318.461 94.6172 319.664 95.4453 320.648 96.5234C321.648 97.6016 322.406 98.9062 322.922 100.438C323.453 101.969 323.719 103.688 323.719 105.594V108.805H303V103.859H316.008V103.25C316.023 102.406 315.875 101.688 315.562 101.094C315.266 100.5 314.828 100.047 314.25 99.7344C313.672 99.4219 312.969 99.2656 312.141 99.2656C311.281 99.2656 310.57 99.4531 310.008 99.8281C309.461 100.203 309.031 100.719 308.719 101.375C308.422 102.016 308.211 102.758 308.086 103.602C307.961 104.445 307.898 105.336 307.898 106.273V107.164C307.898 108.102 308.023 108.953 308.273 109.719C308.539 110.484 308.914 111.141 309.398 111.688C309.898 112.219 310.492 112.633 311.18 112.93C311.883 113.227 312.68 113.375 313.57 113.375C314.648 113.375 315.711 113.172 316.758 112.766C317.805 112.359 318.703 111.688 319.453 110.75L323.039 115.016C322.523 115.75 321.789 116.461 320.836 117.148C319.898 117.836 318.773 118.398 317.461 118.836C316.148 119.258 314.68 119.469 313.055 119.469ZM341.508 113.188V83H349.453V119H342.328L341.508 113.188ZM325.945 106.625V106.133C325.945 104.211 326.156 102.461 326.578 100.883C327 99.2891 327.625 97.9219 328.453 96.7812C329.281 95.625 330.312 94.7344 331.547 94.1094C332.781 93.4844 334.203 93.1719 335.812 93.1719C337.25 93.1719 338.508 93.5078 339.586 94.1797C340.664 94.8359 341.586 95.7578 342.352 96.9453C343.117 98.1328 343.742 99.5234 344.227 101.117C344.711 102.695 345.078 104.398 345.328 106.227V106.812C345.078 108.531 344.711 110.156 344.227 111.688C343.742 113.203 343.117 114.547 342.352 115.719C341.586 116.891 340.656 117.812 339.562 118.484C338.484 119.141 337.219 119.469 335.766 119.469C334.156 119.469 332.734 119.148 331.5 118.508C330.281 117.867 329.258 116.969 328.43 115.812C327.617 114.656 327 113.297 326.578 111.734C326.156 110.172 325.945 108.469 325.945 106.625ZM333.844 106.133V106.625C333.844 107.578 333.906 108.461 334.031 109.273C334.156 110.086 334.367 110.805 334.664 111.43C334.977 112.039 335.383 112.516 335.883 112.859C336.398 113.203 337.031 113.375 337.781 113.375C338.797 113.375 339.633 113.133 340.289 112.648C340.961 112.164 341.453 111.477 341.766 110.586C342.094 109.695 342.234 108.648 342.188 107.445V105.594C342.219 104.562 342.148 103.656 341.977 102.875C341.805 102.078 341.531 101.414 341.156 100.883C340.797 100.352 340.336 99.9531 339.773 99.6875C339.227 99.4062 338.578 99.2656 337.828 99.2656C337.094 99.2656 336.469 99.4375 335.953 99.7812C335.453 100.125 335.047 100.609 334.734 101.234C334.422 101.844 334.195 102.57 334.055 103.414C333.914 104.242 333.844 105.148 333.844 106.133ZM380.719 92.0469L372.398 119H363.562L376.102 84.875H381.703L380.719 92.0469ZM387.609 119L379.266 92.0469L378.188 84.875H383.859L396.469 119H387.609ZM387.281 106.273V112.625H369.773V106.273H387.281ZM405.445 98.5156V128.75H397.547V93.6406H404.906L405.445 98.5156ZM421.008 106.016V106.508C421.008 108.352 420.797 110.062 420.375 111.641C419.953 113.219 419.328 114.594 418.5 115.766C417.672 116.938 416.641 117.852 415.406 118.508C414.188 119.148 412.773 119.469 411.164 119.469C409.648 119.469 408.344 119.133 407.25 118.461C406.156 117.789 405.242 116.859 404.508 115.672C403.773 114.484 403.18 113.125 402.727 111.594C402.273 110.062 401.914 108.445 401.648 106.742V106.109C401.914 104.281 402.273 102.586 402.727 101.023C403.18 99.4453 403.773 98.0703 404.508 96.8984C405.242 95.7266 406.148 94.8125 407.227 94.1562C408.32 93.5 409.625 93.1719 411.141 93.1719C412.75 93.1719 414.164 93.4766 415.383 94.0859C416.617 94.6953 417.648 95.5703 418.477 96.7109C419.32 97.8359 419.953 99.1875 420.375 100.766C420.797 102.344 421.008 104.094 421.008 106.016ZM413.109 106.508V106.016C413.109 105.031 413.039 104.133 412.898 103.32C412.758 102.492 412.531 101.773 412.219 101.164C411.922 100.555 411.523 100.086 411.023 99.7578C410.523 99.4297 409.906 99.2656 409.172 99.2656C408.328 99.2656 407.617 99.3984 407.039 99.6641C406.477 99.9141 406.023 100.305 405.68 100.836C405.352 101.352 405.117 102 404.977 102.781C404.852 103.547 404.797 104.445 404.812 105.477V107.398C404.781 108.586 404.898 109.633 405.164 110.539C405.43 111.43 405.891 112.125 406.547 112.625C407.203 113.125 408.094 113.375 409.219 113.375C409.969 113.375 410.594 113.203 411.094 112.859C411.594 112.5 411.992 112.008 412.289 111.383C412.586 110.742 412.797 110.008 412.922 109.18C413.047 108.352 413.109 107.461 413.109 106.508ZM432.492 98.5156V128.75H424.594V93.6406H431.953L432.492 98.5156ZM448.055 106.016V106.508C448.055 108.352 447.844 110.062 447.422 111.641C447 113.219 446.375 114.594 445.547 115.766C444.719 116.938 443.688 117.852 442.453 118.508C441.234 119.148 439.82 119.469 438.211 119.469C436.695 119.469 435.391 119.133 434.297 118.461C433.203 117.789 432.289 116.859 431.555 115.672C430.82 114.484 430.227 113.125 429.773 111.594C429.32 110.062 428.961 108.445 428.695 106.742V106.109C428.961 104.281 429.32 102.586 429.773 101.023C430.227 99.4453 430.82 98.0703 431.555 96.8984C432.289 95.7266 433.195 94.8125 434.273 94.1562C435.367 93.5 436.672 93.1719 438.188 93.1719C439.797 93.1719 441.211 93.4766 442.43 94.0859C443.664 94.6953 444.695 95.5703 445.523 96.7109C446.367 97.8359 447 99.1875 447.422 100.766C447.844 102.344 448.055 104.094 448.055 106.016ZM440.156 106.508V106.016C440.156 105.031 440.086 104.133 439.945 103.32C439.805 102.492 439.578 101.773 439.266 101.164C438.969 100.555 438.57 100.086 438.07 99.7578C437.57 99.4297 436.953 99.2656 436.219 99.2656C435.375 99.2656 434.664 99.3984 434.086 99.6641C433.523 99.9141 433.07 100.305 432.727 100.836C432.398 101.352 432.164 102 432.023 102.781C431.898 103.547 431.844 104.445 431.859 105.477V107.398C431.828 108.586 431.945 109.633 432.211 110.539C432.477 111.43 432.938 112.125 433.594 112.625C434.25 113.125 435.141 113.375 436.266 113.375C437.016 113.375 437.641 113.203 438.141 112.859C438.641 112.5 439.039 112.008 439.336 111.383C439.633 110.742 439.844 110.008 439.969 109.18C440.094 108.352 440.156 107.461 440.156 106.508Z" fill="black"/>
<path d="M1134 0H1348C1356.28 0 1363 6.71573 1363 15V148C1363 156.284 1356.28 163 1348 163H1134V0Z" fill="#1B4798"/>
<path d="M1248.5 70.1666V58.8333H1237.17" stroke="white" stroke-width="5" stroke-linecap="round" stroke-linejoin="round"/>
<path d="M1265.5 70.1667H1231.5C1228.37 70.1667 1225.83 72.7037 1225.83 75.8334V98.5C1225.83 101.63 1228.37 104.167 1231.5 104.167H1265.5C1268.63 104.167 1271.17 101.63 1271.17 98.5V75.8334C1271.17 72.7037 1268.63 70.1667 1265.5 70.1667Z" stroke="white" stroke-width="5" stroke-linecap="round" stroke-linejoin="round"/>
<path d="M1220.17 87.1667H1225.83" stroke="white" stroke-width="5" stroke-linecap="round" stroke-linejoin="round"/>
<path d="M1271.17 87.1667H1276.83" stroke="white" stroke-width="5" stroke-linecap="round" stroke-linejoin="round"/>
<path d="M1257 84.3333V90" stroke="white" stroke-width="5" stroke-linecap="round" stroke-linejoin="round"/>
<path d="M1240 84.3333V90" stroke="white" stroke-width="5" stroke-linecap="round" stroke-linejoin="round"/>
</g>
<defs>
<clipPath id="clip0_475_354">
<rect width="1363" height="163" fill="white"/>
</clipPath>
</defs>
</svg>
